<svg id="_3GP" data-name="3GP" xmlns="http://www.w3.org/2000/svg" width="24" height="24" viewBox="0 0 24 24">
  <path id="Path_54276" d="M13.8,2.3H4A1.216,1.216,0,0,0,2.8,3.5V19.6A1.216,1.216,0,0,0,4,20.8H17.9a1.216,1.216,0,0,0,1.2-1.2V8.5" fill="#f0f0f0" stroke="#bbbdbf" stroke-width="1"/>
  <rect id="Rectangle_18362_00000154411819100904164030000015771137690974771606_" width="24" height="24" fill="none"/>
  <path id="Path_54273" d="M15,8.5a1.216,1.216,0,0,1-1.2-1.2v-5H4A1.216,1.216,0,0,0,2.8,3.5V19.6A1.216,1.216,0,0,0,4,20.8H17.9a1.216,1.216,0,0,0,1.2-1.2V8.5Z" fill="none"/>
  <path id="Path_54274" d="M14.2,8.2V2.9l4.5,5.3Z" fill="#bbbdbf"/>
  <path id="Path_54275" d="M14.5,3.8,18,7.9H14.5V3.8m-.7-2V8.5h5.8Z" fill="#bbbdbf"/>
  <g id="Layer_2_00000041997405787208299010000000974437217311144085_">
    <g id="Rectangle_18362">
      <rect id="Rectangle_23525" data-name="Rectangle 23525" width="24" height="24" fill="none"/>
    </g>
  </g>
  <path id="Path_62924" data-name="Path 62924" d="M19.7,21.6H3.5a1.367,1.367,0,0,1-1.4-1.4V11.9a1.367,1.367,0,0,1,1.4-1.4H19.8a1.367,1.367,0,0,1,1.4,1.4v8.3A1.453,1.453,0,0,1,19.7,21.6Z" fill="#545454"/>
  <path id="Path_62952" data-name="Path 62952" d="M3.579-3.879a1.176,1.176,0,0,1-.284.8,1.47,1.47,0,0,1-.8.451v.021a1.591,1.591,0,0,1,.916.367,1.029,1.029,0,0,1,.311.788A1.335,1.335,0,0,1,3.2-.333a2.411,2.411,0,0,1-1.494.4A3.627,3.627,0,0,1,.267-.2v-.9a3.26,3.26,0,0,0,.639.239,2.69,2.69,0,0,0,.69.092,1.343,1.343,0,0,0,.772-.178.652.652,0,0,0,.25-.571.516.516,0,0,0-.287-.5,2.124,2.124,0,0,0-.916-.147H1.036v-.81h.386a1.8,1.8,0,0,0,.849-.152.549.549,0,0,0,.268-.521q0-.567-.711-.567a1.627,1.627,0,0,0-.5.082,2.446,2.446,0,0,0-.566.284L.273-4.577A2.716,2.716,0,0,1,1.9-5.069a2.105,2.105,0,0,1,1.225.314A1.009,1.009,0,0,1,3.579-3.879ZM6.521-2.806H8.5V-.215A5.589,5.589,0,0,1,7.6.005a5.911,5.911,0,0,1-.87.063A2.2,2.2,0,0,1,5-.6a2.766,2.766,0,0,1-.6-1.909,2.518,2.518,0,0,1,.692-1.887,2.628,2.628,0,0,1,1.919-.677A3.713,3.713,0,0,1,8.5-4.761l-.352.848a2.514,2.514,0,0,0-1.138-.273,1.406,1.406,0,0,0-1.1.461,1.79,1.79,0,0,0-.414,1.241,1.993,1.993,0,0,0,.333,1.242,1.153,1.153,0,0,0,.969.429,3.428,3.428,0,0,0,.673-.068V-1.924H6.521Zm4.231.161H11.1a1.161,1.161,0,0,0,.731-.193.676.676,0,0,0,.243-.562.693.693,0,0,0-.2-.55.953.953,0,0,0-.637-.178h-.482Zm2.393-.793a1.527,1.527,0,0,1-.5,1.234,2.156,2.156,0,0,1-1.434.427h-.455V0H9.693V-5h1.6a2.123,2.123,0,0,1,1.383.391A1.427,1.427,0,0,1,13.146-3.438Z" transform="translate(5.149 18.766)" fill="#fff"/>
</svg>
