<svg id="bmp" xmlns="http://www.w3.org/2000/svg" width="24" height="24" viewBox="0 0 24 24">
  <g id="Layer_2_00000041997405787208299010000000974437217311144085_">
    <rect id="Rectangle_18362" data-name="Rectangle 18362" width="24" height="24" fill="none"/>
  </g>
  <g id="Layer_4" transform="translate(0.054 -0.393)">
    <path id="Path_54273" data-name="Path 54273" d="M14.943,8.91a1.165,1.165,0,0,1-1.165-1.163V2.721H3.9A1.245,1.245,0,0,0,2.655,3.962V20.039A1.245,1.245,0,0,0,3.9,21.28H17.767a1.244,1.244,0,0,0,1.243-1.241V8.91Z" fill="#f0f0f0"/>
    <g id="Group_65280" data-name="Group 65280">
      <path id="Path_54274" data-name="Path 54274" d="M14.1,8.59V3.3l4.519,5.29Z" fill="#bbbdbf"/>
      <path id="Path_54275" data-name="Path 54275" d="M14.434,4.2,17.9,8.257H14.434V4.2m-.667-1.808v6.53h5.574Z" fill="#bbbdbf"/>
    </g>
    <path id="Path_54276" data-name="Path 54276" d="M13.777,2.721H3.9A1.245,1.245,0,0,0,2.655,3.962V20.039A1.245,1.245,0,0,0,3.9,21.279H17.767a1.244,1.244,0,0,0,1.243-1.241V8.91" fill="none" stroke="#bbbdbf" stroke-width="1"/>
    <path id="Path_54277" data-name="Path 54277" d="M19.645,21.985H3.357a1.411,1.411,0,0,1-1.411-1.411V12.291A1.411,1.411,0,0,1,3.357,10.88H19.644a1.411,1.411,0,0,1,1.411,1.411v8.284A1.411,1.411,0,0,1,19.645,21.985Z" fill="#7d6599"/>
    <path id="XMLID_00000173847018829198866470000007742571303851566512_" d="M.629-5H2.184a3,3,0,0,1,1.543.3,1.053,1.053,0,0,1,.48.962A1.212,1.212,0,0,1,4-3a.84.84,0,0,1-.559.345v.034a1.1,1.1,0,0,1,.685.4,1.29,1.29,0,0,1,.21.772A1.273,1.273,0,0,1,3.84-.383,2.136,2.136,0,0,1,2.5,0H.629Zm1.06,1.979H2.3a1.125,1.125,0,0,0,.624-.133.5.5,0,0,0,.193-.441A.441.441,0,0,0,2.91-4a1.351,1.351,0,0,0-.665-.125H1.688Zm0,.841v1.3h.69a1.024,1.024,0,0,0,.646-.167.618.618,0,0,0,.208-.513q0-.622-.889-.622ZM7.448,0l-1.2-3.92H6.214q.065,1.2.065,1.6V0H5.332V-5H6.774L7.957-1.176h.021L9.232-5h1.442V0H9.687V-2.365q0-.167.005-.386t.046-1.162H9.707L8.418,0Zm5.544-2.646h.349a1.161,1.161,0,0,0,.731-.193.676.676,0,0,0,.243-.562.693.693,0,0,0-.2-.55.953.953,0,0,0-.637-.178h-.482Zm2.393-.793a1.527,1.527,0,0,1-.5,1.234,2.156,2.156,0,0,1-1.434.427h-.455V0h-1.06V-5h1.6a2.123,2.123,0,0,1,1.383.391A1.427,1.427,0,0,1,15.384-3.438Z" transform="translate(3.597 19.159)" fill="#fff"/>
  </g>
</svg>
