<svg id="Layer_1" data-name="Layer 1" xmlns="http://www.w3.org/2000/svg" viewBox="0 0 200 200"><title>1</title><path d="M182.83,196H17A12.94,12.94,0,0,1,4.05,183.07V31.28H195.76V183.07A12.94,12.94,0,0,1,182.83,196ZM10.05,37.28V183.07A6.93,6.93,0,0,0,17,190H182.83a6.94,6.94,0,0,0,6.93-6.93V37.28Z"/><path d="M192.32,16.87H5.68A3.57,3.57,0,0,1,2,13.43,3.57,3.57,0,0,1,5.68,10H192.32A3.57,3.57,0,0,1,196,13.43,3.57,3.57,0,0,1,192.32,16.87Z"/><path d="M136.7,94.13a3.06,3.06,0,0,1-3.06,3.06H68.35a3.06,3.06,0,0,1,0-6.11h65.29A3.05,3.05,0,0,1,136.7,94.13Z"/></svg>