<?xml version="1.0" encoding="utf-8"?>
<!-- Generator: Adobe Illustrator 26.2.1, SVG Export Plug-In . SVG Version: 6.00 Build 0)  -->
<svg version="1.1" xmlns="http://www.w3.org/2000/svg" xmlns:xlink="http://www.w3.org/1999/xlink" x="0px" y="0px"
	 viewBox="0 0 16 16" style="enable-background:new 0 0 16 16;" xml:space="preserve">
<style type="text/css">
	.st0{fill:#FFFFFF;stroke:#000000;stroke-miterlimit:10;}
	.st1{fill:none;stroke:#000000;stroke-miterlimit:10;}
	.st2{fill:#F7931E;}
	.st3{fill:#FBB03B;}
	.st4{fill:#FFFFFF;}
	.st5{fill:none;}
	.st6{fill:#E27E1A;}
	.st7{fill:#29ABE2;}
	.st8{opacity:0.5;fill:#606060;}
	.st9{fill:none;stroke:#00FF00;stroke-miterlimit:10;}
	.st10{fill:#0072C6;}
	.st11{fill:#CEE01E;}
	.st12{fill:#F7584B;}
	.st13{fill:#56C5F4;}
	.st14{fill:#AEBE17;}
	.st15{fill:#999999;}
	.st16{fill:#B3B3B3;}
	.st17{fill:none;stroke:#CEE01E;stroke-width:1.5;stroke-miterlimit:10;}
	.st18{fill:#FFA631;}
	.st19{fill:#FBB03B;stroke:#FFFFFF;stroke-miterlimit:10;}
	.st20{fill:#606060;}
	.st21{fill:none;stroke:#606060;stroke-miterlimit:10;}
	.st22{fill:#FFFFFF;stroke:#606060;stroke-miterlimit:10;}
	.st23{fill:none;stroke:#FFFFFF;stroke-width:3;stroke-miterlimit:10;}
</style>
<g id="Layer_1">
	<g>
		<path class="st6" d="M13.0392,15H2.9608C2.4302,15,2,14.5698,2,14.0392V1.9608C2,1.4302,2.4302,1,2.9608,1h10.0785
			C13.5698,1,14,1.4302,14,1.9608v12.0785C14,14.5698,13.5698,15,13.0392,15z"/>
		<path class="st4" d="M11.4047,13.6563h-3.137c-0.5523,0-1-0.4477-1-1V3.7878c0-0.5523,0.4477-1,1-1h3.137c0.5523,0,1,0.4477,1,1
			v8.8686C12.4047,13.2086,11.957,13.6563,11.4047,13.6563z"/>
		<path class="st3" d="M9.2155,15H2.7845C2.3512,15,2,14.6488,2,14.2155V1.7845C2,1.3512,2.3512,1,2.7845,1h6.4311
			C9.6488,1,10,1.3512,10,1.7845v12.4311C10,14.6488,9.6488,15,9.2155,15z"/>
		<polygon class="st7" points="6.325,1 6.325,5.835 4.915,4.425 3.5,5.84 3.5,1 		"/>
	</g>
	<rect class="st5" width="16" height="16"/>
</g>
<g id="Layer_3">
</g>
<g id="Layer_2">
</g>
<g id="Layer_4">
</g>
<g id="Layer_5">
</g>
</svg>
