<svg id="File-CSS" xmlns="http://www.w3.org/2000/svg" width="24" height="24" viewBox="0 0 24 24">
  <path id="Path_54276" d="M13.8,2.3H4A1.216,1.216,0,0,0,2.8,3.5V19.6A1.216,1.216,0,0,0,4,20.8H17.9a1.216,1.216,0,0,0,1.2-1.2V8.5" fill="#f0f0f0" stroke="#bbbdbf" stroke-width="1"/>
  <rect id="Rectangle_18362" width="24" height="24" fill="none"/>
  <path id="Path_54273" d="M15,8.5a1.216,1.216,0,0,1-1.2-1.2v-5H4A1.216,1.216,0,0,0,2.8,3.5V19.6A1.216,1.216,0,0,0,4,20.8H17.9a1.216,1.216,0,0,0,1.2-1.2V8.5Z" fill="none"/>
  <path id="Path_54274" d="M14.2,8.2V2.9l4.5,5.3Z" fill="#bbbdbf"/>
  <path id="Path_54275" d="M14.5,3.8,18,7.9H14.5V3.8m-.7-2V8.5h5.8Z" fill="#bbbdbf"/>
  <path id="Path_54277" d="M19.7,21.6H3.4A1.367,1.367,0,0,1,2,20.2V11.9a1.367,1.367,0,0,1,1.4-1.4H19.7a1.367,1.367,0,0,1,1.4,1.4v8.3A1.367,1.367,0,0,1,19.7,21.6Z" fill="#545454"/>
  <path id="Path_62944" data-name="Path 62944" d="M3.145-4.785a1.234,1.234,0,0,0-1.059.514A2.39,2.39,0,0,0,1.711-2.84q0,1.91,1.434,1.91A4.532,4.532,0,0,0,4.6-1.23V-.215a4.046,4.046,0,0,1-1.57.293A2.4,2.4,0,0,1,1.125-.678a3.2,3.2,0,0,1-.66-2.17A3.543,3.543,0,0,1,.789-4.408a2.343,2.343,0,0,1,.932-1.027,2.756,2.756,0,0,1,1.424-.357,3.843,3.843,0,0,1,1.672.4l-.391.984a6.466,6.466,0,0,0-.645-.266A1.923,1.923,0,0,0,3.145-4.785Zm6.043,3.2A1.476,1.476,0,0,1,8.631-.367,2.418,2.418,0,0,1,7.082.078,3.637,3.637,0,0,1,5.465-.266V-1.391a6.664,6.664,0,0,0,.979.363,2.9,2.9,0,0,0,.732.105,1.041,1.041,0,0,0,.611-.152A.521.521,0,0,0,8-1.527a.5.5,0,0,0-.094-.3,1.049,1.049,0,0,0-.275-.252,7.083,7.083,0,0,0-.74-.387,3.509,3.509,0,0,1-.785-.473,1.774,1.774,0,0,1-.418-.527,1.5,1.5,0,0,1-.156-.7,1.476,1.476,0,0,1,.514-1.191,2.134,2.134,0,0,1,1.42-.434,3.353,3.353,0,0,1,.85.105,5.84,5.84,0,0,1,.846.3l-.391.941a5.715,5.715,0,0,0-.756-.262,2.433,2.433,0,0,0-.588-.074.778.778,0,0,0-.527.16.528.528,0,0,0-.184.418.517.517,0,0,0,.074.279.816.816,0,0,0,.236.23,7.307,7.307,0,0,0,.768.4,3.054,3.054,0,0,1,1.1.768A1.5,1.5,0,0,1,9.188-1.586Zm4.406,0a1.476,1.476,0,0,1-.557,1.219,2.418,2.418,0,0,1-1.549.445A3.637,3.637,0,0,1,9.871-.266V-1.391a6.664,6.664,0,0,0,.979.363,2.9,2.9,0,0,0,.732.105,1.041,1.041,0,0,0,.611-.152.521.521,0,0,0,.213-.453.5.5,0,0,0-.094-.3,1.049,1.049,0,0,0-.275-.252,7.083,7.083,0,0,0-.74-.387,3.509,3.509,0,0,1-.785-.473,1.774,1.774,0,0,1-.418-.527,1.5,1.5,0,0,1-.156-.7,1.476,1.476,0,0,1,.514-1.191,2.134,2.134,0,0,1,1.42-.434,3.353,3.353,0,0,1,.85.105,5.84,5.84,0,0,1,.846.3l-.391.941a5.715,5.715,0,0,0-.756-.262,2.433,2.433,0,0,0-.588-.074.778.778,0,0,0-.527.16.528.528,0,0,0-.184.418.517.517,0,0,0,.074.279.816.816,0,0,0,.236.23,7.307,7.307,0,0,0,.768.4,3.054,3.054,0,0,1,1.1.768A1.5,1.5,0,0,1,13.594-1.586Z" transform="translate(4.035 18.766)" fill="#fff"/>
</svg>
