<svg xmlns="http://www.w3.org/2000/svg" width="19.109" height="19.764" viewBox="0 0 19.109 19.764">
  <g id="Layer_4" transform="translate(-1.946 -2.221)">
    <path id="Path_54273" data-name="Path 54273" d="M14.943,8.91a1.165,1.165,0,0,1-1.165-1.163V2.721H3.9A1.245,1.245,0,0,0,2.655,3.962V20.039A1.245,1.245,0,0,0,3.9,21.28H17.767a1.244,1.244,0,0,0,1.243-1.241V8.91Z" fill="#f0f0f0"/>
    <g id="Group_65280" data-name="Group 65280">
      <path id="Path_54274" data-name="Path 54274" d="M14.1,8.59V3.3l4.519,5.29Z" fill="#bbbdbf"/>
      <path id="Path_54275" data-name="Path 54275" d="M14.434,4.2,17.9,8.257H14.434V4.2m-.667-1.808v6.53h5.574Z" fill="#bbbdbf"/>
    </g>
    <path id="Path_54276" data-name="Path 54276" d="M13.777,2.721H3.9A1.245,1.245,0,0,0,2.655,3.962V20.039A1.245,1.245,0,0,0,3.9,21.279H17.767a1.244,1.244,0,0,0,1.243-1.241V8.91" fill="none" stroke="#bbbdbf" stroke-width="1"/>
    <path id="Path_54277" data-name="Path 54277" d="M19.645,21.985H3.357a1.411,1.411,0,0,1-1.411-1.411V12.291A1.411,1.411,0,0,1,3.357,10.88H19.644a1.411,1.411,0,0,1,1.411,1.411v8.284A1.411,1.411,0,0,1,19.645,21.985Z" fill="#12b700"/>
    <path id="XMLID_00000173847018829198866470000007742571303851566512_" d="M3.145-4.785a1.234,1.234,0,0,0-1.059.514A2.39,2.39,0,0,0,1.711-2.84q0,1.91,1.434,1.91A4.532,4.532,0,0,0,4.6-1.23V-.215a4.046,4.046,0,0,1-1.57.293A2.4,2.4,0,0,1,1.125-.678a3.2,3.2,0,0,1-.66-2.17A3.543,3.543,0,0,1,.789-4.408a2.343,2.343,0,0,1,.932-1.027,2.756,2.756,0,0,1,1.424-.357,3.843,3.843,0,0,1,1.672.4l-.391.984a6.466,6.466,0,0,0-.645-.266A1.923,1.923,0,0,0,3.145-4.785Zm6.043,3.2A1.476,1.476,0,0,1,8.631-.367,2.418,2.418,0,0,1,7.082.078,3.637,3.637,0,0,1,5.465-.266V-1.391a6.664,6.664,0,0,0,.979.363,2.9,2.9,0,0,0,.732.105,1.041,1.041,0,0,0,.611-.152A.521.521,0,0,0,8-1.527a.5.5,0,0,0-.094-.3,1.049,1.049,0,0,0-.275-.252,7.083,7.083,0,0,0-.74-.387,3.509,3.509,0,0,1-.785-.473,1.774,1.774,0,0,1-.418-.527,1.5,1.5,0,0,1-.156-.7,1.476,1.476,0,0,1,.514-1.191,2.134,2.134,0,0,1,1.42-.434,3.353,3.353,0,0,1,.85.105,5.84,5.84,0,0,1,.846.3l-.391.941a5.715,5.715,0,0,0-.756-.262,2.433,2.433,0,0,0-.588-.074.778.778,0,0,0-.527.16.528.528,0,0,0-.184.418.517.517,0,0,0,.074.279.816.816,0,0,0,.236.23,7.307,7.307,0,0,0,.768.4,3.054,3.054,0,0,1,1.1.768A1.5,1.5,0,0,1,9.188-1.586ZM13.48-5.711H14.7L12.762,0h-1.32L9.5-5.711h1.223l1.074,3.4q.09.3.186.7t.119.557A10.005,10.005,0,0,1,12.4-2.312Z" transform="translate(4.094 19.159)" fill="#fff"/>
  </g>
</svg>
