<svg id="Document_Lock" data-name="Document Lock" xmlns="http://www.w3.org/2000/svg" width="24" height="24" viewBox="0 0 24 24">
  <g id="Group_75667" data-name="Group 75667">
    <g id="Subtraction_1_00000062182452639383008710000017137321306165968792_">
      <path id="Path_62915" data-name="Path 62915" d="M17.75,19.714H6.25a1,1,0,0,1-1-1V5.286a1,1,0,0,1,1-1h7.679V8.607a.5.5,0,0,0,.5.5H18.75v9.608A1,1,0,0,1,17.75,19.714Z" fill="#c4c4c4"/>
    </g>
    <g id="Path_54466_00000035500203205615140820000016957457003542911639_">
      <path id="Path_62916" data-name="Path 62916" d="M18.75,8.143H14.893V4.286Z" fill="#c4c4c4"/>
    </g>
  </g>
  <g id="Group_75668" data-name="Group 75668">
    <rect id="Rectangle_23524" data-name="Rectangle 23524" width="24" height="24" fill="none"/>
  </g>
  <g id="Layer_1_00000116928059743287755160000002873448745121866650_">
    <g id="Group_75669" data-name="Group 75669">
      <g id="Ellipse_3446_00000101822619163578111480000010255323753254868619_">
        <circle id="Ellipse_3887" data-name="Ellipse 3887" cx="5" cy="5" r="5" transform="translate(14 14)" fill="#fff"/>
      </g>
      <g id="Path_54817_00000019654747706456839060000004935784821019220646_">
        <path id="Path_62917" data-name="Path 62917" d="M21.071,18H20.82v-.7a1.772,1.772,0,0,0-1.741-1.8,1.721,1.721,0,0,0-1.741,1.7c0,.012,0,.024,0,.036V18h-.4a.581.581,0,0,0-.576.584V21.92a.579.579,0,0,0,.568.58h4.141a.578.578,0,0,0,.575-.579V18.585A.58.58,0,0,0,21.071,18Zm-1.348,2.378A.722.722,0,1,1,19,19.656.722.722,0,0,1,19.723,20.378Zm.356-3.078V18h-2v-.762a.987.987,0,0,1,.979-1h.021a1.028,1.028,0,0,1,1,1.055Z" fill="#0072c6"/>
      </g>
    </g>
  </g>
</svg>
