<svg xmlns="http://www.w3.org/2000/svg" width="19.109" height="19.558" viewBox="0 0 19.109 19.558">
  <g id="DOCX" transform="translate(-1.946 -2.221)">
    <path id="Path_54273" data-name="Path 54273" d="M14.943,8.91a1.165,1.165,0,0,1-1.165-1.163V2.721H3.9A1.245,1.245,0,0,0,2.655,3.962V20.039A1.245,1.245,0,0,0,3.9,21.28H17.767a1.244,1.244,0,0,0,1.243-1.241V8.91Z" fill="#f0f0f0"/>
    <g id="Group_65280" data-name="Group 65280">
      <path id="Path_54274" data-name="Path 54274" d="M14.1,8.59V3.3l4.519,5.29Z" fill="#bbbdbf"/>
      <path id="Path_54275" data-name="Path 54275" d="M14.434,4.2,17.9,8.257H14.434V4.2m-.667-1.808v6.53h5.574Z" fill="#bbbdbf"/>
    </g>
    <path id="Path_54276" data-name="Path 54276" d="M13.777,2.721H3.9A1.245,1.245,0,0,0,2.655,3.962V20.039A1.245,1.245,0,0,0,3.9,21.279H17.767a1.244,1.244,0,0,0,1.243-1.241V8.91" fill="none" stroke="#bbbdbf" stroke-width="1"/>
    <path id="Path_54277" data-name="Path 54277" d="M19.645,21.985H3.357a1.411,1.411,0,0,1-1.411-1.411V12.291A1.411,1.411,0,0,1,3.357,10.88H19.644a1.411,1.411,0,0,1,1.411,1.411v8.284A1.411,1.411,0,0,1,19.645,21.985Z" transform="translate(0 -0.487)" fill="#005cff"/>
    <path id="XMLID_00000173847018829198866470000007742571303851566512_" d="M4.093-2.183a2.109,2.109,0,0,1-.6,1.62A2.455,2.455,0,0,1,1.752,0H.539V-4.283H1.884a2.264,2.264,0,0,1,1.629.554A2.037,2.037,0,0,1,4.093-2.183Zm-.943.023q0-1.38-1.219-1.38H1.447V-.75h.39Q3.149-.75,3.149-2.159Zm5.719.012A2.324,2.324,0,0,1,8.341-.513,1.955,1.955,0,0,1,6.829.059,1.955,1.955,0,0,1,5.317-.513,2.333,2.333,0,0,1,4.79-2.153a2.3,2.3,0,0,1,.529-1.633,1.977,1.977,0,0,1,1.516-.564,1.95,1.95,0,0,1,1.51.568A2.33,2.33,0,0,1,8.868-2.147Zm-3.126,0a1.789,1.789,0,0,0,.272,1.081A.953.953,0,0,0,6.829-.7q1.087,0,1.087-1.444T6.835-3.595a.96.96,0,0,0-.817.365A1.782,1.782,0,0,0,5.742-2.147Zm5.833-1.441a.925.925,0,0,0-.794.385A1.792,1.792,0,0,0,10.5-2.13Q10.5-.7,11.575-.7a3.4,3.4,0,0,0,1.093-.226v.762a3.035,3.035,0,0,1-1.178.22,1.8,1.8,0,0,1-1.43-.567,2.4,2.4,0,0,1-.5-1.627,2.658,2.658,0,0,1,.243-1.17,1.757,1.757,0,0,1,.7-.771,2.067,2.067,0,0,1,1.068-.268,2.882,2.882,0,0,1,1.254.3l-.293.738a4.85,4.85,0,0,0-.483-.2A1.442,1.442,0,0,0,11.575-3.589ZM17.042,0H16l-1-1.62-1,1.62H13.04l1.421-2.209-1.33-2.074h1l.923,1.541.905-1.541h.979L15.595-2.159Z" transform="translate(3.425 18.393)" fill="#fff"/>
  </g>
</svg>