<svg id="Email" xmlns="http://www.w3.org/2000/svg" width="24" height="24" viewBox="0 0 24 24">
  <rect id="Rectangle_18362" width="24" height="24" fill="none"/>
  <path id="Path_54273" d="M15,8.517a1.165,1.165,0,0,1-1.165-1.163V2.328H3.954A1.245,1.245,0,0,0,2.709,3.569V19.646a1.245,1.245,0,0,0,1.245,1.241H17.821a1.244,1.244,0,0,0,1.243-1.241V8.517Z" fill="#f0f0f0"/>
  <g id="Group_65280">
    <path id="Path_54274" d="M14.154,8.2V2.907L18.673,8.2Z" fill="#bbbdbf"/>
    <path id="Path_54275" d="M14.488,3.807l3.466,4.057H14.488V3.807M13.821,2v6.53H19.4Z" fill="#bbbdbf"/>
  </g>
  <path id="Path_54276" d="M13.831,2.328H3.954A1.245,1.245,0,0,0,2.709,3.569V19.646a1.245,1.245,0,0,0,1.245,1.24H17.821a1.244,1.244,0,0,0,1.243-1.241V8.517" fill="none" stroke="#bbbdbf" stroke-width="1"/>
  <path id="Path_54277" d="M19.7,21.592H3.411A1.411,1.411,0,0,1,2,20.181V11.9a1.411,1.411,0,0,1,1.411-1.411H19.7A1.411,1.411,0,0,1,21.109,11.9v8.284A1.411,1.411,0,0,1,19.7,21.592Z" fill="#545454"/>
  <path id="Path_62939" data-name="Path 62939" d="M3.006,0H.539V-4.283H3.006v.744H1.447v.94H2.9v.744H1.447v1.1H3.006ZM6.762,0H5.868V-1.913a.964.964,0,0,0-.119-.532.417.417,0,0,0-.374-.177.541.541,0,0,0-.5.252,1.653,1.653,0,0,0-.155.829V0H3.829V-3.275h.683l.12.419h.05a.908.908,0,0,1,.381-.353,1.237,1.237,0,0,1,.571-.127,1.029,1.029,0,0,1,1,.48h.079A.885.885,0,0,1,7.1-3.211a1.3,1.3,0,0,1,.579-.126,1.142,1.142,0,0,1,.842.286,1.254,1.254,0,0,1,.286.916V0h-.9V-1.913a.964.964,0,0,0-.119-.532.417.417,0,0,0-.374-.177.557.557,0,0,0-.491.234,1.33,1.33,0,0,0-.163.744ZM11.8,0l-.173-.445H11.6a1.32,1.32,0,0,1-.464.394,1.5,1.5,0,0,1-.623.11,1.007,1.007,0,0,1-.743-.27A1.035,1.035,0,0,1,9.5-.979a.864.864,0,0,1,.365-.769,2.114,2.114,0,0,1,1.1-.274l.568-.018v-.144a.445.445,0,0,0-.51-.5,2.323,2.323,0,0,0-.923.237l-.3-.6a2.663,2.663,0,0,1,1.254-.3,1.562,1.562,0,0,1,1.011.287,1.061,1.061,0,0,1,.352.873V0Zm-.264-1.518-.346.012a1.107,1.107,0,0,0-.58.141.442.442,0,0,0-.19.393q0,.378.434.378a.687.687,0,0,0,.5-.179.628.628,0,0,0,.186-.475Zm1.77-2.6q0-.437.486-.437t.486.437a.426.426,0,0,1-.122.324.511.511,0,0,1-.365.116Q13.307-3.683,13.307-4.122ZM14.238,0h-.894V-3.275h.894Zm1.831,0h-.894V-4.559h.894Z" transform="translate(3.286 18.766)" fill="#fff"/>
</svg>
