<svg id="Layer_1" data-name="Layer 1" xmlns="http://www.w3.org/2000/svg" viewBox="0 0 60 60"><defs><style>.cls-1{fill:#dbd7d7;}.cls-2{fill:#b5b4b4;}.cls-3{fill:#c46eed;}.cls-4{fill:#fff;}</style></defs><title>Application icon</title><path class="cls-1" d="M49.92,56H8.08A2.15,2.15,0,0,1,6,53.79V2.21A2.15,2.15,0,0,1,8.08,0H36.49a2,2,0,0,1,1.34.52l6.66,6,6.72,5.67A2.27,2.27,0,0,1,52,13.94V53.79A2.15,2.15,0,0,1,49.92,56Z"/><path class="cls-2" d="M52,13H37.88a.87.87,0,0,1-.88-.88V0Z"/><path class="cls-3" d="M6,42H52a0,0,0,0,1,0,0V58.5A1.5,1.5,0,0,1,50.5,60H7.5A1.5,1.5,0,0,1,6,58.5V42A0,0,0,0,1,6,42Z"/><path class="cls-2" d="M44.14,16.5H14.36a1.86,1.86,0,0,0-1.86,1.86V36a1.85,1.85,0,0,0,1.86,1.85H44.14A1.85,1.85,0,0,0,46,36V18.36A1.86,1.86,0,0,0,44.14,16.5Zm0,1a.8.8,0,0,1,.34.07L31.42,26.11a2.7,2.7,0,0,1-2.77,0L14.48,17.5ZM45,36a.85.85,0,0,1-.86.85H14.36A.85.85,0,0,1,13.5,36V18.36a.58.58,0,0,1,.05-.26l14.58,8.84a3.75,3.75,0,0,0,1.92.53A3.81,3.81,0,0,0,32,27L45,18.42Z"/><path class="cls-4" d="M20,57.29H13.17V45.15H20v1.68H15.16v3.3h4.57v1.66H15.16V55.6H20Z"/><path class="cls-4" d="M29.27,57.29,25.75,47.15h-.07c.1,1.51.14,2.92.14,4.23v5.91H24V45.15h2.8l3.37,9.65h0l3.47-9.65h2.8V57.29H34.6v-6c0-.6,0-1.39,0-2.35s.06-1.56.08-1.76h-.07L31,57.29Z"/><path class="cls-4" d="M41.07,57.29V45.15h2V55.58h5.14v1.71Z"/><polygon class="cls-2" points="30 27 13 17 24 17 45 17 45 18 30 27"/></svg>