<svg id="File-EXE" xmlns="http://www.w3.org/2000/svg" width="24" height="24" viewBox="0 0 24 24">
  <path id="Path_54276" d="M13.8,2.3H4A1.216,1.216,0,0,0,2.8,3.5V19.6A1.216,1.216,0,0,0,4,20.8H17.9a1.216,1.216,0,0,0,1.2-1.2V8.5" fill="#f0f0f0" stroke="#bbbdbf" stroke-width="1"/>
  <rect id="Rectangle_18362" width="24" height="24" fill="none"/>
  <path id="Path_54273" d="M15,8.5a1.216,1.216,0,0,1-1.2-1.2v-5H4A1.216,1.216,0,0,0,2.8,3.5V19.6A1.216,1.216,0,0,0,4,20.8H17.9a1.216,1.216,0,0,0,1.2-1.2V8.5Z" fill="none"/>
  <path id="Path_54274" d="M14.2,8.2V2.9l4.5,5.3Z" fill="#bbbdbf"/>
  <path id="Path_54275" d="M14.5,3.8,18,7.9H14.5V3.8m-.7-2V8.5h5.8Z" fill="#bbbdbf"/>
  <path id="Path_62921" data-name="Path 62921" d="M19.7,21.6H3.5a1.367,1.367,0,0,1-1.4-1.4V11.9a1.367,1.367,0,0,1,1.4-1.4H19.8a1.367,1.367,0,0,1,1.4,1.4v8.3A1.453,1.453,0,0,1,19.7,21.6Z" fill="#545454"/>
  <path id="Path_62945" data-name="Path 62945" d="M4.008,0H.719V-5.711H4.008v.992H1.93v1.254H3.863v.992H1.93V-1H4.008ZM9.816,0H8.434L7.105-2.16,5.777,0H4.48L6.375-2.945,4.6-5.711H5.938l1.23,2.055L8.375-5.711h1.3L7.887-2.879Zm4.008,0H10.535V-5.711h3.289v.992H11.746v1.254H13.68v.992H11.746V-1h2.078Z" transform="translate(4.035 18.766)" fill="#fff"/>
</svg>
