<svg id="Layer_1" data-name="Layer 1" xmlns="http://www.w3.org/2000/svg" viewBox="0 0 60 60"><defs><style>.cls-1{fill:#ccc;}.cls-2{fill:#fff;}</style></defs><title>01</title><path class="cls-1" d="M54,2.75v51.5a.75.75,0,0,1-.75.75H44V9.91a2.44,2.44,0,0,0-2.44-2.44H38.83V7h-7v.47H19V2.75A.75.75,0,0,1,19.75,2h33.5A.75.75,0,0,1,54,2.75Z"/><rect class="cls-1" x="15.38" y="26.23" width="19.7" height="14.07" rx="1.5" ry="1.5"/><path class="cls-2" d="M51,7.5a.5.5,0,0,1-.5.5H43.08c-.42-.33-9.51-.53-6.08-1H50.5A.5.5,0,0,1,51,7.5Z"/><path class="cls-2" d="M51,18.5a.5.5,0,0,1-.5.5H44V18H50.5A.5.5,0,0,1,51,18.5Z"/><path class="cls-2" d="M51,29.5a.5.5,0,0,1-.5.5H44V29H50.5A.5.5,0,0,1,51,29.5Z"/><path class="cls-2" d="M51,39.5a.5.5,0,0,1-.5.5H44V39H50.5A.5.5,0,0,1,51,39.5Z"/><path class="cls-2" d="M51,49.5a.5.5,0,0,1-.5.5H44V49H50.5A.5.5,0,0,1,51,49.5Z"/><path class="cls-1" d="M43.88,7.17,43.73,7h-4.9L8.44,7A2.92,2.92,0,0,0,5.5,9.86V56.61A2.92,2.92,0,0,0,8.44,59.5H41.55a2.92,2.92,0,0,0,2.94-2.89V9.86A4.26,4.26,0,0,0,43.88,7.17Zm-.39,49.44a1.92,1.92,0,0,1-1.94,1.89H8.44A1.92,1.92,0,0,1,6.5,56.61V9.86A1.92,1.92,0,0,1,8.44,8L31.8,8V22.48l3.51-4.22,3.52,4.22V8h4.4a4.76,4.76,0,0,1,.26,1.86Z"/></svg>