<svg id="Layer_1" data-name="Layer 1" xmlns="http://www.w3.org/2000/svg" viewBox="0 0 60 60"><defs><style>.cls-1{fill:#ccc;}.cls-2{fill:#fff;}</style></defs><title>01</title><path class="cls-1" d="M48.06,58.5H12.44A2.94,2.94,0,0,1,9.5,55.56V4.44A2.94,2.94,0,0,1,12.44,1.5H48.06A2.94,2.94,0,0,1,51,4.44V55.56A2.94,2.94,0,0,1,48.06,58.5ZM12.44,2.5A1.94,1.94,0,0,0,10.5,4.44V55.56a1.94,1.94,0,0,0,1.94,1.94H48.06A1.94,1.94,0,0,0,50,55.56V4.44A1.94,1.94,0,0,0,48.06,2.5Z"/><polygon class="cls-1" points="45 18 41.25 13.5 37.5 18 37.5 1.5 45 1.5 45 18"/><rect class="cls-1" x="20" y="22" width="21" height="15" rx="1.5" ry="1.5"/><path class="cls-2" d="M46.42,44.54v4.38a1,1,0,0,1-1.09,1H22a1,1,0,0,1-1.09-1V44.54a1,1,0,0,1,1.09-1H45.33A1,1,0,0,1,46.42,44.54Z"/><path class="cls-1" d="M45.33,50.5H22a1.63,1.63,0,0,1-1.67-1.58V44.53A1.63,1.63,0,0,1,22,43H45.33A1.63,1.63,0,0,1,47,44.53v4.38A1.63,1.63,0,0,1,45.33,50.5ZM22,44.12a.47.47,0,0,0-.51.42v4.38a.47.47,0,0,0,.51.42H45.33a.47.47,0,0,0,.51-.42V44.53a.47.47,0,0,0-.51-.42Z"/><path class="cls-1" d="M46.42,44.54v4.38a1,1,0,0,1-1.09,1H41.78V43.53h3.55A1,1,0,0,1,46.42,44.54Z"/><path class="cls-1" d="M45.33,50.5H41.2V43h4.13A1.63,1.63,0,0,1,47,44.53v4.38A1.63,1.63,0,0,1,45.33,50.5Zm-3-1.16h3a.47.47,0,0,0,.51-.42V44.53a.47.47,0,0,0-.51-.42h-3Z"/><rect class="cls-1" x="20.88" y="46.44" width="23.22" height="1.16"/><path class="cls-1" d="M20.76,50.5a.9.9,0,0,1-.35-.07L16.82,49V44.7l3.6-1.45a.9.9,0,0,1,.85.09.92.92,0,0,1,.41.77v5.48a.92.92,0,0,1-.92.92Zm.09-1.15h0ZM18,48.2l2.54,1V44.46l-2.54,1Zm2.88-3.88h0Z"/><path class="cls-1" d="M17.4,45.09V48.6l-3.61-1.44a.34.34,0,0,1,0-.63Z"/><path class="cls-1" d="M18,49.45,13.57,47.7a.92.92,0,0,1,0-1.7L18,44.23Zm-3.41-2.61,2.25.9V45.95Z"/><polygon class="cls-2" points="38.02 23.99 38.83 25.04 26.2 34.78 21.74 28.99 22.79 28.18 26.44 32.91 38.02 23.99"/></svg>