<?xml version="1.0" encoding="utf-8"?>
<!-- Generator: Adobe Illustrator 26.2.1, SVG Export Plug-In . SVG Version: 6.00 Build 0)  -->
<svg version="1.1" xmlns="http://www.w3.org/2000/svg" xmlns:xlink="http://www.w3.org/1999/xlink" x="0px" y="0px"
	 viewBox="0 0 16 16" style="enable-background:new 0 0 16 16;" xml:space="preserve">
<style type="text/css">
	.st0{fill:#FFFFFF;stroke:#000000;stroke-miterlimit:10;}
	.st1{fill:none;stroke:#000000;stroke-miterlimit:10;}
	.st2{fill:#F7931E;}
	.st3{fill:#FBB03B;}
	.st4{fill:#FFFFFF;}
	.st5{fill:none;}
	.st6{fill:#E27E1A;}
	.st7{fill:#29ABE2;}
	.st8{opacity:0.5;fill:#606060;}
	.st9{fill:none;stroke:#00FF00;stroke-miterlimit:10;}
	.st10{fill:#0072C6;}
	.st11{fill:#CEE01E;}
	.st12{fill:#F7584B;}
	.st13{fill:#56C5F4;}
	.st14{fill:#AEBE17;}
	.st15{fill:#999999;}
	.st16{fill:#B3B3B3;}
	.st17{fill:none;stroke:#CEE01E;stroke-width:1.5;stroke-miterlimit:10;}
	.st18{fill:#FFA631;}
	.st19{fill:#FBB03B;stroke:#FFFFFF;stroke-miterlimit:10;}
	.st20{fill:#606060;}
	.st21{fill:none;stroke:#606060;stroke-miterlimit:10;}
	.st22{fill:#FFFFFF;stroke:#606060;stroke-miterlimit:10;}
	.st23{fill:none;stroke:#FFFFFF;stroke-width:3;stroke-miterlimit:10;}
</style>
<g id="Layer_1">
</g>
<g id="Layer_3">
</g>
<g id="Layer_2">
	<g>
		<path class="st7" d="M13.3986,2.8936v10.2021c0,0.6313-0.5118,1.1431-1.1431,1.1431H0.75V2.8936
			c0-0.6254,0.507-1.1324,1.1324-1.1324h10.3838C12.8916,1.7612,13.3986,2.2682,13.3986,2.8936z"/>
		<path id="Rectangle_14520_00000158736721456405291930000011373880347267078825_" class="st4" d="M4.1746,4.243H9.974
			c0.59,0,1.0683,0.4783,1.0683,1.0683v7.0982c0,0.59-0.4783,1.0683-1.0683,1.0683H4.1746c-0.59,0-1.0683-0.4783-1.0683-1.0683
			V5.3113C3.1063,4.7213,3.5846,4.243,4.1746,4.243z"/>
		<path id="Rectangle_14521_00000128464454538188192280000017029316249336276406_" class="st13" d="M3.4769,7.4108h10.9713
			c0.5407,0,0.9262,0.5246,0.7646,1.0406l-1.8109,5.7852H0.7516l1.9607-6.2639C2.817,7.6384,3.1266,7.4108,3.4769,7.4108z"/>
	</g>
	<rect class="st5" width="16" height="16"/>
</g>
<g id="Layer_4">
</g>
<g id="Layer_5">
</g>
</svg>
