<svg id="Layer_1" data-name="Layer 1" xmlns="http://www.w3.org/2000/svg" viewBox="0 0 60 60"><defs><style>.cls-1{fill:#999;}</style></defs><title>ivon</title><path class="cls-1" d="M48.81,3.25H38V2.5A1.5,1.5,0,0,0,36.5,1h-13A1.5,1.5,0,0,0,22,2.5v.75H11.19A2.94,2.94,0,0,0,8.25,6.19V56.81a2.94,2.94,0,0,0,2.94,2.94H48.81a2.94,2.94,0,0,0,2.94-2.94V6.19A2.94,2.94,0,0,0,48.81,3.25Zm1.44,53.56a1.43,1.43,0,0,1-1.44,1.44H11.19a1.43,1.43,0,0,1-1.44-1.44V6.19a1.44,1.44,0,0,1,1.44-1.44H22V5.5A1.5,1.5,0,0,0,23.5,7h13A1.5,1.5,0,0,0,38,5.5V4.75H48.81a1.44,1.44,0,0,1,1.44,1.44Z"/><polygon class="cls-1" points="44.77 10 43.7 13.14 46.01 13.14 44.77 10"/><polygon class="cls-1" points="43.49 13.77 42 18.17 48 18.17 46.26 13.77 43.49 13.77"/><rect class="cls-1" x="42" y="18.8" width="0.92" height="29.54"/><rect class="cls-1" x="43.38" y="18.8" width="1.38" height="29.54"/><rect class="cls-1" x="45.23" y="18.8" width="1.38" height="29.54"/><rect class="cls-1" x="47.08" y="18.8" width="0.92" height="29.54"/><path class="cls-1" d="M42,52.23c0,1,.58,1.77,1.3,1.77h3.4c.72,0,1.3-.79,1.3-1.77V49H42Z"/><path class="cls-1" d="M36,11H14a1,1,0,0,0,0,2H36a1,1,0,0,0,0-2Z"/><path class="cls-1" d="M36,21H14a1,1,0,0,0,0,2H36a1,1,0,0,0,0-2Z"/><path class="cls-1" d="M36,31H14a1,1,0,0,0,0,2H36a1,1,0,0,0,0-2Z"/><path class="cls-1" d="M36,41H14a1,1,0,0,0,0,2H36a1,1,0,0,0,0-2Z"/><path class="cls-1" d="M36,51H14a1,1,0,0,0,0,2H36a1,1,0,0,0,0-2Z"/></svg>