<?xml version="1.0" encoding="utf-8"?>
<!-- Generator: Adobe Illustrator 26.3.1, SVG Export Plug-In . SVG Version: 6.00 Build 0)  -->
<svg version="1.1" id="Layer_1" xmlns="http://www.w3.org/2000/svg" xmlns:xlink="http://www.w3.org/1999/xlink" x="0px" y="0px"
	 viewBox="0 0 16 16" style="enable-background:new 0 0 16 16;" xml:space="preserve">
<style type="text/css">
	.st0{fill:#29ABE2;}
	.st1{fill:#FFFFFF;}
	.st2{fill:#56C5F4;}
	.st3{fill:none;}
</style>
<g id="Layer_1_00000094608681452753021220000005935188919702715527_">
</g>
<g id="Layer_3">
</g>
<g id="Layer_2_00000057833607790240879100000016234708962274338992_">
	<g>
		<path class="st0" d="M13.1,2.6H2.9c-0.6,0-1.1,0.5-1.1,1.1v11.5h11.3c0.6,0,1.1-0.5,1.1-1.1V3.7C14.2,3.1,13.7,2.6,13.1,2.6z"/>
		<path id="Rectangle_14520_00000158736721456405291930000011373880347267078825_" class="st1" d="M11.8,11.8V6
			c0-0.6-0.5-1.1-1.1-1.1H3.6C3,4.9,2.5,5.4,2.5,6v5.8c0,0.6,0.5,1.1,1.1,1.1h7.1C11.3,12.9,11.8,12.4,11.8,11.8z"/>
		<path id="Rectangle_14521_00000128464454538188192280000017029316249336276406_" class="st2" d="M8.6,12.5v-11
			c0-0.5-0.5-0.9-1-0.8L1.8,2.5v12.7l6.3-2C8.4,13.2,8.6,12.9,8.6,12.5z"/>
	</g>
	<rect class="st3" width="16" height="16"/>
</g>
<g id="Layer_4">
</g>
<g id="Layer_5">
</g>
</svg>
