<svg id="Layer_1" data-name="Layer 1" xmlns="http://www.w3.org/2000/svg" viewBox="0 0 60 60"><defs><style>.cls-1{fill:#e9e9e0;}.cls-2{fill:#d9d7ca;}.cls-3{fill:#ec6630;}.cls-4{fill:#fff;}</style></defs><title>HTML</title><path class="cls-1" d="M39,2H10C9.16,2,8.5,2.65,8.5,3.93V57A1.51,1.51,0,0,0,10,58H50a1.51,1.51,0,0,0,1.46-1V15c0-.7-.09-.92-.26-1.09L39.61,2.26A.88.88,0,0,0,39,2Z"/><polygon class="cls-2" points="39.5 2.15 39.5 14 51.35 14 39.5 2.15"/><path class="cls-3" d="M50,58H10A1.46,1.46,0,0,1,8.5,56.54V41h43V56.54A1.46,1.46,0,0,1,50,58Z"/><path class="cls-4" d="M19.45,44.92V55H17.81V50.46H13.45V55H11.78V44.92h1.67v4.42h4.36V44.92Z"/><path class="cls-4" d="M29.11,44.92V46h-3v9H24.45V46h-3V44.92Z"/><path class="cls-4" d="M38.71,44.92h1.67V55H38.71V48.07l-2.26,5.6H35l-2.27-5.6V55H31.06V44.92h1.67l3,6.89Z"/><path class="cls-4" d="M44.57,44.92v8.83h4.64V55H42.9V44.92Z"/><path class="cls-3" d="M25.21,18.29a1,1,0,0,0-1.41,0l-6,6a1,1,0,0,0,0,1.41l6,6a1,1,0,1,0,1.41-1.41L19.91,25l5.29-5.29A1,1,0,0,0,25.21,18.29Z"/><path class="cls-3" d="M43.21,24.29l-6-6a1,1,0,0,0-1.41,1.41L41.09,25l-5.29,5.29a1,1,0,1,0,1.41,1.41l6-6A1,1,0,0,0,43.21,24.29Z"/></svg>