<svg id="html" xmlns="http://www.w3.org/2000/svg" width="24" height="24" viewBox="0 0 24 24">
  <g id="Layer_2_00000041997405787208299010000000974437217311144085_">
    <rect id="Rectangle_18362" data-name="Rectangle 18362" width="24" height="24" fill="none"/>
  </g>
  <g id="Layer_4" transform="translate(0.054 -0.393)">
    <path id="Path_54273" data-name="Path 54273" d="M14.943,8.91a1.165,1.165,0,0,1-1.165-1.163V2.721H3.9A1.245,1.245,0,0,0,2.655,3.962V20.039A1.245,1.245,0,0,0,3.9,21.28H17.767a1.244,1.244,0,0,0,1.243-1.241V8.91Z" fill="#f0f0f0"/>
    <g id="Group_65280" data-name="Group 65280">
      <path id="Path_54274" data-name="Path 54274" d="M14.1,8.59V3.3l4.519,5.29Z" fill="#bbbdbf"/>
      <path id="Path_54275" data-name="Path 54275" d="M14.434,4.2,17.9,8.257H14.434V4.2m-.667-1.808v6.53h5.574Z" fill="#bbbdbf"/>
    </g>
    <path id="Path_54276" data-name="Path 54276" d="M13.777,2.721H3.9A1.245,1.245,0,0,0,2.655,3.962V20.039A1.245,1.245,0,0,0,3.9,21.279H17.767a1.244,1.244,0,0,0,1.243-1.241V8.91" fill="none" stroke="#bbbdbf" stroke-width="1"/>
    <path id="Path_54277" data-name="Path 54277" d="M19.645,21.985H3.357a1.411,1.411,0,0,1-1.411-1.411V12.291A1.411,1.411,0,0,1,3.357,10.88H19.644a1.411,1.411,0,0,1,1.411,1.411v8.284A1.411,1.411,0,0,1,19.645,21.985Z" fill="#545454"/>
    <path id="XMLID_00000173847018829198866470000007742571303851566512_" d="M4.049,0H3.144V-1.849h-1.7V0H.539V-4.283h.908V-2.6h1.7V-4.283h.905ZM6.782,0H5.874V-3.527H4.711v-.756H7.945v.756H6.782Zm3.636,0L9.387-3.36H9.36q.056,1.025.056,1.368V0H8.6V-4.283H9.841l1.014,3.275h.018l1.075-3.275h1.236V0h-.847V-2.027q0-.144,0-.331t.04-1h-.026L11.25,0Zm3.844,0V-4.283h.908V-.75h1.737V0Z" transform="translate(2.89 19.159)" fill="#fff"/>
  </g>
</svg>
