<svg xmlns="http://www.w3.org/2000/svg" width="38" height="38" viewBox="0 0 38 38">
  <g id="Management" transform="translate(-882 -431)">
    <rect id="Rectangle_18189" data-name="Rectangle 18189" width="38" height="38" rx="2" transform="translate(882 431)" fill="#222"/>
    <g id="Management-2" data-name="Management" transform="translate(889 438)">
      <g id="Outline">
        <rect id="Rectangle_23255" data-name="Rectangle 23255" width="24" height="24" fill="none"/>
      </g>
      <g id="Icon">
        <path id="Path_75_00000078737804330474491680000017555068244278246018_" d="M21.135,9.265h-1.28c-.12-.31-.24-.61-.37-.9l.9-.9a1.5,1.5,0,0,0,0-2.13l-1.72-1.72a1.5,1.5,0,0,0-2.13,0c-.38.38-.69.68-.9.9-.3-.13-.6-.26-.9-.38V2.865a1.517,1.517,0,0,0-1.51-1.52h-2.44a1.524,1.524,0,0,0-1.51,1.52V4.1a6.7,6.7,0,0,0-.91.38c-.17-.17-.44-.44-.87-.86a1.533,1.533,0,0,0-2.14,0L3.635,5.35a1.5,1.5,0,0,0,0,2.13c.37.37.68.68.89.88-.13.3-.26.6-.38.9H2.865a1.509,1.509,0,0,0-1.51,1.51v2.44a1.515,1.515,0,0,0,1.51,1.51h1.28c.12.3.25.6.38.89-.21.21-.52.51-.89.88a1.509,1.509,0,0,0-.01,2.14l1.73,1.73a1.49,1.49,0,0,0,1.07.45,1.467,1.467,0,0,0,1.06-.45l.89-.88c.3.13.6.25.9.37v1.28a.57.57,0,0,0,.01.13,1.594,1.594,0,0,0,1.77,1.38H12V21.13h-.95a2.458,2.458,0,0,1-.28-.02v-.1c0-.48-.01-.95,0-1.43a1.084,1.084,0,0,0-.7-1.03c-.48-.17-.95-.38-1.42-.59a1,1,0,0,0-1.1.21L6.535,19.2l-.12.1-1.72-1.74L5.8,16.45a.935.935,0,0,0,.31-.51.992.992,0,0,0-.07-.59c-.22-.5-.43-1-.63-1.51a.939.939,0,0,0-.88-.62h-.02c-.55,0-1.09,0-1.65-.01l.01-2.45h1.64a.957.957,0,0,0,.89-.61c.2-.51.41-1.02.64-1.53a.932.932,0,0,0,.06-.57.922.922,0,0,0-.3-.52c-.08-.08-.5-.5-1.11-1.12l1.74-1.73c.61.6,1.02,1.01,1.09,1.09a.962.962,0,0,0,.53.33,1.06,1.06,0,0,0,.72-.14,4.706,4.706,0,0,1,1.18-.5.951.951,0,0,0,.82-.96l.01-1.66,2.45.01V4.12a1.473,1.473,0,0,0,.95,1.4c.4.17.79.33,1.18.5a.894.894,0,0,0,.58.08.92.92,0,0,0,.51-.3c.08-.09.51-.51,1.15-1.13l1.72,1.72V6.4c-.37.38-.74.75-1.12,1.12a.963.963,0,0,0-.21,1.16c.21.48.41.97.6,1.46a1,1,0,0,0,.91.62c.55,0,1.09,0,1.64.01L21.135,12h1.51V10.77a1.509,1.509,0,0,0-1.51-1.505Z" fill="#fff"/>
        <path id="Path_62539" data-name="Path 62539" d="M21.615,17.885a8.25,8.25,0,0,1-3.45,3.59l-4.34-5.51a4.183,4.183,0,0,1-5.35-5.51l2.82,2.83,2.27-2.27-2.82-2.82a4.269,4.269,0,0,1,5.77,3.09,2.913,2.913,0,0,1,0,1.55,5.271,5.271,0,0,1-.28.82Z" fill="#fff"/>
      </g>
    </g>
  </g>
</svg>
