<svg xmlns="http://www.w3.org/2000/svg" width="38" height="38" viewBox="0 0 38 38">
  <g id="Administration" transform="translate(-882 -431)">
    <rect id="Rectangle_18189" data-name="Rectangle 18189" width="38" height="38" rx="2" transform="translate(882 431)" fill="#222"/>
    <g id="Administration-2" data-name="Administration" transform="translate(889 438)">
      <rect id="Rectangle_23250" data-name="Rectangle 23250" width="24" height="24" fill="none"/>
      <rect id="Rectangle_23251" data-name="Rectangle 23251" width="24" height="24" fill="none"/>
      <path id="Path_51718" d="M18.5,1.577H5.5a3.755,3.755,0,0,0-3.75,3.75V15.648A3.755,3.755,0,0,0,5.5,19.4H9.2v1.525H8.375a.25.25,0,0,0-.25.25v1a.25.25,0,0,0,.25.25h7.25a.249.249,0,0,0,.25-.248v-1a.249.249,0,0,0-.248-.25H14.7V19.4h3.8a3.755,3.755,0,0,0,3.75-3.75V5.331A3.754,3.754,0,0,0,18.5,1.577ZM13.2,20.924H10.7V19.4h2.5Zm7.546-5.275A2.253,2.253,0,0,1,18.5,17.9H5.5a2.253,2.253,0,0,1-2.25-2.25V5.331A2.253,2.253,0,0,1,5.5,3.081h13a2.252,2.252,0,0,1,2.25,2.25Z" fill="#fff"/>
      <path id="XMLID_369_" d="M16.149,7.689c-.276.276-.554.556-.836.833a.111.111,0,0,0-.027.154c.111.244.212.494.308.745.023.06.046.079.108.078h1.2v1.985H15.7c-.064,0-.085.021-.108.079q-.149.384-.316.761a.091.091,0,0,0,.023.124c.264.261.525.524.787.785a.49.49,0,0,0,.065.049L14.743,14.69l-.057-.055c-.262-.262-.526-.523-.785-.787a.1.1,0,0,0-.132-.02q-.368.163-.744.309c-.063.024-.09.047-.089.119v1.193H10.954V14.283a.138.138,0,0,0-.113-.158c-.246-.09-.487-.2-.727-.3a.091.091,0,0,0-.124.019c-.282.286-.566.569-.842.844l-1.4-1.4c.036-.035.085-.08.132-.127.238-.238.476-.477.715-.714a.087.087,0,0,0,.022-.117q-.168-.381-.32-.769c-.022-.056-.043-.074-.1-.074H7V9.5H8.209c.059,0,.079-.02.1-.075q.152-.388.32-.769A.086.086,0,0,0,8.6,8.538q-.414-.411-.826-.825L7.754,7.7l1.4-1.4c.008.007.033.029.056.052L10,7.139a.087.087,0,0,0,.116.024q.385-.17.778-.323a.086.086,0,0,0,.067-.1q0-.552,0-1.1V5.533h1.985V6.727a.1.1,0,0,0,.081.115c.256.1.51.2.761.316A.086.086,0,0,0,13.9,7.14q.391-.4.786-.787l.066-.063Zm-4.2.816a1.985,1.985,0,1,0,1.98,1.986,1.985,1.985,0,0,0-1.98-1.986Z" fill="#fff"/>
    </g>
  </g>
</svg>
