<svg xmlns="http://www.w3.org/2000/svg" width="38" height="38" viewBox="0 0 38 38">
  <g id="Configure" transform="translate(-882 -431)">
    <rect id="Rectangle_18189" data-name="Rectangle 18189" width="38" height="38" rx="2" transform="translate(882 431)" fill="#222"/>
    <g id="Configuration" transform="translate(889 438)">
      <g id="Outline">
        <rect id="Rectangle_23253" data-name="Rectangle 23253" width="24" height="24" fill="none"/>
      </g>
      <g id="Icon">
        <g id="Group_74786" data-name="Group 74786">
          <path id="Path_75" d="M13.519,22.64H11.05a1.584,1.584,0,0,1-1.769-1.374q-.008-.066-.011-.133V19.856c-.3-.118-.6-.245-.9-.375l-.885.888a1.5,1.5,0,0,1-1.065.442h0a1.5,1.5,0,0,1-1.066-.443l-1.727-1.73a1.513,1.513,0,0,1,0-2.139c.373-.372.68-.677.89-.884q-.19-.441-.372-.889H2.865a1.514,1.514,0,0,1-1.51-1.513v-2.44A1.512,1.512,0,0,1,2.866,9.261H4.147q.182-.448.372-.892c-.209-.208-.514-.513-.885-.887a1.512,1.512,0,0,1,0-2.131L5.358,3.627a1.517,1.517,0,0,1,2.133,0c.429.422.7.689.868.861a6.508,6.508,0,0,1,.913-.381V2.86a1.515,1.515,0,0,1,1.512-1.512h2.439A1.513,1.513,0,0,1,14.735,2.86V4.137c.3.122.6.247.894.374l.9-.9a1.516,1.516,0,0,1,2.136,0l1.72,1.719a1.513,1.513,0,0,1,0,2.138q-.445.447-.9.894.195.444.371.9h1.279a1.512,1.512,0,0,1,1.51,1.512v2.44a1.514,1.514,0,0,1-1.51,1.513h-1.28q-.179.447-.369.889c.212.206.518.506.892.873a1.516,1.516,0,0,1,.009,2.149L18.655,20.37a1.514,1.514,0,0,1-2.135,0c-.379-.377-.687-.684-.894-.892-.278.12-.558.235-.839.348.012.053.024.112.039.178.046.217.1.49.171.837a1.513,1.513,0,0,1-1.478,1.8Zm5.8-16.246L17.6,4.675c-.641.619-1.067,1.043-1.145,1.128a.917.917,0,0,1-.513.3.944.944,0,0,1-.582-.074q-.583-.258-1.175-.5a1.5,1.5,0,0,1-.954-1.405V2.855L10.78,2.841,10.77,4.5a.944.944,0,0,1-.819.962,4.965,4.965,0,0,0-1.176.5,1,1,0,0,1-.723.14.937.937,0,0,1-.526-.324c-.073-.08-.486-.491-1.091-1.089L4.7,6.414c.611.625,1.026,1.043,1.113,1.121a.933.933,0,0,1,.233,1.092q-.335.756-.634,1.525a.961.961,0,0,1-.891.609H2.872L2.86,13.213c.559.013,1.1.014,1.653.01h0a.921.921,0,0,1,.9.624q.3.762.628,1.506a.953.953,0,0,1,.069.593.915.915,0,0,1-.3.508c-.085.077-.5.5-1.116,1.106L6.42,19.307l.115-.1,1.027-1.032a.979.979,0,0,1,1.1-.206c.464.206.934.411,1.412.587a1.08,1.08,0,0,1,.707,1.027c-.008.478-.007.953-.006,1.427v.1h.005a1.539,1.539,0,0,0,.275.029h2.306c-.008-.357,0-.456,0-.822,0-.749-.3-1.424.527-1.747q.734-.284,1.454-.6a.987.987,0,0,1,.6-.082.948.948,0,0,1,.531.31c.077.084.5.5,1.109,1.111l1.75-1.73c-.618-.628-1.041-1.042-1.124-1.117a.908.908,0,0,1-.31-.519.954.954,0,0,1,.075-.6q.328-.742.624-1.5a.948.948,0,0,1,.915-.619c.542.006,1.082.006,1.627,0l.012-2.453c-.553-.013-1.095-.012-1.639-.009a1.017,1.017,0,0,1-.917-.622c-.189-.493-.385-.981-.6-1.459a.969.969,0,0,1,.2-1.154c.378-.372.753-.747,1.126-1.12M8.045,19.336Zm.583-.112-.006.007ZM15.348,19.192Zm3.828-3.874.032.029ZM19.493,14.718ZM19.993,14.38ZM19.5,9.265ZM4.814,8.659l.008.007ZM8.675,4.812ZM15.343,4.8l-.014.015ZM9.272,4.508ZM12,16.708h-.01A4.714,4.714,0,1,1,12,7.281h.01A4.714,4.714,0,1,1,12,16.708Zm0-7.927a3.215,3.215,0,0,0-.01,6.43H12a3.214,3.214,0,1,0,.015-6.427H12Z" fill="#f0f0f0"/>
        </g>
      </g>
    </g>
  </g>
</svg>
