<svg id="JAVA" xmlns="http://www.w3.org/2000/svg" width="24" height="24" viewBox="0 0 24 24">
  <path id="Path_54276" d="M13.8,2.3H4A1.216,1.216,0,0,0,2.8,3.5V19.6A1.216,1.216,0,0,0,4,20.8H17.9a1.216,1.216,0,0,0,1.2-1.2V8.5" fill="#f0f0f0" stroke="#bbbdbf" stroke-width="1"/>
  <rect id="Rectangle_18362_00000154411819100904164030000015771137690974771606_" width="24" height="24" fill="none"/>
  <path id="Path_54273" d="M15,8.5a1.216,1.216,0,0,1-1.2-1.2v-5H4A1.216,1.216,0,0,0,2.8,3.5V19.6A1.216,1.216,0,0,0,4,20.8H17.9a1.216,1.216,0,0,0,1.2-1.2V8.5Z" fill="none"/>
  <path id="Path_54274" d="M14.2,8.2V2.9l4.5,5.3Z" fill="#bbbdbf"/>
  <path id="Path_54275" d="M14.5,3.8,18,7.9H14.5V3.8m-.7-2V8.5h5.8Z" fill="#bbbdbf"/>
  <g id="Layer_2_00000041997405787208299010000000974437217311144085_">
    <g id="Rectangle_18362">
      <rect id="Rectangle_23525" data-name="Rectangle 23525" width="24" height="24" fill="none"/>
    </g>
  </g>
  <path id="Path_62924" data-name="Path 62924" d="M19.7,21.6H3.5a1.367,1.367,0,0,1-1.4-1.4V11.9a1.367,1.367,0,0,1,1.4-1.4H19.8a1.367,1.367,0,0,1,1.4,1.4v8.3A1.453,1.453,0,0,1,19.7,21.6Z" fill="#545454"/>
  <path id="Path_62957" data-name="Path 62957" d="M.106,1.47A2.317,2.317,0,0,1-.52,1.395V.513a2.073,2.073,0,0,0,.5.068.564.564,0,0,0,.5-.217,1.209,1.209,0,0,0,.15-.678V-5h1.06V-.321a1.97,1.97,0,0,1-.4,1.333A1.486,1.486,0,0,1,.106,1.47ZM6.005,0,5.643-1.189H3.821L3.459,0H2.317L4.081-5.018h1.3L7.147,0ZM5.39-2.078q-.5-1.617-.566-1.829t-.091-.335q-.113.438-.646,2.164ZM10.346-5h1.07l-1.7,5H8.562l-1.7-5h1.07l.94,2.974q.079.263.162.614t.1.487a8.755,8.755,0,0,1,.256-1.1Zm4.478,5-.362-1.189H12.64L12.277,0H11.136L12.9-5.018h1.3L15.965,0Zm-.615-2.078q-.5-1.617-.566-1.829t-.091-.335q-.113.438-.646,2.164Z" transform="translate(4.149 18.766)" fill="#fff"/>
</svg>
