<svg id="File-JS" xmlns="http://www.w3.org/2000/svg" width="24" height="24" viewBox="0 0 24 24">
  <path id="Path_54276" d="M13.8,2.3H4A1.216,1.216,0,0,0,2.8,3.5V19.6A1.216,1.216,0,0,0,4,20.8H17.9a1.216,1.216,0,0,0,1.2-1.2V8.5" fill="#f0f0f0" stroke="#bbbdbf" stroke-width="1"/>
  <rect id="Rectangle_18362" width="24" height="24" fill="none"/>
  <path id="Path_54273" d="M15,8.5a1.216,1.216,0,0,1-1.2-1.2v-5H4A1.216,1.216,0,0,0,2.8,3.5V19.6A1.216,1.216,0,0,0,4,20.8H17.9a1.216,1.216,0,0,0,1.2-1.2V8.5Z" fill="none"/>
  <path id="Path_54274" d="M14.2,8.2V2.9l4.5,5.3Z" fill="#bbbdbf"/>
  <path id="Path_54275" d="M14.5,3.8,18,7.9H14.5V3.8m-.7-2V8.5h5.8Z" fill="#bbbdbf"/>
  <path id="Path_54277" d="M19.7,21.6H3.4A1.367,1.367,0,0,1,2,20.2V11.9a1.367,1.367,0,0,1,1.4-1.4H19.7a1.367,1.367,0,0,1,1.4,1.4v8.3A1.367,1.367,0,0,1,19.7,21.6Z" fill="#545454"/>
  <path id="Path_62946" data-name="Path 62946" d="M.121,1.68a2.648,2.648,0,0,1-.715-.086V.586a2.369,2.369,0,0,0,.57.078A.644.644,0,0,0,.547.416,1.381,1.381,0,0,0,.719-.359V-5.711H1.93V-.367a2.251,2.251,0,0,1-.457,1.523A1.7,1.7,0,0,1,.121,1.68ZM6.738-1.586A1.476,1.476,0,0,1,6.182-.367,2.418,2.418,0,0,1,4.633.078,3.637,3.637,0,0,1,3.016-.266V-1.391a6.664,6.664,0,0,0,.979.363,2.9,2.9,0,0,0,.732.105,1.041,1.041,0,0,0,.611-.152.521.521,0,0,0,.213-.453.5.5,0,0,0-.094-.3,1.049,1.049,0,0,0-.275-.252,7.083,7.083,0,0,0-.74-.387,3.509,3.509,0,0,1-.785-.473,1.774,1.774,0,0,1-.418-.527,1.5,1.5,0,0,1-.156-.7A1.476,1.476,0,0,1,3.6-5.359a2.134,2.134,0,0,1,1.42-.434,3.353,3.353,0,0,1,.85.105,5.84,5.84,0,0,1,.846.3l-.391.941a5.715,5.715,0,0,0-.756-.262,2.433,2.433,0,0,0-.588-.074.778.778,0,0,0-.527.16.528.528,0,0,0-.184.418.517.517,0,0,0,.074.279.816.816,0,0,0,.236.23,7.307,7.307,0,0,0,.768.4,3.054,3.054,0,0,1,1.1.768A1.5,1.5,0,0,1,6.738-1.586Z" transform="translate(8.423 18.766)" fill="#fff"/>
</svg>
