<?xml version="1.0" encoding="utf-8"?>
<!-- Generator: Adobe Illustrator 21.0.2, SVG Export Plug-In . SVG Version: 6.00 Build 0)  -->
<svg version="1.1" id="Layer_1" xmlns="http://www.w3.org/2000/svg" xmlns:xlink="http://www.w3.org/1999/xlink" x="0px" y="0px"
	 viewBox="0 0 60 60" style="enable-background:new 0 0 60 60;" xml:space="preserve">
<style type="text/css">
	.st0{fill:#1281DD;}
	.st1{fill:#FFFFFF;}
</style>
<circle class="st0" cx="29.9" cy="30.1" r="29.4"/>
<path class="st1" d="M41.7,23.3h-0.4v-5.2c0.3-6.3-4.6-11.6-10.9-11.9C24.1,6,18.8,10.9,18.5,17.2c0,0.3,0,0.6,0,0.9v5.2h-0.6
	c-3,0-5.5,2.5-5.5,5.5v14.7c0,3,2.5,5.5,5.5,5.5h23.8c3,0,5.5-2.5,5.5-5.5V28.8C47.2,25.7,44.8,23.3,41.7,23.3z M29.9,44.5
	c-2.3,0-4.2-1.9-4.2-4.2c0-2.3,1.9-4.2,4.2-4.2c2.3,0,4.2,1.9,4.2,4.2l0,0C34.1,42.6,32.2,44.4,29.9,44.5L29.9,44.5z M38.3,23.3
	H21.6v-5.2c0-4.6,3.7-8.4,8.4-8.4c4.6,0,8.4,3.7,8.4,8.4L38.3,23.3z"/>
</svg>
