<svg id="LOG" xmlns="http://www.w3.org/2000/svg" width="24" height="24" viewBox="0 0 24 24">
  <path id="Path_54276" d="M13.8,2.3H4A1.216,1.216,0,0,0,2.8,3.5V19.6A1.216,1.216,0,0,0,4,20.8H17.9a1.216,1.216,0,0,0,1.2-1.2V8.5" fill="#f0f0f0" stroke="#bbbdbf" stroke-width="1"/>
  <rect id="Rectangle_18362_00000154411819100904164030000015771137690974771606_" width="24" height="24" fill="none"/>
  <path id="Path_54273" d="M15,8.5a1.216,1.216,0,0,1-1.2-1.2v-5H4A1.216,1.216,0,0,0,2.8,3.5V19.6A1.216,1.216,0,0,0,4,20.8H17.9a1.216,1.216,0,0,0,1.2-1.2V8.5Z" fill="none"/>
  <path id="Path_54274" d="M14.2,8.2V2.9l4.5,5.3Z" fill="#bbbdbf"/>
  <path id="Path_54275" d="M14.5,3.8,18,7.9H14.5V3.8m-.7-2V8.5h5.8Z" fill="#bbbdbf"/>
  <g id="Layer_2_00000041997405787208299010000000974437217311144085_">
    <g id="Rectangle_18362">
      <rect id="Rectangle_23525" data-name="Rectangle 23525" width="24" height="24" fill="none"/>
    </g>
  </g>
  <path id="Path_62924" data-name="Path 62924" d="M19.7,21.6H3.5a1.367,1.367,0,0,1-1.4-1.4V11.9a1.367,1.367,0,0,1,1.4-1.4H19.8a1.367,1.367,0,0,1,1.4,1.4v8.3A1.453,1.453,0,0,1,19.7,21.6Z" fill="#545454"/>
  <path id="Path_62958" data-name="Path 62958" d="M.629,0V-5h1.06V-.875H3.715V0Zm8.35-2.505A2.712,2.712,0,0,1,8.364-.6,2.281,2.281,0,0,1,6.6.068,2.281,2.281,0,0,1,4.836-.6a2.722,2.722,0,0,1-.615-1.914,2.685,2.685,0,0,1,.617-1.906,2.307,2.307,0,0,1,1.769-.658,2.275,2.275,0,0,1,1.762.663A2.719,2.719,0,0,1,8.979-2.505Zm-3.647,0A2.087,2.087,0,0,0,5.65-1.244,1.112,1.112,0,0,0,6.6-.82q1.268,0,1.268-1.685T6.607-4.194a1.12,1.12,0,0,0-.954.426A2.079,2.079,0,0,0,5.332-2.505Zm6.58-.3h1.982V-.215a5.589,5.589,0,0,1-.907.22,5.911,5.911,0,0,1-.87.063A2.2,2.2,0,0,1,10.389-.6a2.766,2.766,0,0,1-.6-1.909,2.518,2.518,0,0,1,.692-1.887A2.628,2.628,0,0,1,12.4-5.069a3.713,3.713,0,0,1,1.483.308l-.352.848A2.514,2.514,0,0,0,12.4-4.187a1.406,1.406,0,0,0-1.1.461,1.79,1.79,0,0,0-.414,1.241,1.993,1.993,0,0,0,.333,1.242,1.153,1.153,0,0,0,.969.429,3.428,3.428,0,0,0,.673-.068V-1.924h-.947Z" transform="translate(4.149 18.766)" fill="#fff"/>
</svg>
