<svg id="MKV" xmlns="http://www.w3.org/2000/svg" width="24" height="24" viewBox="0 0 24 24">
  <path id="Path_54276" d="M13.8,2.3H4A1.216,1.216,0,0,0,2.8,3.5V19.6A1.216,1.216,0,0,0,4,20.8H17.9a1.216,1.216,0,0,0,1.2-1.2V8.5" fill="#f0f0f0" stroke="#bbbdbf" stroke-width="1"/>
  <rect id="Rectangle_18362_00000154411819100904164030000015771137690974771606_" width="24" height="24" fill="none"/>
  <path id="Path_54273" d="M15,8.5a1.216,1.216,0,0,1-1.2-1.2v-5H4A1.216,1.216,0,0,0,2.8,3.5V19.6A1.216,1.216,0,0,0,4,20.8H17.9a1.216,1.216,0,0,0,1.2-1.2V8.5Z" fill="none"/>
  <path id="Path_54274" d="M14.2,8.2V2.9l4.5,5.3Z" fill="#bbbdbf"/>
  <path id="Path_54275" d="M14.5,3.8,18,7.9H14.5V3.8m-.7-2V8.5h5.8Z" fill="#bbbdbf"/>
  <g id="Layer_2_00000041997405787208299010000000974437217311144085_">
    <g id="Rectangle_18362">
      <rect id="Rectangle_23525" data-name="Rectangle 23525" width="24" height="24" fill="none"/>
    </g>
  </g>
  <path id="Path_62924" data-name="Path 62924" d="M19.7,21.6H3.5a1.367,1.367,0,0,1-1.4-1.4V11.9a1.367,1.367,0,0,1,1.4-1.4H19.8a1.367,1.367,0,0,1,1.4,1.4v8.3A1.453,1.453,0,0,1,19.7,21.6Z" fill="#545454"/>
  <path id="Path_62953" data-name="Path 62953" d="M2.745,0l-1.2-3.92H1.511q.065,1.2.065,1.6V0H.629V-5H2.071L3.254-1.176h.021L4.529-5H5.971V0H4.983V-2.365q0-.167.005-.386t.046-1.162H5L3.715,0Zm8.5,0h-1.2L8.736-2.105l-.448.321V0H7.229V-5h1.06V-2.71L8.706-3.3,10.059-5h1.176L9.492-2.786Zm3.479-5H15.8L14.1,0H12.944l-1.7-5h1.07l.94,2.974q.079.263.162.614t.1.487a8.755,8.755,0,0,1,.256-1.1Z" transform="translate(3.65 18.766)" fill="#fff"/>
</svg>
