<svg id="Layer_1" data-name="Layer 1" xmlns="http://www.w3.org/2000/svg" viewBox="0 0 60 60"><defs><style>.cls-1{fill:#e9e9e0;}.cls-2{fill:#d9d7ca;}.cls-3{fill:#29abe2;}.cls-4{fill:#c8bdb8;}</style></defs><title>file part open</title><path class="cls-1" d="M40.49,3.48h-29c-.81,0-1.46.65-1.46,1.93V58.48a1.51,1.51,0,0,0,1.46,1H51.54a1.51,1.51,0,0,0,1.46-1v-42c0-.7-.09-.92-.26-1.09L41.11,3.74A.88.88,0,0,0,40.49,3.48Z"/><polygon class="cls-2" points="41 3.63 41 15.48 52.85 15.48 41 3.63"/><path class="cls-3" d="M51.54,59.48H11.46A1.46,1.46,0,0,1,10,58V42.48H53V58A1.46,1.46,0,0,1,51.54,59.48Z"/><path class="cls-4" d="M22,17.75H16a1,1,0,0,1,0-2h6a1,1,0,0,1,0,2Z"/><path class="cls-4" d="M25,22.75H16a1,1,0,0,1,0-2h9a1,1,0,0,1,0,2Z"/><path class="cls-4" d="M24.5,32.48h-8a1,1,0,1,1,0-2h8a1,1,0,0,1,0,2Z"/><path class="cls-4" d="M26,37.75H18a1,1,0,0,1,0-2h8a1,1,0,0,1,0,2Z"/><path class="cls-4" d="M38,27.75H16a1,1,0,0,1,0-2H38a1,1,0,1,1,0,2Z"/></svg>