<svg width="24" height="24" viewBox="0 0 24 24" fill="none" xmlns="http://www.w3.org/2000/svg">
<g id="png">
<g id="Layer_4">
<path id="Path 54273" fill-rule="evenodd" clip-rule="evenodd" d="M14.997 8.51517C14.3544 8.51517 13.8331 7.9948 13.832 7.35217V2.32617H3.95398C3.26794 2.32617 2.71118 2.88114 2.70898 3.56718V19.6442C2.71118 20.3302 3.26794 20.8852 3.95398 20.8852H17.821C18.5065 20.8846 19.0623 20.3297 19.064 19.6442V8.51517H14.997Z" fill="#F0F0F0"/>
<g id="Group 65280">
<path id="Path 54274" fill-rule="evenodd" clip-rule="evenodd" d="M14.1523 8.19625V2.90625L18.6713 8.19625H14.1523Z" fill="#BBBDBF"/>
<path id="Path 54275" fill-rule="evenodd" clip-rule="evenodd" d="M14.4873 3.80605L17.9533 7.86305H14.4873V3.80605ZM13.8203 1.99805V8.52805H19.3943L13.8203 1.99805Z" fill="#BBBDBF"/>
</g>
<path id="Path 54276" d="M13.831 2.32617H3.95398C3.26794 2.32617 2.71118 2.88114 2.70898 3.56718V19.6442C2.71173 20.3298 3.26833 20.8842 3.95398 20.8842H17.821C18.5065 20.8836 19.0623 20.3287 19.064 19.6432V8.51517" stroke="#BBBDBF"/>
<path id="Path 54277" fill-rule="evenodd" clip-rule="evenodd" d="M19.699 21.5913H3.411C2.63173 21.5913 2 20.9596 2 20.1803V11.8973C2 11.1181 2.63173 10.4863 3.411 10.4863H19.698C20.4773 10.4863 21.109 11.1181 21.109 11.8973V20.1813C21.1084 20.9598 20.4775 21.5908 19.699 21.5913Z" fill="#338ED1"/>
<path id="MSG" d="M6.13672 19L4.76172 14.5195H4.72656C4.73177 14.6263 4.73958 14.7878 4.75 15.0039C4.76302 15.2174 4.77474 15.4453 4.78516 15.6875C4.79557 15.9297 4.80078 16.1484 4.80078 16.3438V19H3.71875V13.2891H5.36719L6.71875 17.6562H6.74219L8.17578 13.2891H9.82422V19H8.69531V16.2969C8.69531 16.1172 8.69792 15.9102 8.70312 15.6758C8.71094 15.4414 8.72005 15.2188 8.73047 15.0078C8.74089 14.7943 8.7487 14.6341 8.75391 14.5273H8.71875L7.24609 19H6.13672ZM14.6367 17.4141C14.6367 17.7526 14.5547 18.0469 14.3906 18.2969C14.2266 18.5469 13.987 18.7396 13.6719 18.875C13.3594 19.0104 12.9792 19.0781 12.5312 19.0781C12.3333 19.0781 12.1393 19.0651 11.9492 19.0391C11.7617 19.013 11.5807 18.9753 11.4062 18.9258C11.2344 18.8737 11.0703 18.8099 10.9141 18.7344V17.6094C11.1849 17.7292 11.4661 17.8372 11.7578 17.9336C12.0495 18.0299 12.3385 18.0781 12.625 18.0781C12.8229 18.0781 12.9818 18.0521 13.1016 18C13.224 17.9479 13.3125 17.8763 13.3672 17.7852C13.4219 17.694 13.4492 17.5898 13.4492 17.4727C13.4492 17.3294 13.401 17.207 13.3047 17.1055C13.2083 17.0039 13.0755 16.9089 12.9062 16.8203C12.7396 16.7318 12.5508 16.6367 12.3398 16.5352C12.207 16.4727 12.0625 16.3971 11.9062 16.3086C11.75 16.2174 11.6016 16.1068 11.4609 15.9766C11.3203 15.8464 11.2044 15.6888 11.1133 15.5039C11.0247 15.3164 10.9805 15.0924 10.9805 14.832C10.9805 14.4909 11.0586 14.1992 11.2148 13.957C11.3711 13.7148 11.5938 13.5299 11.8828 13.4023C12.1745 13.2721 12.5182 13.207 12.9141 13.207C13.2109 13.207 13.4935 13.2422 13.7617 13.3125C14.0326 13.3802 14.3151 13.4792 14.6094 13.6094L14.2188 14.5508C13.9557 14.444 13.7201 14.362 13.5117 14.3047C13.3034 14.2448 13.0911 14.2148 12.875 14.2148C12.724 14.2148 12.5951 14.2396 12.4883 14.2891C12.3815 14.3359 12.3008 14.4036 12.2461 14.4922C12.1914 14.5781 12.1641 14.6784 12.1641 14.793C12.1641 14.9284 12.2031 15.043 12.2812 15.1367C12.362 15.2279 12.4818 15.3164 12.6406 15.4023C12.8021 15.4883 13.0026 15.5885 13.2422 15.7031C13.5339 15.8411 13.7826 15.9857 13.9883 16.1367C14.1966 16.2852 14.3568 16.4609 14.4688 16.6641C14.5807 16.8646 14.6367 17.1146 14.6367 17.4141ZM17.8398 15.793H20.1055V18.7539C19.806 18.8529 19.4948 18.9323 19.1719 18.9922C18.849 19.0495 18.4831 19.0781 18.0742 19.0781C17.5065 19.0781 17.0247 18.9661 16.6289 18.7422C16.2331 18.5182 15.9323 18.1875 15.7266 17.75C15.5208 17.3125 15.418 16.7747 15.418 16.1367C15.418 15.5378 15.5326 15.0195 15.7617 14.582C15.9935 14.1445 16.3307 13.806 16.7734 13.5664C17.2188 13.3268 17.7617 13.207 18.4023 13.207C18.7044 13.207 19.0026 13.2396 19.2969 13.3047C19.5911 13.3698 19.8581 13.4544 20.0977 13.5586L19.6953 14.5273C19.5208 14.4388 19.3216 14.3646 19.0977 14.3047C18.8737 14.2448 18.6393 14.2148 18.3945 14.2148C18.043 14.2148 17.737 14.2956 17.4766 14.457C17.2188 14.6185 17.0182 14.8451 16.875 15.1367C16.7344 15.4258 16.6641 15.7669 16.6641 16.1602C16.6641 16.5326 16.7148 16.8633 16.8164 17.1523C16.918 17.4388 17.0781 17.6641 17.2969 17.8281C17.5156 17.9896 17.8008 18.0703 18.1523 18.0703C18.3242 18.0703 18.4688 18.0625 18.5859 18.0469C18.7057 18.0286 18.8177 18.0104 18.9219 17.9922V16.8008H17.8398V15.793Z" fill="white"/>
</g>
</g>
</svg>
