<svg id="ppt" xmlns="http://www.w3.org/2000/svg" width="24" height="24" viewBox="0 0 24 24">
  <g id="Layer_2_00000041997405787208299010000000974437217311144085_">
    <rect id="Rectangle_18362" data-name="Rectangle 18362" width="24" height="24" fill="none"/>
  </g>
  <g id="Layer_4" transform="translate(0.054 -0.393)">
    <path id="Path_54273" data-name="Path 54273" d="M14.943,8.91a1.165,1.165,0,0,1-1.165-1.163V2.721H3.9A1.245,1.245,0,0,0,2.655,3.962V20.039A1.245,1.245,0,0,0,3.9,21.28H17.767a1.244,1.244,0,0,0,1.243-1.241V8.91Z" fill="#f0f0f0"/>
    <g id="Group_65280" data-name="Group 65280">
      <path id="Path_54274" data-name="Path 54274" d="M14.1,8.59V3.3l4.519,5.29Z" fill="#bbbdbf"/>
      <path id="Path_54275" data-name="Path 54275" d="M14.434,4.2,17.9,8.257H14.434V4.2m-.667-1.808v6.53h5.574Z" fill="#bbbdbf"/>
    </g>
    <path id="Path_54276" data-name="Path 54276" d="M13.777,2.721H3.9A1.245,1.245,0,0,0,2.655,3.962V20.039A1.245,1.245,0,0,0,3.9,21.279H17.767a1.244,1.244,0,0,0,1.243-1.241V8.91" fill="none" stroke="#bbbdbf" stroke-width="1"/>
    <path id="Path_54277" data-name="Path 54277" d="M19.645,21.985H3.357a1.411,1.411,0,0,1-1.411-1.411V12.291A1.411,1.411,0,0,1,3.357,10.88H19.644a1.411,1.411,0,0,1,1.411,1.411v8.284A1.411,1.411,0,0,1,19.645,21.985Z" fill="#f58503"/>
    <path id="XMLID_00000173847018829198866470000007742571303851566512_" d="M1.93-3.023h.4a1.327,1.327,0,0,0,.836-.221.772.772,0,0,0,.277-.643.792.792,0,0,0-.232-.629,1.089,1.089,0,0,0-.729-.2H1.93ZM4.664-3.93a1.746,1.746,0,0,1-.576,1.41,2.464,2.464,0,0,1-1.639.488H1.93V0H.719V-5.711H2.543a2.426,2.426,0,0,1,1.58.447A1.631,1.631,0,0,1,4.664-3.93Zm2.289.906h.4a1.327,1.327,0,0,0,.836-.221.772.772,0,0,0,.277-.643.792.792,0,0,0-.232-.629,1.089,1.089,0,0,0-.729-.2H6.953ZM9.688-3.93a1.746,1.746,0,0,1-.576,1.41,2.464,2.464,0,0,1-1.639.488h-.52V0H5.742V-5.711H7.566a2.426,2.426,0,0,1,1.58.447A1.631,1.631,0,0,1,9.688-3.93ZM12.969,0H11.758V-4.7H10.207V-5.711H14.52V-4.7H12.969Z" transform="translate(4.106 19.159)" fill="#fff"/>
  </g>
</svg>
