<svg xmlns="http://www.w3.org/2000/svg" width="19.109" height="19.764" viewBox="0 0 19.109 19.764">
  <g id="PPTX" transform="translate(-1.946 -2.221)">
    <path id="Path_54273" data-name="Path 54273" d="M14.943,8.91a1.165,1.165,0,0,1-1.165-1.163V2.721H3.9A1.245,1.245,0,0,0,2.655,3.962V20.039A1.245,1.245,0,0,0,3.9,21.28H17.767a1.244,1.244,0,0,0,1.243-1.241V8.91Z" fill="#f0f0f0"/>
    <g id="Group_65280" data-name="Group 65280">
      <path id="Path_54274" data-name="Path 54274" d="M14.1,8.59V3.3l4.519,5.29Z" fill="#bbbdbf"/>
      <path id="Path_54275" data-name="Path 54275" d="M14.434,4.2,17.9,8.257H14.434V4.2m-.667-1.808v6.53h5.574Z" fill="#bbbdbf"/>
    </g>
    <path id="Path_54276" data-name="Path 54276" d="M13.777,2.721H3.9A1.245,1.245,0,0,0,2.655,3.962V20.039A1.245,1.245,0,0,0,3.9,21.279H17.767a1.244,1.244,0,0,0,1.243-1.241V8.91" fill="none" stroke="#bbbdbf" stroke-width="1"/>
    <path id="Path_54277" data-name="Path 54277" d="M19.645,21.985H3.357a1.411,1.411,0,0,1-1.411-1.411V12.291A1.411,1.411,0,0,1,3.357,10.88H19.644a1.411,1.411,0,0,1,1.411,1.411v8.284A1.411,1.411,0,0,1,19.645,21.985Z" fill="#f58503"/>
    <path id="XMLID_00000173847018829198866470000007742571303851566512_" d="M1.447-2.268h.3a1,1,0,0,0,.627-.166.579.579,0,0,0,.208-.482.594.594,0,0,0-.174-.472.817.817,0,0,0-.546-.152H1.447ZM3.5-2.947A1.309,1.309,0,0,1,3.066-1.89a1.848,1.848,0,0,1-1.229.366h-.39V0H.539V-4.283H1.907a1.82,1.82,0,0,1,1.185.335A1.223,1.223,0,0,1,3.5-2.947Zm1.717.68h.3a1,1,0,0,0,.627-.166.579.579,0,0,0,.208-.482.594.594,0,0,0-.174-.472.817.817,0,0,0-.546-.152H5.215Zm2.051-.68A1.309,1.309,0,0,1,6.833-1.89,1.848,1.848,0,0,1,5.6-1.523h-.39V0H4.307V-4.283H5.675a1.82,1.82,0,0,1,1.185.335A1.223,1.223,0,0,1,7.266-2.947ZM9.727,0H8.818V-3.527H7.655v-.756H10.89v.756H9.727Zm5.285,0H13.975l-1-1.62-1,1.62H11.01l1.421-2.209L11.1-4.283h1l.923,1.541.905-1.541h.979L13.564-2.159Z" transform="translate(3.94 19.159)" fill="#fff"/>
  </g>
</svg>
