<svg id="Layer_1" data-name="Layer 1" xmlns="http://www.w3.org/2000/svg" viewBox="0 0 60 60"><defs><style>.cls-1{fill:#fdd9a1;}.cls-2{fill:#fbb03b;}.cls-3{fill:#fff;}</style></defs><title>1</title><rect class="cls-1" x="1.75" y="1.75" width="18.5" height="56.5"/><rect class="cls-1" x="21.75" y="1.75" width="18.5" height="56.5"/><rect class="cls-1" x="40.25" y="58.25" width="1.5" height="0.75"/><rect class="cls-1" x="41.75" y="1.75" width="16.5" height="56.5"/><path class="cls-2" d="M40.25,58.25V59h1.5v-.75Z"/><rect class="cls-2" x="20.25" y="58.25" width="1.5" height="0.75"/><path class="cls-2" d="M.25.25v59.5h59.5V.25Zm1.5,58V1.75h18.5v56.5Zm56.5,0H41.75V59h-1.5v-.75H21.75V1.75h18.5v56.5h1.5V1.75h16.5Z"/><rect class="cls-2" x="40.25" y="58.25" width="1.5" height="0.75"/><rect class="cls-3" x="9" y="6" width="4" height="20" rx="2" ry="2"/><rect class="cls-3" x="29" y="6" width="4" height="20" rx="2" ry="2"/><rect class="cls-3" x="48" y="6" width="4" height="20" rx="2" ry="2"/><rect class="cls-3" x="5" y="41" width="12" height="1"/><rect class="cls-3" x="5" y="45" width="12" height="1"/><rect class="cls-3" x="25" y="45" width="12" height="1"/><rect class="cls-3" x="44" y="45" width="12" height="1"/><rect class="cls-3" x="25" y="41" width="12" height="1"/><rect class="cls-3" x="44" y="41" width="12" height="1"/><circle class="cls-3" cx="11.5" cy="52.5" r="3.5"/><circle class="cls-3" cx="31.5" cy="52.5" r="3.5"/><circle class="cls-3" cx="50.5" cy="52.5" r="3.5"/></svg>