<svg id="Layer_1" data-name="Layer 1" xmlns="http://www.w3.org/2000/svg" viewBox="0 0 60 60"><defs><style>.cls-1{fill:white;}</style></defs><title>ivon</title><path class="cls-1" d="M40.75,1.25H.25v58.5h59.5V1.25Zm-39,57V2.75h17.5v55.5Zm20,0V2.75h16.5v55.5Zm36.5,0H40.75V2.75h17.5Z"/><circle class="cls-1" cx="10.5" cy="52.5" r="3.5"/><circle class="cls-1" cx="29.5" cy="52.5" r="3.5"/><circle class="cls-1" cx="48.5" cy="52.5" r="3.5"/><rect class="cls-1" x="5" y="39" width="12" height="2"/><rect class="cls-1" x="5" y="44" width="12" height="2"/><rect class="cls-1" x="24" y="39" width="12" height="2"/><rect class="cls-1" x="24" y="44" width="12" height="2"/><rect class="cls-1" x="43" y="39" width="12" height="2"/><rect class="cls-1" x="43" y="44" width="12" height="2"/><path class="cls-1" d="M10.5,29A2.51,2.51,0,0,0,13,26.5V8.5a2.5,2.5,0,0,0-5,0v18A2.51,2.51,0,0,0,10.5,29Z"/><path class="cls-1" d="M30.5,29A2.51,2.51,0,0,0,33,26.5V8.5a2.5,2.5,0,0,0-5,0v18A2.51,2.51,0,0,0,30.5,29Z"/><path class="cls-1" d="M49.5,29A2.51,2.51,0,0,0,52,26.5V8.5a2.5,2.5,0,0,0-5,0v18A2.51,2.51,0,0,0,49.5,29Z"/></svg>