<svg width="24" height="24" viewBox="0 0 24 24" fill="none" xmlns="http://www.w3.org/2000/svg">
<path fill-rule="evenodd" clip-rule="evenodd" d="M14.9989 8.51713C14.3563 8.51713 13.835 7.99676 13.8339 7.35413V2.32812H3.95594C3.2699 2.32812 2.71314 2.88309 2.71094 3.56913V19.6461C2.71314 20.3322 3.2699 20.8871 3.95594 20.8871H17.8229C18.5084 20.8866 19.0643 20.3316 19.0659 19.6461V8.51713H14.9989Z" fill="#F0F0F0"/>
<path fill-rule="evenodd" clip-rule="evenodd" d="M14.1562 8.19625V2.90625L18.6753 8.19625H14.1562Z" fill="#BBBDBF"/>
<path fill-rule="evenodd" clip-rule="evenodd" d="M14.4873 3.808L17.9533 7.865H14.4873V3.808M13.8203 2V8.53H19.3943L13.8203 2Z" fill="#BBBDBF"/>
<path d="M13.8329 2.32812H3.95594C3.2699 2.32812 2.71314 2.88309 2.71094 3.56913V19.6461C2.71369 20.3318 3.27029 20.8861 3.95594 20.8861H17.8229C18.5084 20.8856 19.0643 20.3306 19.0659 19.6451V8.51713" stroke="#BBBDBF"/>
<path fill-rule="evenodd" clip-rule="evenodd" d="M19.699 21.5894H3.411C2.63173 21.5894 2 20.9576 2 20.1784V11.8954C2 11.1161 2.63173 10.4844 3.411 10.4844H19.698C20.4773 10.4844 21.109 11.1161 21.109 11.8954V20.1794C21.1084 20.9579 20.4775 21.5888 19.699 21.5894Z" fill="#545454"/>
<path d="M6.38281 13.2891C6.90104 13.2891 7.32812 13.3516 7.66406 13.4766C8.0026 13.6016 8.25391 13.7904 8.41797 14.043C8.58203 14.2956 8.66406 14.6146 8.66406 15C8.66406 15.2604 8.61458 15.4883 8.51562 15.6836C8.41667 15.8789 8.28646 16.0443 8.125 16.1797C7.96354 16.3151 7.78906 16.4258 7.60156 16.5117L9.28125 19H7.9375L6.57422 16.8086H5.92969V19H4.71875V13.2891H6.38281ZM6.29688 14.2812H5.92969V15.8242H6.32031C6.72135 15.8242 7.00781 15.7578 7.17969 15.625C7.35417 15.4896 7.44141 15.2917 7.44141 15.0312C7.44141 14.7604 7.34766 14.5677 7.16016 14.4531C6.97526 14.3385 6.6875 14.2812 6.29688 14.2812ZM12.2031 19H10.9922V14.2969H9.44141V13.2891H13.7539V14.2969H12.2031V19ZM15.8242 19H14.6328V13.2891H17.9062V14.2812H15.8242V15.7539H17.7617V16.7422H15.8242V19Z" fill="white"/>
</svg>
