<svg id="sound" xmlns="http://www.w3.org/2000/svg" width="24" height="24" viewBox="0 0 24 24">
  <g id="Layer_2_00000041997405787208299010000000974437217311144085_">
    <rect id="Rectangle_18362" data-name="Rectangle 18362" width="24" height="24" fill="none"/>
  </g>
  <g id="Layer_4" transform="translate(0.054 -0.393)">
    <path id="Path_54273" data-name="Path 54273" d="M14.943,8.91a1.165,1.165,0,0,1-1.165-1.163V2.721H3.9A1.245,1.245,0,0,0,2.655,3.962V20.039A1.245,1.245,0,0,0,3.9,21.28H17.767a1.244,1.244,0,0,0,1.243-1.241V8.91Z" fill="#f0f0f0"/>
    <g id="Group_65280" data-name="Group 65280">
      <path id="Path_54274" data-name="Path 54274" d="M14.1,8.59V3.3l4.519,5.29Z" fill="#bbbdbf"/>
      <path id="Path_54275" data-name="Path 54275" d="M14.434,4.2,17.9,8.257H14.434V4.2m-.667-1.808v6.53h5.574Z" fill="#bbbdbf"/>
    </g>
    <path id="Path_54276" data-name="Path 54276" d="M13.777,2.721H3.9A1.245,1.245,0,0,0,2.655,3.962V20.039A1.245,1.245,0,0,0,3.9,21.279H17.767a1.244,1.244,0,0,0,1.243-1.241V8.91" fill="none" stroke="#bbbdbf" stroke-width="1"/>
    <path id="Path_54277" data-name="Path 54277" d="M19.645,21.985H3.357a1.411,1.411,0,0,1-1.411-1.411V12.291A1.411,1.411,0,0,1,3.357,10.88H19.644a1.411,1.411,0,0,1,1.411,1.411v8.284A1.411,1.411,0,0,1,19.645,21.985Z" fill="#c16a1f"/>
    <path id="XMLID_00000173847018829198866470000007742571303851566512_" d="M2.556-.991a.923.923,0,0,1-.348.762A1.511,1.511,0,0,1,1.24.049,2.273,2.273,0,0,1,.229-.166v-.7a4.165,4.165,0,0,0,.612.227A1.81,1.81,0,0,0,1.3-.576a.651.651,0,0,0,.382-.1.326.326,0,0,0,.133-.283.313.313,0,0,0-.059-.187A.656.656,0,0,0,1.583-1.3a4.427,4.427,0,0,0-.463-.242,2.193,2.193,0,0,1-.491-.3,1.109,1.109,0,0,1-.261-.33.941.941,0,0,1-.1-.439A.922.922,0,0,1,.592-3.35a1.334,1.334,0,0,1,.887-.271,2.1,2.1,0,0,1,.531.066,3.65,3.65,0,0,1,.529.186l-.244.588a3.572,3.572,0,0,0-.472-.164,1.521,1.521,0,0,0-.367-.046.487.487,0,0,0-.33.1.33.33,0,0,0-.115.261.323.323,0,0,0,.046.175.51.51,0,0,0,.148.144,4.567,4.567,0,0,0,.48.25,1.909,1.909,0,0,1,.686.48A.936.936,0,0,1,2.556-.991ZM3.738-1.37a1.146,1.146,0,0,0,.133.613A.476.476,0,0,0,4.3-.549a.468.468,0,0,0,.428-.206,1.162,1.162,0,0,0,.131-.614,1.127,1.127,0,0,0-.132-.608.477.477,0,0,0-.432-.2.475.475,0,0,0-.43.2A1.126,1.126,0,0,0,3.738-1.37Zm1.887,0A1.467,1.467,0,0,1,5.273-.327a1.275,1.275,0,0,1-.979.376A1.37,1.37,0,0,1,3.6-.123,1.145,1.145,0,0,1,3.14-.618a1.661,1.661,0,0,1-.161-.752,1.459,1.459,0,0,1,.349-1.04,1.282,1.282,0,0,1,.981-.371A1.377,1.377,0,0,1,5-2.61a1.141,1.141,0,0,1,.461.491A1.646,1.646,0,0,1,5.625-1.37ZM8.174,0l-.1-.349H8.035A.786.786,0,0,1,7.7-.055a1.159,1.159,0,0,1-.5.1A.953.953,0,0,1,6.47-.209,1.036,1.036,0,0,1,6.226-.95v-1.78H6.97v1.594a.766.766,0,0,0,.1.443.382.382,0,0,0,.334.148.5.5,0,0,0,.452-.209A1.3,1.3,0,0,0,8-1.445V-2.729h.745V0Zm3.872,0H11.3V-1.594a.766.766,0,0,0-.1-.443.382.382,0,0,0-.334-.148.5.5,0,0,0-.452.209,1.3,1.3,0,0,0-.139.692V0H9.526V-2.729H10.1l.1.349h.042a.787.787,0,0,1,.343-.3,1.168,1.168,0,0,1,.5-.1.955.955,0,0,1,.723.258,1.034,1.034,0,0,1,.247.743Zm1.631.049a.887.887,0,0,1-.756-.374,1.717,1.717,0,0,1-.275-1.035,1.719,1.719,0,0,1,.28-1.046.908.908,0,0,1,.77-.375.89.89,0,0,1,.786.4h.024a3.044,3.044,0,0,1-.056-.544V-3.8H15.2V0h-.571l-.144-.354h-.032A.852.852,0,0,1,13.677.049Zm.261-.593a.5.5,0,0,0,.419-.166.966.966,0,0,0,.145-.564v-.081a1.116,1.116,0,0,0-.135-.63.5.5,0,0,0-.441-.19.437.437,0,0,0-.387.211,1.127,1.127,0,0,0-.138.614,1.068,1.068,0,0,0,.139.6A.455.455,0,0,0,13.938-.544Z" transform="translate(3.653 18.159)" fill="#fff"/>
  </g>
</svg>
