<svg id="File-SVG" xmlns="http://www.w3.org/2000/svg" width="24" height="24" viewBox="0 0 24 24">
  <path id="Path_54276" d="M13.8,2.3H4A1.216,1.216,0,0,0,2.8,3.5V19.6A1.216,1.216,0,0,0,4,20.8H17.9a1.216,1.216,0,0,0,1.2-1.2V8.5" fill="#f0f0f0" stroke="#bbbdbf" stroke-width="1"/>
  <rect id="Rectangle_18362" width="24" height="24" fill="none"/>
  <path id="Path_54273" d="M15,8.5a1.216,1.216,0,0,1-1.2-1.2v-5H4A1.216,1.216,0,0,0,2.8,3.5V19.6A1.216,1.216,0,0,0,4,20.8H17.9a1.216,1.216,0,0,0,1.2-1.2V8.5Z" fill="none"/>
  <path id="Path_54274" d="M14.2,8.2V2.9l4.5,5.3Z" fill="#bbbdbf"/>
  <path id="Path_54275" d="M14.5,3.8,18,7.9H14.5V3.8m-.7-2V8.5h5.8Z" fill="#bbbdbf"/>
  <path id="Path_62922" data-name="Path 62922" d="M19.7,21.6H3.5a1.367,1.367,0,0,1-1.4-1.4V11.9a1.367,1.367,0,0,1,1.4-1.4H19.8a1.367,1.367,0,0,1,1.4,1.4v8.3A1.453,1.453,0,0,1,19.7,21.6Z" fill="#7d6599"/>
  <path id="Path_62947" data-name="Path 62947" d="M4.09-1.586A1.476,1.476,0,0,1,3.533-.367,2.418,2.418,0,0,1,1.984.078,3.637,3.637,0,0,1,.367-.266V-1.391a6.664,6.664,0,0,0,.979.363,2.9,2.9,0,0,0,.732.105,1.041,1.041,0,0,0,.611-.152A.521.521,0,0,0,2.9-1.527a.5.5,0,0,0-.094-.3,1.049,1.049,0,0,0-.275-.252,7.083,7.083,0,0,0-.74-.387,3.509,3.509,0,0,1-.785-.473A1.774,1.774,0,0,1,.59-3.465a1.5,1.5,0,0,1-.156-.7A1.476,1.476,0,0,1,.947-5.359a2.134,2.134,0,0,1,1.42-.434,3.353,3.353,0,0,1,.85.105,5.84,5.84,0,0,1,.846.3l-.391.941a5.715,5.715,0,0,0-.756-.262,2.433,2.433,0,0,0-.588-.074.778.778,0,0,0-.527.16.528.528,0,0,0-.184.418.517.517,0,0,0,.074.279.816.816,0,0,0,.236.23,7.307,7.307,0,0,0,.768.4,3.054,3.054,0,0,1,1.1.768A1.5,1.5,0,0,1,4.09-1.586ZM8.383-5.711H9.605L7.664,0H6.344L4.406-5.711H5.629L6.7-2.312q.09.3.186.7t.119.557A10.006,10.006,0,0,1,7.3-2.312Zm4.031,2.5H14.68V-.246a6.387,6.387,0,0,1-1.037.252,6.755,6.755,0,0,1-.994.072,2.515,2.515,0,0,1-1.975-.76,3.161,3.161,0,0,1-.682-2.182,2.877,2.877,0,0,1,.791-2.156,3,3,0,0,1,2.193-.773,4.244,4.244,0,0,1,1.7.352l-.4.969a2.874,2.874,0,0,0-1.3-.312,1.606,1.606,0,0,0-1.258.527,2.046,2.046,0,0,0-.473,1.418,2.277,2.277,0,0,0,.381,1.42,1.318,1.318,0,0,0,1.107.49,3.917,3.917,0,0,0,.77-.078V-2.2H12.414Z" transform="translate(4.035 18.766)" fill="#fff"/>
</svg>
