<svg id="Layer_1" data-name="Layer 1" xmlns="http://www.w3.org/2000/svg" viewBox="0 0 60 60"><defs><style>.cls-1{fill:#e9e9e0;}.cls-2{fill:#d9d7ca;}.cls-3{fill:#95a5a5;}.cls-4{fill:#fff;}.cls-5{fill:#c8bdb8;}</style></defs><title>txt</title><path class="cls-1" d="M40,2H11c-.81,0-1.46.65-1.46,1.93V57A1.51,1.51,0,0,0,11,58H51a1.51,1.51,0,0,0,1.46-1V15c0-.7-.09-.92-.26-1.09L40.61,2.26A.88.88,0,0,0,40,2Z"/><polygon class="cls-2" points="40.5 2.15 40.5 14 52.35 14 40.5 2.15"/><path class="cls-3" d="M51,58H11A1.46,1.46,0,0,1,9.5,56.54V41h43V56.54A1.46,1.46,0,0,1,51,58Z"/><path class="cls-4" d="M24.87,44.92V46h-3v9H20.21V46h-3V44.92Z"/><path class="cls-4" d="M31.44,50.1,34,55H32.1l-1.6-3.8h-.14L28.64,55h-1.9l2.56-4.9-2.72-5.18h1.87L30.23,49h.14l1.93-4.1h1.87Z"/><path class="cls-4" d="M43.53,44.92V46h-3v9H38.87V46h-3V44.92Z"/><path class="cls-5" d="M21.5,15h-6a1,1,0,0,1,0-2h6a1,1,0,0,1,0,2Z"/><path class="cls-5" d="M24.5,20h-9a1,1,0,0,1,0-2h9a1,1,0,0,1,0,2Z"/><path class="cls-5" d="M28.5,20a1,1,0,0,1-.71-.29A1,1,0,0,1,27.5,19a1,1,0,0,1,.3-.71,1,1,0,0,1,1.41,0A1,1,0,0,1,28.5,20Z"/><path class="cls-5" d="M40.5,20h-8a1,1,0,0,1,0-2h8a1,1,0,0,1,0,2Z"/><path class="cls-5" d="M15.5,35a1,1,0,0,1-.71-1.71,1,1,0,0,1,1.42,0,1,1,0,0,1,.29.7,1,1,0,0,1-1,1Z"/><path class="cls-5" d="M27.5,35h-8a1,1,0,0,1,0-2h8a1,1,0,0,1,0,2Z"/><path class="cls-5" d="M46.5,20h-2a1,1,0,0,1,0-2h2a1,1,0,0,1,0,2Z"/><path class="cls-5" d="M37.5,25h-22a1,1,0,0,1,0-2h22a1,1,0,0,1,0,2Z"/><path class="cls-5" d="M46.5,25h-6a1,1,0,0,1,0-2h6a1,1,0,0,1,0,2Z"/><path class="cls-5" d="M19.5,30h-4a1,1,0,0,1,0-2h4a1,1,0,0,1,0,2Z"/><path class="cls-5" d="M33.5,30h-10a1,1,0,0,1,0-2h10a1,1,0,0,1,0,2Z"/><path class="cls-5" d="M46.5,30h-9a1,1,0,0,1,0-2h9a1,1,0,0,1,0,2Z"/></svg>