<svg id="Layer_1" data-name="Layer 1" xmlns="http://www.w3.org/2000/svg" viewBox="0 0 60 60"><defs><style>.cls-1{fill:#e9e9e0;}.cls-2{fill:#d9d7ca;}.cls-3{fill:#e57e25;}.cls-4{font-size:14px;fill:#fff;font-family:OpenSans-Bold, Open Sans;font-weight:700;}.cls-5{fill:#c8bdb8;}</style></defs><title>TIF</title><path class="cls-1" d="M41.49,1.65h-29c-.81,0-1.46.65-1.46,1.93V56.65a1.51,1.51,0,0,0,1.46,1H52.54a1.51,1.51,0,0,0,1.46-1v-42c0-.7-.09-.92-.26-1.09L42.11,1.91A.88.88,0,0,0,41.49,1.65Z"/><polygon class="cls-2" points="42 1.8 42 13.65 53.85 13.65 42 1.8"/><path class="cls-3" d="M52.54,57.65H12.46A1.46,1.46,0,0,1,11,56.19V40.65H54V56.19A1.46,1.46,0,0,1,52.54,57.65Z"/><text class="cls-4" transform="translate(23 54.29)">TIF</text><path class="cls-5" d="M50,23.65v-6H44v2H38v-4H28v4H22v-2H16v6h6v-2h3.55a15.1,15.1,0,0,0-7.55,13,1,1,0,0,0,2,0,13.09,13.09,0,0,1,8-12v3H38v-3a13.09,13.09,0,0,1,8,12,1,1,0,0,0,2,0,15.1,15.1,0,0,0-7.55-13H44v2Zm-30-2H18v-2h2Zm16,2H30v-6h6v6Zm10-4h2v2H46Z"/></svg>