<svg id="File-TMP" xmlns="http://www.w3.org/2000/svg" width="24" height="24" viewBox="0 0 24 24">
  <path id="Path_54276" d="M13.8,2.3H4A1.216,1.216,0,0,0,2.8,3.5V19.6A1.216,1.216,0,0,0,4,20.8H17.9a1.216,1.216,0,0,0,1.2-1.2V8.5" fill="#f0f0f0" stroke="#bbbdbf" stroke-width="1"/>
  <rect id="Rectangle_18362" width="24" height="24" fill="none"/>
  <path id="Path_54273" d="M15,8.5a1.216,1.216,0,0,1-1.2-1.2v-5H4A1.216,1.216,0,0,0,2.8,3.5V19.6A1.216,1.216,0,0,0,4,20.8H17.9a1.216,1.216,0,0,0,1.2-1.2V8.5Z" fill="none"/>
  <path id="Path_54274" d="M14.2,8.2V2.9l4.5,5.3Z" fill="#bbbdbf"/>
  <path id="Path_54275" d="M14.5,3.8,18,7.9H14.5V3.8m-.7-2V8.5h5.8Z" fill="#bbbdbf"/>
  <g id="Path_54277">
    <path id="Path_62923" data-name="Path 62923" d="M19.7,21.6H3.4A1.367,1.367,0,0,1,2,20.2V11.9a1.367,1.367,0,0,1,1.4-1.4H19.7a1.367,1.367,0,0,1,1.4,1.4v8.3A1.367,1.367,0,0,1,19.7,21.6Z" fill="#005cff"/>
  </g>
  <path id="Path_62948" data-name="Path 62948" d="M2.922,0H1.711V-4.7H.16V-5.711H4.473V-4.7H2.922ZM7.77,0,6.395-4.48H6.359q.074,1.367.074,1.824V0H5.352V-5.711H7L8.352-1.344h.023L9.809-5.711h1.648V0H10.328V-2.7q0-.191.006-.441t.053-1.328h-.035L8.879,0Zm6.336-3.023h.4a1.327,1.327,0,0,0,.836-.221.772.772,0,0,0,.277-.643.792.792,0,0,0-.232-.629,1.089,1.089,0,0,0-.729-.2h-.551ZM16.84-3.93a1.746,1.746,0,0,1-.576,1.41,2.464,2.464,0,0,1-1.639.488h-.52V0H12.895V-5.711h1.824a2.426,2.426,0,0,1,1.58.447A1.631,1.631,0,0,1,16.84-3.93Z" transform="translate(3.117 18.766)" fill="#fff"/>
</svg>
