<svg id="File-URL" xmlns="http://www.w3.org/2000/svg" width="24" height="24" viewBox="0 0 24 24">
  <path id="Path_54276" d="M13.8,2.3H4A1.216,1.216,0,0,0,2.8,3.5V19.6A1.216,1.216,0,0,0,4,20.8H17.9a1.216,1.216,0,0,0,1.2-1.2V8.5" fill="#f0f0f0" stroke="#bbbdbf" stroke-width="1"/>
  <rect id="Rectangle_18362" width="24" height="24" fill="none"/>
  <path id="Path_54273" d="M15,8.5a1.216,1.216,0,0,1-1.2-1.2v-5H4A1.216,1.216,0,0,0,2.8,3.5V19.6A1.216,1.216,0,0,0,4,20.8H17.9a1.216,1.216,0,0,0,1.2-1.2V8.5Z" fill="none"/>
  <path id="Path_54274" d="M14.2,8.2V2.9l4.5,5.3Z" fill="#bbbdbf"/>
  <path id="Path_54275" d="M14.5,3.8,18,7.9H14.5V3.8m-.7-2V8.5h5.8Z" fill="#bbbdbf"/>
  <path id="Path_54277" d="M19.7,21.6H3.4A1.367,1.367,0,0,1,2,20.2V11.9a1.367,1.367,0,0,1,1.4-1.4H19.7a1.367,1.367,0,0,1,1.4,1.4v8.3A1.367,1.367,0,0,1,19.7,21.6Z" fill="#545454"/>
  <path id="Path_62949" data-name="Path 62949" d="M5.367-5.711v3.7A2.13,2.13,0,0,1,5.084-.906a1.843,1.843,0,0,1-.818.73A2.927,2.927,0,0,1,3,.078,2.423,2.423,0,0,1,1.289-.486,2,2,0,0,1,.68-2.031v-3.68H1.887v3.5a1.464,1.464,0,0,0,.266.969,1.1,1.1,0,0,0,.879.309,1.08,1.08,0,0,0,.861-.311,1.472,1.472,0,0,0,.268-.975V-5.711ZM7.977-3.176h.391a1.494,1.494,0,0,0,.848-.191.683.683,0,0,0,.273-.6.625.625,0,0,0-.279-.578,1.7,1.7,0,0,0-.865-.172H7.977Zm0,.984V0H6.766V-5.711H8.43a2.848,2.848,0,0,1,1.723.424A1.513,1.513,0,0,1,10.711-4a1.515,1.515,0,0,1-.277.9,1.835,1.835,0,0,1-.785.615Q10.938-.562,11.328,0H9.984L8.621-2.191ZM12.047,0V-5.711h1.211V-1h2.316V0Z" transform="translate(3.434 18.766)" fill="#fff"/>
</svg>
