<svg id="File-WMZ" xmlns="http://www.w3.org/2000/svg" width="24" height="24" viewBox="0 0 24 24">
  <path id="Path_54276" d="M13.8,2.3H4A1.216,1.216,0,0,0,2.8,3.5V19.6A1.216,1.216,0,0,0,4,20.8H17.9a1.216,1.216,0,0,0,1.2-1.2V8.5" fill="#f0f0f0" stroke="#bbbdbf" stroke-width="1"/>
  <rect id="Rectangle_18362_00000154411819100904164030000015771137690974771606_" width="24" height="24" fill="none"/>
  <path id="Path_54273" d="M15,8.5a1.216,1.216,0,0,1-1.2-1.2v-5H4A1.216,1.216,0,0,0,2.8,3.5V19.6A1.216,1.216,0,0,0,4,20.8H17.9a1.216,1.216,0,0,0,1.2-1.2V8.5Z" fill="none"/>
  <path id="Path_54274" d="M14.2,8.2V2.9l4.5,5.3Z" fill="#bbbdbf"/>
  <path id="Path_54275" d="M14.5,3.8,18,7.9H14.5V3.8m-.7-2V8.5h5.8Z" fill="#bbbdbf"/>
  <g id="Layer_2_00000041997405787208299010000000974437217311144085_">
    <g id="Rectangle_18362">
      <rect id="Rectangle_23525" data-name="Rectangle 23525" width="24" height="24" fill="none"/>
    </g>
  </g>
  <path id="Path_62924" data-name="Path 62924" d="M19.7,21.6H3.5a1.367,1.367,0,0,1-1.4-1.4V11.9a1.367,1.367,0,0,1,1.4-1.4H19.8a1.367,1.367,0,0,1,1.4,1.4v8.3A1.453,1.453,0,0,1,19.7,21.6Z" fill="#545454"/>
  <path id="Path_62950" data-name="Path 62950" d="M5.5,0H4.29L3.613-2.625q-.038-.14-.128-.579t-.1-.59q-.021.185-.1.593t-.126.583L2.478,0h-1.2L0-5H1.042L1.682-2.27q.167.755.243,1.309.021-.195.094-.6T2.157-2.2L2.885-5h1l.728,2.8q.048.188.12.574t.109.663q.034-.267.109-.665t.137-.644L5.725-5H6.768ZM9.512,0l-1.2-3.92H8.278q.065,1.2.065,1.6V0H7.4V-5H8.839l1.183,3.821h.021L11.3-5h1.442V0h-.988V-2.365q0-.167.005-.386T11.8-3.914h-.031L10.483,0Zm7.742,0H13.535V-.687l2.4-3.435H13.6V-5h3.589v.684L14.8-.875h2.458Z" transform="translate(3.062 18.766)" fill="#fff"/>
</svg>
