<svg id="FIle-XLK" xmlns="http://www.w3.org/2000/svg" width="24" height="24" viewBox="0 0 24 24">
  <path id="Path_54276" d="M13.8,2.3H4A1.216,1.216,0,0,0,2.8,3.5V19.6A1.216,1.216,0,0,0,4,20.8H17.9a1.216,1.216,0,0,0,1.2-1.2V8.5" fill="#f0f0f0" stroke="#bbbdbf" stroke-width="1"/>
  <rect id="Rectangle_18362" width="24" height="24" fill="none"/>
  <path id="Path_54273" d="M15,8.5a1.216,1.216,0,0,1-1.2-1.2v-5H4A1.216,1.216,0,0,0,2.8,3.5V19.6A1.216,1.216,0,0,0,4,20.8H17.9a1.216,1.216,0,0,0,1.2-1.2V8.5Z" fill="none"/>
  <path id="Path_54274" d="M14.2,8.2V2.9l4.5,5.3Z" fill="#bbbdbf"/>
  <path id="Path_54275" d="M14.5,3.8,18,7.9H14.5V3.8m-.7-2V8.5h5.8Z" fill="#bbbdbf"/>
  <path id="Path_62918" data-name="Path 62918" d="M19.7,21.6H3.5a1.367,1.367,0,0,1-1.4-1.4V11.9a1.367,1.367,0,0,1,1.4-1.4H19.8a1.367,1.367,0,0,1,1.4,1.4v8.3A1.453,1.453,0,0,1,19.7,21.6Z" fill="#12b700"/>
  <path id="Path_62941" data-name="Path 62941" d="M5.336,0H3.953L2.625-2.16,1.3,0H0L1.895-2.945.121-5.711H1.457l1.23,2.055L3.895-5.711H5.2L3.406-2.879Zm.719,0V-5.711H7.266V-1H9.582V0Zm9.113,0H13.793L12.3-2.406l-.512.367V0H10.574V-5.711h1.211V-3.1l.477-.672,1.547-1.941h1.344L13.16-3.184Z" transform="translate(4.035 18.766)" fill="#fff"/>
</svg>
