<svg id="xls" xmlns="http://www.w3.org/2000/svg" width="24" height="24" viewBox="0 0 24 24">
  <g id="Layer_2_00000041997405787208299010000000974437217311144085_">
    <rect id="Rectangle_18362" data-name="Rectangle 18362" width="24" height="24" fill="none"/>
  </g>
  <g id="Layer_4" transform="translate(0.054 -0.393)">
    <path id="Path_54273" data-name="Path 54273" d="M14.943,8.91a1.165,1.165,0,0,1-1.165-1.163V2.721H3.9A1.245,1.245,0,0,0,2.655,3.962V20.039A1.245,1.245,0,0,0,3.9,21.28H17.767a1.244,1.244,0,0,0,1.243-1.241V8.91Z" fill="#f0f0f0"/>
    <g id="Group_65280" data-name="Group 65280">
      <path id="Path_54274" data-name="Path 54274" d="M14.1,8.59V3.3l4.519,5.29Z" fill="#bbbdbf"/>
      <path id="Path_54275" data-name="Path 54275" d="M14.434,4.2,17.9,8.257H14.434V4.2m-.667-1.808v6.53h5.574Z" fill="#bbbdbf"/>
    </g>
    <path id="Path_54276" data-name="Path 54276" d="M13.777,2.721H3.9A1.245,1.245,0,0,0,2.655,3.962V20.039A1.245,1.245,0,0,0,3.9,21.279H17.767a1.244,1.244,0,0,0,1.243-1.241V8.91" fill="none" stroke="#bbbdbf" stroke-width="1"/>
    <path id="Path_54277" data-name="Path 54277" d="M19.645,21.985H3.357a1.411,1.411,0,0,1-1.411-1.411V12.291A1.411,1.411,0,0,1,3.357,10.88H19.644a1.411,1.411,0,0,1,1.411,1.411v8.284A1.411,1.411,0,0,1,19.645,21.985Z" fill="#12b700"/>
    <path id="XMLID_00000173847018829198866470000007742571303851566512_" d="M5.336,0H3.953L2.625-2.16,1.3,0H0L1.895-2.945.121-5.711H1.457l1.23,2.055L3.895-5.711H5.2L3.406-2.879Zm.719,0V-5.711H7.266V-1H9.582V0Zm7.891-1.586a1.476,1.476,0,0,1-.557,1.219A2.418,2.418,0,0,1,11.84.078a3.637,3.637,0,0,1-1.617-.344V-1.391a6.664,6.664,0,0,0,.979.363,2.9,2.9,0,0,0,.732.105,1.041,1.041,0,0,0,.611-.152.521.521,0,0,0,.213-.453.5.5,0,0,0-.094-.3,1.049,1.049,0,0,0-.275-.252,7.083,7.083,0,0,0-.74-.387,3.509,3.509,0,0,1-.785-.473,1.774,1.774,0,0,1-.418-.527,1.5,1.5,0,0,1-.156-.7A1.476,1.476,0,0,1,10.8-5.359a2.134,2.134,0,0,1,1.42-.434,3.353,3.353,0,0,1,.85.105,5.84,5.84,0,0,1,.846.3l-.391.941a5.715,5.715,0,0,0-.756-.262,2.433,2.433,0,0,0-.588-.074.778.778,0,0,0-.527.16.528.528,0,0,0-.184.418.517.517,0,0,0,.074.279.816.816,0,0,0,.236.23,7.307,7.307,0,0,0,.768.4,3.054,3.054,0,0,1,1.1.768A1.5,1.5,0,0,1,13.945-1.586Z" transform="translate(4.315 19.159)" fill="#fff"/>
  </g>
</svg>
