<svg id="FIle-XLSB" xmlns="http://www.w3.org/2000/svg" width="24" height="24" viewBox="0 0 24 24">
  <path id="Path_54276" d="M13.8,2.3H4A1.216,1.216,0,0,0,2.8,3.5V19.6A1.216,1.216,0,0,0,4,20.8H17.9a1.216,1.216,0,0,0,1.2-1.2V8.5" fill="#f0f0f0" stroke="#bbbdbf" stroke-width="1"/>
  <rect id="Rectangle_18362" width="24" height="24" fill="none"/>
  <path id="Path_54273" d="M15,8.5a1.216,1.216,0,0,1-1.2-1.2v-5H4A1.216,1.216,0,0,0,2.8,3.5V19.6A1.216,1.216,0,0,0,4,20.8H17.9a1.216,1.216,0,0,0,1.2-1.2V8.5Z" fill="none"/>
  <path id="Path_54274" d="M14.2,8.2V2.9l4.5,5.3Z" fill="#bbbdbf"/>
  <path id="Path_54275" d="M14.5,3.8,18,7.9H14.5V3.8m-.7-2V8.5h5.8Z" fill="#bbbdbf"/>
  <path id="Path_62919" data-name="Path 62919" d="M19.7,21.6H3.5a1.367,1.367,0,0,1-1.4-1.4V11.9a1.367,1.367,0,0,1,1.4-1.4H19.8a1.367,1.367,0,0,1,1.4,1.4v8.3A1.453,1.453,0,0,1,19.7,21.6Z" fill="#12b700"/>
  <path id="Path_62942" data-name="Path 62942" d="M4.669,0H3.459L2.3-1.89,1.135,0H0L1.658-2.577.106-5H1.275L2.352-3.2,3.408-5H4.549L2.98-2.519ZM5.3,0V-5h1.06V-.875H8.384V0Zm6.9-1.388a1.292,1.292,0,0,1-.487,1.066,2.116,2.116,0,0,1-1.355.39,3.183,3.183,0,0,1-1.415-.3v-.984A5.831,5.831,0,0,0,9.8-.9a2.534,2.534,0,0,0,.641.092.911.911,0,0,0,.535-.133.456.456,0,0,0,.186-.4.438.438,0,0,0-.082-.261.918.918,0,0,0-.241-.22,6.2,6.2,0,0,0-.648-.338,3.07,3.07,0,0,1-.687-.414,1.553,1.553,0,0,1-.366-.461A1.317,1.317,0,0,1,9-3.647a1.291,1.291,0,0,1,.449-1.042,1.868,1.868,0,0,1,1.242-.379,2.934,2.934,0,0,1,.743.092,5.11,5.11,0,0,1,.74.26l-.342.824a5,5,0,0,0-.661-.229,2.129,2.129,0,0,0-.514-.065.681.681,0,0,0-.461.14.462.462,0,0,0-.161.366.453.453,0,0,0,.065.244.714.714,0,0,0,.207.2,6.394,6.394,0,0,0,.672.35,2.672,2.672,0,0,1,.96.672A1.311,1.311,0,0,1,12.2-1.388ZM13.108-5h1.555a3,3,0,0,1,1.543.3,1.053,1.053,0,0,1,.48.962,1.212,1.212,0,0,1-.21.735.84.84,0,0,1-.559.345v.034a1.1,1.1,0,0,1,.685.4,1.29,1.29,0,0,1,.21.772,1.273,1.273,0,0,1-.494,1.066A2.136,2.136,0,0,1,14.978,0h-1.87Zm1.06,1.979h.615a1.125,1.125,0,0,0,.624-.133.5.5,0,0,0,.193-.441A.441.441,0,0,0,15.389-4a1.351,1.351,0,0,0-.665-.125h-.557Zm0,.841v1.3h.69a1.024,1.024,0,0,0,.646-.167.618.618,0,0,0,.208-.513q0-.622-.889-.622Z" transform="translate(3.146 18.766)" fill="#fff"/>
</svg>
