<svg xmlns="http://www.w3.org/2000/svg" width="24" height="24" viewBox="0 0 24 24">
  <g id="XLSM" transform="translate(-336 -213)">
    <rect id="Rectangle_18362" data-name="Rectangle 18362" width="24" height="24" transform="translate(336 213)" fill="none"/>
    <g id="XLSX" transform="translate(336.053 212.607)">
      <path id="Path_54273" data-name="Path 54273" d="M14.943,8.91a1.165,1.165,0,0,1-1.165-1.163V2.721H3.9A1.245,1.245,0,0,0,2.655,3.962V20.039A1.245,1.245,0,0,0,3.9,21.28H17.767a1.244,1.244,0,0,0,1.243-1.241V8.91Z" fill="#f0f0f0"/>
      <g id="Group_65280" data-name="Group 65280">
        <path id="Path_54274" data-name="Path 54274" d="M14.1,8.59V3.3L18.619,8.59Z" fill="#bbbdbf"/>
        <path id="Path_54275" data-name="Path 54275" d="M14.434,4.2,17.9,8.257H14.434V4.2m-.667-1.808v6.53h5.574l-5.574-6.53Z" fill="#bbbdbf"/>
      </g>
      <path id="Path_54276" data-name="Path 54276" d="M13.777,2.721H3.9A1.245,1.245,0,0,0,2.655,3.962V20.039A1.245,1.245,0,0,0,3.9,21.279H17.767a1.244,1.244,0,0,0,1.243-1.241V8.91" fill="none" stroke="#bbbdbf" stroke-width="1"/>
      <path id="Path_54277" data-name="Path 54277" d="M19.645,21.985H3.357a1.411,1.411,0,0,1-1.411-1.411V12.291A1.411,1.411,0,0,1,3.357,10.88H19.644a1.411,1.411,0,0,1,1.411,1.411v8.284A1.411,1.411,0,0,1,19.645,21.985Z" fill="#12b700"/>
      <text id="XMLID_00000173847018829198866470000007742571303851566512_" transform="translate(11.446 19.159)" fill="#fff" font-size="6" font-family="OpenSans-Bold, Open Sans" font-weight="700"><tspan x="-8.177" y="0">XLSM</tspan></text>
    </g>
  </g>
</svg>
