<svg xmlns="http://www.w3.org/2000/svg" width="19.109" height="19.764" viewBox="0 0 19.109 19.764">
  <g id="XLSX" transform="translate(-1.946 -2.221)">
    <path id="Path_54273" data-name="Path 54273" d="M14.943,8.91a1.165,1.165,0,0,1-1.165-1.163V2.721H3.9A1.245,1.245,0,0,0,2.655,3.962V20.039A1.245,1.245,0,0,0,3.9,21.28H17.767a1.244,1.244,0,0,0,1.243-1.241V8.91Z" fill="#f0f0f0"/>
    <g id="Group_65280" data-name="Group 65280">
      <path id="Path_54274" data-name="Path 54274" d="M14.1,8.59V3.3l4.519,5.29Z" fill="#bbbdbf"/>
      <path id="Path_54275" data-name="Path 54275" d="M14.434,4.2,17.9,8.257H14.434V4.2m-.667-1.808v6.53h5.574Z" fill="#bbbdbf"/>
    </g>
    <path id="Path_54276" data-name="Path 54276" d="M13.777,2.721H3.9A1.245,1.245,0,0,0,2.655,3.962V20.039A1.245,1.245,0,0,0,3.9,21.279H17.767a1.244,1.244,0,0,0,1.243-1.241V8.91" fill="none" stroke="#bbbdbf" stroke-width="1"/>
    <path id="Path_54277" data-name="Path 54277" d="M19.645,21.985H3.357a1.411,1.411,0,0,1-1.411-1.411V12.291A1.411,1.411,0,0,1,3.357,10.88H19.644a1.411,1.411,0,0,1,1.411,1.411v8.284A1.411,1.411,0,0,1,19.645,21.985Z" fill="#12b700"/>
    <path id="XMLID_00000173847018829198866470000007742571303851566512_" d="M4,0H2.965l-1-1.62L.973,0H0L1.421-2.209.091-4.283h1l.923,1.541.905-1.541H3.9L2.555-2.159Zm.539,0V-4.283h.908V-.75H7.187V0Zm5.918-1.189a1.107,1.107,0,0,1-.417.914A1.814,1.814,0,0,1,8.88.059,2.728,2.728,0,0,1,7.667-.2v-.844A5,5,0,0,0,8.4-.771a2.172,2.172,0,0,0,.549.079.781.781,0,0,0,.458-.114.391.391,0,0,0,.16-.34A.375.375,0,0,0,9.5-1.37a.787.787,0,0,0-.207-.189,5.312,5.312,0,0,0-.555-.29A2.631,2.631,0,0,1,8.147-2.2a1.331,1.331,0,0,1-.313-.4,1.129,1.129,0,0,1-.117-.527A1.107,1.107,0,0,1,8.1-4.02a1.6,1.6,0,0,1,1.065-.325,2.515,2.515,0,0,1,.637.079,4.38,4.38,0,0,1,.634.223l-.293.706a4.286,4.286,0,0,0-.567-.2,1.825,1.825,0,0,0-.441-.056.584.584,0,0,0-.4.12.4.4,0,0,0-.138.313.388.388,0,0,0,.056.209.612.612,0,0,0,.177.173,5.48,5.48,0,0,0,.576.3,2.291,2.291,0,0,1,.823.576A1.124,1.124,0,0,1,10.459-1.189ZM14.7,0H13.661l-1-1.62-1,1.62H10.7l1.421-2.209-1.33-2.074h1l.923,1.541.905-1.541H14.6L13.251-2.159Z" transform="translate(4.097 19.159)" fill="#fff"/>
  </g>
</svg>
