<svg id="FIle-XLTX" xmlns="http://www.w3.org/2000/svg" width="24" height="24" viewBox="0 0 24 24">
  <path id="Path_54276" d="M13.8,2.3H4A1.216,1.216,0,0,0,2.8,3.5V19.6A1.216,1.216,0,0,0,4,20.8H17.9a1.216,1.216,0,0,0,1.2-1.2V8.5" fill="#f0f0f0" stroke="#bbbdbf" stroke-width="1"/>
  <rect id="Rectangle_18362" width="24" height="24" fill="none"/>
  <path id="Path_54273" d="M15,8.5a1.216,1.216,0,0,1-1.2-1.2v-5H4A1.216,1.216,0,0,0,2.8,3.5V19.6A1.216,1.216,0,0,0,4,20.8H17.9a1.216,1.216,0,0,0,1.2-1.2V8.5Z" fill="none"/>
  <path id="Path_54274" d="M14.2,8.2V2.9l4.5,5.3Z" fill="#bbbdbf"/>
  <path id="Path_54275" d="M14.5,3.8,18,7.9H14.5V3.8m-.7-2V8.5h5.8Z" fill="#bbbdbf"/>
  <path id="Path_62920" data-name="Path 62920" d="M19.7,21.6H3.5a1.367,1.367,0,0,1-1.4-1.4V11.9a1.367,1.367,0,0,1,1.4-1.4H19.8a1.367,1.367,0,0,1,1.4,1.4v8.3A1.453,1.453,0,0,1,19.7,21.6Z" fill="#12b700"/>
  <path id="Path_62943" data-name="Path 62943" d="M4.669,0H3.459L2.3-1.89,1.135,0H0L1.658-2.577.106-5H1.275L2.352-3.2,3.408-5H4.549L2.98-2.519ZM5.3,0V-5h1.06V-.875H8.384V0ZM11.04,0H9.98V-4.115H8.624V-5H12.4v.882H11.04Zm6.166,0H16L14.834-1.89,13.672,0H12.537l1.658-2.577L12.643-5h1.169l1.077,1.8L15.945-5h1.142L15.518-2.519Z" transform="translate(3.146 18.766)" fill="#fff"/>
</svg>
