<svg id="XPS" xmlns="http://www.w3.org/2000/svg" width="24" height="24" viewBox="0 0 24 24">
  <rect id="Rectangle_18362_00000106839641904665590020000008778029944217467561_" width="24" height="24" fill="none"/>
  <path id="Path_54273_00000152967366462582900710000010432398508213865374_" d="M15,8.517a1.165,1.165,0,0,1-1.165-1.163V2.328H3.954A1.245,1.245,0,0,0,2.709,3.569V19.646a1.245,1.245,0,0,0,1.245,1.241H17.821a1.244,1.244,0,0,0,1.243-1.241V8.517Z" fill="#f0f0f0"/>
  <g id="Group_65280_00000149368227359569013370000011766281146537140656_">
    <path id="Path_54274_00000070812604484741526840000013811740171906431644_" d="M14.154,8.2V2.907L18.673,8.2Z" fill="#bbbdbf"/>
    <path id="Path_54275_00000036212101395001410130000001593424945512408497_" d="M14.488,3.807l3.466,4.057H14.488V3.807M13.821,2v6.53H19.4Z" fill="#bbbdbf"/>
  </g>
  <path id="Path_54276_00000047752438649165700630000000493071107844243607_" d="M13.831,2.328H3.954A1.245,1.245,0,0,0,2.709,3.569V19.646a1.245,1.245,0,0,0,1.245,1.24H17.821a1.244,1.244,0,0,0,1.243-1.241V8.517" fill="none" stroke="#bbbdbf" stroke-width="1"/>
  <path id="Path_54277_00000066497079892113484900000003063200572324839830_" d="M19.7,21.592H3.411A1.411,1.411,0,0,1,2,20.181V11.9a1.411,1.411,0,0,1,1.411-1.411H19.7A1.411,1.411,0,0,1,21.109,11.9v8.284A1.411,1.411,0,0,1,19.7,21.592Z" fill="#545454"/>
  <path id="Path_62940" data-name="Path 62940" d="M4.669,0H3.459L2.3-1.89,1.135,0H0L1.658-2.577.106-5H1.275L2.352-3.2,3.408-5H4.549L2.98-2.519ZM6.357-2.646h.349a1.161,1.161,0,0,0,.731-.193A.676.676,0,0,0,7.68-3.4a.693.693,0,0,0-.2-.55.953.953,0,0,0-.637-.178H6.357ZM8.75-3.438a1.527,1.527,0,0,1-.5,1.234,2.156,2.156,0,0,1-1.434.427H6.357V0H5.3V-5h1.6a2.123,2.123,0,0,1,1.383.391A1.427,1.427,0,0,1,8.75-3.438Zm3.893,2.051a1.292,1.292,0,0,1-.487,1.066A2.116,2.116,0,0,1,10.8.068a3.183,3.183,0,0,1-1.415-.3v-.984a5.831,5.831,0,0,0,.856.318,2.534,2.534,0,0,0,.641.092.911.911,0,0,0,.535-.133.456.456,0,0,0,.186-.4.438.438,0,0,0-.082-.261.918.918,0,0,0-.241-.22,6.2,6.2,0,0,0-.648-.338,3.07,3.07,0,0,1-.687-.414,1.553,1.553,0,0,1-.366-.461,1.317,1.317,0,0,1-.137-.615,1.291,1.291,0,0,1,.449-1.042,1.868,1.868,0,0,1,1.242-.379,2.934,2.934,0,0,1,.743.092,5.11,5.11,0,0,1,.74.26l-.342.824a5,5,0,0,0-.661-.229,2.129,2.129,0,0,0-.514-.065.681.681,0,0,0-.461.14.462.462,0,0,0-.161.366.453.453,0,0,0,.065.244.714.714,0,0,0,.207.2,6.394,6.394,0,0,0,.672.35,2.672,2.672,0,0,1,.96.672A1.311,1.311,0,0,1,12.643-1.388Z" transform="translate(5.095 18.766)" fill="#fff"/>
</svg>
