<svg id="File-ZIPX" xmlns="http://www.w3.org/2000/svg" width="24" height="24" viewBox="0 0 24 24">
  <path id="Path_54276" d="M13.8,2.3H4A1.216,1.216,0,0,0,2.8,3.5V19.6A1.216,1.216,0,0,0,4,20.8H17.9a1.216,1.216,0,0,0,1.2-1.2V8.5" fill="#f0f0f0" stroke="#bbbdbf" stroke-width="1"/>
  <rect id="Rectangle_18362" width="24" height="24" fill="none"/>
  <path id="Path_54273" d="M15,8.5a1.216,1.216,0,0,1-1.2-1.2v-5H4A1.216,1.216,0,0,0,2.8,3.5V19.6A1.216,1.216,0,0,0,4,20.8H17.9a1.216,1.216,0,0,0,1.2-1.2V8.5Z" fill="none"/>
  <path id="Path_54274" d="M14.2,8.2V2.9l4.5,5.3Z" fill="#bbbdbf"/>
  <path id="Path_54275" d="M14.5,3.8,18,7.9H14.5V3.8m-.7-2V8.5h5.8Z" fill="#bbbdbf"/>
  <path id="Path_62925" data-name="Path 62925" d="M19.7,21.6H3.5a1.367,1.367,0,0,1-1.4-1.4V11.9a1.367,1.367,0,0,1,1.4-1.4H19.8a1.367,1.367,0,0,1,1.4,1.4v8.3A1.453,1.453,0,0,1,19.7,21.6Z" fill="#545454"/>
  <path id="Path_62951" data-name="Path 62951" d="M3.886,0H.167V-.687l2.4-3.435H.232V-5H3.821v.684L1.429-.875H3.886Zm.8,0V-5h1.06V0ZM8.06-2.646h.349a1.161,1.161,0,0,0,.731-.193A.676.676,0,0,0,9.382-3.4a.693.693,0,0,0-.2-.55.953.953,0,0,0-.637-.178H8.06Zm2.393-.793a1.527,1.527,0,0,1-.5,1.234,2.156,2.156,0,0,1-1.434.427H8.06V0H7V-5H8.6a2.123,2.123,0,0,1,1.383.391A1.427,1.427,0,0,1,10.452-3.438ZM15.3,0h-1.21L12.923-1.89,11.761,0H10.626l1.658-2.577L10.732-5H11.9l1.077,1.8L14.034-5h1.142L13.607-2.519Z" transform="translate(3.953 18.766)" fill="#fff"/>
</svg>
