<svg id="folder.svg" xmlns="http://www.w3.org/2000/svg" width="24" height="24" viewBox="0 0 24 24">
  <path id="Path_54271" data-name="Path 54271" d="M9.37,4.238h0A1.44,1.44,0,0,0,7.93,2.8H4.348A1.681,1.681,0,0,0,2.667,4.479v14.03A1.681,1.681,0,0,0,4.348,20.19h15.3a1.681,1.681,0,0,0,1.681-1.681V7.359a1.681,1.681,0,0,0-1.681-1.681H10.81A1.44,1.44,0,0,1,9.37,4.238Z" fill="#29abe2"/>
  <path id="Path_54272" data-name="Path 54272" d="M19.652,20.19H4.348a1.681,1.681,0,0,1-1.681-1.681V11.765a1.681,1.681,0,0,1,1.681-1.681h15.3a1.681,1.681,0,0,1,1.681,1.681v6.744A1.681,1.681,0,0,1,19.652,20.19Z" fill="#56c5f4"/>
  <rect id="Rectangle_18361" data-name="Rectangle 18361" width="24" height="24" fill="none"/>
</svg>
