<svg id="e8sx9Mnkupe1" xmlns="http://www.w3.org/2000/svg" xmlns:xlink="http://www.w3.org/1999/xlink" viewBox="0 0 24 24" shape-rendering="geometricPrecision" text-rendering="geometricPrecision" width="24" height="24"><path d="M9.37,4.238v0C9.368897,3.443491,8.72451,2.799999,7.93,2.8h-3.582c-.92761-.000001-1.679896.75139-1.681,1.679v14.03c0,.445829.177105.873398.492354,1.188646s.742817.492354,1.188646.492354h15.3c.445829,0,.873398-.177105,1.188646-.492354s.492354-.742817.492354-1.188646v-11.15c0-.445829-.177105-.873398-.492354-1.188646s-.742817-.492354-1.188646-.492354h-8.838c-.381912,0-.748181-.151714-1.018234-.421766s-.421766-.636322-.421766-1.018234Z" fill="#1a8ce4"/><path d="M19.652,20.19h-15.304c-.445829,0-.873398-.177105-1.188646-.492354s-.492354-.742817-.492354-1.188646v-6.744c0-.445829.177105-.873398.492354-1.188646s.742817-.492354,1.188646-.492354h15.3c.445829,0,.873398.177105,1.188646.492354s.492354.742817.492354,1.188646v6.744c.000003.926831-.750172,1.678795-1.677,1.681Z" fill="#0078d4"/><rect width="24" height="24" rx="0" ry="0" fill="none"/></svg>
