<svg id="eAdtTX8fD2F1" xmlns="http://www.w3.org/2000/svg" xmlns:xlink="http://www.w3.org/1999/xlink" viewBox="0 0 470 126" shape-rendering="geometricPrecision" text-rendering="geometricPrecision"><path d="M311,127c-102.333328,0-204.166687-.022095-305.99989.095505-3.424077.003952-4.11202-.669777-4.098624-4.095886.15443-39.499398.140413-78.999753.014616-118.499352-.009501-2.983473.602122-3.583075,3.583946-3.581298c154.33328.091953,308.666608.091953,462.999891,0c2.981842-.001777,3.593414.597835,3.583954,3.581297-.125611,39.666268-.125611,79.3332,0,118.999467.00943,2.983459-.601227,3.589905-3.584076,3.583305C415.500061,126.967964,363.5,127,311,127Z" transform="matrix(1 0 0 1.014566 0-.932329)" fill="#fff"/><path d="M132.77478,63.317047c.942261-9.247173,6.713272-13.13298,14.882965-15.096687c2.411484.690033,4.555268.065254,7.001206.499077c2.523041-.504753,4.471527.193981,6.269043,1.271896c2.441452,1.464054,4.608536,3.119747,3.279403,6.568329-1.731246,4.491943-4.554275,1.276279-7.138855.737915-2.216873-1.320141-4.361877-.620033-6.723327-.503471-2.438156,1.830688-4.681641,3.34671-6.359451,5.966835-.840683,2.365135-.367936,4.471298-.306992,6.871353.946091,3.278549,3.159866,4.951461,6.00528,6.435173c1.749588.775711,3.235519.330673,4.963134.241829c1.855316-.893341,1.235443-2.337075,1.318024-3.930458-1.588211-3.051186-4.231033-1.372963-6.568604-2.240303.031708-2.566742-1.574249-5.112481,1.061814-7.142037c4.133102-1.039173,7.925705-.277687,12.113617-.236542c1.037124.688977,1.643173,1.179821,2.359176,1.947373c1.137238,5.008781.243302,9.807678.763947,14.983696-1.847626,4.149376-5.310257,4.605263-9.348785,4.462875-3.070862.808129-5.893631.081703-9.042695.565102-2.889206-.866013-5.585723-1.611374-7.865524-3.027565-3.561828-2.212593-5.525268-5.727677-6.41745-10.18776-1.047333-2.779991-.318222-5.301483-.245926-8.18663Z" fill="#b9275e"/><path d="M187.628021,48.745949c6.249314-.430428,9.299484,3.391731,12.14502,7.962837-.620423,2.444824-.174683,4.600544-.055649,7.055496-.099793.919708-.196976,1.725556-.649277,2.08693-4.914703,3.926582-3.731781,7.751915.07132,11.599258c1.604019,1.622673,3.010315,3.288345.530182,5.332993-2.096299,1.728218-4.104782,2.816261-7.082108,1.521026-4.287033-1.864982-4.60968-6.484001-7.432846-9.708374-2.035309-3.260223-2.93457-1.26194-3.399338.519753-.693969,2.660522-.066513,5.449241-.566818,8.468193-.23288.296127-.62207.433342-.827789.417144-1.595307.91082-3.138291.355912-5.018402.23288-1.573548-.126694-2.398957-.741356-3.226776-1.856811-1.211869-10.346154-.372666-20.421757-.354676-30.928521c1.463608-2.389232,3.882706-2.057022,5.911621-3.234733c3.391938.737678,6.506791.034126,9.955536.531929Z" fill="#b0285f"/><path d="M309.691101,48.779594c3.223175-.804813,5.324463.789933,7.134522,2.562317c1.682098,1.647087,1.686645,3.817131.424926,5.801522-1.740692,2.737606-3.910766,1.16053-6.121887.117309-2.187378-1.235275-4.318207-.591392-6.718079-.562965-1.496948,2.301883-1.387786,3.439071,1.441407,4.373752c5.215179,1.722981,10.472076,3.751049,13.15216,9.598133.868805,1.683022.376007,3.147057.217499,4.928513.030274,7.595207-6.096527,7.475708-10.896362,9.303421-2.419342-.845505-4.56778-.168571-6.991364-.657936-4.899994.534004-8.573211-1.63414-9.273376-5.36599-.402924-2.147438.924835-3.319427,2.185791-4.658333c1.461243-1.551567,2.197601.126908,3.294739.503052c2.503845.858422,4.767181,3.142159,7.753143,1.569161c1.246979-.656914,3.229645-.853257,3.360352-2.39869.150512-1.779518-1.947297-2.012291-3.189148-2.591354-2.05716-.959206-4.253632-1.634689-6.421418-2.337028-1.939972-.62851-3.56427-1.651719-4.910614-3.620553-.368927-.552253-.600616-.789176-1.015594-1.192199-.192932-.156674-.124695-.141121-.136231-.108086-.959381-2.366047-.305633-4.854622-.204803-7.711204.171966-6.066426,4.818878-6.574681,8.950836-8.109147c2.74585.692914,5.209107.047856,7.963501.556305Z" fill="#843261"/><path d="M203.744568,64.439072c.432983-8.702774,4.732895-13.81395,12.91336-16.22163c2.077271.666591,3.907349.092792,6.048691.446434c1.995743,1.640609,4.789902,1.6735,5.539871,4.336822.815232,2.89513.736268,5.046478-3.549316,4.577343-1.530197-.126793-2.694794-.143639-4.17897-.125343-.924637.036117-1.522141.097851-2.27797.596779-.353332.318325-.491485.448246-.823852.783748-.792908.748539-.992905,1.461376-1.094574,2.530651-.097443.704499-.170456,1.107979-.315567,1.820885-.679199,2.39621-.902329,4.481865.078461,6.862663c1.553054,3.899247,4.503158,5.207482,8.370712,5.808686c1.231521.914993,2.064422,1.733993,2.78566,2.649902c2.21318,2.810539,1.903717,4.828484-2.226181,5.825264-2.704407.237976-5.044098.086456-7.728363.387566-7.563843-1.842171-12.130463-6.303803-13.305771-14.268578-.917878-2.060768-.323365-3.862618-.236191-6.011192Z" fill="#a82a5f"/><path d="M465.445435,49.740627c2.115661,3.129856,2.249115,5.817524-1.198975,8.066712-2.428803-.736946-4.582764-.191349-6.979218.006656-.268249.40305-.264038.572392-.307861.991242-.971466,7.770897-.211517,15.323891-.503448,23.303032-2.003205,2.388733-4.457154,1.133468-7.056824,1.66114-1.935089-.349907-2.726074-1.38974-2.433594-3.460312-1.021454-7.027908-.185974-13.736877-.466736-20.865307-2.107727-3.490993-5.270355-1.211654-8.198944-2.218868-.377777-.21606-.306579-.217422-.307556-.181824-.932861-1.704963-.328522-3.569988-.20871-5.775341.230744-.398281.188324-.876209.267945-1.102504c9.024536-1.182747,17.993591-.447277,27.393921-.424626Z" fill="#3d3c62"/><path d="M375.330078,84.217285c-8.147766-.209946-11.922027-3.473495-14.383423-12.783584-.92749-2.750428-.269653-5.209397-.187378-8.03835c1.73288-11.378322,9.983429-17.454616,19.884919-14.433986c1.240173,2.407642-.10849,4.478908-.131196,6.925167-.904205,1.233402-2.146423,1.373493-3.290039,2.311039-3.067871,2.17453-4.288574,5.011898-4.509643,8.28437-.32251,4.774513,1.663269,7.269058,7.061523,8.970101c1.504578,3.169807-.559204,5.819679-.8945,8.83905-1.294129.216789-2.268311.223953-3.550263-.073807Z" fill="#693863"/><path d="M414.410675,84.223602c-7.76767.08342-11.339081-3.390083-13.979523-13.174957-3.356842-12.439606,6.761597-25.308109,19.520813-22.471474.180756,2.594216.008454,4.828335-1.170105,7.190338-.726043.995457-1.536407,1.401322-2.420959,2.235066-1.548432,1.533138-2.745575,2.924576-3.936646,4.763603-1.249603,1.985478-1.157837,3.749584-.404846,5.877072.761658,3.796981,3.46521,5.765563,5.962494,8.359909c1.265869,2.341087,1.772492,4.407173.410126,6.902275-1.371521.729652-2.497223.570678-3.981354.318168Z" fill="#573c64"/><path d="M418.087646,56.135437c.801697-2.491688-.552429-5.170368,1.781617-7.149727c7.17514-.751465,13.589019,4.720173,16.039184,13.71003-.854217,2.08551-.173065,3.93351-.689026,6.016647c1.059327,6.329392-2.675262,12.475166-9.086303,14.716972-1.817292.635468-3.754273.92878-5.944214,1.416542-.744263-.379699-1.324249-.336128-2.020203-.669998-.091644-2.286163-.152954-4.327896-1.111847-6.619247c1.67804-3.294106,6.144318-3.789642,6.699799-8.174194.683624-1.919426,1.193756-3.524193.206207-5.484021-1.095337-2.260639-2.41333-3.957405-4.288238-5.642395-.740967-.68576-1.168854-1.201027-1.586976-2.120609Z" fill="#4d3d65"/><path d="M379.986511,56.245598c.186096-2.393273-2.985199-4.902657.928406-6.749993c6.440277-1.303955,14.88797,5.071892,15.111023,13.117493.879028,2.050873.337494,3.821106.198486,5.927658-.183349,8.492424-4.872833,14.033257-13.928405,16.268349-1.100525-.527687-2.031281-.213593-3.080384-.646851-2.689575-2.969108-.917541-5.158188.730347-7.701225.393249-3.303146,4.082031-4.182823,4.423645-7.530579.221924-1.419532.214142-2.515602.062439-3.931007-.642609-2.755386-2.018006-4.722717-3.87851-6.80463-.402404-.699917-.526672-1.140702-.567047-1.949215Z" fill="#603863"/><path d="M255.277649,84.125694c-4.209549.347794-6.459335-1.262504-7.266556-5.156639-1.584122-7.64199-3.581161-15.204723-4.949005-22.881912-.503342-2.825096-1.062942-6.479851,3.689011-7.161751c4.169922-.598373,6.375534,1.613312,7.066299,5.131218c1.037384,5.283272,1.492203,10.680946,2.204941,16.464508.71109,1.028076,1.347687,1.704003,2.496521,2.314514c3.725067,2.842263,4.268158,6.042221,1.841797,10.01368-.286743.263313-.362915.225677-.320465.224281-1.368164.62101-2.876191.811409-4.762543,1.052101Z" fill="#9b2c5f"/><path d="M273.68634,68.627136c.247101.516678.272919.691956.318146,1.132286.250275.483193.477722.70488.893799,1.070839.192139.140717.117645.158272.138702.126328.725983.675575.239716,1.686661.660767,2.466614-.273926-.625481-.162476-1.280114.073608-2.204194.907502-6.717773,1.60196-13.158218,2.27887-19.600505.289215-2.752922,2.167725-2.719334,4.292602-2.719601c1.951844-.000244,3.394013.947044,5.248566,2.053192c1.351044,1.465569.756226,2.943241.625488,4.703457-.062347,8.980953-2.615997,17.159908-4.384674,25.446552-.638794,2.992829-3.452667,3.115631-6.468383,2.809181-3.861908-1.612159-8.412354-10.263824-7.393616-13.549553.496155-1.600204,1.235443-3.236946,3.716125-1.734596Z" fill="#8f2f60"/><path d="M351.647949,48.780106c2.042237.019786,3.235474.547004,3.38617,2.839988.8927,10.624539.533111,20.88588-.220734,31.442894-2.922943.548714-5.471008.425209-8.45282.178452-.434509-.19783-.359436-.210373-.38565-.1828-1.033265-3.335175-.153901-6.788781-.677155-10.58107-.204407-.559708-.249695-.720856-.294281-1.13308-1.970551-1.452568-4.153748-.557373-6.600922-.986687-1.86148-2.675972-.032501-4.683036,1.033844-7.161194c1.779541-1.056453,3.421234-.484188,5.271424-1.034767.366241-4.744468.437896-9.22229.89447-13.883667c2.104431.667191,3.95694-.00848,6.045654.501931Z" fill="#713360"/><path d="M339.697937,62.871117c.532349,2.535179.159271,4.606086-1.612244,6.616035-.678192,1.377022-1.757568.838944-2.842651,1.348984-.257019.236503-.258514.14965-.215179.146805-1.291352,3.967102-.131836,8.067344-.776581,12.478637-3.211823.208123-6.360291,1.580788-9.240113-.743515-1.1109-11.163009-.257751-21.941959-.240936-33.150482.383698-.476532.558136-.508755.998291-.553711c1.964844-.951587,3.79361-.353908,5.949646-.227272.956268.673393,1.52594,1.11422,2.183136,1.821511c1.163666,3.326091.318817,6.489952.599365,10.013092.900238,3.25671,3.340454,1.215736,5.197266,2.249916Z" fill="#79305f"/><path d="M224.696777,84.274368c2.57341-1.689819,4.615113-3.237793.768433-5.271446-1.019913-.5392-1.403015-1.29084-1.467987-2.708504.146683-3.544616,3.928451-5.2127,3.460022-8.98896.067978-1.824638.356445-3.337849-.456452-5.064506-.9263-1.875985-2.5195-2.822579-3.455368-4.680344-.060928-.545513-.033584-.767502.189133-1.262215c1.405762-.578541,3.058563,1.268868,3.659531-.309932.398224-1.046181-.593201-2.750111-1.232163-4.024357-.583847-1.164265-2.555526-.741944-3.088379-2.593949.08339-.500049.240433-.659343.671601-.625148c7.72908-.248375,12.878097,4.145793,16.026977,13.934604-.620193,2.104683-.165893,3.916695-.073517,6.001496-.554306,9.158012-5.549072,14.216247-14.343719,16.216629-.561127-.154755-.747803-.287201-.658112-.623368Z" fill="#a22c60"/><path d="M16.203541,81.943031c-5.032189-3.665222-9.178317-7.987617-11.505116-13.75106-2.753316-6.819912-.569013-12.764683,3.313249-18.769989c2.258418-2.10479,3.945789-.708077,5.588397.670257c1.364467,1.14494,2.581518,2.454068,4.130409,3.994492c1.158013,1.377872,1.960179,2.50449,2.344229,4.325439-.434731,6.367157-.001345,12.392693-1.522947,18.247521-.458916,1.765808-.753159,3.586311-2.348221,5.28334Z" fill="#b62a61"/><path d="M273.970947,68.673187c-3.792907-.804497-3.502289,2.571526-2.743927,3.678932c2.352814,3.435822,2.458527,7.865159,5.498841,11.251511-1.752533,2.324898-3.31073.428482-5.317536-.351372-1.071106-.439415-1.390411-1.213196-2.105713-2.02861-1.899322-1.967995-.990631-4.579117-2.310608-6.836731-.498413-.803741-.867187-1.639183-1.797912-.503052-1.394196,3.369652.945862,8.200776-4.807923,9.300652-.888885-3.145599,2.195435-7.202347-3.092041-9.158959-.706543-1.274345-.124481-2.32209.458191-3.698997c1.178833-4.655952,1.28241-9.230549,3.724915-13.32481c2.099182-.97205,3.933838-.331421,6.106445-.230137c3.699768.441551,4.561371,2.554272,4.454254,5.817043-.079589,1.64497.36319,2.806034.927155,4.168881.52359.658966.796387,1.139633,1.005859,1.915649Z" fill="#962e60"/><path d="M60.797386,31.1117c.597878-1.51763,1.05357-2.78507,1.811501-4.216833c6.198471,2.358541,12.445434,1.315599,18.550705,1.553328c9.457092.368238,18.922592-.225289,28.751678.21309c1.443955,1.463078,2.319275,2.817086,2.182488,4.953202-4.92566,4.476406-10.983719,2.178764-16.465271,3.200119-.929528.173191-1.939721-.321713-3.303124.267051-1.59523-.946125-2.876243-1.940773-3.939377-3.130172-2.197982-2.459027-3.698906-2.124716-4.929336,1.941059-1.343361,1.723503-2.580445,1.841213-4.258347,1.658092-5.054474-1.225826-9.725296-2.295463-14.607536-1.359588-1.47522.282783-2.980679.223594-4.544083-1.005478-.154979-.735161-.072624-1.152149.04731-1.886814.412411-.792633.399197-1.393082.703392-2.187056Z" fill="#793562"/><path d="M99.68837,17.873901c2.268379,1.806082,4.167259,3.604952,6.217499,5.691246c1.232093,3.214518-1.022461,3.253712-2.744523,3.411538-10.682357.979024-21.372596,1.424648-32.068695.119117-2.190498-.267366-4.402206-.39961-4.332222-3.795612c1.995263-2.313768,3.793648-4.213892,5.887169-6.260965c9.034752,1.596952,17.872193.69322,27.040772.834676Z" fill="#952a5e"/><path d="M86.791954,35.757465c4.228004,3.962094,8.100731,7.734467,12.13073,11.796708.668869,4.222854-3.091965,5.388042-5.035057,8.176845-2.833268,2.423863-4.557289,5.770531-8.856652,5.960774-1.19107-.478955-1.955787-1.073674-2.029617-1.879345-.703674-7.678315-2.502701-15.387757.724365-23.323994.311417-.321816.37648-.389423.411164-.421013.691116-.664749,1.501869-.551205,2.655067-.309975Z" fill="#b5245d"/><path d="M15.99337,82.475922c1.869192-7.95987,1.564127-15.928864,2.957825-24.099511c3.215059-.980964,4.268436,2.009591,6.614929,3.510758.827066.740913,1.298952,1.312034,1.791643,2.332931.138512.63527.158489.89943.26684,1.557465.308437,6.812035-1.398207,13.132729-.765989,19.602837.180321,1.84542-.599537,4.028595-3.696005,3.925521-2.597649-2.28672-4.805994-4.411216-7.169243-6.830001Z" fill="#ab2a60"/><path d="M66.672684,23.024284c.494301,1.219412.806228,2.624926,2.533729,2.582625c10.115273-.247688,20.289208,1.724846,30.332039-.589743c2.161125-.498079,4.424042,1.796848,6.439881-.815842c1.688987.851752,3.373474,1.984471,4.181732,4.337464-7.224877,2.891313-14.890793,1.415655-22.389901,1.94144-6.692886.46926-13.471534-.249685-20.210495-.49492-1.863471-.067814-4.241966.671846-4.609069-2.825774c1.119491-1.618497,2.278473-2.808004,3.722084-4.13525Z" fill="#862f60"/><path d="M32.720222,72.156708c2.205208,1.604828,4.112637,3.39653,6.164841,5.481292c2.828331,7.669617,1.979622,15.284615,1.620487,22.857445-.063476,1.33841-.686718,2.54728-2.239269,3.579338-4.689628-4.007621-8.949716-8.187484-13.382603-12.660949.000842-.585862.26204-.988541.505547-.942681c6.023682,1.134316,5.40867-2.848518,5.361614-6.685928-.047498-3.873642-.609295-7.883965,1.969383-11.628517Z" fill="#963062"/><path d="M33.011604,71.984497c-1.189476,5.721603-.55524,11.561524-.912586,17.346962-.223659,3.621048-.43082,5.906769-4.289148,2.287987-.50388-.472588-1.536038-.38192-2.711247-.525673-.949541-.463966-1.511341-.954392-2.199226-1.697456c2.447367-.780457,3.008127-3.01458,2.607487-4.826714-1.452732-6.570824.209461-12.782249,1.891153-19.341759c1.667957,1.515869,3.002161,3.310127,4.475635,5.408478.359364.545059.572533.792007.968812,1.199036.190029.154106.162731.163803.16912.149139Z" fill="#a02b60"/><path d="M117.721283,76.712311c-.009392,3.984871-2.270371,6.810707-4.085831,10.15065-3.70478,1.46669-5.215622-.622887-6.431366-3.775269c1.035347-5.33976,1.052162-10.312179,1.060891-15.295044.004623-2.641594-.061509-5.366466,2.400901-7.697845c4.194039,2.271484,5.780693,6.230003,7.234528,10.615692-.765091,2.113579-.293129,3.925522-.179123,6.001816Z" fill="#b0285f"/><path d="M37.98304,104.520027c2.081673-7.103981,1.020027-14.083877.563663-20.992004-.112713-1.706162-.166141-3.237839.424076-5.207604c2.294617,1.748032,4.530171,3.885407,6.910603,6.31836c1.907597,6.94635,1.059116,13.653083.443943,20.330085-.17815,1.933655-1.526855,3.243615-4.146011,3.263131-1.662049-1.198136-2.856011-2.318558-4.196274-3.711968Z" fill="#893161"/><path d="M83.716461,36.182632c.3078,6.701584.256859,13.419472.310585,20.136517.01239,1.549267-.636207,3.378555,1.598946,4.582672.745964.495121.874435.949051.550995,1.741203-1.980995,1.899479-3.709961,3.522213-5.723221,5.298977-2.52652.372948-3.411224-1.445442-3.370064-2.889312.203018-7.121895-1.057587-14.280579.6576-21.775677.962746-1.808697,1.720734-3.209931,2.395325-5.094311-.231705-.690636-.38002-.898125-.147125-1.073341c1.389564-.282059,2.397926-.596398,3.726959-.926728Z" fill="#a82a5f"/><path d="M77.648773,43.016243c.461624,6.544399,2.501801,13.180145.565354,19.964821-.372292,1.304397.874435,3.070877,1.664795,4.869568-1.179932,1.803825-2.650399,3.362259-4.40194,5.073425-3.444427,1.272591-3.562652-1.276939-3.748794-3.056885-.699845-6.692337-.991028-13.408226.089775-20.545768c1.924789-2.341031,3.729156-4.249749,5.83081-6.305161Z" fill="#992c5f"/><path d="M47.040848,37.658577c-1.444054,1.945663-2.918415,3.522655-4.684822,5.240547-4.624546.716713-4.619053-2.494015-4.958721-5.29628-.579934-4.784374.777809-9.636909-.624859-14.78363-.196518-.651266-.22675-.924921-.120385-1.588307.136597-.389732.216404-.390422.219601-.350647.657948-.324239.617218-1.025608.897534-1.92461.533672-.824667.975963-1.340301,1.645938-1.975586.858414-.319473,1.506482-.457901,2.326352-.929786.583736-.618172.978008-.965421,1.640426-1.312784c2.638863.90591,2.296871,3.009128,2.574665,4.939805.841275,5.846797-.512729,11.817427,1.084271,17.981278Z" fill="#963062"/><path d="M55.649117,95.18203c3.231067,1.602485,5.101181,4.638405,8.5447,5.930916c1.931099.72483,3.374436.768829,5.643173.120956c1.11007,2.807938-.891822,4.203461-2.336029,6.25621-3.674919,2.468697-5.533333,6.832955-10.559047,7.296036-2.342698-.836006-3.3242-2.425194-3.426941-4.321457-.275826-5.090843-1.376377-10.316871,2.134144-15.282661Z" fill="#663460"/><path d="M91.88884,81.405365c.696029-1.641411,1.350769-2.838737,2.173477-4.34198.716087-1.743065.268486-3.263306.737327-5.05481c2.807396-1.201126,4.172654.46344,5.633706,2.631722.197479.648224.237838.917908.251052,1.594017-1.491119,7.751755-2.02658,15.066048.580369,22.65065-.203751.656677-.359902.881607-.778946,1.144775-.58001.203843-.961319.346627-1.272812.823914-1.802239,2.227013-3.661148,4.154129-5.806076,6.257736-1.163651-.473205-1.558991-1.433342-1.481354-2.431221.59243-7.614639-.001602-15.22126-.036743-23.274803Z" fill="#703562"/><path d="M70.105209,100.935974c2.413285-.994636,4.391442-2.734184,6.511475-4.837433c3.94854-.073967,3.914223,2.802323,4.056534,5.180352.337929,5.646369.068794,11.316383.480179,17.417518-2.274918,2.877632-4.87436,4.837807-8.690155,5.377419-1.130829-5.735367.360572-11.502335-.454483-17.269669-.24981-1.767601-.061211-3.607628-1.347321-5.460945-.183525-.286118-.426781-.385147-.556229-.407242Z" fill="#9b2c5f"/><path d="M55.879524,94.63385c-1.109741,5.070709-.903377,9.957939-.876434,14.832314.010029,1.814582-.081211,3.683067,2.559341,4.449943.949345,3.148735-1.044639,4.122452-3.839161,4.654572-1.049137-.402535-1.643791-.870545-2.676178-1.3004-1.44614-1.160675-2.538932-2.21006-3.765296-3.560135c1.178764-5.283699.758934-10.382873.902847-15.446495.078766-2.77166-.117802-5.64209,2.451233-8.110649c1.960666,1.242271,3.529159,2.718361,5.243648,4.48085Z" fill="#753461"/><path d="M47.367088,37.889153c-2.08752-.909924-2.988586-1.966599-2.803707-4.540482.426083-5.932016.328221-11.936239-.789974-18.23575-.123348-.375541-.032143-.371161-.002171-.336718.392704-.012077.67722-.1897,1.044457-.697042c1.715118-1.569504,3.563263-2.383773,5.850002-3.001516c1.855732,1.710278,1.270729,3.708185,1.216843,5.636413-.136192,4.87307-.739948,9.785341,1.161396,14.916786-1.762406,2.31358-3.571659,4.216892-5.676846,6.258309Z" fill="#9e275d"/><path d="M36.43914,20.853477c.398781.182986.448048.378275.547692.871445.183067,6.015631-1.931118,11.527111-1.367295,17.319477.270481,2.778713.318955,5.548027,1.402207,8.580693-1.432739,1.972545-2.906883,3.545162-4.671536,5.260265-4.798757,1.349167-4.469726-2.203022-4.397012-4.560261.163728-5.307785.542017-10.589924-.483031-15.854858-.127233-.653504-.227804-1.300179-.65784-2.281697c3.19449-3.151575,5.562473-6.946321,9.626815-9.335064Z" fill="#803664"/><path d="M99.914566,17.603119c-4.733231,3.458597-10.293648,1.706396-15.473175,2.034943-3.537788.224405-7.865326.917926-11.269135-2.473523.907372-1.840316,2.044274-3.408367,3.477097-5.122966c6.392334.960291,12.848572-1.93036,19.096474,1.707529c1.58303,1.321564,2.804237,2.448793,4.168739,3.854017Z" fill="#a5275e"/><path d="M52.827484,118.317039c2.48513-.56987,3.568276-2.285079,4.982193-4.04113c2.90271-2.644844,5.668671-4.995079,8.770325-7.43077c3.621918,5.187912,2.606262,10.608886.607712,16.416084-.969109,1.054016-1.830162,1.246437-3.208496,1.226906-.737782-.011322-1.032399-.02385-1.727055-.225129-3.943604-.170417-6.227844-2.727119-9.141911-4.653388-.321334-.523781-.457962-.76783-.282768-1.292573Z" fill="#b32760"/><path d="M66.342758,124.165527c1.415703-5.558914.404221-11.027687.600266-16.914199.173187-2.733956,2.544075-3.60598,3.357811-5.883576c1.660125-.170608,3.522819-.972404,3.190529,2.037598-.294762,2.670089.267822,5.439979.500267,8.161682.237236,2.777641-1.911828,5.501686.34024,8.439316.956978,1.248291-2.023628,1.844886-2.212761,3.752563-.026214.33799-.047737.319451-.04538.314407-.195419.092141-.393203.189324-.878967.124245-.287994-.162262-.742599-.155746-.969497-.141769-1.275277.666382-2.421494.396087-3.882508.109733Z" fill="#a6255d"/><path d="M62.770699,58.202805c1.669876-1.990189,3.128936-3.527501,4.875679-5.220761c2.597503,1.857231,2.01239,4.625248,2.171928,7.183247.334595,5.364738-.778969,10.836937,1.32238,16.509224-1.46463,2.078956-3.016762,3.753227-4.629227,5.367218-1.728897,1.730545-2.833572.852157-3.655372-1.316529-2.046574-7.561027-1.733456-14.807624-.085388-22.522399Z" fill="#643a64"/><path d="M50.886951,89.629921c-1.640129,5.600433-.674835,11.087547-.867195,16.497719-.088436,2.487304.116211,4.999969-2.450512,7.066635-2.118435-1.345474-3.815849-2.90612-5.685638-4.753388c2.362732-1.147331,3.126408-2.890716,3.19117-5.558494.138481-5.704506-.967266-11.485832.884544-17.529663c1.640133,1.050392,3.213329,2.519157,4.927631,4.277191Z" fill="#803462"/><path d="M81.48613,118.987457c-2.476486-.875572-2.511322-2.834594-2.495514-4.863945.033203-4.261986.028374-8.524536.000686-12.786598-.011489-1.769386.349976-3.670372-1.729736-5.178833c1.131378-1.777771,2.607208-3.347725,4.372841-5.062118c3.943077.313034,3.859467,3.297637,4.021195,5.801147.351181,5.436592.068252,10.900497.516319,16.787918-1.430573,2.011429-2.916893,3.577812-4.685791,5.302429Z" fill="#912f61"/><path d="M86.510803,113.974045c-3.040191-1.128914-2.303749-3.661377-2.537834-5.913758-.574509-5.527908,1.504936-11.289413-1.748329-16.856864c1.503097-2.155465,3.306625-4.059037,5.402862-6.109444c1.30909-.324333,2.037522.275253,2.107872,1.102394.642472,7.553307,2.343285,15.129807-.240928,23.084068.425178,2.674698-1.837586,3.141564-2.983643,4.693604Z" fill="#862f60"/><path d="M71.521637,76.944954c-3.100082-.116921-3.550194-2.032562-3.53614-4.408112.036941-6.248573-.004525-12.497604-.033104-19.228599c1.123107-1.706883,2.264556-2.931618,3.695999-4.287754c2.35157,4.497158,1.032806,9.379097,1.313904,14.137905.196556,3.327484-.05835,6.690536,1.892318,9.849502-.794502,1.304688-1.930298,2.540482-3.332977,3.937058Z" fill="#803261"/><path d="M26.476028,29.894642c3.957901,1.726704,3.130154,5.47802,3.39453,8.462917.342275,3.864456-.099673,7.819355-.444454,11.714028-.151661,1.713169.498821,2.446891,2.290262,2.904876-.876667,1.656151-2.096668,3.260929-3.640427,4.978218-.58523.23333-.846704.354157-1.537739.427796-3.380605-1.536404-3.085212-4.36509-3.248144-6.975018-.277624-4.447166.482146-8.953613-.913706-13.752304-.314695-1.284344-.168275-2.126755.289431-3.356281.150038-.405209.191078-.452385.222227-.4497.553116-.268142,1.143345-.329124,1.858185-.770153.171961-.234478.222748-.177814.191843-.155628.575752-.372257.553476-1.052093.803535-1.95211.142531-.597242.296671-.825552.734457-1.076641Z" fill="#733663"/><path d="M89.688782,109.717926c-.543625-8.111038-.913826-16.22216-1.526291-24.552032.904976-1.453591,2.052223-2.688424,3.483551-4.063935c3.898636,8.19381,2.421875,16.758698,1.455109,25.743668-.055932.718834-.210518.940346-.630951,1.193176-.826371.371025-1.537804.433876-2.307618,1.052841-.134521.321579-.300384.626198-.4738.626282Z" fill="#7b3261"/><path d="M100.0476,76.374451c-.014054-.406052-.01899-.897576-.02813-1.143174-2.652427-8.51622-1.299713-16.735309.676682-25.164802c2.291313,1.614239,4.215355,3.442181,6.280685,5.570694.21743,7.900036.311051,15.500717-1.659904,23.337425-.398583.573876-.585976.781746-1.139153,1.19133-2.727829.168518-3.717705-1.299271-4.13018-3.791473Z" fill="#952a5e"/><path d="M37.355499,47.888054c-1.459537-.472797-3.162716-.914784-3.15847-2.360985.022614-7.69696-1.594166-15.597814,2.649689-23.18446c2.711162.287562,2.771583,1.919142,2.553646,4.187787-.39114,4.071563-.241345,8.192546-.412701,12.288894-.079395,1.898117.686718,3.137726,2.726925,4.051132-1.12265,1.739956-2.594692,3.310315-4.359089,5.017632Z" fill="#882e5f"/><path d="M100.945953,49.588501c-.138794,7.11108-.51136,13.957226-.549995,20.80526-.007431,1.317825.074806,2.582115-.33963,4.22129-1.466973-.601616-2.887947-1.573852-4.632385-2.593506-.536774-.133087-.750077-.218765-1.093621-.623687-.188781-.484925-.247314-.650612-.356109-1.075058.504074-5.11126.503173-9.926033-1.026459-15.00364c1.944992-2.531116,3.888794-4.695392,5.982399-7.167388.732643.185668,1.315483.679065,2.0158,1.436729Z" fill="#882e5f"/><path d="M104.056198,80.205406c1.811073-8.04364.031021-16.102943,2.773422-23.988228c1.512574.842217,2.736634,1.963871,4.089783,3.370949-1.572227,5.120644-.818748,10.135613-.87867,15.07885-.032753,2.702133-.155265,5.300468-1.871589,7.97126-2.376915,1.018196-3.280243-.452499-4.112946-2.432831Z" fill="#a5275e"/><path d="M56.378441,11.033794c.598095.411647.802738.648603,1.294006.88272.429756-.073013.627335-.190204,1.120247-.129887c3.036175-.091533,5.135639,1.547414,7.256256,2.798193c1.445618.852647,2.941544,2.3696.380692,4.304004-.591164.337447-.85392.554196-1.243752,1.008351-2.62133,2.761459-5.089313,5.317369-7.85968,8.014049-3.146954-1.129911-3.001343-3.782978-3.078278-6.207065-.098884-3.115681-.390262-6.268518.790268-9.741995.44323-.62719.667786-.841618,1.340241-.92837Z" fill="#b32760"/><path d="M55.712868,10.962149c.621013,5.671297-.453263,11.047809,1.143482,16.703979-.953697,1.625324-2.07486,2.864782-3.480797,4.239611-1.997253-.633499-3.492691-1.498284-3.38224-3.787819.260444-5.398764-.668743-10.867107,1.000477-16.597611.02185-.414691.428898-.532019.639515-.509557c1.314899-.839594,2.570148-.43378,4.079563-.048603Z" fill="#a9275e"/><path d="M17.3979,55.092079c-3.529171-1.614525-4.700118-5.769058-9.010476-6.084564c3.201237-4.461121,7.066904-8.670788,12.007191-12.200035.578976.135479.813568.309696,1.251141.873176.603603,4.643101.046903,8.876305-.146307,13.11261-.10178,2.231629-.931099,4.210633-4.101549,4.298813Z" fill="#65466c"/><path d="M95.958771,13.643182c-4.199066-1.052715-8.534828.462558-12.879257.367902-2.022873-.044074-3.836083-.695527-5.875306-1.829369c7.881539-9.673641,7.88189-9.673986,16.512352-.976573.702477.707926,1.395768,1.424974,2.242211,2.43804Z" fill="#b0285f"/><path d="M103.795692,79.877625c1.374024.923797,2.502121,1.890319,3.920586,2.982666c1.503296,1.851722,2.717857,3.575714,5.297783,4.186141-3.196625,3.65696-6.759476,7.274109-10.608864,11.076195-3.178093-4.642616-3.17926-14.533493.178772-18.182495.467468.009827.965798-.019791,1.211723-.062507Z" fill="#5d3d66"/><path d="M92.663803,55.115227c4.101372,4.354522,4.494034,9.239166,1.556305,14.699051-2.75489-2.037598-5.213623-4.324967-7.983757-6.753426-.283897-.564365-.256393-.987656-.226082-1.728958c2.124664-2.229935,4.246521-4.14185,6.653534-6.216667Z" fill="#793562"/><path d="M102.897888,79.674301c-1.146248,1.424751-1.783851,2.710968-1.346855,4.56427c1.017921,4.316948.171158,8.734017.535454,13.582131-.071778.795723-.260697,1.038475-.739639,1.329399-2.619919-1.700218-3.800911-3.980301-3.37352-7.116455.703239-5.160363-1.356163-10.584641,1.765289-15.80893c1.198532.887093,2.102127,2.030503,3.159271,3.449585Z" fill="#643a64"/><path d="M80.019928,36.932899c.288872.384736.211258.553845.07563.741364-1.471275,1.411396-2.900238,2.797504-4.646522,4.396248-4.759346-3.425263-10.232743-1.483959-15.442261-2.811943-.612446-1.357102-.491551-2.452393-.225697-3.90564.209698-.36087.079998-.365215.054135-.425369c5.310638-.076794,10.616798-1.78236,16.012375-.029293c1.413978.459415,2.82917.600414,4.17234,2.034633Z" fill="#693863"/><path d="M111.811638,41.783409c.282951,1.070141.348091,1.93293.135498,2.720783-1.834122,6.797081-5.207352,7.81815-9.980507,3.053921-1.293472-1.291065-2.573692-2.595402-4.039703-4.182114c4.147377-2.98212,8.772819-3.028877,13.884712-1.59259Z" fill="#514166"/><path d="M73.975479,42.722549c-1.945862,2.727925-4.275078,5.030526-6.498375,7.431214-2.043526,2.206569-3.631912,2.71038-4.888138-.708355-.722068-1.965061-1.758583-3.814575-2.593067-6.083988c4.4566-3.312165,9.02042-2.771229,13.97958-.638871Z" fill="#57496c"/><path d="M112.338959,41.879101c-4.677803.484691-9.174866.822983-14.131836,1.184856-.991448-.436008-1.52298-.895603-2.181046-1.589779-.420257-.792843-.545585-1.386776-.315872-2.441021c4.929756-3.805816,10.157311-2.653087,15.712006-1.789085.852821.716145,1.060943,1.271.802528,2.336685-.039528.993008.127716,1.572476.11422,2.298344Z" fill="#603863"/><path d="M112.120598,37.813927c-5.289513.339184-10.365051-.377095-15.71563,1.188251-.663032.311444-.856987.631466-1.263862,1.101483-1.143647-.702271-2.034157-1.529751-3.076638-2.62127.146599-2.136943,1.449692-2.556186,3.077011-2.47298c5.400742.27615,10.749764-.249001,16.526444-1.025814.698372.198231.954086.404068,1.230202.862045-.636483.992764-.289765,1.943329-.777527,2.968285Z" fill="#683662"/><path d="M74.496346,43.021873c-4.62793.047558-9.072159.011879-13.97818-.026069-.472737-.454045-.483693-.905815-.511033-1.696228-.400268-.73481-.534187-1.202549-.155326-2.023224c4.425087-1.04155,8.543884-1.962517,12.781005-.386398c1.406685.523254,2.323365,1.035827,2.450799,2.985626-.026406.678478-.176964.896969-.587265,1.146293Z" fill="#5d3d66"/><path d="M62.640701,57.913155c.325196,7.046646.309574,14.256507.254517,21.965927-1.164261-1.642037-2.973625-3.481697-2.930573-6.502709-.964069-2.725784-.277816-5.174278-.184883-7.977524.983303-2.709548,1.751713-5.016014,2.860939-7.485694Z" fill="#514166"/><path d="M324.574463,49.279198c.429687,10.577396.454376,21.310714.460327,32.535545-1.1604-.034706-1.056366-1.067497-1.050415-2.056557.060791-10.107696.123138-20.215381.590088-30.478988Z" fill="#b694ac"/><path d="M353.803589,83.241959c2.24881-3.003548,1.054474-6.168663,1.141693-9.157082.205688-7.046257.058289-14.102814.056732-21.6245c1.125855-.239105.980042.653419.980957,1.445041.010773,9.244263.025269,18.488572.000885,27.732766-.002319.877151.412659,2.065231-1.492065,2.273864-.628113-.202613-.822083-.352806-.688202-.670089Z" fill="#eaddec"/><path d="M171.559692,51.181278c.434357,9.863999.468628,19.906933.478287,30.423077-1.121872.236519-1.044311-.627846-1.039871-1.443543.052231-9.600212.107239-19.200401.561584-28.979534Z" fill="#f8dae8"/><path d="M465.697296,49.545258c-8.755981.419902-17.704193.458652-27.109283.445549c2.022735-2.056485,4.90982-.843499,7.575164-.91412c6.442017-.17067,12.893921.034042,19.534119.468571Z" fill="#84839a"/><path d="M456.117279,83.162979c-.062347-8.021789.101502-15.753029.529724-23.796249.291077,7.36412.31778,15.040222.318817,23.185707-.224518.613281-.423431.757187-.848541.610542Z" fill="#57496c"/><path d="M446.61377,57.833138c.254333,7.228874.312316,14.205574.366363,21.647705-2.102844-3.284104-.582916-7.332985-.919434-11.229363-.265899-3.07856-.054016-6.198379-.081878-9.766594.127868-.612453.283264-.758182.634949-.651748Z" fill="#eaddec"/><path d="M181.340927,83.726433c-.33995-2.814537-.476684-5.799988-.19899-8.746384.288636-3.06263.887818-3.206322,3.855973-1.080894-3.060456-1.493294-2.718186,1.397209-2.930283,2.743705-.357819,2.271492-.252152,4.616013-.7267,7.083573Z" fill="#b96c8c"/><path d="M165.927673,79.639061c-1.835235-4.172134-.476135-9.000694-.898849-14.189323c2.101105,4.141777.403229,9.006088.898849,14.189323Z" fill="#ca8eab"/><path d="M334.450836,83.685165c-.321838-3.963699-.864471-8.11425.268891-12.468628.274047,3.941292.196655,8.119027-.268891,12.468628Z" fill="#b190a8"/><path d="M162.823166,62.566643c-3.551865.411838-7.283646.432228-11.484726.443306c3.329147-2.085526,7.373901-.648209,11.484726-.443306Z" fill="#e9c1d5"/><path d="M340.39209,63.099537c-2.132294-.142609-3.872711-.337254-5.828674-.823322-.099305-.46695.016967-.642472.310302-.556488c3.193573.260986,6.210083.260467,9.677613.217704-.569458,1.753594-2.345704.782788-4.159241,1.162106Z" fill="#b190a8"/><path d="M345.098633,72.526276c1.742889,2.792671.475799,6.299377.898437,10.10495-2.273773-2.746155-.330047-6.314225-.898437-10.10495Z" fill="#875479"/><path d="M335.026917,61.527859c.023864.453369-.328644.448547-.503876.452739-.306793-3.388183-.438355-6.780559-.552033-10.639476c2.249329,2.745178.406891,6.361942,1.055909,10.186737Z" fill="#b694ac"/><path d="M335.44104,71.046608c-.138641-1.272835.970764-.951401,2.203491-1.161232c2.562989.121361,4.77179.302208,7.170075.845551-2.846527.338203-5.882538.313926-9.373566.315681Z" fill="#c4a1b8"/><path d="M187.80188,48.56649c-2.938782.305077-6.082352.242825-9.505875-.117897c2.913727-.282123,6.107392-.265777,9.505875.117897Z" fill="#ca8eab"/><path d="M455.484802,82.908195c.580384-.005752.754517.024262,1.192017.083947-1.842713,2.377601-4.500519,1.004242-7.300171,1.045212c1.405548-1.887589,3.702179-.625817,6.108154-1.129159Z" fill="#65466c"/><path d="M147.367523,84.977654c2.10318-2.160363,5.07016-.31234,8.209748-.913453-2.104645,2.015206-5.05922.433014-8.209748.913453Z" fill="#c4a1b8"/><path d="M446.640442,57.713017c.169647.372291-.264832.402446-.47699.353797-2.77539-.126289-5.338623-.203933-8.071625-.669765c2.67981-.277565,5.529419-.166946,8.548615.315968Z" fill="#b4b0c3"/><path d="M59.602249,65.133667c.391773,2.233246.39114,4.604393.391731,7.420219-2.101043-1.943916-.521827-4.706703-.391731-7.420219Z" fill="#b4b0c3"/><path d="M149.197021,70.258049c2.106797.375061,4.802552-1.441208,6.687958,1.346764-1.922745-1.339447-4.484558-.086769-6.687958-1.346764Z" fill="#ca8eab"/><path d="M353.675415,83.055214c.455994.019646.378418.408417.38031.606415-2.5336.141868-5.069092.085739-7.867126-.294197c2.168579-.3265,4.599731-.329186,7.486816-.312218Z" fill="#875479"/><path d="M309.84079,48.632015c-2.262634.261471-4.718506.155892-7.463562-.212074c2.230652-.226585,4.750488-.190781,7.463562.212074Z" fill="#b96c8c"/><path d="M255.106262,84.458084c.944519-1.830368,2.622925-1.377678,4.57251-1.407516-.946625,1.263435-2.314972,2.454147-4.57251,1.407516Z" fill="#962e60"/><path d="M360.580322,63.148029c.403656,2.224835.430084,4.616215.423889,7.455258-2.160186-1.945236-.590362-4.705414-.423889-7.455258Z" fill="#b4b0c3"/><path d="M292.625122,56.108055c.391571,2.231125.415039,4.648869.391724,7.517616-2.133911-1.973549-.613739-4.728603-.391724-7.517616Z" fill="#b96c8c"/><path d="M224.545944,84.03714c.427216.033508.462815.435806.448654.637047-2.397369.257293-4.780593.313354-7.610107.295067c1.746094-1.991814,4.373947-.400849,7.161453-.932114Z" fill="#c4a1b8"/><path d="M132.60202,63.066216c.435944,2.274703.4832,4.71643.473511,7.613456-2.273972-1.980049-.719238-4.799736-.473511-7.613456Z" fill="#b9275e"/><path d="M143.894379,69.526215c-1.577118-1.580872-.898102-3.752251-.307968-6.175412.288543,1.731999.334899,3.740742.307968,6.175412Z" fill="#e9c1d5"/><path d="M265.332275,74.081665c-.419647-1.073273-.83197-2.641472.294037-2.941544c1.014344-.270324,1.114319,1.302239,1.335907,2.545624-.444.345848-.875061.366135-1.629944.39592Z" fill="#e9c1d5"/><path d="M65.634094,123.940285c1.433747.011917,2.499054.054397,3.964318.113182-1.410042,1.912582-3.730072.449417-6.165688.880546-.544228-.216194-.674686-.362632-.594856-.714813.949451-.21994,1.688621-.234146,2.796226-.278915Z" fill="#ca8eab"/><path d="M304.520142,56.888435c1.604278-1.390327,3.740936-1.074913,6.176635-.195564-1.730987.236736-3.740478.233738-6.176635.195564Z" fill="#b190a8"/><path d="M150.501251,57.014366c1.523941-1.82085,3.71109-1.13879,6.1353-.312515-1.737106.280743-3.723221.290584-6.1353.312515Z" fill="#b9275e"/><path d="M301.160767,84.414673c1.999511-.309212,4.169036-.24717,6.563049.142937-1.981354.294815-4.187164.261558-6.563049-.142937Z" fill="#c4a1b8"/><path d="M199.962463,63.646687c-1.715423-1.600766-.805023-3.852337-.379058-6.321637.318252,1.775311.390045,3.829556.379058,6.321637Z" fill="#b96c8c"/><path d="M223.811371,48.592308c.037796.358711-.13234.371231-.556976.410423-2.074494-.084423-3.894471-.195511-5.982102-.583915c1.931961-.242443,4.131561-.20757,6.539078.173492Z" fill="#b96c8c"/><path d="M378.602966,83.981247c1.283905.05938,2.174164.181244,3.200074.613937-2.067566.264481-4.270844.218132-6.627839-.207557.908875-.367531,1.971528-.355713,3.427765-.40638Z" fill="#c4a1b8"/><path d="M27.061838,58.365669c.401737-.177913.592766-.127147.641554-.212814.100529,1.922157.152267,3.929981.116203,6.367195-.087804.429398-.338491.235489-.488084.183937s-.159705-.327576-.25075-.431419c-.259319-.342312-.427593-.580776-.796024-1.209831-.791182-1.875912-.665945-3.261384.777101-4.697068Z" fill="#e9c1d5"/><path d="M154.805252,48.547733c-1.931808.272595-4.077484.206013-6.50618-.132641c1.908768-.250225,4.10054-.228382,6.50618.132641Z" fill="#b96c8c"/><path d="M457.426758,58.024429c1.533356-1.965465,3.901642-.739856,6.291351-.456489-1.831665.371235-3.845489.402221-6.291351.456489Z" fill="#b4b0c3"/><path d="M60.062313,38.59745c.008709.833481-.034851,1.269432-.074985,2.034436-1.922623-1.348103-.772965-3.417183-.35817-5.493187.368042.922645.374462,1.991935.433155,3.458751Z" fill="#b694ac"/><path d="M117.958511,76.585861c-1.673858-1.247726-.805755-3.180908-.378402-5.271789.332939,1.460785.390327,3.155998.378402,5.271789Z" fill="#ca8eab"/><path d="M94.124664,71.482559c.343186-.281135.556542-.095718.845642.321945-.018058,1.579316-.166282,2.989006-.527267,4.675827-.273094-1.346519-.333435-2.970176-.318375-4.997772Z" fill="#c4a1b8"/><path d="M417.612183,84.007309c.94577.077904,1.498535.212135,2.160064.611252-1.743622.221718-3.596039.178558-5.588104-.235306.918549-.353676,1.976807-.336647,3.42804-.375946Z" fill="#b4b0c3"/><path d="M257.667328,70.076988c-.022522,1.044235-.318909,2.133049-.671234,3.558808-1.115464-.136574-.913056-1.131974-.992676-2.339409.482758-.618752.936401-.896782,1.66391-1.219399Z" fill="#e9c1d5"/><path d="M435.369202,68.863533c-.26651-1.661728-.171051-3.495979.23236-5.561203.248505,1.642242.189057,3.515457-.23236,5.561203Z" fill="#84839a"/><path d="M203.567139,64.182373c.399093,1.575752.435119,3.298981.447967,5.452431-2.098205-1.232544-.696441-3.372895-.447967-5.452431Z" fill="#f8dae8"/><path d="M267.847778,56.609741c-1.605743.375321-3.349273.380856-5.529724.397099c1.271027-2.010319,3.431732-.637139,5.529724-.397099Z" fill="#e9c1d5"/><path d="M239.920395,68.560989c-1.568268-1.268577-.821228-3.19017-.355881-5.289878.325104,1.465759.374329,3.167083.355881,5.289878Z" fill="#ca8eab"/><path d="M331.960388,48.644226c-1.590423.362721-3.325256.35051-5.493103.347603c1.273743-1.976448,3.385895-.759613,5.493103-.347603Z" fill="#e9c1d5"/><path d="M273.138763,66.579552c-1.21054-.494477-2.182159-1.488907-1.311889-3.410019c1.608032.56702,1.039947,1.927833,1.311889,3.410019Z" fill="#8f2f60"/><path d="M396.389496,68.809616c-.376526-1.575333-.378235-3.266327-.370392-5.380791c2.011871,1.245507.585815,3.357827.370392,5.380791Z" fill="#eaddec"/><path d="M351.835907,48.61718c-1.727478.308788-3.587341.234573-5.647949-.181099c1.704681-.294941,3.610138-.248425,5.647949.181099Z" fill="#e9c1d5"/><path d="M437.652069,51.043526c.373322,1.600437.38443,3.374927.367401,5.592292-2.066559-1.294853-.641907-3.447048-.367401-5.592292Z" fill="#b4b0c3"/><path d="M175.072174,84.395653c1.317413-.428452,2.76796-.48803,4.650665-.479134-.94664,2.04969-2.815704.917847-4.650665.479134Z" fill="#f8dae8"/><path d="M288.368713,55.916401c-.388702-1.249901-.402221-2.607536-.431518-4.369663c2.258392.798473.631988,2.688926.431518,4.369663Z" fill="#f8dae8"/><path d="M269.044952,81.296532c.998078-.1568,1.713654.244209,1.97815,1.576507-1.790283,1.307083-1.758515-.193985-1.97815-1.576507Z" fill="#8f2f60"/><path d="M22.515091,33.995026c.360435.667026.420143,1.435409.474544,2.588707-.379268.724151-.821729.875015-1.62993.666862-.306904-.19722-.46254-.34087-.541622-.411362-.140391-1.266632.553516-2.045833,1.697008-2.844207Z" fill="#65466c"/><path d="M154.524261,76.082504c-.953002,1.361832-2.469207,1.105919-4.254455.297974c1.126312-.288605,2.489441-.33281,4.254455-.297974Z" fill="#b96c8c"/><path d="M111.907394,38.334587c.089135-1.216057.235062-2.103928.696061-3.1143.257545,1.422623.200012,2.967751-.221497,4.643444-.38192-.313274-.399849-.757118-.474564-1.529144Z" fill="#b4b0c3"/><path d="M319.368774,75.858315c-.355133-1.258484-.348877-2.631295-.355774-4.415856c1.833619.910896.691193,2.696739.355774,4.415856Z" fill="#e9c1d5"/><path d="M56.210503,11.252139c-1.312195.01366-2.42553-.03672-3.952721-.153013c1.013309-2.05673,2.860168-1.016376,4.583523-.348781-.014969.411125-.431946.437754-.630802.501794Z" fill="#f8dae8"/><path d="M86.939316,35.635704c-.53785.333241-1.2836.354996-2.39856.388451-.369194.011696-.448623-.190186-.499824-.285496.770424-.994366,1.719383-.799446,2.898384-.102955Z" fill="#a82a5f"/><path d="M52.898804,117.79023c.200695.460586.160885.675049.073906,1.214577-.680622-.222123-1.314076-.769333-2.113251-1.581177.489136-.136269,1.143986-.007897,2.039345.3666Z" fill="#803462"/><path d="M275.758118,70.941193c.151245.825798.68634,1.837364-.473755,2.335342-.203736-.587692-.407471-1.175377-.418762-2.05748.192474-.294411.659088-.279106.892517-.277862Z" fill="#e9c1d5"/><path d="M95.003174,40.444695c.094711-.517762.304642-.819695.747269-1.271805.222267.342434.21183.835045.175247,1.697178-.331292.236892-.591675.043869-.922516-.425373Z" fill="#514166"/><path d="M24.601381,32.843636c-.142875.353263-.602522.705623-1.372198,1.033104-.154512-.76669.378338-.997937,1.372198-1.033104Z" fill="#65466c"/><path d="M60.662186,31.017727c.148319.411737.019252.979692-.320214,1.755501-.125991-.394524-.041584-.996905.320214-1.755501Z" fill="#693863"/><path d="M25.550598,30.856153c.14255.436123.015717,1.065297-.377289,1.891947-.141481-.434643-.016786-1.06677.377289-1.891947Z" fill="#803664"/><path d="M37.580856,18.833054c.129204.4417-.021309,1.069835-.438911,1.892477-.124992-.439009.017097-1.072525.438911-1.892477Z" fill="#803664"/><path d="M99.488754,101.035004c-1.063949-.734764-.46447-.879975.555588-.929093.113174.321343-.083656.586716-.555588.929093Z" fill="#5d3d66"/><path d="M41.594177,15.805977c-.197185.331215-.73114.689051-1.60823,1.050663.195068-.338829.733261-.681437,1.60823-1.050663Z" fill="#803664"/><path d="M90.378052,109.502487c.164062-.513222.678108-.937179,1.548675-1.369232-.16188.480766-.680282.96962-1.548675,1.369232Z" fill="#703562"/><path d="M71.003044,124.25177c.09874-.217682.293762-.218903.780914-.201813.076012.418976-.071479.987236-.780914.201813Z" fill="#9b2c5f"/><path d="M62.748581,124.017609c.299568-.004143.252354.420585.261368.633621-.298233.104088-.605477-.004852-1.035271-.345383.076412-.2491.275372-.266601.773903-.288238Z" fill="#a6255d"/><path d="M58.994179,11.734619c-.103337.233865-.300518.238214-.793625.234318-.082947-.420015.026352-1.05838.793625-.234318Z" fill="#a9275e"/><path d="M44.695198,13.939281c.055965.197432-.159111.471027-.634087.807993-.052253-.201694.155396-.46676.634087-.807993Z" fill="#963062"/><path d="M65.279633,20.002148c-.042023-.179404.16304-.459383.607986-.850081.039619.176022-.160629.462763-.607986.850081Z" fill="#a9275e"/><path d="M32.941444,71.748352c-.174381.042107-.439834-.156898-.816894-.581924.167541-.037079.446686.151863.816894.581924Z" fill="#963062"/><path d="M275.011475,70.716179c-.236451.1334-.551819.012001-.92743-.400551.242707-.145515.545594.000122.92743.400551Z" fill="#e9c1d5"/><path d="M293.015869,64.247482c.185608-.061165.462219.130089.86438.546517-.174133.052086-.473755-.121002-.86438-.546517Z" fill="#b96c8c"/><path d="M182.244064,64.042564c-.294799-.340427-.193191-.601013-.247329-.729957-.886811-1.886093-.368927-3.735707-.177277-5.932434.247742-.38641.162766-.385693.161499-.343224c1.301041-.996967,2.803955-.37965,4.600906-.248161c2.545762,2.321487,3.555573,4.522522.688202,7.213829-1.744629.696396-3.240463.482384-5.026001.039947Z" fill="#fff"/><path d="M181.762024,57.212448c.288696,1.544907.272232,3.308495.21817,5.521649-1.531265-1.355488-1.136673-3.319989-.21817-5.521649Z" fill="#b96c8c"/><path d="M186.734314,56.731361c-1.156097.286137-2.539322.294175-4.338593.325135.865113-1.834549,2.504975-1.098114,4.338593-.325135Z" fill="#ca8eab"/><path d="M181.973511,64.094749c1.374649-.276119,2.773559-.159626,4.593506.021706-1.17334,1.292511-2.847214,1.224419-4.593506-.021706Z" fill="#e9c1d5"/><path d="M223.71698,56.842525c1.571701,1.411007,2.871475,2.548474,4.32045,3.989361.787399,2.054482.253036,3.889595.737854,5.994553.45607,4.080734-1.042298,6.8367-4.622376,8.802536-5.172256,2.950798-6.853912-1.073967-9.193344-4.424522-.742523-2.631669-.359192-4.978272-.265137-7.723824.196915-.85577.247605-1.297176.316086-2.07188.646759-1.144772.864518-2.205365,1.854538-3.127385.251221-.177101.133255-.260978.184662-.209835.52153-.565372,1.098099-1.049152,2.184372-1.450977c1.652069-.118088,2.93216-.149963,4.482895.221973Z" fill="#fff"/><path d="M214.534851,63.297081c.329788,2.087418.35376,4.405655.319214,7.156075-1.410034-1.930764-.94339-4.433724-.319214-7.156075Z" fill="#e9c1d5"/><path d="M223.991028,56.84256c-1.459763.250175-2.917389.226845-4.750916.430538-.444244-.043079-.512573-.313183-.295471-.888546c1.592163-.332104,2.898865-.358955,4.595459-.372345.410935.194592.431992.375717.450928.830353Z" fill="#ca8eab"/><path d="M216.763397,58.136734c.441971,1.190388-.155395,2.032955-1.437256,2.800015-.257904-1.030186-.470398-2.31913,1.437256-2.800015Z" fill="#a22c60"/><path d="M218.884323,56.101555c.30751.216923.269241.456097.105438,1.046921-.536483.559005-.947403.766365-1.623489.973961-.247192-.997708.047211-1.796849,1.518051-2.020882Z" fill="#a22c60"/><path d="M380.606323,56.7612c2.741242,1.78138,3.729981,4.362991,5.254853,6.969845-.838166,1.706768-.214875,3.239856-.085419,4.952793.179046,3.918259-3.075012,5.05941-5.477539,7.276176-4.65622,1.053398-7.121186-.764763-8.440155-4.965591-1.688172-5.376709-.505493-10.085835,3.963226-13.594101c1.462372-1.374268,2.973969-.73307,4.785034-.639122Z" fill="#fff"/><path d="M380.874268,56.747524c-1.26828.232418-2.661408.25227-4.471619.30801.296814-1.412376,1.664368-1.000423,3.222168-1.134185.658996.148456.90918.36053,1.249451.826175Z" fill="#b694ac"/><path d="M425.304871,68.472107c-.371979,5.156265-3.194092,7.562942-7.949952,8.625305-3.459655-1.552444-6.083374-3.570801-6.426757-7.81813-.791138-2.37574-.305329-4.44278-.169251-6.874939c1.499603-1.820839,2.802826-3.246674,4.16919-4.996994c1.31137-1.380532,2.781494-.732293,4.547424-.699826c2.909943,1.33178,3.939148,3.805958,5.588562,6.203633.64331,1.918579.372803,3.555465.240784,5.560951Z" fill="#fff"/><path d="M410.700256,62.285515c.277375,1.736816.299713,3.749809.259156,6.189857-1.909485-1.56578-.910157-3.761207-.259156-6.189857Z" fill="#b4b0c3"/><path d="M419.741272,56.61087c-1.226379.289029-2.583435.324501-4.345276.415985.144379-.792476.996918-1.027977,2.266663-1.15863.873443.123814,1.410675.306454,2.078613.742645Z" fill="#b694ac"/><path d="M425.38916,68.607956c-.247711-1.36599-.264587-2.977234-.216308-4.985565c1.152435,1.244003.973693,2.979225.216308,4.985565Z" fill="#84839a"/><path d="M385.982788,68.525116c-1.886566-.895416-.821869-2.656113-.35968-4.367111.362121,1.25325.359772,2.607094.35968,4.367111Z" fill="#eaddec"/><path d="M229.079102,66.766327c-2.074494-1.053955-.782654-3.067734-.951233-5.223389c1.376999,1.153042.934936,3.046814.951233,5.223389Z" fill="#eaddec"/><path d="M21.022888,37.468922c.459017-.434246.888119-.452946,1.639332-.485966c2.655836.448891,2.320448,2.298531,2.330647,3.926239.025035,3.995838.003421,7.991939.011953,11.987915.003889,1.822239-.218392,3.731617,2.073004,5.097095.193964,1.526959.002176,2.860367-.224385,4.599209-.375789.75853-.792799.891198-1.548315.615719-2.086351-1.788971-3.899933-3.36047-6.000911-5.08955-.878291-.966934-1.469185-1.776291-2.194117-2.857654c2.243437-1.075135,3.002281-2.7328,2.923822-5.201165-.129617-4.077808-.408123-8.202285.98897-12.591842Z" fill="#683662"/><path d="M25.199684,63.23584c.229498-.242413.626328-.24065,1.321068-.237938.353315.191261.40872.381576.466545.871353-.538483.069893-1.079384-.159672-1.787613-.633415Z" fill="#733663"/></svg>
