<svg version="1.1" id="Layer_1" xmlns="http://www.w3.org/2000/svg" xmlns:xlink="http://www.w3.org/1999/xlink" x="0px" y="0px"
	 width="100%" viewBox="0 0 346 51" enable-background="new 0 0 346 51" xml:space="preserve">
<path fill="#000000" opacity="1.000000" stroke="none" 
	d="
M258.000000,52.000000 
	C172.000031,52.000000 86.500053,52.000000 1.000057,52.000000 
	C1.000038,35.000031 1.000038,18.000061 1.000019,1.000069 
	C116.333275,1.000046 231.666550,1.000046 346.999878,1.000023 
	C346.999908,17.999929 346.999908,34.999859 346.999939,51.999893 
	C317.500000,52.000000 288.000000,52.000000 258.000000,52.000000 
M175.785690,44.085003 
	C176.859344,44.328869 177.933014,44.572731 179.746185,44.937279 
	C181.513138,44.894531 183.514526,45.371841 184.999100,44.702644 
	C188.262299,43.231678 192.075119,41.839409 194.197662,39.224922 
	C198.154648,34.350758 196.757782,28.235897 186.250961,23.005875 
	C183.786423,21.786121 181.321899,20.566366 178.857361,19.346611 
	C179.027710,18.626720 179.198059,17.906830 179.368423,17.186939 
	C182.068893,17.403172 184.812225,17.395285 187.457306,17.901119 
	C189.911209,18.370392 192.555939,19.595842 193.685989,16.334002 
	C194.739594,13.292776 193.685837,10.481475 190.333969,9.703786 
	C183.859314,8.201555 177.314957,7.484040 171.079895,10.842447 
	C170.670197,11.063129 170.212189,11.330136 169.967697,11.701401 
	C165.385147,18.659859 168.163727,26.450628 176.155014,29.129877 
	C177.088821,29.442957 178.009338,29.795656 179.299194,30.693348 
	C180.157242,30.869205 181.015305,31.045065 182.248886,31.676094 
	C182.816284,31.819691 183.383698,31.963289 184.222534,32.698227 
	C183.137665,34.100460 182.052795,35.502689 180.205276,36.970440 
	C177.172180,35.932449 174.139069,34.894459 170.973480,33.811127 
	C166.196457,38.178745 167.023071,41.404259 174.098526,44.638386 
	C174.436493,44.491478 174.774445,44.344574 175.785690,44.085003 
M126.991997,43.079731 
	C126.991997,43.079731 126.924446,43.083813 127.390419,43.688240 
	C137.086594,47.439663 140.608414,41.742722 141.932114,32.980179 
	C143.229691,36.246075 144.173996,38.622791 144.975708,41.596043 
	C145.676712,42.128330 146.377716,42.660618 147.741989,43.311722 
	C149.811356,43.499760 151.880722,43.687801 154.748581,43.960804 
	C157.976944,44.273361 159.612213,42.831295 160.182388,39.602829 
	C161.640656,31.345715 163.502884,23.155544 164.788940,14.874213 
	C165.461838,10.541176 162.043121,9.456150 158.583359,9.001778 
	C155.083115,8.542087 154.110291,10.283988 153.888123,13.646648 
	C153.509842,19.372032 152.486816,25.054817 151.594894,31.814983 
	C150.423645,29.449230 149.797928,28.185368 149.043915,26.113745 
	C147.393829,16.092297 147.532608,16.026337 136.148163,17.439417 
	C135.835266,20.245541 135.514893,23.118677 135.037750,26.387625 
	C135.037750,26.387625 134.924683,26.798067 134.307434,27.074884 
	C134.246613,27.713779 134.185791,28.352674 134.042847,29.627295 
	C133.982849,30.049747 133.922836,30.472200 133.211899,30.892120 
	C132.752502,30.275637 132.293106,29.659155 131.946365,28.197260 
	C131.218857,23.352161 130.730392,18.454586 129.682266,13.679868 
	C128.947174,10.331203 126.739632,8.398069 122.841232,8.917437 
	C118.867172,9.446881 118.759735,12.121110 119.021492,15.059384 
	C119.209137,17.165695 119.456017,19.293747 119.967850,21.339182 
	C121.610733,27.904560 123.388985,34.436066 124.977745,41.686226 
	C125.634781,42.168106 126.291809,42.649982 126.991997,43.079731 
M201.026886,43.182018 
	C209.246841,45.664917 210.957855,44.551750 210.993011,36.699547 
	C210.997452,35.707436 210.655579,34.504131 211.095428,33.771866 
	C211.786118,32.622028 213.005615,31.789824 214.811783,30.942078 
	C216.747177,30.942078 218.682587,30.942078 221.001038,30.942078 
	C221.001038,33.079506 220.991058,35.049519 221.002869,37.019398 
	C221.043518,43.804913 223.281158,45.284496 230.327225,43.794926 
	C230.885818,42.783051 231.914368,41.777969 231.929108,40.758240 
	C232.053543,32.144627 232.023911,23.528051 231.944809,14.913246 
	C231.935822,13.936106 231.335693,12.964395 231.067612,11.236628 
	C228.854568,6.025887 224.812195,9.181253 220.999176,8.751012 
	C220.999176,13.216571 220.999176,17.315708 220.999176,21.203951 
	C219.015579,21.987329 217.507660,22.582853 215.143127,23.063492 
	C210.816299,23.695393 210.961029,20.876942 210.961502,17.883730 
	C210.962952,8.944384 210.017410,8.163028 200.202087,9.406411 
	C200.129028,19.541328 200.029999,29.676247 200.029968,39.811165 
	C200.029968,40.664051 200.694199,41.516937 201.026886,43.182018 
M293.630402,8.425448 
	C280.674530,10.042701 275.424408,15.509844 276.088776,27.805420 
	C276.622894,37.691231 280.171600,44.950523 294.543274,44.772484 
	C305.488190,43.829445 309.210754,41.131104 311.524658,31.837637 
	C315.236176,16.930738 303.406250,6.487848 293.630402,8.425448 
M256.314606,8.746876 
	C255.235214,8.468599 254.112915,7.839498 253.082947,7.965415 
	C240.495270,9.504302 236.725510,15.651634 236.818512,27.817257 
	C236.903503,38.930649 243.522919,44.695393 251.442169,44.635471 
	C256.702759,44.394085 262.044342,45.257351 266.569519,41.036175 
	C273.069885,34.972504 273.696899,27.586731 271.985687,19.729826 
	C270.603607,13.383973 263.228729,8.529684 256.314606,8.746876 
M332.691345,43.327156 
	C332.818085,34.911736 332.944794,26.496313 333.851074,18.023693 
	C342.855743,17.824055 344.298462,16.371233 341.499176,9.168076 
	C334.383301,9.113152 327.266724,8.983944 320.152008,9.050744 
	C318.143311,9.069602 316.140045,9.662111 313.992371,10.854744 
	C312.495148,18.070045 317.483459,18.421469 322.988373,18.249819 
	C322.988373,25.762934 323.140015,32.720867 322.921906,39.667194 
	C322.818848,42.950119 324.122803,44.314751 327.203339,44.242489 
	C328.817505,44.204628 330.427246,43.976952 332.691345,43.327156 
M98.200890,9.056288 
	C97.534523,9.038627 96.860268,9.080754 96.203011,8.994047 
	C89.693634,8.135313 84.489265,10.228539 82.362854,16.320934 
	C80.641663,21.252363 79.876663,26.924831 80.349922,32.117081 
	C81.018631,39.453789 87.613640,44.524040 94.418434,44.702984 
	C97.442818,44.554462 100.544708,44.787769 103.478348,44.192242 
	C117.201759,41.406395 119.722771,22.720592 111.179001,13.777943 
	C108.071785,10.525651 104.498505,6.868224 98.200890,9.056288 
M48.256191,42.712738 
	C50.663467,43.416191 54.986160,45.065815 55.179020,44.675396 
	C56.931858,41.126980 57.964214,37.222664 59.425159,32.756489 
	C61.152493,35.280399 62.561550,38.017059 64.610535,40.134472 
	C66.499771,42.086796 68.902916,44.025444 71.418938,44.694595 
	C72.787933,45.058685 76.305634,42.780689 76.314514,41.673973 
	C76.332230,39.466385 75.027977,36.867672 73.489510,35.115616 
	C71.068359,32.358326 70.790649,30.569700 73.573883,27.735569 
	C78.261818,22.961908 76.236519,14.582497 70.778610,10.772465 
	C66.000191,7.436768 61.120441,9.025789 56.287037,9.071621 
	C53.498055,9.098068 50.720383,10.317217 47.147152,11.374440 
	C47.098377,20.446877 47.014900,29.519424 47.044159,38.591606 
	C47.047871,39.743095 47.641720,40.892681 48.256191,42.712738 
M26.273088,17.304495 
	C28.848614,17.515673 31.428772,17.682581 33.998253,17.951508 
	C36.202396,18.182201 38.695862,20.523277 40.179668,16.678396 
	C41.527020,13.187107 39.570469,10.839963 36.972244,10.143377 
	C32.606281,8.972858 27.845268,7.978229 23.448860,8.519904 
	C16.682264,9.353607 10.694913,12.725158 9.490820,20.221912 
	C8.424200,26.862747 7.261413,33.881283 12.993155,39.504574 
	C18.748440,45.150963 32.372139,47.118149 39.110741,42.848236 
	C40.498753,41.968723 41.646049,39.832741 41.851681,38.147449 
	C42.271725,34.704895 42.400997,31.100574 41.806698,27.710733 
	C41.481213,25.854172 39.581158,23.014160 38.138615,22.851070 
	C33.950684,22.377594 29.635204,23.032286 25.397369,23.242992 
	C24.582514,30.158012 24.582514,30.158012 32.300472,31.728184 
	C31.808985,33.167313 31.648014,35.445999 30.804197,35.735691 
	C29.010963,36.351330 26.545948,36.589134 24.922737,35.806717 
	C21.018730,33.924911 19.645599,30.512274 19.863722,26.004166 
	C20.069530,21.750490 22.037907,19.365717 26.273088,17.304495 
z"/>
<path fill="#B9275E" opacity="1.000000" stroke="none" 
	d="
M25.954052,17.560307 
	C22.037907,19.365717 20.069530,21.750490 19.863722,26.004166 
	C19.645599,30.512274 21.018730,33.924911 24.922737,35.806717 
	C26.545948,36.589134 29.010963,36.351330 30.804197,35.735691 
	C31.648014,35.445999 31.808985,33.167313 32.300472,31.728184 
	C24.582514,30.158012 24.582514,30.158012 25.397369,23.242992 
	C29.635204,23.032286 33.950684,22.377594 38.138615,22.851070 
	C39.581158,23.014160 41.481213,25.854172 41.806698,27.710733 
	C42.400997,31.100574 42.271725,34.704895 41.851681,38.147449 
	C41.646049,39.832741 40.498753,41.968723 39.110741,42.848236 
	C32.372139,47.118149 18.748440,45.150963 12.993155,39.504574 
	C7.261413,33.881283 8.424200,26.862747 9.490820,20.221912 
	C10.694913,12.725158 16.682264,9.353607 23.448860,8.519904 
	C27.845268,7.978229 32.606281,8.972858 36.972244,10.143377 
	C39.570469,10.839963 41.527020,13.187107 40.179668,16.678396 
	C38.695862,20.523277 36.202396,18.182201 33.998253,17.951508 
	C31.428772,17.682581 28.848614,17.515673 25.954052,17.560307 
z"/>
<path fill="#B0285F" opacity="1.000000" stroke="none" 
	d="
M47.937618,10.999541 
	C50.720383,10.317217 53.498055,9.098068 56.287037,9.071621 
	C61.120441,9.025789 66.000191,7.436768 70.778610,10.772465 
	C76.236519,14.582497 78.261818,22.961908 73.573883,27.735569 
	C70.790649,30.569700 71.068359,32.358326 73.489510,35.115616 
	C75.027977,36.867672 76.332230,39.466385 76.314514,41.673973 
	C76.305634,42.780689 72.787933,45.058685 71.418938,44.694595 
	C68.902916,44.025444 66.499771,42.086796 64.610535,40.134472 
	C62.561550,38.017059 61.152493,35.280399 59.425159,32.756489 
	C57.964214,37.222664 56.931858,41.126980 55.179020,44.675396 
	C54.986160,45.065815 50.663467,43.416191 48.140198,41.907486 
	C47.995342,31.068001 47.966480,21.033772 47.937618,10.999541 
M58.122604,23.964642 
	C62.639122,26.894932 63.628109,22.682467 66.354637,19.742121 
	C63.495567,18.534191 61.137299,17.537844 58.029110,16.224665 
	C58.029110,19.527210 58.029110,21.322054 58.122604,23.964642 
z"/>
<path fill="#A82A5F" opacity="1.000000" stroke="none" 
	d="
M93.967728,44.089619 
	C87.613640,44.524040 81.018631,39.453789 80.349922,32.117081 
	C79.876663,26.924831 80.641663,21.252363 82.362854,16.320934 
	C84.489265,10.228539 89.693634,8.135313 96.203011,8.994047 
	C96.860268,9.080754 97.534523,9.038627 98.777908,9.391479 
	C101.197266,11.851725 103.039604,13.976779 104.881943,16.101833 
	C95.442154,14.565861 95.442154,14.565861 93.177155,18.114353 
	C93.158638,18.130161 93.117348,18.105715 92.823296,18.235722 
	C92.044495,19.263216 91.559746,20.160704 91.042984,21.049454 
	C91.010979,21.040714 91.075180,21.024622 90.993896,21.129845 
	C90.782036,21.479986 90.774414,21.730423 90.924805,22.437237 
	C90.977646,25.182335 90.832794,27.491827 91.046196,29.767721 
	C91.528564,34.911987 95.493248,37.578880 100.094086,36.261776 
	C100.563095,37.136684 100.946571,37.666412 101.273438,38.229034 
	C101.940979,39.378101 102.578056,40.544865 103.227684,41.704338 
	C102.047546,42.128342 100.892746,42.655788 99.681419,42.952442 
	C97.797043,43.413929 95.874245,43.718525 93.967728,44.089619 
z"/>
<path fill="#3D3D63" opacity="1.000000" stroke="none" 
	d="
M341.884857,9.933748 
	C344.298462,16.371233 342.855743,17.824055 333.225891,18.197041 
	C332.413483,26.858589 332.226227,35.346790 332.038971,43.834999 
	C330.427246,43.976952 328.817505,44.204628 327.203339,44.242489 
	C324.122803,44.314751 322.818848,42.950119 322.921906,39.667194 
	C323.140015,32.720867 322.988373,25.762934 322.988373,18.249819 
	C317.483459,18.421469 312.495148,18.070045 314.521820,10.460323 
	C323.995789,10.021851 332.940338,9.977799 341.884857,9.933748 
z"/>
<path fill="#603963" opacity="1.000000" stroke="none" 
	d="
M256.985504,9.193968 
	C263.228729,8.529684 270.603607,13.383973 271.985687,19.729826 
	C273.696899,27.586731 273.069885,34.972504 266.569519,41.036175 
	C262.044342,45.257351 256.702759,44.394085 251.357483,44.039307 
	C252.513458,41.025810 253.754105,38.608479 255.345108,36.092140 
	C261.778992,32.003235 263.537781,28.535900 261.635864,23.566648 
	C259.994385,19.277760 257.526337,15.899838 252.179230,16.914124 
	C253.858231,14.151639 255.421875,11.672803 256.985504,9.193968 
z"/>
<path fill="#563B63" opacity="1.000000" stroke="none" 
	d="
M293.992706,44.811504 
	C280.171600,44.950523 276.622894,37.691231 276.088776,27.805420 
	C275.424408,15.509844 280.674530,10.042701 293.896393,9.014359 
	C293.439850,12.000966 292.717285,14.398664 291.709351,17.006733 
	C284.347473,24.659472 284.936279,32.151596 293.086823,37.555435 
	C293.451080,40.219849 293.721893,42.515675 293.992706,44.811504 
z"/>
<path fill="#4D3D64" opacity="1.000000" stroke="none" 
	d="
M294.268005,44.791992 
	C293.721893,42.515675 293.451080,40.219849 293.450012,37.466866 
	C300.372131,34.487041 302.452789,30.564056 300.901367,23.468723 
	C299.722565,18.077259 297.699005,16.561348 291.994751,16.796362 
	C292.717285,14.398664 293.439850,12.000966 294.097595,9.257435 
	C303.406250,6.487848 315.236176,16.930738 311.524658,31.837637 
	C309.210754,41.131104 305.488190,43.829445 294.268005,44.791992 
z"/>
<path fill="#6A3864" opacity="1.000000" stroke="none" 
	d="
M254.994766,36.191151 
	C253.754105,38.608479 252.513458,41.025810 251.121979,43.753738 
	C243.522919,44.695393 236.903503,38.930649 236.818512,27.817257 
	C236.725510,15.651634 240.495270,9.504302 253.082947,7.965415 
	C254.112915,7.839498 255.235214,8.468599 256.650055,8.970422 
	C255.421875,11.672803 253.858231,14.151639 251.968277,17.190239 
	C247.333267,20.998859 246.408600,25.082361 248.015152,30.695467 
	C249.090118,34.451252 250.787506,36.737038 254.994766,36.191151 
z"/>
<path fill="#9B2C5F" opacity="1.000000" stroke="none" 
	d="
M134.924683,26.798067 
	C134.924683,26.798067 135.037750,26.387625 135.409637,26.349924 
	C136.406235,29.844456 137.183289,33.358227 137.614166,36.913948 
	C138.074020,40.708702 136.277496,42.846535 132.337280,42.951191 
	C130.533112,42.999111 128.728729,43.039829 126.924446,43.083813 
	C126.924446,43.083813 126.991997,43.079731 126.837723,42.851784 
	C126.160637,42.076103 125.637825,41.528370 125.115005,40.980637 
	C123.388985,34.436066 121.610733,27.904560 119.967850,21.339182 
	C119.456017,19.293747 119.209137,17.165695 119.021492,15.059384 
	C118.759735,12.121110 118.867172,9.446881 122.841232,8.917437 
	C126.739632,8.398069 128.947174,10.331203 129.682266,13.679868 
	C130.730392,18.454586 131.218857,23.352161 131.760071,28.898842 
	C132.036423,30.612358 132.499084,31.624296 132.961731,32.636230 
	C133.262100,32.055706 133.562469,31.475178 133.862823,30.894651 
	C133.922836,30.472200 133.982849,30.049747 134.235596,29.056152 
	C134.593796,27.922695 134.759247,27.360382 134.924683,26.798067 
z"/>
<path fill="#713260" opacity="1.000000" stroke="none" 
	d="
M230.052887,43.012493 
	C223.281158,45.284496 221.043518,43.804913 221.002869,37.019398 
	C220.991058,35.049519 221.001038,33.079506 221.001038,30.942078 
	C218.682587,30.942078 216.747177,30.942078 214.507629,30.575462 
	C214.802246,27.865356 215.401001,25.521868 215.999741,23.178379 
	C217.507660,22.582853 219.015579,21.987329 220.999176,21.203951 
	C220.999176,17.315708 220.999176,13.216571 220.999176,8.751012 
	C224.812195,9.181253 228.854568,6.025887 231.033463,12.082762 
	C231.004288,21.298496 231.060654,29.668650 230.970581,38.037228 
	C230.952698,39.698750 230.373322,41.354225 230.052887,43.012493 
z"/>
<path fill="#8F2E60" opacity="1.000000" stroke="none" 
	d="
M149.172211,26.921509 
	C149.797928,28.185368 150.423645,29.449230 151.594894,31.814983 
	C152.486816,25.054817 153.509842,19.372032 153.888123,13.646648 
	C154.110291,10.283988 155.083115,8.542087 158.583359,9.001778 
	C162.043121,9.456150 165.461838,10.541176 164.788940,14.874213 
	C163.502884,23.155544 161.640656,31.345715 160.182388,39.602829 
	C159.612213,42.831295 157.976944,44.273361 154.049194,43.742760 
	C150.059708,41.472649 146.289185,33.074997 147.301910,29.681471 
	C147.604996,28.665880 148.531387,27.836306 149.172211,26.921509 
z"/>
<path fill="#78305F" opacity="1.000000" stroke="none" 
	d="
M215.571442,23.120935 
	C215.401001,25.521868 214.802246,27.865356 214.102325,30.515980 
	C213.005615,31.789824 211.786118,32.622028 211.095428,33.771866 
	C210.655579,34.504131 210.997452,35.707436 210.993011,36.699547 
	C210.957855,44.551750 209.246841,45.664917 201.047485,42.278381 
	C201.059631,30.633011 201.051163,19.891277 201.042694,9.149543 
	C210.017410,8.163028 210.962952,8.944384 210.961502,17.883730 
	C210.961029,20.876942 210.816299,23.695393 215.571442,23.120935 
z"/>
<path fill="#A22C60" opacity="1.000000" stroke="none" 
	d="
M94.193085,44.396301 
	C95.874245,43.718525 97.797043,43.413929 99.681419,42.952442 
	C100.892746,42.655788 102.047546,42.128342 103.227684,41.704338 
	C102.578056,40.544865 101.940979,39.378101 101.273438,38.229034 
	C100.946571,37.666412 100.563095,37.136684 100.269623,35.963959 
	C105.003777,32.084148 106.529297,26.176451 103.983963,21.201172 
	C101.902336,17.132290 98.898048,16.268280 93.195679,18.098543 
	C95.442154,14.565861 95.442154,14.565861 104.881943,16.101833 
	C103.039604,13.976779 101.197266,11.851725 99.180260,9.454407 
	C104.498505,6.868224 108.071785,10.525651 111.179001,13.777943 
	C119.722771,22.720592 117.201759,41.406395 103.478348,44.192242 
	C100.544708,44.787769 97.442818,44.554462 94.193085,44.396301 
z"/>
<path fill="#853261" opacity="1.000000" stroke="none" 
	d="
M183.951096,32.106888 
	C183.383698,31.963289 182.816284,31.819691 181.932037,31.209431 
	C180.722137,30.538507 179.829086,30.334249 178.936020,30.129990 
	C178.009338,29.795656 177.088821,29.442957 176.155014,29.129877 
	C168.163727,26.450628 165.385147,18.659859 169.967697,11.701401 
	C170.212189,11.330136 170.670197,11.063129 171.079895,10.842447 
	C177.314957,7.484040 183.859314,8.201555 190.333969,9.703786 
	C193.685837,10.481475 194.739594,13.292776 193.685989,16.334002 
	C192.555939,19.595842 189.911209,18.370392 187.457306,17.901119 
	C184.812225,17.395285 182.068893,17.403172 179.368423,17.186939 
	C179.198059,17.906830 179.027710,18.626720 178.857361,19.346611 
	C181.321899,20.566366 183.786423,21.786121 186.617096,23.451820 
	C185.972519,26.634138 184.961807,29.370512 183.951096,32.106888 
z"/>
<path fill="#973263" opacity="1.000000" stroke="none" 
	d="
M149.108063,26.517628 
	C148.531387,27.836306 147.604996,28.665880 147.301910,29.681471 
	C146.289185,33.074997 150.059708,41.472649 153.649948,43.700279 
	C151.880722,43.687801 149.811356,43.499760 147.288696,42.973961 
	C146.263031,42.090630 145.690674,41.545067 145.118301,40.999504 
	C144.173996,38.622791 143.229691,36.246075 141.932114,32.980179 
	C140.608414,41.742722 137.086594,47.439663 127.157433,43.386024 
	C128.728729,43.039829 130.533112,42.999111 132.337280,42.951191 
	C136.277496,42.846535 138.074020,40.708702 137.614166,36.913948 
	C137.183289,33.358227 136.406235,29.844456 135.488007,26.152020 
	C135.514893,23.118677 135.835266,20.245541 136.148163,17.439417 
	C147.532608,16.026337 147.393829,16.092297 149.108063,26.517628 
z"/>
<path fill="#823362" opacity="1.000000" stroke="none" 
	d="
M184.086823,32.402557 
	C184.961807,29.370512 185.972519,26.634138 186.985809,23.513607 
	C196.757782,28.235897 198.154648,34.350758 194.197662,39.224922 
	C192.075119,41.839409 188.262299,43.231678 184.999100,44.702644 
	C183.514526,45.371841 181.513138,44.894531 179.483551,44.580215 
	C180.679550,41.992931 183.721558,40.140686 180.967926,36.904922 
	C182.052795,35.502689 183.137665,34.100460 184.086823,32.402557 
z"/>
<path fill="#873060" opacity="1.000000" stroke="none" 
	d="
M180.586609,36.937683 
	C183.721558,40.140686 180.679550,41.992931 179.113800,44.519875 
	C177.933014,44.572731 176.859344,44.328869 175.301727,44.073536 
	C174.490631,43.979752 174.181839,44.029003 173.891403,44.209827 
	C167.023071,41.404259 166.196457,38.178745 170.973480,33.811127 
	C174.139069,34.894459 177.172180,35.932449 180.586609,36.937683 
z"/>
<path fill="#B694AC" opacity="1.000000" stroke="none" 
	d="
M200.622391,9.277977 
	C201.051163,19.891277 201.059631,30.633011 201.058960,41.872284 
	C200.694199,41.516937 200.029968,40.664051 200.029968,39.811165 
	C200.029999,29.676247 200.129028,19.541328 200.622391,9.277977 
z"/>
<path fill="#EADDEC" opacity="1.000000" stroke="none" 
	d="
M230.190063,43.403709 
	C230.373322,41.354225 230.952698,39.698750 230.970581,38.037228 
	C231.060654,29.668650 231.004288,21.298496 231.004486,12.459530 
	C231.335693,12.964395 231.935822,13.936106 231.944809,14.913246 
	C232.023911,23.528051 232.053543,32.144627 231.929108,40.758240 
	C231.914368,41.777969 230.885818,42.783051 230.190063,43.403709 
z"/>
<path fill="#F8D9E7" opacity="1.000000" stroke="none" 
	d="
M47.542385,11.186991 
	C47.966480,21.033772 47.995342,31.068001 47.993187,41.572689 
	C47.641720,40.892681 47.047871,39.743095 47.044159,38.591606 
	C47.014900,29.519424 47.098377,20.446877 47.542385,11.186991 
z"/>
<path fill="#84839A" opacity="1.000000" stroke="none" 
	d="
M341.692017,9.550912 
	C332.940338,9.977799 323.995789,10.021851 314.592773,10.028709 
	C316.140045,9.662111 318.143311,9.069602 320.152008,9.050744 
	C327.266724,8.983944 334.383301,9.113152 341.692017,9.550912 
z"/>
<path fill="#52536F" opacity="1.000000" stroke="none" 
	d="
M332.365173,43.581078 
	C332.226227,35.346790 332.413483,26.858589 332.836121,18.225639 
	C332.944794,26.496313 332.818085,34.911736 332.365173,43.581078 
z"/>
<path fill="#973263" opacity="1.000000" stroke="none" 
	d="
M133.537369,30.893387 
	C133.562469,31.475178 133.262100,32.055706 132.961731,32.636230 
	C132.499084,31.624296 132.036423,30.612358 131.703735,29.321548 
	C132.293106,29.659155 132.752502,30.275637 133.537369,30.893387 
z"/>
<path fill="#823362" opacity="1.000000" stroke="none" 
	d="
M179.117615,30.411669 
	C179.829086,30.334249 180.722137,30.538507 181.744278,30.981846 
	C181.015305,31.045065 180.157242,30.869205 179.117615,30.411669 
z"/>
<path fill="#8F2E60" opacity="1.000000" stroke="none" 
	d="
M145.046997,41.297775 
	C145.690674,41.545067 146.263031,42.090630 146.957062,42.914551 
	C146.377716,42.660618 145.676712,42.128330 145.046997,41.297775 
z"/>
<path fill="#973263" opacity="1.000000" stroke="none" 
	d="
M125.046371,41.333431 
	C125.637825,41.528370 126.160637,42.076103 126.816147,42.877850 
	C126.291809,42.649982 125.634781,42.168106 125.046371,41.333431 
z"/>
<path fill="#973263" opacity="1.000000" stroke="none" 
	d="
M134.616058,26.936476 
	C134.759247,27.360382 134.593796,27.922695 134.276657,28.738289 
	C134.185791,28.352674 134.246613,27.713779 134.616058,26.936476 
z"/>
<path fill="#823362" opacity="1.000000" stroke="none" 
	d="
M173.994965,44.424107 
	C174.181839,44.029003 174.490631,43.979752 174.965088,44.129868 
	C174.774445,44.344574 174.436493,44.491478 173.994965,44.424107 
z"/>
<path fill="#000000" opacity="1.000000" stroke="none" 
	d="
M58.075859,23.540771 
	C58.029110,21.322054 58.029110,19.527210 58.029110,16.224665 
	C61.137299,17.537844 63.495567,18.534191 66.354637,19.742121 
	C63.628109,22.682467 62.639122,26.894932 58.075859,23.540771 
z"/>
<path fill="#000000" opacity="1.000000" stroke="none" 
	d="
M93.177155,18.114353 
	C98.898048,16.268280 101.902336,17.132290 103.983963,21.201172 
	C106.529297,26.176451 105.003777,32.084148 100.158463,35.633667 
	C95.493248,37.578880 91.528564,34.911987 91.046196,29.767721 
	C90.832794,27.491827 90.977646,25.182335 91.001602,22.202875 
	C91.043335,21.517654 91.075180,21.024622 91.075180,21.024622 
	C91.075180,21.024622 91.010979,21.040714 91.333633,20.906942 
	C92.143311,19.884018 92.630325,18.994865 93.117348,18.105715 
	C93.117348,18.105715 93.158638,18.130161 93.177155,18.114353 
z"/>
<path fill="#A22C60" opacity="1.000000" stroke="none" 
	d="
M92.823296,18.235722 
	C92.630325,18.994865 92.143311,19.884018 91.365646,20.915682 
	C91.559746,20.160704 92.044495,19.263216 92.823296,18.235722 
z"/>
<path fill="#A22C60" opacity="1.000000" stroke="none" 
	d="
M90.993896,21.129845 
	C91.075180,21.024622 91.043335,21.517654 90.966537,21.752018 
	C90.774414,21.730423 90.782036,21.479986 90.993896,21.129845 
z"/>
<path fill="#000000" opacity="1.000000" stroke="none" 
	d="
M255.345108,36.092140 
	C250.787506,36.737038 249.090118,34.451252 248.015152,30.695467 
	C246.408600,25.082361 247.333267,20.998859 251.852905,17.473888 
	C257.526337,15.899838 259.994385,19.277760 261.635864,23.566648 
	C263.537781,28.535900 261.778992,32.003235 255.345108,36.092140 
z"/>
<path fill="#000000" opacity="1.000000" stroke="none" 
	d="
M291.709351,17.006733 
	C297.699005,16.561348 299.722565,18.077259 300.901367,23.468723 
	C302.452789,30.564056 300.372131,34.487041 293.356567,37.098278 
	C284.936279,32.151596 284.347473,24.659472 291.709351,17.006733 
z"/>
</svg>