<svg width="837" height="514" viewBox="0 0 837 514" fill="none" xmlns="http://www.w3.org/2000/svg">
<rect width="837" height="514" fill="#F5F5F5"/>
<g clip-path="url(#clip0_0_1)">
<rect width="836.947" height="514" transform="translate(0.0528564)" fill="white"/>
<path d="M330.224 354.594C330.179 342.783 330.1 330.972 330.095 319.162C330.082 288.832 330.102 258.502 330.432 227.863C398.974 227.553 467.193 227.557 535.411 227.524C537.128 227.523 538.845 227.105 540.602 227.192C540.653 230.511 540.577 233.526 540.738 236.523C540.777 237.246 541.598 237.913 542.06 238.606C542.45 237.933 543.143 237.28 543.177 236.584C543.324 233.584 543.279 230.572 543.576 227.561C545.633 227.557 547.418 227.555 549.244 227.864C549.278 241.118 549.271 254.062 549.033 267.004C546.83 266.551 544.859 266.1 542.699 265.482C532.133 264.001 522.566 266.393 514.062 273.596C500.157 285.373 494.788 301.417 497.867 320.596C500.057 334.232 506.777 344.986 517.596 351.879C518.723 352.597 519.704 353.621 520.486 354.536C456.887 354.577 393.555 354.585 330.224 354.594Z" fill="#FFDA67"/>
<path d="M410.124 132.612C421.182 132.597 431.975 132.668 442.767 132.712C447.684 132.732 452.601 132.7 458.048 132.696C462.259 132.75 465.939 132.799 469.632 133.14C469.647 143.368 469.649 153.304 469.381 163.26C461.376 163.286 453.641 163.291 445.907 163.3C445.134 163.301 444.307 163.143 443.606 163.41C443.115 163.597 442.498 164.372 442.484 164.904C442.469 165.445 443.034 166.296 443.508 166.495C444.197 166.783 445.032 166.62 445.804 166.627C453.921 166.701 462.037 166.771 470.255 167.08C471.164 167.536 471.971 167.942 472.78 167.945C484.515 167.986 496.251 167.991 507.986 167.941C509.006 167.937 510.025 167.484 511.245 167.418C511.448 176.636 511.452 185.676 511.338 194.731C511.222 194.746 510.998 194.829 510.72 194.797C485.235 194.773 460.029 194.775 434.823 194.817C433.823 194.819 432.823 195.213 431.63 195.454C429.124 197.911 426.812 200.338 424.212 202.759C410.11 202.75 396.296 202.747 382.482 202.748C381.709 202.748 380.902 202.638 380.179 202.864C379.761 202.994 379.205 203.698 379.21 204.137C379.214 204.576 379.782 205.258 380.204 205.386C380.931 205.605 381.737 205.49 382.509 205.492C395.646 205.518 408.784 205.541 421.83 205.75C418.082 211.388 412.986 212.842 407.349 212.836C392.724 212.82 378.1 212.821 363.455 212.504C363.383 200.412 363.329 188.633 363.276 176.853C363.326 163.269 363.361 149.685 363.451 136.101C363.458 134.981 363.837 133.863 364.259 132.638C375.939 132.591 387.404 132.658 398.87 132.708C402.533 132.724 406.196 132.695 410.124 132.612ZM422.304 189.4C409.133 189.4 395.963 189.399 382.792 189.401C382.017 189.401 381.177 189.21 380.488 189.496C379.917 189.733 379.525 190.543 379.054 191.099C379.542 191.634 379.959 192.376 380.54 192.646C381.126 192.919 381.875 192.729 382.553 192.729C417.611 192.731 452.669 192.731 487.727 192.729C488.501 192.729 489.368 192.947 490.024 192.619C490.677 192.293 491.118 191.405 491.652 190.764C491.101 190.312 490.599 189.657 489.986 189.463C489.266 189.233 488.45 189.4 487.675 189.4C466.078 189.4 444.482 189.4 422.304 189.4ZM382.314 176.644C382.023 176.644 381.698 176.546 381.449 176.664C380.661 177.035 379.903 177.486 379.133 177.907C379.934 178.402 380.714 178.95 381.544 179.365C381.871 179.527 382.309 179.392 382.697 179.392C417.85 179.392 453.003 179.404 488.156 179.339C489.313 179.336 490.468 178.542 491.624 178.116C490.428 177.625 489.232 176.708 488.035 176.706C452.978 176.629 417.922 176.644 382.314 176.644ZM411.261 163.298C401.291 163.299 391.32 163.263 381.35 163.373C380.582 163.381 379.823 164.418 379.06 164.977C379.832 165.527 380.601 166.552 381.375 166.557C396.669 166.651 411.964 166.651 427.258 166.555C428.028 166.551 428.792 165.506 429.559 164.945C428.784 164.397 428.019 163.396 427.232 163.374C422.105 163.23 416.973 163.299 411.261 163.298Z" fill="#E6DEDE"/>
<path d="M510.998 194.829C510.998 194.829 511.222 194.746 511.61 194.797C521.912 194.811 531.825 194.773 541.936 194.799C542.395 194.939 542.656 195.016 542.99 195.194C543.191 195.406 543.335 195.449 543.705 195.433C547.634 197.186 549.238 199.798 549.297 204.189C549.324 206.177 549.361 208.165 549.353 210.463C549.276 216.367 549.24 221.96 549.203 227.553C547.418 227.555 545.633 227.557 543.554 227.247C543.253 221.373 543.259 215.81 543.235 210.247C543.212 204.946 541.531 202.993 536.937 202.984C527.081 202.963 517.225 202.918 507.371 203.048C506.069 203.066 504.776 204.048 503.479 204.584C504.738 205.039 505.994 205.873 507.257 205.888C517.015 205.997 526.774 205.938 536.533 205.953C540.187 205.958 540.687 206.569 540.668 210.831C540.665 211.497 540.609 212.162 540.358 212.908C538.914 215.947 539.123 220.462 540.602 222.488C540.613 224.146 540.588 225.514 540.562 226.882C538.845 227.105 537.128 227.523 535.411 227.524C467.193 227.557 398.974 227.553 330.486 227.554C330.18 223.947 330.144 220.338 330.434 216.437C357.087 216.15 383.415 216.081 409.742 216.233C414.223 216.259 418.032 214.552 421.125 211.328C425.921 206.327 430.286 200.779 435.103 195.458C459.368 195.452 483.364 195.462 507.36 195.427C508.573 195.425 509.785 195.037 510.998 194.829ZM497.474 203.012C495.15 203.017 492.823 202.945 490.507 203.091C490.02 203.121 489.571 203.954 489.105 204.418C489.533 204.912 489.943 205.808 490.392 205.835C492.708 205.971 495.053 206.084 497.351 205.804C498.814 205.626 499.397 204.515 497.474 203.012Z" fill="#FFD963"/>
<path d="M235.315 235.802C242.158 254.884 231.369 274.661 213.851 275.54C201.577 276.156 190.537 264.965 189.059 250.409C187.646 236.496 196.363 222.769 208.269 220.158C219.701 217.652 229.492 223.249 235.315 235.802ZM213.64 259.009C215.627 259.009 217.613 259.009 219.6 259.009C219.882 254.626 220.285 250.698 216.673 248.456C214.106 246.863 211.429 246.882 208.973 248.793C205.763 251.289 206.264 255.008 206.588 259.009C208.853 259.009 210.96 259.009 213.64 259.009ZM210.184 242.975C211.581 243.218 213.195 244.075 214.322 243.549C215.745 242.887 217.515 241.255 217.758 239.747C217.995 238.276 216.831 235.986 215.686 234.858C213.868 233.068 210.618 233.844 209.131 235.951C207.389 238.421 207.893 240.675 210.184 242.975ZM222.959 253.136C223.064 254.983 223.17 256.83 223.281 258.775C224.889 258.775 226.272 258.775 227.607 258.775C228.758 252.792 227.361 248.34 222.197 249.384C222.411 250.454 222.624 251.52 222.959 253.136ZM201.379 259C201.927 258.439 202.861 257.954 202.957 257.304C203.351 254.643 203.49 251.932 203.723 249.24C199.157 248.216 197.198 252.813 198.643 258.851C199.343 258.901 200.095 258.954 201.379 259ZM202.69 245.603C204.597 245.607 206.413 244.951 206.245 242.468C206.162 241.248 204.735 239.328 203.784 239.216C202.611 239.077 200.729 240.136 200.178 241.313C199.294 243.203 200.373 244.862 202.69 245.603ZM219.834 243.009C220.678 245.36 222.332 246.276 224.204 245.243C225.137 244.728 226.254 242.686 226.011 241.802C225.682 240.612 224.199 239.273 223.07 239.078C221.22 238.758 219.727 239.892 219.834 243.009Z" fill="#FCFDFD"/>
<path d="M273.721 186.184C261.684 180.985 254.921 168.126 256.793 154.341C258.72 140.154 268.461 130.096 281.003 129.344C293.787 128.578 305.778 140.448 306.987 155.067C308.315 171.118 299.185 185.397 285.921 187.241C282.019 187.783 277.94 186.635 273.721 186.184ZM267.076 145.107C266.634 145.944 265.85 146.76 265.812 147.621C265.664 150.951 265.353 154.392 265.934 157.591C266.203 159.075 268.246 160.436 269.737 161.221C270.823 161.794 272.321 161.333 273.911 161.333C273.911 163.677 273.911 165.501 273.911 167.843C274.736 167.098 275.209 166.76 275.586 166.314C278.179 163.247 280.744 160.505 285.042 161.18C287.083 161.501 288.265 159.416 288.335 156.986C288.409 154.428 288.399 151.864 288.363 149.305C288.308 145.443 286.983 143.917 283.546 143.869C279.292 143.809 275.036 143.792 270.784 143.894C269.67 143.92 268.565 144.457 267.076 145.107ZM286.391 165.648C283.508 166.011 280.299 165.574 278.693 170.456C284.224 168.294 286.837 173.332 290.383 176.615C290.561 174.247 290.159 171.923 290.979 170.907C291.76 169.939 293.827 170.407 295.31 170.116C297.499 169.687 298.725 168.188 298.745 165.559C298.764 163.003 298.817 160.445 298.738 157.892C298.608 153.707 296.341 151.993 292.441 153.302C292.951 158.708 292.101 163.493 286.391 165.648Z" fill="#FCFDFD"/>
<path d="M330.21 212.931C330.169 203.72 330.048 194.507 330.128 185.297C330.161 181.496 332.106 178.944 335.499 177.429C336.702 177.248 337.492 177.068 338.283 176.888C338.564 176.865 338.845 176.841 339.468 176.973C340.465 176.992 341.119 176.855 341.772 176.717C348.005 176.752 354.238 176.787 360.851 177.09C361.345 178.663 361.554 179.968 361.559 181.273C361.6 191.782 361.602 202.291 361.342 212.836C350.782 212.892 340.496 212.911 330.21 212.931Z" fill="#FFB900"/>
<path d="M292.11 313.645C284.412 308.528 281.039 300.542 282.487 291.173C283.791 282.742 289.568 276.357 297.363 274.734C305.858 272.965 314.953 279.564 317.243 289.341C317.973 292.455 317.884 295.974 321.926 296.659C321.699 296.981 321.473 297.302 321.246 297.624C320.3 297.237 319.354 296.85 318.118 296.343C317.142 304.59 313.654 310.862 306.895 314.202C302.019 316.611 297.111 316.3 292.11 313.645ZM288.831 289.526C288.833 293.867 288.823 298.209 288.842 302.551C288.853 305.031 289.767 306.61 292.11 306.613C296.944 306.618 301.778 306.635 306.611 306.591C308.853 306.57 309.941 305.193 309.929 302.59C309.905 297.246 309.91 291.903 309.924 286.559C309.931 283.668 308.764 282.274 306.2 282.318C302.334 282.385 298.466 282.333 294.599 282.335C289.116 282.337 288.837 282.654 288.831 289.526Z" fill="#FCFDFD"/>
<path d="M292.531 214.458C292.697 217.192 292.965 219.925 293.007 222.662C293.084 227.671 292.978 232.683 293.05 237.692C293.085 240.185 292.268 241.447 290.014 241.43C284.397 241.389 278.779 241.388 273.161 241.429C270.917 241.446 270.151 240.253 270.172 237.716C270.255 228.053 270.249 218.388 270.176 208.725C270.157 206.209 270.919 204.946 273.172 204.989C276.848 205.059 280.525 205.073 284.303 205.505C284.042 215.378 283.819 215.205 292.011 214.73C292.188 214.719 292.358 214.552 292.531 214.458ZM276 222.353C276 226.429 276 230.506 276 234.619C279.866 234.619 283.472 234.619 287.114 234.619C287.114 230.177 287.114 225.996 287.114 221.832C283.367 221.832 279.818 221.832 276 222.353Z" fill="#F2B60B"/>
<path d="M330.196 354.842C393.555 354.585 456.887 354.577 520.75 354.6C522.872 354.631 524.463 354.632 526.304 354.654C529.54 355.168 532.526 355.662 535.336 356.269C532.407 356.508 529.652 356.634 526.645 356.772C511.116 356.743 495.839 356.679 480.562 356.667C470.897 356.66 461.232 356.729 451.306 356.722C441.204 356.708 431.363 356.736 421.248 356.701C399.922 356.678 378.868 356.719 357.522 356.694C348.337 356.581 339.446 356.534 330.555 356.486C330.426 356.021 330.297 355.555 330.196 354.842Z" fill="#D97B16"/>
<path d="M330.165 213.193C340.496 212.911 350.782 212.892 361.572 212.888C362.542 212.874 363.008 212.845 363.475 212.815C378.1 212.821 392.724 212.82 407.349 212.836C412.986 212.842 418.082 211.388 421.996 205.622C423.002 204.461 423.751 203.613 424.5 202.765C426.812 200.338 429.124 197.911 431.881 195.443C433.162 195.423 433.998 195.443 434.834 195.464C430.286 200.779 425.921 206.327 421.125 211.328C418.032 214.552 414.223 216.259 409.742 216.233C383.415 216.081 357.087 216.15 330.489 216.125C330.186 215.222 330.153 214.338 330.165 213.193Z" fill="#FFE69B"/>
<path d="M451.566 356.764C461.232 356.729 470.897 356.66 480.562 356.667C495.839 356.679 511.116 356.743 526.679 356.923C526.93 357.275 526.957 357.479 527.047 357.671C527.047 357.671 526.818 357.771 526.464 357.785C523.377 357.868 520.644 357.937 517.911 358.006C516.146 357.952 514.381 357.898 512.36 357.925C501.101 357.979 490.098 357.94 479.095 357.929C470.115 357.92 461.135 357.945 451.866 357.705C451.574 357.225 451.57 356.994 451.566 356.764Z" fill="#DCDCDC"/>
<path d="M357.815 356.76C378.868 356.719 399.922 356.678 421.232 356.873C421.481 357.339 421.473 357.568 421.465 357.798C410.339 357.834 399.213 357.902 388.086 357.895C378.116 357.889 368.147 357.8 357.966 357.572C357.728 357.179 357.748 356.966 357.815 356.76Z" fill="#DCDCDC"/>
<path d="M363.455 212.504C363.008 212.845 362.542 212.874 361.846 212.852C361.602 202.291 361.6 191.782 361.559 181.273C361.554 179.968 361.345 178.663 361.123 177.124C361.618 176.88 362.219 176.871 363.049 176.857C363.329 188.633 363.383 200.412 363.455 212.504Z" fill="#D97B16"/>
<path d="M357.522 356.694C357.748 356.966 357.728 357.179 357.705 357.549C355.252 357.797 352.849 357.977 350.447 357.974C339.631 357.963 328.816 357.901 317.718 357.653C317.407 357.206 317.377 356.964 317.347 356.722C321.544 356.68 325.742 356.638 330.247 356.541C339.446 356.534 348.337 356.581 357.522 356.694Z" fill="#8E8F97"/>
<path d="M421.732 357.847C421.473 357.569 421.481 357.339 421.505 356.936C431.363 356.736 441.204 356.708 451.306 356.722C451.57 356.994 451.574 357.225 451.599 357.627C441.747 357.831 431.873 357.863 421.732 357.847Z" fill="#FCFDFD"/>
<path d="M292.406 214.257C292.358 214.552 292.188 214.719 292.011 214.73C283.819 215.205 284.042 215.378 284.487 205.641C287.14 208.273 289.71 211.164 292.406 214.257Z" fill="#FDDC76"/>
<path d="M341.73 176.525C341.119 176.855 340.465 176.993 339.679 176.99C340.26 176.677 340.974 176.505 341.73 176.525Z" fill="#D97B16"/>
<path d="M338.081 176.819C337.492 177.068 336.702 177.248 335.705 177.399C336.293 177.163 337.086 176.957 338.081 176.819Z" fill="#D97B16"/>
<path d="M527.292 357.791C526.957 357.479 526.93 357.275 526.932 356.91C529.652 356.634 532.407 356.508 535.651 356.25C540.307 356.072 544.474 356.027 548.809 356.196C549.26 356.475 549.543 356.597 549.825 356.599C574.468 356.737 599.111 356.873 623.754 356.959C624.54 356.961 625.328 356.441 626.323 356.223C628.066 356.239 629.6 356.198 631.258 356.358C631.915 356.675 632.448 356.79 632.981 356.905C634.188 356.971 635.394 357.036 636.601 357.101C636.603 357.361 636.606 357.621 636.608 357.881C623.184 357.881 609.76 357.881 596.067 357.938C580.478 358 565.157 358.005 549.567 358.057C545.987 358.079 542.678 358.053 538.86 358.04C537.547 358.08 536.743 358.109 535.939 358.137C535.498 358.105 535.057 358.074 534.153 358.047C532.695 358.081 531.701 358.109 530.708 358.136C529.651 358.062 528.594 357.987 527.292 357.791Z" fill="#8E8F97"/>
<path d="M586.427 318.152C592.896 320.702 599.366 323.252 606.261 325.888C611.387 327.725 616.087 329.476 620.788 331.227C621.065 331.443 621.342 331.658 621.962 331.92C622.768 332.13 623.231 332.293 623.694 332.456C624.503 332.768 625.313 333.079 626.486 333.577C627.913 334.104 628.977 334.446 630.042 334.787C633.292 336.177 636.207 338.086 637.534 342.042C639.17 346.92 637.64 351.615 632.982 355.505C632.126 355.83 631.63 355.994 631.134 356.158C629.6 356.198 628.065 356.239 626.092 356.178C610.477 350.234 595.319 344.328 580.104 338.621C577.781 337.75 576.868 336.629 577.746 333.699C579.15 328.84 580.498 324.231 581.901 319.366C582.952 315.738 584.864 318.022 586.427 318.152Z" fill="#866FF8"/>
<path d="M581.846 319.622C580.498 324.231 579.15 328.84 577.552 333.661C576.338 333.334 575.374 332.794 574.434 332.267C568.84 343.556 560.952 351.457 549.866 354.762C549.398 354.902 549.046 355.564 548.64 355.982C544.474 356.027 540.307 356.072 535.826 356.137C532.526 355.662 529.541 355.168 526.242 354.437C525.124 353.649 524.356 353.001 523.506 352.564C518.804 350.148 514.736 346.802 511.108 342.542C495.177 323.838 497.028 291.685 515.002 275.666C523.243 268.321 532.574 265.226 542.888 265.649C544.859 266.1 546.83 266.551 549.2 267.138C550.467 267.604 551.335 267.935 552.203 268.266C566.122 274.179 574.658 285.557 578.219 302.596C578.332 308.443 578.332 313.794 578.332 319.01C579.767 319.259 580.807 319.441 581.846 319.622ZM549.779 347.958C563.202 343.793 573.157 328.304 573.224 311.481C573.294 293.95 563.535 278.68 548.917 273.796C544.222 273.388 539.416 272.037 534.851 272.745C520.521 274.966 509.382 287.264 506.487 303.003C503.537 319.039 509.432 335.278 521.886 344.137C530.409 350.2 539.638 351.954 549.779 347.958Z" fill="#EBE7FB"/>
<path d="M542.699 265.482C532.574 265.226 523.243 268.321 515.002 275.666C497.028 291.685 495.177 323.838 511.108 342.542C514.736 346.802 518.804 350.148 523.506 352.564C524.356 353.001 525.124 353.649 525.991 354.416C524.463 354.632 522.872 354.631 521.017 354.567C519.704 353.621 518.723 352.597 517.596 351.879C506.777 344.986 500.057 334.232 497.867 320.596C494.788 301.417 500.157 285.373 514.062 273.596C522.566 266.393 532.133 264.001 542.699 265.482Z" fill="#E7BE54"/>
<path d="M540.602 227.192C540.588 225.514 540.613 224.146 540.645 222.18C540.627 218.664 540.603 215.746 540.578 212.828C540.609 212.162 540.665 211.497 540.668 210.831C540.687 206.569 540.187 205.958 536.533 205.953C526.774 205.938 517.015 205.997 507.257 205.888C505.994 205.873 504.738 205.039 503.479 204.584C504.776 204.048 506.069 203.066 507.371 203.048C517.225 202.918 527.081 202.963 536.937 202.984C541.531 202.993 543.212 204.946 543.235 210.247C543.259 215.81 543.253 221.373 543.281 227.25C543.279 230.572 543.324 233.584 543.177 236.584C543.143 237.28 542.45 237.933 542.06 238.606C541.598 237.913 540.777 237.246 540.738 236.523C540.577 233.526 540.653 230.511 540.602 227.192Z" fill="#FCFDFD"/>
<path d="M493.769 152.224C497.104 155.055 500.203 157.869 503.441 160.454C504.107 160.986 505.292 160.748 506.232 160.706C506.892 160.677 507.544 160.38 508.444 160.866C507.742 161.445 507.04 162.024 506.15 162.758C507.821 164.21 509.336 165.527 510.948 167.042C510.025 167.484 509.006 167.937 507.986 167.941C496.251 167.991 484.515 167.986 472.78 167.945C471.971 167.942 471.164 167.536 470.243 166.893C469.97 165.393 469.81 164.316 469.651 163.24C469.649 153.304 469.647 143.368 469.632 133.14C470.538 133.297 471.57 133.567 472.358 134.225C479.457 140.153 486.513 146.149 493.769 152.224Z" fill="#DCDCDC"/>
<path d="M422.595 189.4C444.482 189.4 466.078 189.4 487.675 189.4C488.45 189.4 489.266 189.233 489.986 189.463C490.599 189.657 491.101 190.312 491.652 190.764C491.118 191.405 490.677 192.293 490.024 192.619C489.368 192.947 488.501 192.729 487.727 192.729C452.669 192.731 417.611 192.731 382.553 192.729C381.875 192.729 381.125 192.919 380.54 192.646C379.959 192.376 379.542 191.634 379.054 191.099C379.525 190.543 379.917 189.733 380.488 189.496C381.177 189.21 382.017 189.401 382.792 189.401C395.963 189.399 409.133 189.4 422.595 189.4Z" fill="#C9D4FE"/>
<path d="M382.59 176.644C417.922 176.644 452.978 176.629 488.035 176.706C489.232 176.708 490.428 177.625 491.624 178.116C490.468 178.542 489.313 179.336 488.156 179.339C453.003 179.404 417.85 179.392 382.696 179.392C382.309 179.392 381.871 179.527 381.544 179.365C380.714 178.95 379.934 178.402 379.133 177.907C379.903 177.486 380.661 177.035 381.449 176.664C381.698 176.546 382.023 176.644 382.59 176.644Z" fill="#C9D4FE"/>
<path d="M411.552 163.298C416.973 163.299 422.105 163.23 427.232 163.374C428.019 163.396 428.784 164.397 429.559 164.945C428.792 165.506 428.028 166.551 427.258 166.555C411.964 166.651 396.669 166.651 381.375 166.557C380.601 166.552 379.832 165.527 379.06 164.977C379.823 164.418 380.582 163.381 381.35 163.373C391.32 163.263 401.291 163.299 411.552 163.298Z" fill="#C9D4FE"/>
<path d="M424.212 202.759C423.751 203.613 423.002 204.461 422.087 205.437C408.784 205.541 395.646 205.518 382.509 205.492C381.736 205.49 380.931 205.605 380.204 205.386C379.782 205.258 379.214 204.576 379.21 204.137C379.205 203.698 379.761 202.994 380.178 202.864C380.902 202.638 381.709 202.748 382.481 202.748C396.296 202.747 410.11 202.75 424.212 202.759Z" fill="#C9D4FE"/>
<path d="M469.38 163.26C469.81 164.316 469.97 165.393 470.141 166.656C462.037 166.771 453.921 166.701 445.804 166.627C445.032 166.62 444.197 166.783 443.508 166.495C443.034 166.296 442.469 165.445 442.484 164.904C442.498 164.372 443.115 163.597 443.606 163.41C444.307 163.143 445.133 163.301 445.907 163.3C453.641 163.291 461.376 163.286 469.38 163.26Z" fill="#C9D4FE"/>
<path d="M435.103 195.458C433.998 195.443 433.162 195.423 432.075 195.414C432.823 195.213 433.823 194.819 434.823 194.817C460.029 194.775 485.235 194.773 510.72 194.797C509.785 195.037 508.573 195.425 507.36 195.427C483.364 195.462 459.368 195.452 435.103 195.458Z" fill="#E7BE54"/>
<path d="M497.714 203.069C499.397 204.515 498.814 205.626 497.351 205.804C495.053 206.084 492.708 205.971 490.392 205.835C489.943 205.808 489.533 204.912 489.105 204.418C489.571 203.954 490.02 203.121 490.507 203.091C492.823 202.945 495.15 203.017 497.714 203.069Z" fill="#FCFDFD"/>
<path d="M540.358 212.908C540.603 215.746 540.627 218.664 540.609 221.89C539.123 220.462 538.914 215.947 540.358 212.908Z" fill="#FFDA67"/>
<path d="M542.99 195.194C543.089 194.982 543.236 195.014 543.428 195.307C543.335 195.449 543.191 195.406 542.99 195.194Z" fill="#E7BE54"/>
<path d="M213.354 259.009C210.96 259.009 208.853 259.009 206.588 259.009C206.264 255.008 205.763 251.289 208.973 248.793C211.429 246.882 214.106 246.863 216.673 248.456C220.284 250.698 219.882 254.626 219.6 259.009C217.613 259.009 215.627 259.009 213.354 259.009Z" fill="#8490F9"/>
<path d="M210 242.835C207.893 240.675 207.389 238.421 209.131 235.951C210.618 233.844 213.868 233.068 215.686 234.858C216.831 235.986 217.995 238.276 217.758 239.747C217.515 241.255 215.745 242.887 214.322 243.549C213.195 244.075 211.581 243.218 210 242.835Z" fill="#8490F9"/>
<path d="M222.898 252.861C222.624 251.52 222.411 250.454 222.197 249.384C227.361 248.34 228.758 252.792 227.607 258.775C226.272 258.775 224.889 258.775 223.281 258.775C223.17 256.83 223.064 254.983 222.898 252.861Z" fill="#8490F9"/>
<path d="M207.371 267.066C206.322 267.015 205.547 266.96 204.824 266.909C203.334 260.683 205.354 255.942 210.062 256.998C209.822 259.774 209.679 262.57 209.273 265.314C209.174 265.984 208.211 266.484 207.371 267.066Z" fill="#8490F9"/>
<path d="M202.459 245.572C200.373 244.862 199.294 243.203 200.178 241.313C200.729 240.136 202.611 239.077 203.784 239.216C204.735 239.328 206.162 241.248 206.245 242.468C206.413 244.951 204.597 245.607 202.459 245.572Z" fill="#8490F9"/>
<path d="M219.794 242.751C219.727 239.892 221.22 238.758 223.07 239.078C224.198 239.273 225.682 240.612 226.01 241.802C226.254 242.686 225.136 244.728 224.204 245.243C222.332 246.276 220.678 245.36 219.794 242.751Z" fill="#8490F9"/>
<path d="M267.076 147.729C268.375 147.253 269.48 146.716 270.594 146.69C274.846 146.587 279.102 146.605 283.356 146.665C286.793 146.713 288.118 148.239 288.173 152.101C288.209 154.66 288.219 157.224 288.145 159.782C288.075 162.211 286.893 164.297 284.852 163.976C280.554 163.301 277.989 166.043 275.396 169.11C275.019 169.556 274.546 169.894 273.721 170.639C273.721 168.297 273.721 166.473 273.721 164.129C272.131 164.129 270.633 164.59 269.546 164.017C268.056 163.232 266.013 161.871 265.744 160.387C265.163 157.187 265.474 153.747 265.622 150.417C265.66 149.556 266.444 148.739 267.076 147.729Z" fill="#6FE7B8"/>
<path d="M286.614 165.567C292.101 163.493 292.951 158.708 292.441 153.302C296.341 151.993 298.608 153.707 298.738 157.892C298.817 160.445 298.764 163.003 298.745 165.559C298.725 168.188 297.499 169.687 295.31 170.116C293.827 170.407 291.76 169.939 290.979 170.907C290.159 171.923 290.561 174.247 290.383 176.615C286.837 173.332 284.224 168.294 278.693 170.456C280.299 165.574 283.508 166.011 286.614 165.567Z" fill="#6FE7B8"/>
<path d="M288.831 289.204C288.837 282.654 289.116 282.336 294.599 282.335C298.466 282.333 302.333 282.385 306.2 282.318C308.764 282.274 309.931 283.668 309.924 286.559C309.91 291.903 309.905 297.246 309.929 302.59C309.941 305.193 308.852 306.57 306.611 306.591C301.778 306.635 296.944 306.618 292.11 306.613C289.767 306.61 288.853 305.031 288.842 302.551C288.823 298.209 288.833 293.867 288.831 289.204ZM302.607 288.627C302.53 292.064 302.354 295.506 302.452 298.937C302.475 299.727 303.436 300.482 303.966 301.254C304.418 300.444 305.215 299.658 305.259 298.82C305.417 295.826 305.341 292.813 305.31 289.809C305.291 287.832 304.521 287.153 302.607 288.627ZM301.015 297.881C301.009 296.34 301.197 294.75 300.921 293.276C300.767 292.454 299.84 291.825 299.261 291.109C298.763 291.799 297.932 292.433 297.834 293.191C297.612 294.916 297.555 296.742 297.814 298.45C297.973 299.498 298.84 300.403 299.389 301.372C299.93 300.399 300.472 299.425 301.015 297.881ZM296.367 299.387C295.87 298.388 295.372 297.389 294.875 296.39C294.409 296.819 293.567 297.23 293.551 297.68C293.512 298.791 293.852 299.92 294.04 301.041C294.793 300.673 295.547 300.304 296.367 299.387Z" fill="#3E84F6"/>
<path d="M276.134 222.092C279.818 221.832 283.367 221.832 287.114 221.832C287.114 225.996 287.114 230.177 287.114 234.619C283.472 234.619 279.866 234.619 276 234.619C276 230.506 276 226.429 276.134 222.092ZM283.848 225.357C281.751 225.357 279.654 225.357 277.51 225.357C277.51 227.436 277.51 229.132 277.51 230.737C280.384 230.737 283.037 230.737 285.975 230.737C285.313 228.761 287.315 226.241 283.848 225.357Z" fill="#FCFDFD"/>
<path d="M632.143 256.998C632.591 257.096 632.769 257.244 633.018 257.867C633.083 260.895 632.912 263.469 633.146 265.992C633.246 267.073 634.187 268.051 634.777 269.302C636.812 271.718 638.816 273.909 640.655 275.917C641.703 275.585 642.514 275.327 643.326 275.07C643.251 283.381 643.177 291.693 642.775 300.346C641.399 301.049 640.355 301.708 639.304 301.722C632.302 301.817 625.298 301.8 618.296 301.743C617.396 301.735 616.498 301.284 615.599 301.039C615.46 293.904 615.321 286.77 615.131 279.358C615.167 273.214 615.248 267.349 615.342 261.485C615.405 257.554 615.803 257.097 619.164 257.081C623.4 257.062 627.637 257.058 632.143 256.998ZM623.224 279.202C622.891 279.74 622.557 280.278 622.224 280.816C622.781 281.117 623.334 281.664 623.895 281.677C627.361 281.759 630.831 281.797 634.293 281.659C635.024 281.63 635.732 280.809 636.45 280.352C635.675 279.957 634.908 279.25 634.123 279.222C630.659 279.099 627.191 279.172 623.224 279.202ZM630.36 283.374C628.138 283.382 625.913 283.316 623.697 283.454C623.216 283.484 622.769 284.243 622.307 284.666C622.733 284.991 623.154 285.59 623.584 285.598C627.447 285.669 631.313 285.667 635.176 285.587C635.589 285.579 635.993 284.939 636.401 284.592C636.024 284.2 635.67 283.512 635.266 283.469C633.828 283.319 632.373 283.389 630.36 283.374ZM624.869 287.39C624.026 287.82 623.184 288.25 622.341 288.68C623.144 289.035 623.939 289.666 624.751 289.695C628.035 289.811 631.326 289.797 634.611 289.691C635.212 289.672 635.797 289.005 636.389 288.636C635.815 288.225 635.25 287.482 634.664 287.459C631.574 287.336 628.478 287.395 624.869 287.39ZM631.815 293.73C633.192 293.287 633.421 292.01 632.07 291.845C628.881 291.457 625.633 291.721 622.409 291.721C622.364 292.274 622.319 292.827 622.274 293.38C625.194 294.162 628.291 293.582 631.815 293.73Z" fill="#508DF4"/>
<path d="M615.594 301.294C616.498 301.284 617.396 301.735 618.296 301.743C625.298 301.8 632.302 301.817 639.304 301.722C640.355 301.708 641.399 301.049 642.658 300.594C643.787 303.569 642.823 305.675 640.191 305.809C633.763 306.138 627.33 306.402 620.897 306.471C618.151 306.501 616.125 304.954 615.594 301.294Z" fill="#232333"/>
<path d="M634.747 269.075C634.187 268.051 633.246 267.073 633.146 265.992C632.912 263.469 633.083 260.895 633.098 258.034C635.262 260.133 637.418 262.539 639.756 265.03C640.865 266.266 641.791 267.417 642.597 268.777C639.901 269.015 637.324 269.045 634.747 269.075Z" fill="#C9D4FE"/>
<path d="M634.777 269.302C637.324 269.045 639.901 269.015 642.668 268.975C643.034 270.806 643.209 272.646 643.355 274.778C642.514 275.327 641.703 275.585 640.654 275.917C638.816 273.909 636.812 271.718 634.777 269.302Z" fill="#3E84F6"/>
<path d="M577.408 138.091C579.93 138.035 582.327 137.666 584.591 138.14C592.472 139.789 597.639 145.064 599.74 154.624C600.814 160.162 599.601 164.741 597.696 169.194C597.692 169.201 597.682 169.215 597.682 169.215C594.273 174.835 589.823 178.65 583.739 179.178C574.703 179.963 567.384 173.837 564.702 163.369C564.718 159.656 564.83 156.152 564.943 152.377C566.736 147.613 568.919 143.488 572.919 140.779C574.419 139.778 575.821 138.971 577.408 138.091ZM571.142 157.729C571.512 161.393 571.882 165.057 572.21 168.303C574.627 168.586 577.582 168.895 580.529 169.285C586.992 170.14 592.764 165.163 592.885 158.59C592.992 152.777 588.958 147.995 583.353 147.292C577.369 146.54 572.291 150.654 571.142 157.729Z" fill="#FCFDFD"/>
<path d="M686.3 196.986C685.1 197.558 683.991 198.071 682.879 198.083C675.927 198.158 668.975 198.139 662.023 198.112C658.855 198.1 658.095 197.249 658.087 193.597C658.06 181.438 658.092 169.279 658.06 157.12C658.053 154.664 658.796 153.035 661.262 152.611C666.197 152.627 670.921 152.703 675.823 153.267C675.995 156.061 676.07 158.372 675.961 160.672C675.854 162.925 676.538 164.504 678.407 165.582C681.168 168.313 683.899 170.825 686.631 173.336C686.666 174.923 686.702 176.511 686.752 178.394C686.641 184.693 686.516 190.694 686.3 196.986ZM666.741 189.972C670.31 189.976 673.881 189.923 677.449 190.01C679.073 190.05 679.685 189.332 679.649 187.468C679.576 183.582 679.575 179.691 679.647 175.805C679.683 173.88 678.96 173.307 677.383 173.351C674.105 173.442 670.821 173.474 667.545 173.34C665.731 173.266 665.167 174.133 665.198 176.072C665.257 179.847 665.155 183.627 665.261 187.4C665.284 188.245 665.889 189.068 666.741 189.972Z" fill="#F2B60B"/>
<path d="M678.377 165.362C676.539 164.504 675.854 162.925 675.961 160.672C676.07 158.372 675.995 156.061 676.018 153.433C679.499 157.016 682.963 160.922 686.199 165.063C683.441 165.321 680.909 165.341 678.377 165.362Z" fill="#FDDC76"/>
<path d="M678.407 165.582C680.909 165.341 683.441 165.321 686.246 165.284C686.618 167.797 686.718 170.325 686.724 173.095C683.9 170.825 681.168 168.313 678.407 165.582Z" fill="#D97B16"/>
<path d="M549.351 348.04C539.638 351.954 530.409 350.2 521.886 344.137C509.432 335.278 503.537 319.04 506.487 303.003C509.382 287.264 520.521 274.966 534.851 272.745C539.416 272.037 544.222 273.388 549.101 274.225C549.286 276.11 549.288 277.565 549.066 279.025C540.796 275.876 533.216 277.173 526.181 282.478C525.237 283.189 524.905 284.976 524.289 286.264C525.563 286.22 526.84 286.224 528.107 286.099C528.444 286.066 528.74 285.612 529.075 285.392C535.617 281.083 542.376 280.482 549.332 284.143C549.318 305.647 549.334 326.843 549.351 348.04Z" fill="#FDDC76"/>
<path d="M302.76 288.385C304.521 287.153 305.291 287.832 305.31 289.809C305.341 292.813 305.417 295.826 305.259 298.82C305.215 299.658 304.418 300.444 303.966 301.254C303.436 300.482 302.475 299.727 302.452 298.937C302.354 295.506 302.53 292.064 302.76 288.385Z" fill="#FCFDFD"/>
<path d="M301.014 298.166C300.472 299.425 299.93 300.399 299.389 301.372C298.84 300.403 297.973 299.498 297.814 298.45C297.555 296.742 297.612 294.916 297.834 293.191C297.932 292.433 298.763 291.799 299.261 291.109C299.84 291.825 300.767 292.454 300.921 293.276C301.197 294.75 301.009 296.34 301.014 298.166Z" fill="#EBE7FB"/>
<path d="M296.334 299.661C295.547 300.304 294.793 300.673 294.04 301.041C293.852 299.92 293.512 298.791 293.551 297.68C293.567 297.23 294.409 296.819 294.875 296.39C295.372 297.389 295.87 298.388 296.334 299.661Z" fill="#FCFDFD"/>
<path d="M284.121 225.361C287.315 226.241 285.313 228.761 285.975 230.737C283.037 230.737 280.384 230.737 277.51 230.737C277.51 229.132 277.51 227.436 277.51 225.357C279.654 225.357 281.751 225.357 284.121 225.361Z" fill="#F2B60B"/>
<path d="M623.474 279.188C627.191 279.172 630.659 279.099 634.123 279.222C634.908 279.25 635.675 279.957 636.45 280.352C635.732 280.808 635.024 281.63 634.293 281.659C630.831 281.797 627.361 281.759 623.895 281.677C623.334 281.664 622.781 281.117 622.224 280.816C622.557 280.278 622.891 279.74 623.474 279.188Z" fill="#C9D4FE"/>
<path d="M630.642 283.375C632.373 283.389 633.828 283.319 635.266 283.469C635.67 283.512 636.024 284.2 636.401 284.592C635.993 284.939 635.589 285.579 635.176 285.587C631.313 285.667 627.447 285.669 623.584 285.598C623.154 285.59 622.732 284.991 622.307 284.666C622.769 284.243 623.216 283.484 623.697 283.454C625.913 283.316 628.138 283.382 630.642 283.375Z" fill="#EBE7FB"/>
<path d="M625.126 287.39C628.478 287.395 631.574 287.336 634.664 287.459C635.25 287.482 635.815 288.225 636.389 288.636C635.797 289.005 635.212 289.672 634.611 289.691C631.326 289.797 628.035 289.811 624.751 289.695C623.94 289.666 623.144 289.035 622.341 288.68C623.184 288.25 624.027 287.82 625.126 287.39Z" fill="#EBE7FB"/>
<path d="M631.552 293.742C628.291 293.582 625.194 294.162 622.274 293.38C622.319 292.827 622.364 292.274 622.409 291.721C625.633 291.721 628.881 291.457 632.07 291.845C633.421 292.01 633.192 293.287 631.552 293.742Z" fill="#EBE7FB"/>
<path d="M571.92 157.497C572.979 150.708 577.732 146.595 583.333 147.346C588.578 148.049 592.354 152.832 592.254 158.645C592.141 165.217 586.739 170.194 580.689 169.339C577.931 168.949 575.165 168.64 572.903 168.358C572.596 165.112 572.25 161.448 571.92 157.497ZM585.994 157.339C586.368 158.194 586.741 159.048 587.115 159.903C587.527 159.367 587.939 158.83 588.351 158.294C587.653 157.845 586.956 157.397 585.994 157.339ZM580.802 158.341C581.503 158.809 582.204 159.276 582.905 159.743C583.006 158.926 583.106 158.108 583.207 157.29C582.413 157.465 581.618 157.641 580.802 158.341ZM575.802 158.341C576.487 158.807 577.172 159.273 577.857 159.739C577.953 158.931 578.048 158.122 578.144 157.314C577.371 157.478 576.598 157.641 575.802 158.341Z" fill="#FFD963"/>
<path d="M666.483 189.936C665.889 189.068 665.284 188.245 665.261 187.4C665.155 183.627 665.257 179.847 665.198 176.072C665.167 174.133 665.731 173.266 667.545 173.34C670.821 173.474 674.105 173.442 677.384 173.351C678.96 173.307 679.683 173.88 679.647 175.805C679.575 179.691 679.576 183.582 679.65 187.468C679.685 189.332 679.073 190.05 677.449 190.01C673.881 189.923 670.31 189.976 666.483 189.936ZM676.163 178.03C673.198 178.03 670.232 178.03 667.333 178.03C667.333 180.662 667.333 182.835 667.333 185.084C670.877 185.084 674.208 185.084 678.265 185.084C677.695 182.492 677.206 180.267 676.163 178.03Z" fill="#FCFDFD"/>
<path d="M549.066 279.025C555.168 281.792 559.994 286.027 563.206 292.445C563.903 293.837 565.03 295.591 563.305 296.819C561.508 298.097 560.862 296.119 560.112 294.683C557.612 289.894 554.233 286.214 549.547 283.911C542.376 280.482 535.617 281.084 529.075 285.392C528.74 285.612 528.444 286.066 528.107 286.099C526.84 286.224 525.563 286.22 524.289 286.264C524.905 284.976 525.237 283.189 526.181 282.478C533.216 277.173 540.796 275.876 549.066 279.025Z" fill="#FCFDFD"/>
<path d="M676.44 178.036C677.205 180.267 677.695 182.492 678.265 185.084C674.208 185.084 670.877 185.084 667.333 185.084C667.333 182.835 667.333 180.662 667.333 178.03C670.232 178.03 673.198 178.03 676.44 178.036Z" fill="#F2B60B"/>
<path d="M586.427 318.152C592.896 320.702 599.366 323.252 606.261 325.888C611.387 327.725 616.087 329.476 620.788 331.227C621.065 331.443 621.342 331.658 621.962 331.92C622.768 332.13 623.231 332.293 623.694 332.456C624.503 332.768 625.313 333.079 626.486 333.577C627.913 334.104 628.977 334.446 630.042 334.787C633.292 336.177 636.207 338.086 637.534 342.042C639.17 346.92 637.64 351.615 632.982 355.505C632.126 355.83 631.63 355.994 631.134 356.158C629.6 356.198 628.065 356.239 626.092 356.178C610.477 350.234 595.319 344.328 580.104 338.621C577.781 337.75 576.868 336.629 577.746 333.699C579.15 328.84 580.498 324.231 581.901 319.366C582.952 315.738 584.864 318.022 586.427 318.152Z" fill="#866FF8"/>
<path d="M632.143 256.998C632.591 257.096 632.769 257.244 633.018 257.867C633.083 260.895 632.912 263.469 633.146 265.992C633.246 267.073 634.187 268.051 634.777 269.302C636.812 271.718 638.816 273.909 640.655 275.917C641.703 275.585 642.514 275.327 643.326 275.07C643.251 283.381 643.177 291.693 642.775 300.346C641.399 301.049 640.355 301.708 639.304 301.722C632.302 301.817 625.298 301.8 618.296 301.743C617.396 301.735 616.498 301.284 615.599 301.039C615.46 293.904 615.321 286.77 615.131 279.358C615.167 273.214 615.248 267.349 615.342 261.485C615.405 257.554 615.803 257.097 619.164 257.081C623.4 257.062 627.637 257.058 632.143 256.998ZM623.224 279.202C622.891 279.74 622.557 280.278 622.224 280.816C622.781 281.117 623.334 281.664 623.895 281.677C627.361 281.759 630.831 281.797 634.293 281.659C635.024 281.63 635.732 280.809 636.45 280.352C635.675 279.957 634.908 279.25 634.123 279.222C630.659 279.099 627.191 279.172 623.224 279.202ZM630.36 283.374C628.138 283.382 625.913 283.316 623.697 283.454C623.216 283.484 622.769 284.243 622.307 284.666C622.733 284.991 623.154 285.59 623.584 285.598C627.447 285.669 631.313 285.667 635.176 285.587C635.589 285.579 635.993 284.939 636.401 284.592C636.024 284.2 635.67 283.512 635.266 283.469C633.828 283.319 632.373 283.389 630.36 283.374ZM624.869 287.39C624.026 287.82 623.184 288.25 622.341 288.68C623.144 289.035 623.939 289.666 624.751 289.695C628.035 289.811 631.326 289.797 634.611 289.691C635.212 289.672 635.797 289.005 636.389 288.636C635.815 288.225 635.25 287.482 634.664 287.459C631.574 287.336 628.478 287.395 624.869 287.39ZM631.815 293.73C633.192 293.287 633.421 292.01 632.07 291.845C628.881 291.457 625.633 291.721 622.409 291.721C622.364 292.274 622.319 292.827 622.274 293.38C625.194 294.162 628.291 293.582 631.815 293.73Z" fill="#508DF4"/>
<path d="M632.143 256.998C632.591 257.096 632.769 257.244 633.018 257.867C633.083 260.895 632.912 263.469 633.146 265.992C633.246 267.073 634.187 268.051 634.777 269.302C636.812 271.718 638.816 273.909 640.655 275.917C641.703 275.585 642.514 275.327 643.326 275.07C643.251 283.381 643.177 291.693 642.775 300.346C641.399 301.049 640.355 301.708 639.304 301.722C632.302 301.817 625.298 301.8 618.296 301.743C617.396 301.735 616.498 301.284 615.599 301.039C615.46 293.904 615.321 286.77 615.131 279.358C615.167 273.214 615.248 267.349 615.342 261.485C615.405 257.554 615.803 257.097 619.164 257.081C623.4 257.062 627.637 257.058 632.143 256.998ZM623.224 279.202C622.891 279.74 622.557 280.278 622.224 280.816C622.781 281.117 623.334 281.664 623.895 281.677C627.361 281.759 630.831 281.797 634.293 281.659C635.024 281.63 635.732 280.809 636.45 280.352C635.675 279.957 634.908 279.25 634.123 279.222C630.659 279.099 627.191 279.172 623.224 279.202ZM630.36 283.374C628.138 283.382 625.913 283.316 623.697 283.454C623.216 283.484 622.769 284.243 622.307 284.666C622.733 284.991 623.154 285.59 623.584 285.598C627.447 285.669 631.313 285.667 635.176 285.587C635.589 285.579 635.993 284.939 636.401 284.592C636.024 284.2 635.67 283.512 635.266 283.469C633.828 283.319 632.373 283.389 630.36 283.374ZM624.869 287.39C624.026 287.82 623.184 288.25 622.341 288.68C623.144 289.035 623.939 289.666 624.751 289.695C628.035 289.811 631.326 289.797 634.611 289.691C635.212 289.672 635.797 289.005 636.389 288.636C635.815 288.225 635.25 287.482 634.664 287.459C631.574 287.336 628.478 287.395 624.869 287.39ZM631.815 293.73C633.192 293.287 633.421 292.01 632.07 291.845C628.881 291.457 625.633 291.721 622.409 291.721C622.364 292.274 622.319 292.827 622.274 293.38C625.194 294.162 628.291 293.582 631.815 293.73Z" fill="#DF484A"/>
<path d="M615.594 301.294C616.498 301.284 617.396 301.735 618.296 301.743C625.298 301.8 632.302 301.817 639.304 301.722C640.355 301.708 641.399 301.049 642.658 300.594C643.787 303.569 642.823 305.675 640.191 305.809C633.763 306.138 627.6 306.62 620.897 306.471C615.599 306.471 616.125 304.954 615.594 301.294Z" fill="#232333" stroke="black" stroke-width="0.969811"/>
<path d="M634.747 269.075C634.187 268.051 633.246 267.073 633.146 265.992C632.912 263.469 633.083 260.895 633.098 258.034C635.262 260.133 637.418 262.539 639.756 265.03C640.865 266.266 641.791 267.417 642.597 268.777C639.901 269.015 637.324 269.045 634.747 269.075Z" fill="#C9D4FE"/>
<path d="M634.777 269.302C637.324 269.045 639.901 269.015 642.668 268.975C643.034 270.806 643.209 272.646 643.355 274.778C642.514 275.327 641.703 275.585 640.654 275.917C638.816 273.909 636.812 271.718 634.777 269.302Z" fill="#CBD4FA"/>
<path d="M623.474 279.188C627.191 279.172 630.659 279.099 634.123 279.222C634.908 279.25 635.675 279.957 636.45 280.352C635.732 280.808 635.024 281.63 634.293 281.659C630.831 281.797 627.361 281.759 623.895 281.677C623.334 281.664 622.781 281.117 622.224 280.816C622.557 280.278 622.891 279.74 623.474 279.188Z" fill="#C9D4FE"/>
<path d="M630.642 283.375C632.373 283.389 633.828 283.319 635.266 283.469C635.67 283.512 636.024 284.2 636.401 284.592C635.993 284.939 635.589 285.579 635.176 285.587C631.313 285.667 627.447 285.669 623.584 285.598C623.154 285.59 622.732 284.991 622.307 284.666C622.769 284.243 623.216 283.484 623.697 283.454C625.913 283.316 628.138 283.382 630.642 283.375Z" fill="#EBE7FB"/>
<path d="M625.126 287.39C628.478 287.395 631.574 287.336 634.664 287.459C635.25 287.482 635.815 288.225 636.389 288.636C635.797 289.005 635.212 289.672 634.611 289.691C631.326 289.797 628.035 289.811 624.751 289.695C623.94 289.666 623.144 289.035 622.341 288.68C623.184 288.25 624.027 287.82 625.126 287.39Z" fill="#EBE7FB"/>
<path d="M631.552 293.742C628.291 293.582 625.194 294.162 622.274 293.38C622.319 292.827 622.364 292.274 622.409 291.721C625.633 291.721 628.881 291.457 632.07 291.845C633.421 292.01 633.192 293.287 631.552 293.742Z" fill="#EBE7FB"/>
<path d="M622.674 320.094V313.774H624.809C625.305 313.774 625.71 313.863 626.025 314.042C626.342 314.219 626.576 314.459 626.729 314.761C626.881 315.064 626.957 315.401 626.957 315.773C626.957 316.146 626.881 316.484 626.729 316.789C626.579 317.093 626.346 317.336 626.031 317.517C625.717 317.696 625.313 317.785 624.822 317.785H623.291V317.106H624.797C625.136 317.106 625.409 317.048 625.615 316.931C625.82 316.813 625.97 316.655 626.062 316.455C626.157 316.254 626.204 316.026 626.204 315.773C626.204 315.52 626.157 315.294 626.062 315.094C625.97 314.895 625.819 314.738 625.612 314.625C625.404 314.51 625.128 314.453 624.785 314.453H623.439V320.094H622.674ZM624.624 331.094H622.674V324.774H624.71C625.324 324.774 625.848 324.9 626.284 325.153C626.72 325.404 627.055 325.765 627.287 326.236C627.52 326.705 627.636 327.267 627.636 327.921C627.636 328.58 627.519 329.146 627.284 329.622C627.05 330.095 626.708 330.459 626.26 330.714C625.811 330.967 625.266 331.094 624.624 331.094ZM623.439 330.415H624.575C625.097 330.415 625.53 330.314 625.874 330.112C626.217 329.911 626.474 329.624 626.642 329.251C626.811 328.879 626.895 328.436 626.895 327.921C626.895 327.411 626.812 326.972 626.645 326.604C626.479 326.233 626.23 325.949 625.899 325.752C625.567 325.552 625.155 325.453 624.661 325.453H623.439V330.415ZM628.92 331.094V324.774H632.709V325.453H629.685V327.588H632.425V328.267H629.685V331.094H628.92Z" fill="white"/>
<path d="M134.394 71.1292L132.188 68.9923C131.699 68.5187 131.035 68.2525 130.343 68.2525H117.504C116.542 68.2525 115.764 69.0066 115.764 69.9377V95.2164C115.764 96.1475 116.542 96.9016 117.504 96.9016H150.564C151.525 96.9016 152.304 96.1475 152.304 95.2164V73.3082C152.304 72.3771 151.525 71.6229 150.564 71.6229H135.624C135.163 71.6229 134.72 71.4452 134.394 71.1292Z" fill="url(#paint0_linear_0_1)"/>
<path d="M134.034 81.7344L137.387 78.4869C137.468 78.4086 137.578 78.3639 137.694 78.3639H152.139C153.162 78.3639 153.964 79.215 153.872 80.2017L152.449 95.3689C152.367 96.2368 151.615 96.9016 150.715 96.9016H117.321C116.435 96.9016 115.69 96.2562 115.592 95.4026L114.078 82.2021C114.049 81.9527 114.251 81.7344 114.51 81.7344H134.034Z" fill="url(#paint1_linear_0_1)"/>
<path d="M140.044 392.672L137.776 390.722L130.046 400H119.588V403.02H130.046L137.776 412.298L140.044 410.348L132.682 401.51L140.044 392.672Z" fill="#64717C"/>
<path d="M118.845 406.039C121.308 406.039 123.304 404.011 123.304 401.51C123.304 399.009 121.308 396.981 118.845 396.981C116.383 396.981 114.386 399.009 114.386 401.51C114.386 404.011 116.383 406.039 118.845 406.039Z" fill="url(#paint2_linear_0_1)"/>
<path d="M138.91 396.226C141.372 396.226 143.368 394.198 143.368 391.697C143.368 389.195 141.372 387.168 138.91 387.168C136.447 387.168 134.451 389.195 134.451 391.697C134.451 394.198 136.447 396.226 138.91 396.226Z" fill="url(#paint3_linear_0_1)"/>
<path d="M138.91 415.852C141.372 415.852 143.368 413.824 143.368 411.323C143.368 408.822 141.372 406.794 138.91 406.794C136.447 406.794 134.451 408.822 134.451 411.323C134.451 413.824 136.447 415.852 138.91 415.852Z" fill="url(#paint4_linear_0_1)"/>
<g clip-path="url(#clip1_0_1)">
<path d="M149.694 66.9885C148.591 66.9885 147.566 66.5453 146.809 65.7389L146.736 65.6614L146.633 65.626C143 64.373 140.559 61.0261 140.559 57.2984V44.9801C140.559 42.7766 142.41 40.9843 144.685 40.9843H154.704C156.979 40.9843 158.829 42.7766 158.829 44.9801V57.2984C158.829 61.0261 156.388 64.373 152.755 65.626L152.652 65.6614L152.579 65.7389C151.822 66.5453 150.797 66.9885 149.694 66.9885Z" fill="white"/>
<path d="M154.704 41.4057C156.739 41.4057 158.394 43.0092 158.394 44.9801V57.2984C158.394 60.8483 156.07 64.0351 152.609 65.2291L152.403 65.2999L152.257 65.4558C151.584 66.1729 150.673 66.5672 149.694 66.5672C148.715 66.5672 147.804 66.172 147.131 65.455L146.985 65.2991L146.78 65.2283C143.319 64.0351 140.994 60.8483 140.994 57.2984V44.9801C140.994 43.0092 142.65 41.4057 144.685 41.4057H154.704ZM154.704 40.563H144.685C142.166 40.563 140.124 42.5407 140.124 44.9801V57.2984C140.124 61.3261 142.782 64.7446 146.487 66.0229C147.283 66.8689 148.419 67.4098 149.694 67.4098C150.97 67.4098 152.105 66.8689 152.901 66.022C156.606 64.7446 159.264 61.3261 159.264 57.2984V44.9801C159.264 42.5407 157.222 40.563 154.704 40.563Z" fill="#4788C7"/>
<path d="M154.697 54.8312C154.542 54.8312 154.388 54.8607 154.245 54.9182C154.102 54.9757 153.971 55.0599 153.862 55.1661C153.752 55.2722 153.665 55.3983 153.606 55.537C153.547 55.6758 153.516 55.8244 153.516 55.9746C153.516 56.1248 153.547 56.2734 153.606 56.4122C153.665 56.5509 153.752 56.677 153.862 56.7831C153.971 56.8893 154.102 56.9735 154.245 57.031C154.388 57.0885 154.542 57.118 154.697 57.118C154.852 57.118 155.005 57.0885 155.148 57.031C155.292 56.9735 155.422 56.8893 155.531 56.7831C155.641 56.677 155.728 56.5509 155.787 56.4122C155.847 56.2734 155.877 56.1248 155.877 55.9746C155.877 55.8244 155.847 55.6758 155.787 55.537C155.728 55.3983 155.641 55.2722 155.531 55.1661C155.422 55.0599 155.292 54.9757 155.148 54.9182C155.005 54.8607 154.852 54.8312 154.697 54.8312ZM145.251 54.8312C145.096 54.8312 144.942 54.8607 144.799 54.9182C144.656 54.9757 144.526 55.0599 144.416 55.1661C144.307 55.2722 144.22 55.3983 144.16 55.537C144.101 55.6758 144.07 55.8244 144.07 55.9746C144.07 56.1248 144.101 56.2734 144.16 56.4122C144.22 56.5509 144.307 56.677 144.416 56.7831C144.526 56.8893 144.656 56.9735 144.799 57.031C144.942 57.0885 145.096 57.118 145.251 57.118C145.406 57.118 145.56 57.0885 145.703 57.031C145.846 56.9735 145.976 56.8893 146.086 56.7831C146.195 56.677 146.282 56.5509 146.342 56.4122C146.401 56.2734 146.432 56.1248 146.432 55.9746C146.432 55.8244 146.401 55.6758 146.342 55.537C146.282 55.3983 146.195 55.2722 146.086 55.1661C145.976 55.0599 145.846 54.9757 145.703 54.9182C145.56 54.8607 145.406 54.8312 145.251 54.8312Z" fill="#4788C7"/>
<path d="M160.134 66.1459C157.71 66.1459 155.473 65.3041 154.398 64.8264C155.789 63.8826 158.829 61.3362 158.829 57.1189V51.3014C158.829 48.1214 155.286 46.0679 155.134 45.9819L154.746 45.7603L154.531 46.1437C154.509 46.1842 152.187 50.2052 146.372 50.9829C143.572 51.3579 140.559 53.2841 140.559 56.6276L141.429 56.6976L140.559 56.6782V57.118C140.559 61.3918 143.893 64.036 145.45 65.0379C144.285 65.4541 142.056 66.1459 140.124 66.1459C136.762 66.1459 135.108 64.641 134.586 64.0452C135.288 63.174 137.42 60.3537 137.42 58.2623C137.42 57.1324 137.15 55.8305 136.865 54.4528C136.543 52.8931 136.209 51.282 136.209 49.7148C136.209 41.0121 142.607 35.8115 148.793 35.8115C153.439 35.8115 155.39 38.9427 155.408 38.9738L155.535 39.182H155.784C159.791 39.182 164.049 42.2828 164.049 48.0295C164.049 49.8993 163.626 51.8626 163.217 53.7619C162.862 55.4092 162.527 56.9647 162.527 58.2623C162.527 60.8643 165.232 63.1832 166.365 64.0402C165.387 64.7016 162.932 66.1459 160.134 66.1459Z" fill="#B6DCFE"/>
<path d="M148.793 36.2328C153.15 36.2328 154.961 39.0699 155.033 39.187L155.286 39.6033H155.784C159.58 39.6033 163.614 42.5567 163.614 48.0295C163.614 49.8555 163.196 51.7977 162.791 53.6751C162.432 55.3443 162.092 56.9209 162.092 58.2615C162.092 60.7228 164.306 62.9128 165.634 64.0048C164.503 64.6966 162.434 65.7246 160.134 65.7246C158.218 65.7246 156.417 65.1769 155.257 64.7252C156.838 63.4942 159.264 60.9756 159.264 57.118V51.3006C159.264 47.8821 155.514 45.7089 155.355 45.6179L154.577 45.1755L154.149 45.9449C154.128 45.9836 151.934 49.8142 146.313 50.5658C143.332 50.9644 140.124 53.0313 140.124 56.6276V56.6782V57.118C140.124 61.0185 142.765 63.6147 144.516 64.9081C143.318 65.2898 141.622 65.7246 140.124 65.7246C137.347 65.7246 135.813 64.6469 135.156 64.02C136.045 62.8791 137.856 60.3065 137.856 58.2615C137.856 57.0902 137.582 55.7682 137.292 54.3694C136.974 52.8308 136.644 51.2407 136.644 49.7148C136.644 41.2759 142.821 36.2328 148.793 36.2328ZM148.793 35.3902C142.325 35.3902 135.774 40.8428 135.774 49.7148C135.774 52.7364 136.986 55.935 136.986 58.2615C136.986 60.588 134.034 64.0393 134.034 64.0393C134.034 64.0393 135.709 66.5672 140.124 66.5672C142.998 66.5672 146.428 65.1187 146.428 65.1187C146.428 65.1187 140.994 62.3836 140.994 57.118C140.994 56.7439 140.994 56.6782 140.994 56.6782V56.6976C140.994 56.6976 140.994 56.6832 140.994 56.6276C140.994 53.5285 143.815 51.7505 146.432 51.4C152.555 50.581 154.914 46.3443 154.914 46.3443C154.914 46.3443 158.394 48.3244 158.394 51.3006C158.394 52.5873 158.394 55.0056 158.394 57.118C158.394 62.2833 153.516 64.8719 153.516 64.8719C153.516 64.8719 156.606 66.5672 160.134 66.5672C163.955 66.5672 167.094 64.0393 167.094 64.0393C167.094 64.0393 162.962 61.2975 162.962 58.2615C162.962 55.5642 164.484 51.6048 164.484 48.0295C164.484 41.966 159.896 38.7607 155.784 38.7607C155.784 38.7607 153.741 35.3902 148.793 35.3902Z" fill="#4788C7"/>
</g>
<path d="M436.015 65.6229L436.086 66.0783L437.615 65.9265C437.615 66.1867 438.469 66.5554 439.216 66.6421C439.963 66.7289 441.456 66.9023 441.456 66.5771C441.456 66.2518 442.132 66.3602 442.132 66.3602L454.081 67.3361L454.473 58.2932L434.095 57.2079L426.448 64.3435L435.588 65.5145L436.015 65.6229Z" fill="#2F2210"/>
<path d="M424.706 63.3026C424.172 63.823 422.679 64.4085 425.559 64.7989C428.44 65.1892 435.588 66.4903 436.015 66.4903C436.442 66.4903 437.189 66.4903 437.722 66.4903C438.256 66.4903 440.603 67.0758 441.136 67.1409C441.67 67.2059 455.86 68.3119 456.713 68.3119C457.567 68.3119 458.313 68.1167 458.207 67.4662C458.1 66.8156 457.78 59.3992 457.673 58.9438C457.567 58.4884 457.14 58.2932 456.18 58.2281C455.219 58.1631 435.695 57.2523 434.521 57.1222C433.348 56.9921 432.281 56.9921 431.854 57.2523C431.427 57.5125 424.706 63.3026 424.706 63.3026Z" fill="#6B1804"/>
<path d="M427.053 64.3435L426.626 63.6929L434.521 56.5367L443.057 57.0367L437.722 64.929L438.042 65.5145L427.053 64.3435Z" fill="#FCF9F4"/>
<path d="M438.042 65.5145L427.053 64.3435L426.626 63.6929L437.722 64.929L443.057 57.0367V57.5776L438.042 65.5145Z" fill="#CFC8C8"/>
<path d="M439.749 65.1892L452.872 66.3602L452.552 67.0758L439.749 65.8398V65.1892Z" fill="#CFC8C8"/>
<path d="M444.55 57.3824L453.726 57.8378L452.872 66.3602L439.749 65.1892L444.55 57.3824Z" fill="#F7F8F8"/>
<path d="M432.494 59.204L431.214 60.5051H430.254L430.147 59.8546L430.894 59.2691L432.494 59.204Z" fill="#EAB368"/>
<path d="M433.134 57.8378L432.494 57.7077L431.819 58.2932H432.672L433.134 57.8378Z" fill="#DE4E59"/>
<path d="M431.641 59.204L430.894 59.269L431.819 58.2932H432.494L431.641 59.204Z" fill="#448F6E"/>
<path d="M437.669 63.4652C438.309 63.1399 440.336 63.0749 440.976 63.7254" stroke="black" stroke-width="3.87925" stroke-linecap="round"/>
<path d="M438.522 62.3592C439.162 62.034 441.19 61.9689 441.83 62.6195" stroke="black" stroke-width="3.87925" stroke-linecap="round"/>
<path d="M439.269 61.2978C439.909 60.9725 441.936 60.9074 442.577 61.558" stroke="black" stroke-width="3.87925" stroke-linecap="round"/>
<path d="M440.976 58.9763C441.568 58.651 443.443 58.5859 444.035 59.2365" stroke="black" stroke-width="3.87925" stroke-linecap="round"/>
<path d="M441.51 58.0655C442.102 57.7402 443.976 57.6752 444.568 58.3257" stroke="black" stroke-width="3.87925" stroke-linecap="round"/>
<path d="M441.83 57.48C442.422 57.1547 444.296 57.0897 444.888 57.7402" stroke="black" stroke-width="3.87925" stroke-linecap="round"/>
<path d="M453.335 64.3435L454.366 64.3868L454.473 63.6062H453.121L453.05 64.2133L453.335 64.3435Z" fill="#DE4E59"/>
<path d="M453.014 65.341H454.295L454.366 64.3869H453.086L453.014 65.341Z" fill="#448F6E"/>
<path d="M453.121 63.6062H454.473V62.7171L453.263 62.5869L453.121 63.6062Z" fill="#EAB368"/>
<path d="M453.228 63.064H453.832V62.8038L454.579 62.717L454.473 61.9147L453.832 61.8496V61.5255H453.37L453.228 63.064Z" fill="#A4709F"/>
<path d="M452.872 66.3602H454.046L454.081 65.341H453.014L452.872 66.3602Z" fill="#64749B"/>
<path d="M430.254 60.5051H429.827L428.404 61.6328H428.938L430.254 60.5051Z" fill="#64749B"/>
<path d="M433.703 57.3824H433.134L432.494 57.7077L433.134 57.8378L433.703 57.3824Z" fill="#A4709F"/>
<path d="M440.656 64.8748L452.285 65.8506Z" fill="#EAB368"/>
<path d="M440.656 64.8748L452.285 65.8506" stroke="#A89696" stroke-width="1.93962" stroke-linecap="round"/>
<path d="M440.763 64.5712L452.392 65.547Z" fill="#EAB368"/>
<path d="M440.763 64.5712L452.392 65.547" stroke="#A89696" stroke-width="1.93962" stroke-linecap="round"/>
<path d="M440.976 64.2459L452.392 65.2217Z" fill="#EAB368"/>
<path d="M440.976 64.2459L452.392 65.2217" stroke="#A89696" stroke-width="1.93962" stroke-linecap="round"/>
<path d="M441.154 63.8989L452.392 64.853Z" fill="#EAB368"/>
<path d="M441.154 63.8989L452.392 64.853" stroke="#A89696" stroke-width="1.93962" stroke-linecap="round"/>
<path d="M441.51 63.5519L452.285 64.4194Z" fill="#EAB368"/>
<path d="M441.51 63.5519L452.285 64.4194" stroke="#A89696" stroke-width="1.93962" stroke-linecap="round"/>
<path d="M428.262 63.031L436.797 63.9201Z" fill="#EAB368"/>
<path d="M428.262 63.031L436.797 63.9201" stroke="#A89696" stroke-width="1.93962" stroke-linecap="round"/>
<path d="M428.618 62.6195L437.153 63.5086Z" fill="#EAB368"/>
<path d="M428.618 62.6195L437.153 63.5086" stroke="#A89696" stroke-width="1.93962" stroke-linecap="round"/>
<path d="M428.885 62.3365L437.42 63.2257Z" fill="#EAB368"/>
<path d="M428.885 62.3365L437.42 63.2257" stroke="#A89696" stroke-width="1.93962" stroke-linecap="round"/>
<path d="M429.133 62.1197L437.669 63.0088Z" fill="#EAB368"/>
<path d="M429.133 62.1197L437.669 63.0088" stroke="#A89696" stroke-width="1.93962" stroke-linecap="round"/>
<path d="M429.347 61.8827L437.882 62.7718Z" fill="#EAB368"/>
<path d="M429.347 61.8827L437.882 62.7718" stroke="#A89696" stroke-width="1.93962" stroke-linecap="round"/>
<path d="M429.774 61.558L438.309 62.4471Z" fill="#EAB368"/>
<path d="M429.774 61.558L438.309 62.4471" stroke="#A89696" stroke-width="1.93962" stroke-linecap="round"/>
<path d="M430.094 61.2306L438.629 62.1197Z" fill="#EAB368"/>
<path d="M430.094 61.2306L438.629 62.1197" stroke="#A89696" stroke-width="1.93962" stroke-linecap="round"/>
<path d="M430.307 60.9936L438.842 61.8827Z" fill="#EAB368"/>
<path d="M430.307 60.9936L438.842 61.8827" stroke="#A89696" stroke-width="1.93962" stroke-linecap="round"/>
<path d="M430.734 60.7762L439.269 61.6653Z" fill="#EAB368"/>
<path d="M430.734 60.7762L439.269 61.6653" stroke="#A89696" stroke-width="1.93962" stroke-linecap="round"/>
<path d="M430.947 60.5376L438.842 61.34Z" fill="#EAB368"/>
<path d="M430.947 60.5376L438.842 61.34" stroke="#A89696" stroke-width="1.93962" stroke-linecap="round"/>
<path d="M431.267 60.0172L439.803 60.9063Z" fill="#EAB368"/>
<path d="M431.267 60.0172L439.803 60.9063" stroke="#A89696" stroke-width="1.93962" stroke-linecap="round"/>
<path d="M431.481 59.7786L440.016 60.6678Z" fill="#EAB368"/>
<path d="M431.481 59.7786L440.016 60.6678" stroke="#A89696" stroke-width="1.93962" stroke-linecap="round"/>
<path d="M431.872 59.5401L440.407 60.4292Z" fill="#EAB368"/>
<path d="M431.872 59.5401L440.407 60.4292" stroke="#A89696" stroke-width="1.93962" stroke-linecap="round"/>
<path d="M432.121 59.3016L440.656 60.1907Z" fill="#EAB368"/>
<path d="M432.121 59.3016L440.656 60.1907" stroke="#A89696" stroke-width="1.93962" stroke-linecap="round"/>
<path d="M434.361 57.2405L441.687 57.7402Z" fill="#EAB368"/>
<path d="M434.361 57.2405L441.687 57.7402" stroke="#A89696" stroke-width="1.93962" stroke-linecap="round"/>
<path d="M432.548 58.8678L440.763 59.6258Z" fill="#EAB368"/>
<path d="M432.548 58.8678L440.763 59.6258" stroke="#A89696" stroke-width="1.93962" stroke-linecap="round"/>
<path d="M434.148 57.6101L441.154 58.1089Z" fill="#EAB368"/>
<path d="M434.148 57.6101L441.154 58.1089" stroke="#A89696" stroke-width="1.93962" stroke-linecap="round"/>
<path d="M433.046 58.6076L440.905 59.3016Z" fill="#EAB368"/>
<path d="M433.046 58.6076L440.905 59.3016" stroke="#A89696" stroke-width="1.93962" stroke-linecap="round"/>
<path d="M433.472 58.3257L440.763 58.9763Z" fill="#EAB368"/>
<path d="M433.472 58.3257L440.763 58.9763" stroke="#A89696" stroke-width="1.93962" stroke-linecap="round"/>
<path d="M433.757 57.8703L441.51 58.5071Z" fill="#EAB368"/>
<path d="M433.757 57.8703L441.51 58.5071" stroke="#A89696" stroke-width="1.93962" stroke-linecap="round"/>
<path d="M441.83 63.2257L452.392 64.0941Z" fill="#EAB368"/>
<path d="M441.83 63.2257L452.392 64.0941" stroke="#A89696" stroke-width="1.93962" stroke-linecap="round"/>
<path d="M442.008 62.858L452.392 63.7254Z" fill="#EAB368"/>
<path d="M442.008 62.858L452.392 63.7254" stroke="#A89696" stroke-width="1.93962" stroke-linecap="round"/>
<path d="M442.363 62.3474L452.57 63.2257Z" fill="#EAB368"/>
<path d="M442.363 62.3474L452.57 63.2257" stroke="#A89696" stroke-width="1.93962" stroke-linecap="round"/>
<path d="M442.577 61.9798L452.57 62.7718Z" fill="#EAB368"/>
<path d="M442.577 61.9798L452.57 62.7718" stroke="#A89696" stroke-width="1.93962" stroke-linecap="round"/>
<path d="M445.137 57.6367L453.317 58.1089Z" fill="#EAB368"/>
<path d="M445.137 57.6367L453.317 58.1089" stroke="#A89696" stroke-width="1.93962" stroke-linecap="round"/>
<path d="M444.888 58.0349L453.317 58.5071Z" fill="#EAB368"/>
<path d="M444.888 58.0349L453.317 58.5071" stroke="#A89696" stroke-width="1.93962" stroke-linecap="round"/>
<path d="M444.568 58.5776L453.139 59.0413Z" fill="#EAB368"/>
<path d="M444.568 58.5776L453.139 59.0413" stroke="#A89696" stroke-width="1.93962" stroke-linecap="round"/>
<path d="M444.39 58.8678L453.139 59.3316Z" fill="#EAB368"/>
<path d="M444.39 58.8678L453.139 59.3316" stroke="#A89696" stroke-width="1.93962" stroke-linecap="round"/>
<path d="M444.035 59.5143L452.926 60.0172Z" fill="#EAB368"/>
<path d="M444.035 59.5143L452.926 60.0172" stroke="#A89696" stroke-width="1.93962" stroke-linecap="round"/>
<path d="M443.75 59.7786L452.89 60.3642Z" fill="#EAB368"/>
<path d="M443.75 59.7786L452.89 60.3642" stroke="#A89696" stroke-width="1.93962" stroke-linecap="round"/>
<path d="M443.537 60.0172L452.819 60.6461Z" fill="#EAB368"/>
<path d="M443.537 60.0172L452.819 60.6461" stroke="#A89696" stroke-width="1.93962" stroke-linecap="round"/>
<path d="M443.43 60.3208L452.819 60.9936Z" fill="#EAB368"/>
<path d="M443.43 60.3208L452.819 60.9936" stroke="#A89696" stroke-width="1.93962" stroke-linecap="round"/>
<path d="M443.181 60.6024L452.748 61.2969Z" fill="#EAB368"/>
<path d="M443.181 60.6024L452.748 61.2969" stroke="#A89696" stroke-width="1.93962" stroke-linecap="round"/>
<path d="M443.11 61.6653L452.57 62.3986Z" fill="#EAB368"/>
<path d="M443.11 61.6653L452.57 62.3986" stroke="#A89696" stroke-width="1.93962" stroke-linecap="round"/>
<path d="M443.11 61.2464L452.57 61.958Z" fill="#EAB368"/>
<path d="M443.11 61.2464L452.57 61.958" stroke="#A89696" stroke-width="1.93962" stroke-linecap="round"/>
<path d="M457.932 63.3893C458.847 63.3893 461.087 62.5024 460.981 61.8502C460.874 61.198 460.767 60.4401 460.554 60.1582C460.341 59.8762 458.634 58.8634 457.744 58.7042C456.855 58.545 456.926 59.202 457.318 59.5933C457.709 59.9847 457.897 60.1798 458.217 60.2883C458.537 60.3967 459.736 60.8644 459.558 61.2644C459.38 61.6644 457.816 61.8502 457.816 61.8502L457.932 63.3893Z" fill="#5F1806"/>
<g clip-path="url(#clip2_0_1)">
<path d="M747.088 399.836C745.554 399.836 744.035 400.126 742.618 400.69C741.201 401.253 739.913 402.079 738.829 403.121C737.744 404.162 736.884 405.398 736.297 406.759C735.71 408.119 735.408 409.578 735.408 411.05C735.408 414.025 736.639 416.877 738.829 418.98C741.019 421.083 743.99 422.264 747.088 422.264C750.186 422.264 753.156 421.083 755.347 418.98C757.537 416.877 758.768 414.025 758.768 411.05C758.768 409.578 758.466 408.119 757.879 406.759C757.292 405.398 756.431 404.162 755.347 403.121C754.262 402.079 752.975 401.253 751.558 400.69C750.141 400.126 748.622 399.836 747.088 399.836ZM747.088 400.548C748.524 400.548 749.947 400.82 751.274 401.348C752.601 401.875 753.807 402.649 754.822 403.624C755.838 404.599 756.644 405.757 757.194 407.031C757.743 408.306 758.026 409.671 758.026 411.05C758.026 413.836 756.874 416.507 754.822 418.476C752.771 420.446 749.989 421.552 747.088 421.552C744.187 421.552 741.405 420.446 739.353 418.476C737.302 416.507 736.15 413.836 736.15 411.05C736.15 409.671 736.432 408.306 736.982 407.031C737.532 405.757 738.338 404.599 739.353 403.624C740.369 402.649 741.575 401.875 742.902 401.348C744.229 400.82 745.651 400.548 747.088 400.548Z" fill="#4183D7"/>
<path d="M747.088 421.185C752.917 421.185 757.643 416.647 757.643 411.05C757.643 405.453 752.917 400.916 747.088 400.916C741.259 400.916 736.533 405.453 736.533 411.05C736.533 416.647 741.259 421.185 747.088 421.185Z" fill="#6BB9F0"/>
<path d="M739.968 397.458C738.216 398.253 737.324 400.15 737.847 401.973C740.635 401.154 742.896 399.994 745 398.735C743.836 397.202 741.721 396.665 739.968 397.458Z" fill="#6BB9F0"/>
<path d="M740.04 396.567C739.931 396.35 739.663 396.256 739.44 396.357C739.218 396.459 739.126 396.717 739.235 396.934L739.297 397.056C739.406 397.273 739.674 397.367 739.896 397.266C740.118 397.164 740.21 396.907 740.101 396.689L740.04 396.567Z" fill="#6BB9F0"/>
<path d="M739.954 420.414L739.015 422.496C738.78 423.019 738.843 423.594 739.307 423.857C739.77 424.12 740.338 423.905 740.688 423.444L742.087 421.603C741.334 421.28 740.619 420.882 739.954 420.414Z" fill="#6BB9F0"/>
<path d="M754.468 420.414L755.406 422.496C755.642 423.019 755.578 423.594 755.115 423.857C754.652 424.12 754.083 423.905 753.733 423.444L752.334 421.603C753.087 421.28 753.802 420.882 754.468 420.414Z" fill="#6BB9F0"/>
<path d="M754.589 397.458C756.341 398.253 757.232 400.15 756.709 401.973C753.921 401.154 751.661 399.994 749.556 398.735C750.72 397.202 752.835 396.665 754.589 397.458Z" fill="#6BB9F0"/>
<path d="M754.516 396.567C754.625 396.35 754.894 396.256 755.116 396.357C755.338 396.459 755.43 396.717 755.321 396.934L755.26 397.056C755.151 397.273 754.882 397.367 754.66 397.266C754.438 397.164 754.346 396.907 754.455 396.689L754.516 396.567Z" fill="#6BB9F0"/>
<path d="M747.039 401.941L746.221 403.091H746.675V410.67V411.404V411.412H747.43V411.404H753.192V411.812L754.394 411.027L753.191 410.243V410.679H747.43V410.67V403.09H747.856L747.039 401.941Z" fill="#22313F"/>
</g>
<g clip-path="url(#clip3_0_1)">
<path d="M688.229 163.696L693.605 166.839L692.179 160.916L696.929 156.93L690.673 156.416L688.229 150.83L685.784 156.416L679.529 156.93L684.279 160.916L682.852 166.839L688.229 163.696Z" fill="#FBBC04"/>
</g>
<g clip-path="url(#clip4_0_1)">
<path d="M111.414 212.341C113.698 212.341 115.961 212.712 118.073 213.431C120.183 214.151 122.102 215.207 123.717 216.536C125.333 217.867 126.615 219.446 127.49 221.183C128.356 222.889 128.809 224.764 128.814 226.666C128.814 228.547 128.364 230.409 127.49 232.148C126.615 233.885 125.333 235.464 123.717 236.795C122.102 238.124 120.183 239.179 118.073 239.9C115.933 240.624 113.681 240.993 111.414 240.99V212.341Z" fill="#985184"/>
<path d="M124.464 212.341C126.749 212.341 129.011 212.712 131.123 213.431C133.234 214.151 135.152 215.207 136.768 216.536C138.383 217.867 139.665 219.446 140.54 221.183C141.407 222.889 141.859 224.764 141.864 226.666C141.864 228.547 141.414 230.409 140.54 232.148C139.665 233.885 138.383 235.464 136.768 236.795C135.152 238.124 133.234 239.179 131.123 239.9C128.983 240.624 126.731 240.993 124.464 240.99V212.341Z" fill="#2EBCFA"/>
<path d="M124.464 217.191C125.731 218.374 126.755 219.723 127.49 221.184C128.356 222.89 128.809 224.765 128.814 226.666C128.814 228.547 128.364 230.409 127.49 232.148C126.755 233.609 125.731 234.958 124.464 236.141V217.191Z" fill="#144496"/>
<path d="M137.514 212.341C139.799 212.341 142.062 212.712 144.173 213.431C146.284 214.151 148.202 215.207 149.818 216.536C151.433 217.867 152.715 219.446 153.59 221.183C154.457 222.889 154.91 224.764 154.914 226.666C154.914 228.547 154.464 230.409 153.59 232.148C152.715 233.885 151.433 235.464 149.818 236.795C148.202 238.124 146.284 239.179 144.173 239.9C142.033 240.624 139.781 240.993 137.514 240.99V212.341Z" fill="#FC868B"/>
<path d="M137.514 217.191C138.782 218.374 139.805 219.723 140.54 221.184C141.406 222.89 141.859 224.765 141.864 226.666C141.864 228.547 141.414 230.409 140.54 232.148C139.805 233.609 138.782 234.958 137.514 236.141V217.191Z" fill="#2D6388"/>
</g>
<path d="M449.847 410.357C449.847 411.922 449.205 413.422 448.063 414.528C446.921 415.634 445.372 416.256 443.757 416.256C442.141 416.256 440.592 415.634 439.45 414.528C438.308 413.422 437.667 411.922 437.667 410.357C437.667 408.793 438.308 407.293 439.45 406.187C440.592 405.08 442.141 404.459 443.757 404.459C445.372 404.459 446.921 405.08 448.063 406.187C449.205 407.293 449.847 408.793 449.847 410.357Z" fill="#985184"/>
<path d="M443.757 428.052C433.666 428.052 425.486 420.13 425.486 410.357C425.486 400.585 433.666 392.662 443.757 392.662C453.847 392.662 462.027 400.585 462.027 410.357C462.027 415.244 459.982 419.668 456.676 422.87L451.139 417.507C452.109 416.569 452.879 415.455 453.404 414.228C453.929 413.001 454.198 411.685 454.197 410.357C454.197 404.773 449.522 400.246 443.757 400.246C437.991 400.246 433.317 404.773 433.317 410.357C433.317 415.941 437.991 420.469 443.757 420.469V428.052Z" fill="#1AD3BB"/>
<path fill-rule="evenodd" clip-rule="evenodd" d="M443.757 420.469C441.046 420.473 438.441 419.452 436.496 417.623C436.015 418.775 435.833 420.023 435.967 421.258C436.1 422.494 436.545 423.678 437.262 424.708C437.979 425.738 438.946 426.582 440.079 427.165C441.211 427.748 442.474 428.053 443.757 428.052H455.067C455.067 427.057 454.864 426.07 454.471 425.15C454.077 424.23 453.5 423.394 452.773 422.69C452.046 421.986 451.183 421.427 450.233 421.046C449.283 420.665 448.265 420.469 447.237 420.469H443.757Z" fill="#985184"/>
<path d="M741.299 49.7148C741.299 54.3686 737.404 58.141 732.599 58.141C727.794 58.141 723.899 54.3686 723.899 49.7148C723.899 45.061 727.794 41.2885 732.599 41.2885C737.404 41.2885 741.299 45.061 741.299 49.7148Z" fill="#2EBCFA"/>
<path d="M754.349 56.4557C754.349 57.009 754.237 57.5569 754.018 58.068C753.8 58.5792 753.479 59.0436 753.075 59.4349C752.671 59.8261 752.192 60.1364 751.664 60.3481C751.136 60.5599 750.571 60.6688 749.999 60.6688C749.428 60.6688 748.862 60.5599 748.335 60.3481C747.807 60.1364 747.327 59.8261 746.923 59.4349C746.519 59.0436 746.199 58.5792 745.98 58.068C745.762 57.5569 745.649 57.009 745.649 56.4557C745.649 55.3383 746.108 54.2667 746.923 53.4766C747.739 52.6865 748.846 52.2426 749.999 52.2426C751.153 52.2426 752.259 52.6865 753.075 53.4766C753.891 54.2667 754.349 55.3383 754.349 56.4557ZM730.859 62.3541H753.479C754.402 62.3541 755.287 62.7092 755.94 63.3413C756.593 63.9734 756.959 64.8307 756.959 65.7246V69.9377C756.959 70.8316 756.593 71.6889 755.94 72.321C755.287 72.9531 754.402 73.3082 753.479 73.3082H734.339C733.416 73.3082 732.531 72.9531 731.878 72.321C731.226 71.6889 730.859 70.8316 730.859 69.9377V62.3541Z" fill="#144496"/>
<path d="M720.419 62.3541H734.339C740.586 62.3541 745.649 67.2582 745.649 73.3082H731.729C725.482 73.3082 720.419 68.4041 720.419 62.3541Z" fill="#2EBCFA"/>
<path d="M732.266 54.7705H732.951V53.8116C734.825 53.7004 736.079 52.8055 736.079 51.3199V51.3082C736.079 49.9987 735.212 49.3432 733.502 48.9808L732.951 48.8696V47.1734C733.551 47.2669 733.945 47.5888 734.029 48.1331L734.036 48.1449L735.94 48.139L735.946 48.1331C735.879 46.7116 734.782 45.7645 732.951 45.6415V44.659H732.266V45.6365C730.482 45.7173 729.203 46.6063 729.203 48.0683V48.0801C729.203 49.3962 730.101 50.104 731.72 50.4487L732.266 50.5599V52.2906C731.556 52.2266 731.144 51.9401 731.047 51.4253L731.041 51.4135L729.131 51.4194L729.119 51.4253C729.168 52.9226 730.416 53.7467 732.266 53.8175V54.7705ZM731.235 47.9225V47.9107C731.235 47.4894 731.586 47.2197 732.266 47.1616V48.7179C731.562 48.5359 731.235 48.3084 731.235 47.9225ZM734.049 51.5306V51.5424C734.049 51.9924 733.654 52.2325 732.951 52.2906V50.7065C733.739 50.8986 734.049 51.0975 734.049 51.5306Z" fill="white"/>
</g>
<defs>
<linearGradient id="paint0_linear_0_1" x1="134.034" y1="68.2145" x2="134.034" y2="81.8751" gradientUnits="userSpaceOnUse">
<stop stop-color="#EBA600"/>
<stop offset="1" stop-color="#C28200"/>
</linearGradient>
<linearGradient id="paint1_linear_0_1" x1="133.977" y1="78.556" x2="133.977" y2="90.8524" gradientUnits="userSpaceOnUse">
<stop stop-color="#FFD869"/>
<stop offset="1" stop-color="#FEC52B"/>
</linearGradient>
<linearGradient id="paint2_linear_0_1" x1="114.751" y1="397.717" x2="122.77" y2="404.916" gradientUnits="userSpaceOnUse">
<stop stop-color="#33BEF0"/>
<stop offset="1" stop-color="#0A85D9"/>
</linearGradient>
<linearGradient id="paint3_linear_0_1" x1="135.181" y1="388.06" x2="141.665" y2="394.19" gradientUnits="userSpaceOnUse">
<stop stop-color="#33BEF0"/>
<stop offset="1" stop-color="#0A85D9"/>
</linearGradient>
<linearGradient id="paint4_linear_0_1" x1="135.531" y1="407.745" x2="143.051" y2="415.464" gradientUnits="userSpaceOnUse">
<stop stop-color="#33BEF0"/>
<stop offset="1" stop-color="#0A85D9"/>
</linearGradient>
<clipPath id="clip0_0_1">
<rect width="836.947" height="514" fill="white" transform="translate(0.0528564)"/>
</clipPath>
<clipPath id="clip1_0_1">
<rect width="34.8003" height="33.7049" fill="white" transform="translate(133.164 34.5475)"/>
</clipPath>
<clipPath id="clip2_0_1">
<rect width="26.9702" height="30.3344" fill="white" transform="translate(733.469 395.19)"/>
</clipPath>
<clipPath id="clip3_0_1">
<rect width="20.393" height="16.0098" fill="white" transform="translate(679.529 150.83)"/>
</clipPath>
<clipPath id="clip4_0_1">
<rect width="43.5004" height="42.1311" fill="white" transform="translate(111.414 205.6)"/>
</clipPath>
</defs>
</svg>
