<svg id="eAGmjSfLWpb1" xmlns="http://www.w3.org/2000/svg" xmlns:xlink="http://www.w3.org/1999/xlink" viewBox="0 0 962 610" shape-rendering="geometricPrecision" text-rendering="geometricPrecision"><defs><linearGradient id="eAGmjSfLWpb81-fill" x1="154" y1="80.955" x2="154" y2="97.167" spreadMethod="pad" gradientUnits="userSpaceOnUse" gradientTransform="translate(0 0)"><stop id="eAGmjSfLWpb81-fill-0" offset="0%" stop-color="#eba600"/><stop id="eAGmjSfLWpb81-fill-1" offset="100%" stop-color="#c28200"/></linearGradient><linearGradient id="eAGmjSfLWpb82-fill" x1="153.934" y1="93.228" x2="153.934" y2="107.821" spreadMethod="pad" gradientUnits="userSpaceOnUse" gradientTransform="translate(0 0)"><stop id="eAGmjSfLWpb82-fill-0" offset="0%" stop-color="#ffd869"/><stop id="eAGmjSfLWpb82-fill-1" offset="100%" stop-color="#fec52b"/></linearGradient><linearGradient id="eAGmjSfLWpb84-fill" x1="131.836" y1="471.999" x2="141.315" y2="480.241" spreadMethod="pad" gradientUnits="userSpaceOnUse" gradientTransform="translate(0 0)"><stop id="eAGmjSfLWpb84-fill-0" offset="0%" stop-color="#33bef0"/><stop id="eAGmjSfLWpb84-fill-1" offset="100%" stop-color="#0a85d9"/></linearGradient><linearGradient id="eAGmjSfLWpb85-fill" x1="155.319" y1="460.538" x2="162.996" y2="467.568" spreadMethod="pad" gradientUnits="userSpaceOnUse" gradientTransform="translate(0 0)"><stop id="eAGmjSfLWpb85-fill-0" offset="0%" stop-color="#33bef0"/><stop id="eAGmjSfLWpb85-fill-1" offset="100%" stop-color="#0a85d9"/></linearGradient><linearGradient id="eAGmjSfLWpb86-fill" x1="155.721" y1="483.9" x2="164.649" y2="492.775" spreadMethod="pad" gradientUnits="userSpaceOnUse" gradientTransform="translate(0 0)"><stop id="eAGmjSfLWpb86-fill-0" offset="0%" stop-color="#33bef0"/><stop id="eAGmjSfLWpb86-fill-1" offset="100%" stop-color="#0a85d9"/></linearGradient></defs><rect width="962" height="610" rx="0" ry="0" fill="#f5f5f5"/><g transform="matrix(1.000001 0 0 1-.000481 0)" clip-path="url(#eAGmjSfLWpb225)"><g><rect width="962" height="610" rx="0" ry="0" fill="#f8f8f8"/><path d="M379.503,420.821c-.051-14.016-.142-28.033-.147-42.049-.015-35.995.008-71.99.387-108.351c78.783-.368,157.195-.363,235.606-.402c1.974-.001,3.947-.497,5.967-.394.058,3.939-.029,7.516.156,11.074.044.857.988,1.649,1.519,2.471.448-.798,1.245-1.573,1.284-2.399.17-3.56.117-7.135.458-10.708c2.366-.006,4.417-.007,6.516.359.039,15.73.031,31.092-.243,46.451-2.531-.538-4.797-1.073-7.28-1.807-12.145-1.757-23.141,1.081-32.916,9.63-15.982,13.977-22.154,33.016-18.614,55.778c2.516,16.182,10.24,28.945,22.676,37.126c1.296.852,2.423,2.067,3.321,3.153-73.1.048-145.895.058-218.69.068Z" fill="#ffda67"/><path d="M471.342,157.38c12.711-.018,25.116.066,37.521.119c5.651.024,11.303-.015,17.564-.019c4.84.064,9.07.122,13.315.526.017,12.139.019,23.931-.29,35.746-9.2.031-18.091.037-26.981.048-.888.001-1.839-.187-2.644.13-.565.222-1.274,1.142-1.29,1.773-.017.642.632,1.653,1.177,1.888.792.342,1.752.149,2.64.157c9.329.088,18.658.171,28.104.537c1.044.542,1.973,1.024,2.902,1.027c13.489.049,26.977.055,40.466-.004c1.173-.006,2.344-.543,3.746-.621.234,10.939.238,21.667.107,32.413-.134.018-.39.117-.711.079-29.292-.028-58.265-.026-87.237.024-1.149.002-2.298.47-3.669.756-2.881,2.916-5.538,5.796-8.527,8.669-16.209-.01-32.087-.014-47.966-.013-.887,0-1.815-.13-2.647.138-.48.154-1.118.99-1.113,1.511s.657,1.33,1.143,1.482c.835.26,1.761.124,2.649.126c15.1.031,30.201.058,45.196.306-4.308,6.691-10.165,8.416-16.644,8.409-16.81-.018-33.62-.017-50.453-.394-.083-14.349-.144-28.329-.205-42.31.056-16.121.097-32.242.2-48.362.009-1.33.445-2.656.929-4.11c13.426-.056,26.604.023,39.782.082c4.21.019,8.421-.015,12.936-.113Zm14,67.394c-15.138,0-30.277,0-45.416.002-.89,0-1.856-.227-2.647.112-.657.282-1.108,1.243-1.65,1.903.562.635,1.04,1.515,1.709,1.836.673.323,1.535.098,2.314.099c40.296.001,80.592.001,120.888-.001.89,0,1.886.259,2.64-.13.75-.387,1.258-1.441,1.871-2.202-.633-.536-1.21-1.313-1.914-1.544-.828-.272-1.766-.074-2.657-.074-24.823-.001-49.646-.001-75.138-.001Zm-45.965-15.138c-.334,0-.709-.116-.995.023-.905.44-1.776.976-2.661,1.475.92.588,1.817,1.238,2.771,1.731.375.193.879.032,1.325.032c40.405.001,80.811.015,121.217-.063c1.329-.003,2.657-.946,3.986-1.451-1.376-.582-2.75-1.671-4.126-1.674-40.294-.091-80.589-.074-121.517-.073Zm33.272-15.838c-11.46,0-22.921-.043-34.38.088-.882.01-1.755,1.241-2.632,1.904.887.653,1.771,1.869,2.661,1.875c17.579.112,35.159.112,52.739-.002.884-.006,1.763-1.245,2.644-1.911-.891-.651-1.771-1.839-2.674-1.865-5.894-.17-11.793-.089-18.358-.089Z" fill="#e6dede"/><path d="M587.289,231.217c0,0,.256-.099.702-.038c11.842.017,23.237-.028,34.858.003.527.166.828.257,1.212.469.231.251.396.302.821.283c4.516,2.081,6.36,5.18,6.428,10.391.031,2.36.074,4.719.065,7.447-.089,7.006-.131,13.644-.173,20.282-2.052.002-4.103.003-6.494-.364-.346-6.971-.338-13.573-.366-20.175-.026-6.291-1.959-8.609-7.24-8.62-11.328-.024-22.656-.078-33.983.077-1.497.02-2.982,1.187-4.473,1.822c1.447.54,2.891,1.53,4.342,1.547c11.216.13,22.434.061,33.651.078c4.199.006,4.774.731,4.752,5.789-.003.79-.067,1.58-.356,2.465-1.66,3.606-1.419,8.965.281,11.369.012,1.968-.017,3.592-.046,5.215-1.974.265-3.947.761-5.921.762-78.411.039-156.823.034-235.544.036-.352-4.282-.393-8.564-.06-13.195c30.635-.34,60.897-.421,91.158-.241c5.15.03,9.529-1.995,13.084-5.821c5.512-5.935,10.53-12.519,16.066-18.835c27.891-.006,55.472.006,83.053-.036c1.395-.002,2.788-.463,4.183-.71Zm-15.546,9.712c-2.67.006-5.345-.08-8.008.093-.559.036-1.075,1.025-1.611,1.575.492.587.963,1.65,1.479,1.682c2.663.162,5.358.296,7.999-.036c1.681-.212,2.352-1.531.141-3.314Z" fill="#ffd963"/><path d="M270.414,279.843c7.866,22.646-4.536,46.117-24.671,47.16-14.108.731-26.797-12.55-28.497-29.825-1.624-16.512,8.396-32.803,22.081-35.901c13.14-2.975,24.393,3.668,31.087,18.566Zm-24.913,27.541c2.283,0,4.566,0,6.85,0c.324-5.202.787-9.863-3.365-12.524-2.95-1.891-6.027-1.867-8.85.4-3.689,2.962-3.114,7.376-2.741,12.124c2.604,0,5.025,0,8.106,0Zm-3.973-19.028c1.606.288,3.46,1.305,4.757.681c1.635-.786,3.669-2.722,3.949-4.512.273-1.746-1.066-4.464-2.382-5.802-2.09-2.124-5.825-1.204-7.534,1.297-2.003,2.93-1.423,5.606,1.21,8.336Zm14.683,12.058c.122,2.192.243,4.384.371,6.693c1.848,0,3.438,0,4.972,0c1.323-7.101-.282-12.384-6.218-11.145.246,1.27.491,2.534.875,4.452Zm-24.804,6.96c.631-.666,1.704-1.242,1.814-2.013.453-3.158.612-6.375.88-9.571-5.248-1.215-7.5,4.241-5.839,11.407.805.059,1.669.122,3.145.177Zm1.507-15.899c2.193.004,4.28-.775,4.086-3.721-.095-1.448-1.735-3.726-2.829-3.86-1.348-.165-3.511,1.093-4.144,2.49-1.016,2.242.224,4.211,2.887,5.091Zm19.705-3.079c.971,2.79,2.872,3.877,5.024,2.651c1.072-.611,2.357-3.035,2.076-4.083-.377-1.413-2.083-3.002-3.38-3.234-2.126-.38-3.842.967-3.72,4.666Z" fill="#fcfdfd"/><path d="M314.558,220.958c-13.835-6.17-21.609-21.431-19.457-37.791c2.215-16.837,13.411-28.772,27.827-29.665c14.695-.91,28.478,13.177,29.867,30.527c1.527,19.049-8.967,35.994-24.214,38.183-4.484.644-9.173-.719-14.023-1.254Zm-7.638-48.75c-.507.993-1.409,1.963-1.453,2.984-.169,3.952-.527,8.035.141,11.832.309,1.762,2.658,3.377,4.371,4.309c1.249.679,2.97.133,4.798.133c0,2.781,0,4.946,0,7.726.948-.886,1.492-1.286,1.925-1.815c2.98-3.64,5.928-6.895,10.869-6.093c2.346.381,3.705-2.094,3.785-4.978.085-3.036.074-6.078.032-9.116-.064-4.582-1.587-6.393-5.537-6.451-4.889-.071-9.781-.091-14.669.03-1.28.031-2.55.669-4.262,1.439Zm22.201,24.378c-3.313.43-7.002-.087-8.847,5.706c6.357-2.565,9.36,3.413,13.436,7.309.205-2.81-.258-5.568.685-6.774.897-1.148,3.273-.593,4.978-.938c2.517-.509,3.926-2.288,3.949-5.408.022-3.033.082-6.07-.009-9.099-.149-4.967-2.755-7.001-7.237-5.448.585,6.415-.392,12.094-6.955,14.652Z" fill="#fcfdfd"/><path d="M379.487,252.7c-.046-10.931-.185-21.864-.093-32.795.038-4.511,2.273-7.539,6.173-9.338c1.383-.214,2.291-.428,3.2-.642.323-.027.645-.055,1.363.102c1.145.022,1.896-.141,2.647-.304c7.164.041,14.328.082,21.93.442.568,1.867.808,3.415.814,4.965.046,12.471.049,24.943-.25,37.457-12.138.066-23.961.09-35.784.113Z" fill="#ffb900"/><path d="M335.695,372.225c-8.849-6.073-12.725-15.551-11.06-26.67c1.498-10.005,8.139-17.583,17.098-19.509c9.764-2.099,20.218,5.732,22.851,17.335.838,3.696.737,7.872,5.382,8.685-.261.382-.521.764-.781,1.146-1.088-.46-2.175-.92-3.596-1.521-1.122,9.788-5.131,17.231-12.899,21.194-5.605,2.86-11.247,2.491-16.995-.66Zm-3.769-28.624c.002,5.152-.009,10.305.013,15.457.012,2.943,1.063,4.818,3.756,4.821c5.556.006,11.112.027,16.668-.026c2.576-.025,3.828-1.659,3.814-4.748-.028-6.342-.022-12.684-.007-19.025.009-3.431-1.333-5.085-4.28-5.033-4.444.08-8.89.018-13.334.019-6.303.003-6.623.379-6.63,8.535Z" fill="#fcfdfd"/><path d="M336.179,254.512c.191,3.245.498,6.488.547,9.736.089,5.945-.034,11.894.049,17.838.041,2.959-.898,4.456-3.489,4.436-6.457-.049-12.914-.05-19.371-.001-2.58.02-3.46-1.396-3.435-4.407.095-11.467.088-22.937.004-34.405-.022-2.986.854-4.486,3.444-4.434c4.225.083,8.451.1,12.793.612-.299,11.717-.555,11.512,8.86,10.948.204-.013.399-.211.598-.323Zm-19.001,9.369c0,4.838,0,9.677,0,14.558c4.443,0,8.589,0,12.775,0c0-5.272,0-10.234,0-15.175-4.307,0-8.387,0-12.775.617Z" fill="#f2b60b"/><path d="M379.471,421.116c72.827-.305,145.622-.315,219.027-.288c2.439.038,4.267.039,6.383.064c3.72.611,7.152,1.198,10.382,1.918-3.367.283-6.534.432-9.99.596-17.85-.034-35.409-.11-52.969-.124-11.109-.009-22.218.074-33.627.065-11.611-.016-22.923.017-34.549-.025-24.513-.027-48.712.021-73.248-.008-10.557-.134-20.776-.19-30.996-.247-.148-.552-.296-1.105-.413-1.951Z" fill="#d97b16"/><path d="M379.436,253.011c11.874-.334,23.697-.358,36.099-.362c1.115-.016,1.651-.051,2.188-.086c16.81.007,33.62.006,50.43.024c6.479.007,12.336-1.718,16.835-8.561c1.156-1.378,2.017-2.384,2.878-3.39c2.658-2.881,5.315-5.761,8.484-8.69c1.473-.024,2.433,0,3.394.024-5.227,6.309-10.245,12.893-15.757,18.828-3.555,3.826-7.934,5.851-13.084,5.821-30.261-.18-60.523-.099-91.094-.128-.348-1.072-.387-2.121-.373-3.48Z" fill="#ffe69b"/><path d="M518.977,423.397c11.109-.041,22.218-.124,33.327-.115c17.56.014,35.119.09,53.009.303.288.419.319.66.422.888c0,0-.263.119-.67.136-3.548.099-6.69.18-9.831.262-2.029-.064-4.057-.128-6.38-.096-12.942.064-25.588.018-38.235.005-10.322-.011-20.644.019-31.298-.266-.335-.57-.34-.844-.344-1.117Z" fill="#dcdcdc"/><path d="M411.218,423.392c24.198-.049,48.397-.097,72.891.135.287.552.278.825.269,1.097-12.789.042-25.578.123-38.366.115-11.46-.007-22.919-.113-34.621-.383-.273-.467-.25-.719-.173-.964Z" fill="#dcdcdc"/><path d="M417.7,252.193c-.513.405-1.05.44-1.85.413-.28-12.533-.283-25.005-.329-37.476-.006-1.55-.246-3.098-.501-4.925.568-.289,1.26-.3,2.213-.316.323,13.974.384,27.955.467,42.304Z" fill="#d97b16"/><path d="M410.88,423.314c.261.323.238.575.21,1.015-2.819.294-5.58.507-8.341.504-12.432-.013-24.864-.087-37.62-.382-.358-.529-.392-.816-.426-1.104c4.824-.05,9.649-.1,14.827-.215c10.574-.008,20.793.048,31.35.182Z" fill="#8e8f97"/><path d="M484.685,424.682c-.298-.33-.289-.603-.261-1.08c11.33-.238,22.642-.271,34.253-.255.304.323.309.597.338,1.074-11.325.242-22.674.28-34.33.261Z" fill="#fcfdfd"/><path d="M336.035,254.273c-.055.351-.25.549-.454.562-9.415.564-9.159.769-8.648-10.787c3.05,3.125,6.004,6.556,9.102,10.225Z" fill="#fddc76"/><path d="M392.728,209.494c-.702.393-1.453.556-2.356.553.668-.371,1.488-.577,2.356-.553Z" fill="#d97b16"/><path d="M388.535,209.843c-.677.296-1.585.51-2.731.689.675-.28,1.587-.525,2.731-.689Z" fill="#d97b16"/><path d="M606.017,424.616c-.385-.371-.416-.612-.414-1.045c3.126-.329,6.293-.478,10.022-.785c5.352-.21,10.141-.264,15.124-.063.519.331.843.476,1.168.478c28.325.164,56.65.325,84.974.427.904.003,1.81-.614,2.954-.873c2.002.019,3.766-.029,5.672.161.755.375,1.368.512,1.981.649c1.387.077,2.773.154,4.16.232.003.308.006.617.008.926-15.429,0-30.859,0-46.598.068-17.918.073-35.528.079-53.448.141-4.115.025-7.919-.005-12.307-.02-1.508.047-2.433.081-3.358.114-.506-.037-1.013-.075-2.053-.106-1.675.039-2.817.073-3.959.106-1.215-.089-2.429-.178-3.926-.41Z" fill="#8e8f97"/><path d="M673.988,377.574c7.436,3.026,14.871,6.052,22.797,9.181c5.892,2.18,11.294,4.258,16.697,6.336.318.255.637.511,1.35.822.926.249,1.458.443,1.99.636.931.37,1.861.74,3.21,1.33c1.64.626,2.864,1.031,4.087,1.436c3.736,1.65,7.087,3.915,8.612,8.611c1.88,5.788.122,11.36-5.233,15.976-.984.387-1.554.581-2.124.775-1.763.049-3.527.097-5.794.024-17.949-7.053-35.372-14.063-52.86-20.836-2.67-1.034-3.72-2.364-2.71-5.841c1.613-5.767,3.162-11.237,4.775-17.009c1.209-4.306,3.406-1.596,5.203-1.441Z" fill="#866ff8"/><path d="M668.722,379.318c-1.549,5.469-3.099,10.939-4.936,16.661-1.395-.388-2.503-1.029-3.584-1.654-6.429,13.397-15.496,22.774-28.238,26.696-.539.166-.942.951-1.409,1.448-4.789.053-9.578.107-14.729.183-3.793-.562-7.225-1.149-11.016-2.017-1.285-.935-2.168-1.704-3.145-2.223-5.405-2.866-10.08-6.838-14.251-11.894-18.31-22.197-16.183-60.355,4.477-79.366c9.472-8.716,20.197-12.389,32.052-11.888c2.266.536,4.532,1.071,7.256,1.767c1.456.554,2.453.946,3.451,1.339c15.999,7.018,25.81,20.52,29.903,40.742.131,6.939.131,13.289.131,19.479c1.649.297,2.843.512,4.038.727Zm-36.858,33.629c15.428-4.943,26.871-23.325,26.948-43.29.08-20.806-11.137-38.928-27.939-44.724-5.397-.485-10.921-2.087-16.168-1.247-16.471,2.636-29.274,17.23-32.602,35.909-3.39,19.032,3.385,38.303,17.7,48.817c9.797,7.195,20.405,9.277,32.061,4.535Z" fill="#ebe7fb"/><path d="M623.726,315.066c-11.638-.303-22.363,3.37-31.835,12.086-20.66,19.011-22.787,57.169-4.477,79.366c4.171,5.056,8.846,9.028,14.251,11.894.977.519,1.86,1.288,2.857,2.198-1.757.257-3.585.256-5.718.18-1.509-1.123-2.636-2.338-3.932-3.19-12.436-8.181-20.16-20.944-22.676-37.126-3.54-22.762,2.632-41.801,18.614-55.778c9.775-8.549,20.771-11.387,32.916-9.63Z" fill="#e7be54"/><path d="M621.316,269.625c-.017-1.991.012-3.615.049-5.948-.021-4.173-.049-7.636-.077-11.099.036-.79.1-1.58.103-2.37.022-5.058-.553-5.783-4.752-5.789-11.217-.017-22.435.052-33.651-.078-1.451-.017-2.895-1.007-4.342-1.547c1.491-.635,2.976-1.802,4.473-1.822c11.327-.155,22.655-.101,33.983-.077c5.282.011,7.214,2.329,7.24,8.62.028,6.602.02,13.204.053,20.179-.003,3.942.05,7.517-.12,11.077-.039.826-.836,1.601-1.284,2.399-.531-.822-1.475-1.614-1.519-2.471-.185-3.558-.098-7.135-.156-11.074Z" fill="#fcfdfd"/><path d="M567.485,180.655c3.834,3.36,7.396,6.7,11.117,9.767.766.632,2.127.348,3.208.299.759-.034,1.508-.387,2.542.19-.806.687-1.613,1.374-2.636,2.245c1.921,1.724,3.662,3.287,5.515,5.085-1.061.524-2.232,1.061-3.405,1.067-13.489.059-26.977.053-40.466.004-.929-.003-1.858-.485-2.917-1.248-.313-1.781-.497-3.058-.68-4.336-.002-11.791-.004-23.583-.021-35.722c1.041.187,2.227.507,3.132,1.288c8.16,7.035,16.271,14.152,24.611,21.361Z" fill="#dcdcdc"/><path d="M485.676,224.774c25.158,0,49.981,0,74.804.001.891,0,1.829-.198,2.657.074.704.231,1.281,1.008,1.914,1.544-.613.761-1.121,1.815-1.871,2.202-.754.389-1.75.13-2.64.13-40.296.002-80.592.002-120.888,0-.779,0-1.641.225-2.314-.098-.669-.321-1.147-1.201-1.709-1.836.542-.66.993-1.621,1.65-1.903.791-.339,1.757-.112,2.647-.112c15.139-.002,30.278-.002,45.75-.002Z" fill="#c9d4fe"/><path d="M439.694,209.635c40.611,0,80.905-.017,121.2.074c1.376.003,2.75,1.092,4.126,1.674-1.329.505-2.657,1.448-3.986,1.451-40.406.078-80.812.064-121.217.063-.446,0-.95.161-1.325-.032-.954-.493-1.851-1.143-2.771-1.731.884-.499,1.756-1.035,2.661-1.475.286-.139.661-.023,1.312-.024Z" fill="#c9d4fe"/><path d="M472.983,193.798c6.231,0,12.13-.081,18.024.089.903.026,1.783,1.215,2.674,1.865-.881.666-1.76,1.905-2.644,1.911-17.58.114-35.16.114-52.739.002-.89-.006-1.774-1.222-2.661-1.875.877-.663,1.75-1.894,2.632-1.904c11.459-.131,22.92-.088,34.714-.088Z" fill="#c9d4fe"/><path d="M487.535,240.628c-.53,1.014-1.391,2.02-2.442,3.178-15.291.124-30.392.097-45.492.066-.888-.002-1.814.134-2.649-.126-.486-.152-1.138-.961-1.143-1.482s.633-1.357,1.113-1.511c.832-.268,1.76-.138,2.647-.138c15.879-.001,31.757.003,47.966.013Z" fill="#c9d4fe"/><path d="M539.452,193.752c.494,1.254.678,2.531.875,4.03-9.315.137-18.644.054-27.973-.034-.888-.009-1.848.185-2.64-.157-.545-.235-1.194-1.246-1.177-1.888.016-.631.725-1.551,1.289-1.773.806-.317,1.757-.129,2.645-.13c8.89-.011,17.781-.017,26.981-.048Z" fill="#c9d4fe"/><path d="M500.053,231.963c-1.27-.017-2.23-.041-3.48-.052.86-.238,2.009-.706,3.158-.708c28.972-.05,57.945-.052,87.237-.024-1.074.285-2.467.746-3.862.748-27.581.042-55.162.03-83.053.036Z" fill="#e7be54"/><path d="M572.019,240.996c1.935,1.716,1.264,3.035-.417,3.247-2.641.332-5.336.198-7.999.035-.516-.031-.987-1.094-1.479-1.681.536-.55,1.052-1.539,1.611-1.575c2.663-.173,5.338-.087,8.284-.026Z" fill="#fcfdfd"/><path d="M621.035,252.673c.281,3.368.309,6.831.288,10.659-1.707-1.694-1.948-7.053-.288-10.659Z" fill="#ffda67"/><path d="M624.061,231.651c.113-.252.283-.214.502.134-.106.168-.271.117-.502-.134Z" fill="#e7be54"/><path d="M245.172,307.384c-2.752,0-5.173,0-7.777,0-.373-4.748-.948-9.162,2.741-12.124c2.823-2.267,5.9-2.291,8.85-.4c4.152,2.661,3.689,7.322,3.365,12.524-2.284,0-4.567,0-7.179,0Z" fill="#8490f9"/><path d="M241.317,288.189c-2.422-2.563-3.002-5.239-.999-8.169c1.709-2.501,5.444-3.422,7.534-1.297c1.316,1.338,2.655,4.056,2.382,5.802-.28,1.79-2.314,3.726-3.95,4.512-1.296.624-3.15-.393-4.967-.848Z" fill="#8490f9"/><path d="M256.141,300.087c-.314-1.591-.559-2.855-.805-4.125c5.936-1.239,7.541,4.044,6.218,11.144-1.534,0-3.124,0-4.972,0-.128-2.308-.249-4.5-.441-7.019Z" fill="#8490f9"/><path d="M231.101,307.378c-1.17-.059-2.034-.122-2.839-.181-1.661-7.166.591-12.622,5.839-11.407-.268,3.196-.427,6.413-.88,9.571-.11.771-1.183,1.347-2.12,2.017Z" fill="#8490f9"/><path d="M232.649,291.437c-2.398-.842-3.638-2.811-2.622-5.053.633-1.398,2.796-2.655,4.144-2.49c1.094.134,2.734,2.412,2.829,3.86.194,2.946-1.893,3.725-4.351,3.683Z" fill="#8490f9"/><path d="M252.574,288.089c-.077-3.392,1.639-4.739,3.765-4.359c1.297.232,3.003,1.821,3.38,3.234.281,1.048-1.004,3.472-2.076,4.083-2.152,1.226-4.053.139-5.069-2.958Z" fill="#8490f9"/><path d="M306.92,175.321c1.493-.565,2.763-1.203,4.044-1.234c4.888-.121,9.779-.101,14.669-.029c3.95.057,5.473,1.868,5.536,6.45.042,3.038.054,6.08-.031,9.116-.081,2.884-1.439,5.359-3.786,4.978-4.94-.802-7.888,2.453-10.869,6.093-.433.529-.977.93-1.925,1.815c0-2.78,0-4.945,0-7.726-1.827,0-3.549.546-4.798-.133-1.713-.932-4.061-2.547-4.371-4.308-.667-3.798-.31-7.881-.14-11.833.044-1.021.945-1.99,1.671-3.189Z" fill="#6fe7b8"/><path d="M329.378,196.491c6.306-2.463,7.283-8.142,6.698-14.557c4.482-1.553,7.088.481,7.237,5.448.091,3.029.031,6.066.009,9.099-.023,3.12-1.432,4.899-3.949,5.408-1.705.345-4.081-.21-4.978.938-.943,1.206-.48,3.964-.685,6.774-4.076-3.896-7.079-9.874-13.436-7.309c1.845-5.793,5.534-5.276,9.104-5.801Z" fill="#6fe7b8"/><path d="M331.926,343.219c.007-7.774.327-8.15,6.63-8.153c4.444-.001,8.89.061,13.334-.019c2.947-.052,4.288,1.602,4.28,5.033-.015,6.341-.021,12.683.007,19.025.014,3.089-1.238,4.723-3.814,4.748-5.556.053-11.112.032-16.668.026-2.693-.003-3.744-1.878-3.756-4.821-.022-5.152-.011-10.305-.013-15.839Zm15.834-.685c-.088,4.079-.29,8.163-.177,12.235.025.938,1.131,1.835,1.739,2.75.52-.961,1.436-1.894,1.487-2.889.181-3.553.094-7.128.059-10.694-.023-2.345-.908-3.152-3.108-1.402Zm-1.83,10.983c-.007-1.83.21-3.716-.108-5.466-.177-.975-1.242-1.722-1.907-2.571-.573.819-1.528,1.57-1.64,2.47-.255,2.048-.321,4.215-.023,6.242.182,1.243,1.178,2.318,1.809,3.468.623-1.156,1.245-2.311,1.869-4.143Zm-5.342,1.787c-.571-1.186-1.143-2.371-1.715-3.557-.536.509-1.504.997-1.522,1.53-.044,1.319.346,2.659.562,3.99.866-.437,1.732-.875,2.675-1.963Z" fill="#3e84f6"/><path d="M317.332,263.573c4.234-.309,8.314-.309,12.621-.309c0,4.941,0,9.903,0,15.175-4.186,0-8.332,0-12.775,0c0-4.881,0-9.719.154-14.866Zm8.866,3.874c-2.41,0-4.821,0-7.285,0c0,2.468,0,4.48,0,6.384c3.304,0,6.354,0,9.73,0-.761-2.345,1.54-5.335-2.445-6.384Z" fill="#fcfdfd"/><path d="M726.534,304.998c.515.116.72.291,1.006,1.031.074,3.594-.122,6.648.147,9.642.115,1.283,1.197,2.444,1.875,3.928c2.338,2.868,4.643,5.468,6.756,7.851c1.205-.394,2.137-.7,3.07-1.005-.086,9.864-.171,19.727-.633,29.997-1.581.834-2.782,1.616-3.99,1.633-8.048.112-16.098.092-24.147.024-1.035-.008-2.066-.544-3.099-.835-.16-8.467-.32-16.933-.538-25.73.041-7.291.134-14.252.242-21.212.072-4.664.529-5.207,4.393-5.226c4.869-.023,9.739-.027,14.918-.098Zm-10.252,26.351c-.383.638-.766,1.277-1.149,1.916.64.356,1.275,1.005,1.921,1.021c3.984.097,7.972.142,11.952-.021.84-.035,1.653-1.01,2.479-1.551-.891-.469-1.773-1.309-2.675-1.342-3.981-.146-7.968-.059-12.528-.023Zm8.203,4.951c-2.554.009-5.112-.069-7.659.095-.553.035-1.066.936-1.597,1.438.489.386.973,1.097,1.468,1.106c4.44.084,8.883.082,13.323-.013.475-.01.939-.769,1.409-1.181-.434-.465-.84-1.282-1.305-1.332-1.653-.179-3.326-.096-5.639-.113Zm-6.312,4.766c-.968.51-1.936,1.021-2.905,1.531.923.421,1.837,1.171,2.77,1.205c3.775.137,7.557.12,11.333-.005.691-.023,1.363-.815,2.044-1.252-.66-.488-1.309-1.369-1.983-1.397-3.552-.146-7.111-.076-11.259-.082Zm7.984,7.524c1.583-.526,1.846-2.041.293-2.237-3.665-.46-7.398-.147-11.104-.147-.052.656-.103,1.312-.155,1.969c3.356.928,6.915.24,10.966.415Z" fill="#508df4"/><path d="M707.512,357.567c1.04-.012,2.071.524,3.106.532c8.049.068,16.099.088,24.147-.024c1.208-.017,2.409-.799,3.855-1.339c1.298,3.53.19,6.029-2.835,6.189-7.388.391-14.783.704-22.177.786-3.156.035-5.486-1.801-6.096-6.144Z" fill="#232333"/><path d="M729.527,319.331c-.643-1.216-1.725-2.377-1.84-3.66-.269-2.994-.073-6.048-.055-9.443c2.488,2.49,4.966,5.346,7.653,8.302c1.274,1.466,2.339,2.833,3.266,4.446-3.1.283-6.062.319-9.024.355Z" fill="#c9d4fe"/><path d="M729.562,319.599c2.927-.304,5.889-.34,9.07-.387.421,2.172.622,4.356.789,6.886-.966.652-1.898.958-3.104,1.352-2.112-2.383-4.417-4.983-6.755-7.851Z" fill="#3e84f6"/><path d="M663.621,163.882c2.899-.066,5.654-.504,8.256.059c9.059,1.956,14.998,8.217,17.413,19.562c1.234,6.572-.16,12.007-2.35,17.291-.005.009-.015.025-.015.025-3.919,6.67-9.034,11.198-16.027,11.824-10.386.931-18.799-6.339-21.882-18.761.019-4.407.148-8.565.277-13.045c2.061-5.654,4.571-10.55,9.168-13.765c1.724-1.188,3.336-2.146,5.16-3.19Zm-7.202,23.306c.425,4.349.85,8.697,1.227,12.549c2.779.336,6.175.702,9.562,1.165c7.429,1.015,14.063-4.891,14.202-12.692.123-6.898-4.514-12.574-10.955-13.409-6.879-.891-12.715,3.99-14.036,12.387Z" fill="#fcfdfd"/><path d="M788.783,233.778c-1.379.678-2.654,1.287-3.932,1.301-7.991.089-15.982.067-23.973.035-3.64-.015-4.514-1.024-4.523-5.358-.031-14.43.005-28.861-.032-43.291-.007-2.915.847-4.848,3.681-5.351c5.673.019,11.102.11,16.736.779.198,3.316.285,6.058.159,8.787-.122,2.674.664,4.548,2.812,5.828c3.173,3.241,6.313,6.222,9.453,9.202.04,1.884.081,3.767.139,6.003-.127,7.475-.272,14.598-.52,22.065Zm-22.481-8.325c4.102.005,8.206-.058,12.307.045c1.868.047,2.571-.804,2.53-3.016-.085-4.612-.086-9.229-.003-13.842.042-2.284-.79-2.964-2.602-2.912-3.768.107-7.543.146-11.308-.013-2.085-.088-2.733.941-2.698,3.242.068,4.48-.049,8.967.072,13.444.027,1.002.722,1.979,1.702,3.052Z" fill="#f2b60b"/><path d="M779.677,196.247c-2.114-1.019-2.9-2.893-2.778-5.566.126-2.73.04-5.472.066-8.591c4.001,4.253,7.982,8.887,11.703,13.802-3.171.306-6.081.33-8.991.355Z" fill="#fddc76"/><path d="M779.711,196.508c2.876-.286,5.786-.31,9.01-.354.428,2.982.542,5.983.549,9.27-3.246-2.694-6.386-5.675-9.559-8.916Z" fill="#d97b16"/><path d="M631.372,413.043c-11.164,4.646-21.772,2.564-31.569-4.631-14.315-10.514-21.09-29.785-17.7-48.817c3.328-18.679,16.131-33.273,32.602-35.909c5.247-.84,10.771.762,16.379,1.757.213,2.236.215,3.963-.039,5.696-9.507-3.737-18.219-2.199-26.305,4.097-1.085.845-1.467,2.965-2.175,4.494c1.464-.052,2.932-.048,4.389-.196.387-.04.727-.578,1.112-.84c7.52-5.112,15.289-5.826,23.284-1.482-.017,25.521.003,50.676.022,75.831Z" fill="#fddc76"/><path d="M347.936,342.247c2.024-1.463,2.909-.656,2.932,1.689.035,3.566.122,7.141-.059,10.694-.051.995-.967,1.928-1.487,2.889-.608-.915-1.714-1.812-1.739-2.75-.113-4.072.089-8.156.353-12.522Z" fill="#fcfdfd"/><path d="M345.929,353.855c-.623,1.494-1.245,2.649-1.868,3.805-.631-1.15-1.627-2.225-1.809-3.468-.298-2.027-.232-4.194.023-6.242.112-.9,1.067-1.651,1.64-2.47.665.849,1.73,1.596,1.907,2.571.318,1.75.101,3.636.107,5.804Z" fill="#ebe7fb"/><path d="M340.55,355.629c-.905.763-1.771,1.201-2.637,1.638-.216-1.331-.606-2.671-.562-3.99.018-.533.986-1.021,1.522-1.53.572,1.186,1.144,2.371,1.677,3.882Z" fill="#fcfdfd"/><path d="M326.512,267.451c3.671,1.045,1.37,4.035,2.131,6.38-3.376,0-6.426,0-9.73,0c0-1.904,0-3.916,0-6.384c2.464,0,4.875,0,7.599.004Z" fill="#f2b60b"/><path d="M716.57,331.332c4.272-.019,8.259-.106,12.24.04.902.033,1.784.873,2.675,1.342-.826.541-1.639,1.516-2.479,1.551-3.98.163-7.968.118-11.952.021-.646-.016-1.281-.665-1.921-1.021.383-.639.766-1.278,1.437-1.933Z" fill="#c9d4fe"/><path d="M724.809,336.301c1.989.016,3.662-.067,5.315.112.465.05.871.867,1.305,1.332-.47.412-.934,1.171-1.409,1.181-4.44.095-8.883.097-13.323.013-.495-.009-.979-.72-1.468-1.106.531-.502,1.044-1.403,1.597-1.438c2.547-.164,5.105-.086,7.983-.094Z" fill="#ebe7fb"/><path d="M718.469,341.066c3.852.006,7.411-.064,10.963.082.674.028,1.323.909,1.983,1.397-.681.437-1.353,1.229-2.044,1.252-3.776.125-7.558.142-11.333.005-.933-.034-1.847-.784-2.77-1.205.969-.51,1.937-1.02,3.201-1.531Z" fill="#ebe7fb"/><path d="M725.855,348.605c-3.749-.19-7.308.498-10.664-.43.052-.657.103-1.313.155-1.969c3.706,0,7.439-.313,11.104.147c1.553.196,1.29,1.711-.595,2.252Z" fill="#ebe7fb"/><path d="M657.312,186.912c1.218-8.056,6.681-12.938,13.119-12.046c6.029.835,10.369,6.51,10.254,13.409-.13,7.8-6.339,13.707-13.292,12.691-3.171-.462-6.35-.828-8.95-1.164-.353-3.852-.751-8.201-1.131-12.89Zm16.178-.187c.429,1.015.859,2.029,1.288,3.043.474-.637.948-1.273,1.421-1.91-.802-.532-1.604-1.064-2.709-1.133Zm-5.968,1.19c.806.554,1.612,1.109,2.417,1.664.116-.971.232-1.941.347-2.912-.913.208-1.825.416-2.764,1.248Zm-5.747,0c.788.553,1.575,1.106,2.362,1.658.11-.959.22-1.918.329-2.878-.888.195-1.776.389-2.691,1.22Z" fill="#ffd963"/><path d="M766.006,225.411c-.684-1.031-1.378-2.008-1.406-3.01-.121-4.477-.004-8.964-.072-13.444-.035-2.301.613-3.33,2.698-3.242c3.765.159,7.54.12,11.308.013c1.812-.052,2.644.628,2.602,2.912-.083,4.613-.082,9.23.003,13.842.041,2.212-.662,3.063-2.53,3.016-4.101-.103-8.205-.04-12.603-.087Zm11.126-14.13c-3.409,0-6.817,0-10.15,0c0,3.124,0,5.702,0,8.371c4.074,0,7.902,0,12.566,0-.656-3.076-1.218-5.716-2.416-8.371Z" fill="#fcfdfd"/><path d="M631.045,331.139c7.013,3.283,12.56,8.309,16.252,15.926.801,1.652,2.096,3.734.113,5.191-2.065,1.517-2.807-.83-3.669-2.535-2.874-5.684-6.758-10.051-12.143-12.783-8.243-4.07-16.012-3.356-23.532,1.756-.385.262-.725.8-1.112.84-1.457.148-2.925.144-4.389.196.708-1.529,1.09-3.649,2.175-4.494c8.086-6.296,16.799-7.834,26.305-4.097Z" fill="#fcfdfd"/><path d="M777.449,211.288c.881,2.648,1.443,5.288,2.099,8.364-4.664,0-8.492,0-12.566,0c0-2.669,0-5.247,0-8.371c3.333,0,6.741,0,10.467.007Z" fill="#f2b60b"/><path d="M673.988,377.574c7.436,3.026,14.871,6.052,22.797,9.181c5.892,2.18,11.294,4.258,16.697,6.336.318.255.637.511,1.35.822.926.249,1.458.443,1.99.636.931.37,1.861.74,3.21,1.33c1.64.626,2.864,1.031,4.087,1.436c3.736,1.65,7.087,3.915,8.612,8.611c1.88,5.788.122,11.36-5.233,15.976-.984.387-1.554.581-2.124.775-1.763.049-3.527.097-5.794.024-17.949-7.053-35.372-14.063-52.86-20.836-2.67-1.034-3.72-2.364-2.71-5.841c1.613-5.767,3.162-11.237,4.775-17.009c1.209-4.306,3.406-1.596,5.203-1.441Z" fill="#866ff8"/><path d="M726.534,304.998c.515.116.72.291,1.006,1.031.074,3.594-.122,6.648.147,9.642.115,1.283,1.197,2.444,1.875,3.928c2.338,2.868,4.643,5.468,6.756,7.851c1.205-.394,2.137-.7,3.07-1.005-.086,9.864-.171,19.727-.633,29.997-1.581.834-2.782,1.616-3.99,1.633-8.048.112-16.098.092-24.147.024-1.035-.008-2.066-.544-3.099-.835-.16-8.467-.32-16.933-.538-25.73.041-7.291.134-14.252.242-21.212.072-4.664.529-5.207,4.393-5.226c4.869-.023,9.739-.027,14.918-.098Zm-10.252,26.351c-.383.638-.766,1.277-1.149,1.916.64.356,1.275,1.005,1.921,1.021c3.984.097,7.972.142,11.952-.021.84-.035,1.653-1.01,2.479-1.551-.891-.469-1.773-1.309-2.675-1.342-3.981-.146-7.968-.059-12.528-.023Zm8.203,4.951c-2.554.009-5.112-.069-7.659.095-.553.035-1.066.936-1.597,1.438.489.386.973,1.097,1.468,1.106c4.44.084,8.883.082,13.323-.013.475-.01.939-.769,1.409-1.181-.434-.465-.84-1.282-1.305-1.332-1.653-.179-3.326-.096-5.639-.113Zm-6.312,4.766c-.968.51-1.936,1.021-2.905,1.531.923.421,1.837,1.171,2.77,1.205c3.775.137,7.557.12,11.333-.005.691-.023,1.363-.815,2.044-1.252-.66-.488-1.309-1.369-1.983-1.397-3.552-.146-7.111-.076-11.259-.082Zm7.984,7.524c1.583-.526,1.846-2.041.293-2.237-3.665-.46-7.398-.147-11.104-.147-.052.656-.103,1.312-.155,1.969c3.356.928,6.915.24,10.966.415Z" fill="#508df4"/><path d="M726.534,304.998c.515.116.72.291,1.006,1.031.074,3.594-.122,6.648.147,9.642.115,1.283,1.197,2.444,1.875,3.928c2.338,2.868,4.643,5.468,6.756,7.851c1.205-.394,2.137-.7,3.07-1.005-.086,9.864-.171,19.727-.633,29.997-1.581.834-2.782,1.616-3.99,1.633-8.048.112-16.098.092-24.147.024-1.035-.008-2.066-.544-3.099-.835-.16-8.467-.32-16.933-.538-25.73.041-7.291.134-14.252.242-21.212.072-4.664.529-5.207,4.393-5.226c4.869-.023,9.739-.027,14.918-.098Zm-10.252,26.351c-.383.638-.766,1.277-1.149,1.916.64.356,1.275,1.005,1.921,1.021c3.984.097,7.972.142,11.952-.021.84-.035,1.653-1.01,2.479-1.551-.891-.469-1.773-1.309-2.675-1.342-3.981-.146-7.968-.059-12.528-.023Zm8.203,4.951c-2.554.009-5.112-.069-7.659.095-.553.035-1.066.936-1.597,1.438.489.386.973,1.097,1.468,1.106c4.44.084,8.883.082,13.323-.013.475-.01.939-.769,1.409-1.181-.434-.465-.84-1.282-1.305-1.332-1.653-.179-3.326-.096-5.639-.113Zm-6.312,4.766c-.968.51-1.936,1.021-2.905,1.531.923.421,1.837,1.171,2.77,1.205c3.775.137,7.557.12,11.333-.005.691-.023,1.363-.815,2.044-1.252-.66-.488-1.309-1.369-1.983-1.397-3.552-.146-7.111-.076-11.259-.082Zm7.984,7.524c1.583-.526,1.846-2.041.293-2.237-3.665-.46-7.398-.147-11.104-.147-.052.656-.103,1.312-.155,1.969c3.356.928,6.915.24,10.966.415Z" fill="#df484a"/><path d="M707.512,357.567c1.04-.012,2.071.524,3.106.532c8.049.068,16.099.088,24.147-.024c1.208-.017,2.409-.799,3.855-1.339c1.298,3.53.19,6.029-2.835,6.189-7.388.391-14.473.963-22.177.786-6.089,0-5.486-1.801-6.096-6.144Z" fill="#232333" stroke="#000"/><path d="M729.527,319.331c-.643-1.216-1.725-2.377-1.84-3.66-.269-2.994-.073-6.048-.055-9.443c2.488,2.49,4.966,5.346,7.653,8.302c1.274,1.466,2.339,2.833,3.266,4.446-3.1.283-6.062.319-9.024.355Z" fill="#c9d4fe"/><path d="M729.562,319.599c2.927-.304,5.889-.34,9.07-.387.421,2.172.622,4.356.789,6.886-.966.652-1.898.958-3.104,1.352-2.112-2.383-4.417-4.983-6.755-7.851Z" fill="#cbd4fa"/><path d="M716.57,331.332c4.272-.019,8.259-.106,12.24.04.902.033,1.784.873,2.675,1.342-.826.541-1.639,1.516-2.479,1.551-3.98.163-7.968.118-11.952.021-.646-.016-1.281-.665-1.921-1.021.383-.639.766-1.278,1.437-1.933Z" fill="#c9d4fe"/><path d="M724.809,336.301c1.989.016,3.662-.067,5.315.112.465.05.871.867,1.305,1.332-.47.412-.934,1.171-1.409,1.181-4.44.095-8.883.097-13.323.013-.495-.009-.979-.72-1.468-1.106.531-.502,1.044-1.403,1.597-1.438c2.547-.164,5.105-.086,7.983-.094Z" fill="#ebe7fb"/><path d="M718.469,341.066c3.852.006,7.411-.064,10.963.082.674.028,1.323.909,1.983,1.397-.681.437-1.353,1.229-2.044,1.252-3.776.125-7.558.142-11.333.005-.933-.034-1.847-.784-2.77-1.205.969-.51,1.937-1.02,3.201-1.531Z" fill="#ebe7fb"/><path d="M725.855,348.605c-3.749-.19-7.308.498-10.664-.43.052-.657.103-1.313.155-1.969c3.706,0,7.439-.313,11.104.147c1.553.196,1.29,1.711-.595,2.252Z" fill="#ebe7fb"/><path d="M715.56,376.142v-6.517h2.202c.511,0,.929.093,1.253.277.327.183.569.43.726.742s.235.659.235,1.043-.078.733-.235,1.047c-.155.314-.395.565-.719.751-.325.185-.741.277-1.248.277h-1.578v-.7h1.553c.35,0,.631-.06.843-.181s.366-.285.461-.49c.098-.208.147-.443.147-.704c0-.26-.049-.494-.147-.7-.095-.205-.25-.367-.464-.483-.214-.119-.499-.178-.853-.178h-1.387v5.816h-.789Zm7.698,0h-2.011v-6.517h2.101c.632,0,1.173.131,1.622.392.45.259.795.631,1.035,1.117.239.483.359,1.063.359,1.737c0,.679-.121,1.263-.363,1.753-.241.488-.594.864-1.056,1.127-.463.261-1.025.391-1.687.391Zm-1.221-.7h1.171c.538,0,.985-.104,1.339-.312s.619-.503.792-.887c.174-.384.261-.842.261-1.372c0-.526-.085-.979-.257-1.359-.172-.381-.429-.674-.77-.878-.342-.206-.767-.308-1.276-.308h-1.26v5.116Zm-6.477,11.7v-6.517h3.907v.701h-3.118v2.201h2.825v.701h-2.825v2.914h-.789Z" fill="#fff"/><path d="M154.414,84.414l-2.536-2.536c-.562-.562-1.325-.878-2.121-.878L135,81c-1.105,0-2,.895-2,2v30c0,1.105.895,2,2,2h38c1.105,0,2-.895,2-2v-26c0-1.105-.895-2-2-2h-17.172c-.53,0-1.039-.211-1.414-.586Z" fill="url(#eAGmjSfLWpb81-fill)"/><path d="M154,97l3.854-3.854c.093-.093.22-.146.353-.146h16.603c1.176,0,2.098,1.01,1.992,2.181l-1.636,18c-.094,1.03-.958,1.819-1.992,1.819h-38.384c-1.019,0-1.875-.766-1.988-1.779l-1.74-15.666c-.033-.296.199-.555.497-.555L154,97Z" fill="url(#eAGmjSfLWpb82-fill)"/><path d="M160.908,466.012l-2.607-2.315-8.884,11.011h-12.021v3.584h12.02l8.885,11.011l2.607-2.315-8.462-10.488l8.462-10.488Z" fill="#64717c"/><path d="M136.542,481.875c2.83,0,5.125-2.406,5.125-5.375s-2.295-5.375-5.125-5.375c-2.831,0-5.125,2.406-5.125,5.375s2.294,5.375,5.125,5.375Z" fill="url(#eAGmjSfLWpb84-fill)"/><path d="M159.604,470.229c2.831,0,5.125-2.406,5.125-5.375c0-2.968-2.294-5.375-5.125-5.375-2.83,0-5.125,2.407-5.125,5.375c0,2.969,2.295,5.375,5.125,5.375Z" fill="url(#eAGmjSfLWpb85-fill)"/><path d="M159.604,493.521c2.831,0,5.125-2.407,5.125-5.375c0-2.969-2.294-5.375-5.125-5.375-2.83,0-5.125,2.406-5.125,5.375c0,2.968,2.295,5.375,5.125,5.375Z" fill="url(#eAGmjSfLWpb86-fill)"/><path d="M172,79.5c-1.268,0-2.446-.526-3.316-1.483l-.084-.092-.118-.042C164.306,76.396,161.5,72.424,161.5,68v-14.619c0-2.615,2.127-4.742,4.742-4.742h11.516c2.615,0,4.742,2.127,4.742,4.742v14.619c0,4.424-2.806,8.396-6.982,9.883l-.118.042-.084.092c-.87.957-2.048,1.483-3.316,1.483Z" fill="#fff"/><path d="M177.758,49.139c2.339,0,4.242,1.903,4.242,4.242L182,68c0,4.213-2.672,7.995-6.65,9.412l-.236.084-.168.185C174.172,78.532,173.125,79,172,79s-2.172-.469-2.946-1.32l-.168-.185-.236-.084C164.672,75.995,162,72.213,162,68v-14.619c0-2.339,1.903-4.242,4.242-4.242h11.516Zm0-1h-11.516c-2.895,0-5.242,2.347-5.242,5.242L161,68c0,4.78,3.055,8.837,7.314,10.354C169.229,79.358,170.534,80,172,80s2.771-.642,3.686-1.647C179.945,76.837,183,72.78,183,68v-14.619c0-2.895-2.347-5.242-5.242-5.242Z" fill="#4788c7"/><path d="M177.75,65.072c-.178,0-.355.0351-.519.1033-.165.0682-.315.1682-.441.2942s-.225.2756-.294.4402c-.068.1646-.103.3411-.103.5193s.035.3547.103.5193c.069.1646.168.3142.294.4402.126.1261.276.226.441.2942.164.0682.341.1033.519.1033s.355-.0351.519-.1033c.165-.0682.315-.1681.441-.2942.126-.126.226-.2756.294-.4402s.103-.3411.103-.5193-.035-.3547-.103-.5193-.168-.3142-.294-.4402-.276-.226-.441-.2942c-.164-.0682-.341-.1033-.519-.1033Zm-10.857,0c-.178,0-.355.0351-.519.1033-.165.0682-.315.1682-.441.2942s-.225.2756-.294.4402c-.068.1646-.103.3411-.103.5193s.035.3547.103.5193c.069.1646.168.3142.294.4402.126.1261.276.226.441.2942.164.0682.341.1033.519.1033s.355-.0351.519-.1033c.165-.0682.315-.1681.441-.2942.126-.126.226-.2756.294-.4402s.103-.3411.103-.5193-.035-.3547-.103-.5193-.168-.3142-.294-.4402-.276-.226-.441-.2942c-.164-.0682-.341-.1033-.519-.1033Z" fill="#4788c7"/><path d="M184,78.5c-2.786,0-5.358-.999-6.593-1.566c1.599-1.12,5.093-4.142,5.093-9.147v-6.904c0-3.774-4.073-6.211-4.247-6.313l-.446-.263-.247.455c-.026.048-2.695,4.82-9.379,5.743-3.218.445-6.681,2.731-6.681,6.699l1,.083-1-.023v.522c0,5.072,3.832,8.21,5.622,9.399-1.339.494-3.901,1.315-6.122,1.315-3.864,0-5.765-1.786-6.366-2.493.807-1.034,3.258-4.381,3.258-6.863c0-1.341-.31-2.886-.638-4.521-.37-1.851-.754-3.763-.754-5.623c0-10.328,7.354-16.5,14.464-16.5c5.34,0,7.583,3.716,7.604,3.753l.146.247h.286c4.605,0,9.5,3.68,9.5,10.5c0,2.219-.486,4.549-.957,6.803-.408,1.955-.793,3.801-.793,5.341c0,3.088,3.11,5.84,4.412,6.857-1.124.785-3.946,2.499-7.162,2.499Z" fill="#b6dcfe"/><path d="M170.964,43c5.008,0,7.09,3.367,7.173,3.506l.29.494h.573c4.363,0,9,3.505,9,10c0,2.167-.481,4.472-.946,6.7-.413,1.981-.804,3.852-.804,5.443c0,2.921,2.545,5.52,4.071,6.816C189.021,76.78,186.643,78,184,78c-2.202,0-4.273-.65-5.606-1.186c1.817-1.461,4.606-4.45,4.606-9.028v-6.904c0-4.057-4.31-6.636-4.493-6.744l-.894-.525-.492.913c-.025.046-2.546,4.592-9.007,5.484-3.427.473-7.114,2.926-7.114,7.194v.06.522c0,4.629,3.035,7.71,5.048,9.245-1.377.453-3.326.969-5.048.969-3.192,0-4.955-1.279-5.71-2.023c1.022-1.354,3.103-4.407,3.103-6.834c0-1.39-.315-2.959-.648-4.619C157.379,62.698,157,60.811,157,59c0-10.015,7.1-16,13.964-16Zm0-1C163.53,42,156,48.471,156,59c0,3.586,1.393,7.382,1.393,10.143s-3.393,6.857-3.393,6.857s1.925,3,7,3c3.303,0,7.246-1.719,7.246-1.719s-6.246-3.246-6.246-9.495c0-.444,0-.522,0-.522v.023c0,0,0-.017,0-.083c0-3.678,3.242-5.788,6.25-6.204c7.038-.972,9.75-6,9.75-6s4,2.35,4,5.882c0,1.527,0,4.397,0,6.904c0,6.13-5.607,9.202-5.607,9.202s3.552,2.012,7.607,2.012c4.392,0,8-3,8-3s-4.75-3.254-4.75-6.857c0-3.201,1.75-7.9,1.75-12.143c0-7.196-5.274-11-10-11c0,0-2.348-4-8.036-4Z" fill="#4788c7"/><path d="M501.102,77.8793l.082.5405l1.757-.1802c0,.3088.981.7463,1.84.8493.858.103,2.575.3088,2.575-.0772c0-.3861.777-.2574.777-.2574l13.734,1.1581.45-10.7318-23.423-1.2879-8.788,8.4682l10.505,1.3897.491.1287Z" fill="#2f2210"/><path d="M488.103,75.1256c-.613.6176-2.33,1.3125.981,1.7757s11.527,2.0074,12.018,2.0074c.49,0,1.349,0,1.962,0s3.311.6949,3.924.7721s16.923,1.3897,17.904,1.3897s1.84-.2316,1.717-1.0037c-.122-.772-.49-9.5737-.613-10.1141s-.613-.7721-1.717-.8493c-1.103-.0772-23.545-1.1581-24.894-1.3125s-2.575-.1544-3.066.1544c-.49.3088-8.216,7.1803-8.216,7.1803Z" fill="#6b1804"/><path d="M490.801,76.3609l-.491-.7721l9.075-8.4928l9.81.5935-6.131,9.3663.368.6948-12.631-1.3897Z" fill="#fcf9f4"/><path d="M503.432,77.7506l-12.631-1.3897-.491-.7721l12.754,1.467l6.131-9.3663v.6419l-5.763,9.4192Z" fill="#cfc8c8"/><path d="M505.394,77.3646l15.084,1.3897-.368.8493-14.716-1.4669v-.7721Z" fill="#cfc8c8"/><path d="M510.912,68.0997l10.547.5405-.981,10.1141-15.084-1.3897l5.518-9.2649Z" fill="#f7f8f8"/><path d="M497.055,70.2615l-1.472,1.5442h-1.103l-.123-.7721.858-.6949l1.84-.0772Z" fill="#eab368"/><path d="M497.791,68.6402l-.736-.1544-.777.6948h.981l.532-.5404Z" fill="#de4e59"/><path d="M496.074,70.2615l-.859.0772l1.063-1.1581h.777l-.981,1.0809Z" fill="#448f6e"/><path d="M503.003,75.3186c.735-.386,3.065-.4632,3.801.3088" fill="none" stroke="#000" stroke-width="4" stroke-linecap="round"/><path d="M503.984,74.0061c.735-.386,3.065-.4633,3.801.3088" fill="none" stroke="#000" stroke-width="4" stroke-linecap="round"/><path d="M504.842,72.7464c.736-.3861,3.066-.4633,3.802.3088" fill="none" stroke="#000" stroke-width="4" stroke-linecap="round"/><path d="M506.804,69.9913c.68-.386,2.835-.4632,3.516.3088" fill="none" stroke="#000" stroke-width="4" stroke-linecap="round"/><path d="M507.417,68.9104c.681-.386,2.835-.4632,3.516.3088" fill="none" stroke="#000" stroke-width="4" stroke-linecap="round"/><path d="M507.785,68.2155c.681-.386,2.835-.4632,3.516.3089" fill="none" stroke="#000" stroke-width="4" stroke-linecap="round"/><path d="M521.009,76.3609l1.185.0515.123-.9265h-1.553l-.082.7206.327.1544Z" fill="#de4e59"/><path d="M520.641,77.5447h1.472l.081-1.1323h-1.471l-.082,1.1323Z" fill="#448f6e"/><path d="M520.764,75.4859h1.553v-1.0552l-1.39-.1544-.163,1.2096Z" fill="#eab368"/><path d="M520.886,74.8425h.695v-.3089l.859-.1029-.123-.9522-.736-.0772v-.3847h-.531l-.164,1.8259Z" fill="#a4709f"/><path d="M520.478,78.7543h1.349l.04-1.2096h-1.226l-.163,1.2096Z" fill="#64749b"/><path d="M494.48,71.8057h-.491l-1.635,1.3382h.613l1.513-1.3382Z" fill="#64749b"/><path d="M498.445,68.0997h-.654l-.736.3861.736.1544.654-.5405Z" fill="#a4709f"/><path d="M506.436,76.9915l13.367,1.1581-13.367-1.1581Z" fill="#eab368"/><path d="M506.436,76.9915l13.367,1.1581" fill="none" stroke="#a89696" stroke-width="2" stroke-linecap="round"/><path d="M506.559,76.6311l13.367,1.1581-13.367-1.1581Z" fill="#eab368"/><path d="M506.559,76.6311l13.367,1.1581" fill="none" stroke="#a89696" stroke-width="2" stroke-linecap="round"/><path d="M506.804,76.2451l13.122,1.1581-13.122-1.1581Z" fill="#eab368"/><path d="M506.804,76.2451l13.122,1.1581" fill="none" stroke="#a89696" stroke-width="2" stroke-linecap="round"/><path d="M507.009,75.8333l12.917,1.1324-12.917-1.1324Z" fill="#eab368"/><path d="M507.009,75.8333l12.917,1.1324" fill="none" stroke="#a89696" stroke-width="2" stroke-linecap="round"/><path d="M507.417,75.4215l12.386,1.0295-12.386-1.0295Z" fill="#eab368"/><path d="M507.417,75.4215l12.386,1.0295" fill="none" stroke="#a89696" stroke-width="2" stroke-linecap="round"/><path d="M492.19,74.8033l9.811,1.0551-9.811-1.0551Z" fill="#eab368"/><path d="M492.19,74.8033l9.811,1.0551" fill="none" stroke="#a89696" stroke-width="2" stroke-linecap="round"/><path d="M492.599,74.3149l9.811,1.0552-9.811-1.0552Z" fill="#eab368"/><path d="M492.599,74.3149l9.811,1.0552" fill="none" stroke="#a89696" stroke-width="2" stroke-linecap="round"/><path d="M492.906,73.9791l9.81,1.0552-9.81-1.0552Z" fill="#eab368"/><path d="M492.906,73.9791l9.81,1.0552" fill="none" stroke="#a89696" stroke-width="2" stroke-linecap="round"/><path d="M493.192,73.7218l9.811,1.0551-9.811-1.0551Z" fill="#eab368"/><path d="M493.192,73.7218l9.811,1.0551" fill="none" stroke="#a89696" stroke-width="2" stroke-linecap="round"/><path d="M493.437,73.4405l9.811,1.0552-9.811-1.0552Z" fill="#eab368"/><path d="M493.437,73.4405l9.811,1.0552" fill="none" stroke="#a89696" stroke-width="2" stroke-linecap="round"/><path d="M493.928,73.0552l9.81,1.0552-9.81-1.0552Z" fill="#eab368"/><path d="M493.928,73.0552l9.81,1.0552" fill="none" stroke="#a89696" stroke-width="2" stroke-linecap="round"/><path d="M494.296,72.6666l9.81,1.0552-9.81-1.0552Z" fill="#eab368"/><path d="M494.296,72.6666l9.81,1.0552" fill="none" stroke="#a89696" stroke-width="2" stroke-linecap="round"/><path d="M494.541,72.3854l9.81,1.0551-9.81-1.0551Z" fill="#eab368"/><path d="M494.541,72.3854l9.81,1.0551" fill="none" stroke="#a89696" stroke-width="2" stroke-linecap="round"/><path d="M495.031,72.1274l9.811,1.0551-9.811-1.0551Z" fill="#eab368"/><path d="M495.031,72.1274l9.811,1.0551" fill="none" stroke="#a89696" stroke-width="2" stroke-linecap="round"/><path d="M495.277,71.8443l9.074.9522-9.074-.9522Z" fill="#eab368"/><path d="M495.277,71.8443l9.074.9522" fill="none" stroke="#a89696" stroke-width="2" stroke-linecap="round"/><path d="M495.645,71.2266l9.81,1.0552-9.81-1.0552Z" fill="#eab368"/><path d="M495.645,71.2266l9.81,1.0552" fill="none" stroke="#a89696" stroke-width="2" stroke-linecap="round"/><path d="M495.89,70.9435l9.81,1.0552-9.81-1.0552Z" fill="#eab368"/><path d="M495.89,70.9435l9.81,1.0552" fill="none" stroke="#a89696" stroke-width="2" stroke-linecap="round"/><path d="M496.34,70.6605l9.81,1.0551-9.81-1.0551Z" fill="#eab368"/><path d="M496.34,70.6605l9.81,1.0551" fill="none" stroke="#a89696" stroke-width="2" stroke-linecap="round"/><path d="M496.626,70.3773l9.81,1.0552-9.81-1.0552Z" fill="#eab368"/><path d="M496.626,70.3773l9.81,1.0552" fill="none" stroke="#a89696" stroke-width="2" stroke-linecap="round"/><path d="M499.201,67.9313l8.421.5931-8.421-.5931Z" fill="#eab368"/><path d="M499.201,67.9313l8.421.5931" fill="none" stroke="#a89696" stroke-width="2" stroke-linecap="round"/><path d="M497.116,69.8626l9.443.8996-9.443-.8996Z" fill="#eab368"/><path d="M497.116,69.8626l9.443.8996" fill="none" stroke="#a89696" stroke-width="2" stroke-linecap="round"/><path d="M498.956,68.37l8.053.5919-8.053-.5919Z" fill="#eab368"/><path d="M498.956,68.37l8.053.5919" fill="none" stroke="#a89696" stroke-width="2" stroke-linecap="round"/><path d="M497.688,69.5538l9.034.8235-9.034-.8235Z" fill="#eab368"/><path d="M497.688,69.5538l9.034.8235" fill="none" stroke="#a89696" stroke-width="2" stroke-linecap="round"/><path d="M498.179,69.2192l8.38.7721-8.38-.7721Z" fill="#eab368"/><path d="M498.179,69.2192l8.38.7721" fill="none" stroke="#a89696" stroke-width="2" stroke-linecap="round"/><path d="M498.506,68.6788l8.911.7557-8.911-.7557Z" fill="#eab368"/><path d="M498.506,68.6788l8.911.7557" fill="none" stroke="#a89696" stroke-width="2" stroke-linecap="round"/><path d="M507.785,75.0343l12.141,1.0307-12.141-1.0307Z" fill="#eab368"/><path d="M507.785,75.0343l12.141,1.0307" fill="none" stroke="#a89696" stroke-width="2" stroke-linecap="round"/><path d="M507.99,74.598l11.936,1.0294L507.99,74.598Z" fill="#eab368"/><path d="M507.99,74.598l11.936,1.0294" fill="none" stroke="#a89696" stroke-width="2" stroke-linecap="round"/><path d="M508.398,73.992l11.732,1.0423-11.732-1.0423Z" fill="#eab368"/><path d="M508.398,73.992l11.732,1.0423" fill="none" stroke="#a89696" stroke-width="2" stroke-linecap="round"/><path d="M508.644,73.5557l11.486.94-11.486-.94Z" fill="#eab368"/><path d="M508.644,73.5557l11.486.94" fill="none" stroke="#a89696" stroke-width="2" stroke-linecap="round"/><path d="M511.587,68.4015l9.402.5604-9.402-.5604Z" fill="#eab368"/><path d="M511.587,68.4015l9.402.5604" fill="none" stroke="#a89696" stroke-width="2" stroke-linecap="round"/><path d="M511.301,68.8741l9.688.5604-9.688-.5604Z" fill="#eab368"/><path d="M511.301,68.8741l9.688.5604" fill="none" stroke="#a89696" stroke-width="2" stroke-linecap="round"/><path d="M510.933,69.5181l9.851.5504-9.851-.5504Z" fill="#eab368"/><path d="M510.933,69.5181l9.851.5504" fill="none" stroke="#a89696" stroke-width="2" stroke-linecap="round"/><path d="M510.728,69.8626l10.056.5504-10.056-.5504Z" fill="#eab368"/><path d="M510.728,69.8626l10.056.5504" fill="none" stroke="#a89696" stroke-width="2" stroke-linecap="round"/><path d="M510.32,70.6297l10.219.5969-10.219-.5969Z" fill="#eab368"/><path d="M510.32,70.6297l10.219.5969" fill="none" stroke="#a89696" stroke-width="2" stroke-linecap="round"/><path d="M509.993,70.9435l10.505.6949-10.505-.6949Z" fill="#eab368"/><path d="M509.993,70.9435l10.505.6949" fill="none" stroke="#a89696" stroke-width="2" stroke-linecap="round"/><path d="M509.747,71.2266l10.669.7464-10.669-.7464Z" fill="#eab368"/><path d="M509.747,71.2266l10.669.7464" fill="none" stroke="#a89696" stroke-width="2" stroke-linecap="round"/><path d="M509.625,71.5869l10.791.7985-10.791-.7985Z" fill="#eab368"/><path d="M509.625,71.5869l10.791.7985" fill="none" stroke="#a89696" stroke-width="2" stroke-linecap="round"/><path d="M509.339,71.9212l10.995.8242-10.995-.8242Z" fill="#eab368"/><path d="M509.339,71.9212l10.995.8242" fill="none" stroke="#a89696" stroke-width="2" stroke-linecap="round"/><path d="M509.257,73.1825l10.873.8703-10.873-.8703Z" fill="#eab368"/><path d="M509.257,73.1825l10.873.8703" fill="none" stroke="#a89696" stroke-width="2" stroke-linecap="round"/><path d="M509.257,72.6855l10.873.8444-10.873-.8444Z" fill="#eab368"/><path d="M509.257,72.6855l10.873.8444" fill="none" stroke="#a89696" stroke-width="2" stroke-linecap="round"/><path d="M526.294,75.2285c1.051,0,3.626-1.0526,3.504-1.8266-.123-.7739-.246-1.6734-.491-2.008s-2.207-1.5365-3.229-1.7255-.94.5907-.491,1.0551c.45.4645.666.6961,1.034.8248s1.746.6837,1.542,1.1585c-.205.4747-2.003.6951-2.003.6951l.134,1.8266Z" fill="#5f1806"/><g clip-path="url(#eAGmjSfLWpb206)"><g><path d="M858.654,474.514c-1.763,0-3.509.344-5.138,1.013-1.629.668-3.109,1.649-4.355,2.885-1.247,1.236-2.236,2.703-2.911,4.317-.674,1.615-1.021,3.346-1.021,5.094c0,3.529,1.414,6.914,3.932,9.41s5.932,3.898,9.493,3.898c3.56,0,6.975-1.402,9.492-3.898c2.518-2.496,3.933-5.881,3.933-9.41c0-1.748-.347-3.479-1.022-5.094-.675-1.614-1.664-3.081-2.91-4.317-1.247-1.236-2.727-2.217-4.356-2.885-1.629-.669-3.374-1.013-5.137-1.013Zm0,.845c1.651,0,3.286.322,4.811.948c1.525.627,2.911,1.545,4.079,2.702c1.167,1.158,2.094,2.532,2.725,4.044.632,1.512.957,3.133.957,4.77c0,3.305-1.324,6.475-3.682,8.812-2.358,2.338-5.556,3.651-8.89,3.651-3.335,0-6.533-1.313-8.89-3.651-2.358-2.337-3.683-5.507-3.683-8.812c0-1.637.325-3.258.957-4.77s1.558-2.886,2.725-4.044c1.168-1.157,2.554-2.075,4.079-2.702c1.526-.626,3.161-.948,4.812-.948Z" fill="#4183d7"/><path d="M858.654,499.85c6.7,0,12.132-5.385,12.132-12.028c0-6.642-5.432-12.027-12.132-12.027-6.701,0-12.132,5.385-12.132,12.027c0,6.643,5.431,12.028,12.132,12.028Z" fill="#6bb9f0"/><path d="M850.484,471.71c-2.021.953-3.063,3.198-2.479,5.342c3.212-.99,5.821-2.377,8.251-3.881-1.323-1.797-3.749-2.411-5.772-1.461Z" fill="#6bb9f0"/><path d="M850.556,470.632c-.123-.256-.432-.365-.689-.244-.257.122-.366.429-.242.685l.069.144c.124.256.433.365.69.243s.366-.428.242-.684l-.07-.144Z" fill="#6bb9f0"/><path d="M850.454,498.935l-1.079,2.471c-.271.62-.198,1.303.335,1.615.532.312,1.186.056,1.588-.49l1.608-2.185c-.865-.383-1.687-.856-2.452-1.411Z" fill="#6bb9f0"/><path d="M867.136,498.935l1.079,2.471c.271.62.198,1.303-.335,1.615s-1.186.056-1.588-.49l-1.608-2.185c.865-.383,1.687-.856,2.452-1.411Z" fill="#6bb9f0"/><path d="M867.26,471.71c2.022.953,3.064,3.198,2.479,5.342-3.211-.99-5.82-2.377-8.251-3.881c1.324-1.797,3.75-2.411,5.772-1.461Z" fill="#6bb9f0"/><path d="M867.188,470.632c.124-.256.433-.365.69-.244.257.122.365.429.242.685l-.07.144c-.123.256-.432.365-.689.243s-.366-.428-.242-.684l.069-.144Z" fill="#6bb9f0"/><path d="M858.597,477.012l-.939,1.364h.521v8.995.871.01h.868v-.01h6.622v.485l1.383-.932-1.383-.931v.517h-6.622v-.01-8.995h.489l-.939-1.364Z" fill="#22313f"/></g><clipPath id="eAGmjSfLWpb206"><rect width="31" height="36" rx="0" ry="0" transform="translate(843 469)" fill="#fff"/></clipPath></g><path d="M791,194.27l6.18,3.73-1.64-7.03l5.46-4.73-7.19-.61L791,179l-2.81,6.63-7.19.61l5.46,4.73-1.64,7.03l6.18-3.73Z" fill="#fbbc04"/><g clip-path="url(#eAGmjSfLWpb216)"><g><path d="M128,252c2.626,0,5.227.44,7.654,1.294c2.426.854,4.631,2.107,6.488,3.685c1.857,1.579,3.33,3.453,4.336,5.515.996,2.024,1.517,4.25,1.522,6.506c0,2.233-.517,4.443-1.522,6.506-1.006,2.062-2.479,3.936-4.336,5.515-1.857,1.578-4.062,2.83-6.488,3.685-2.46.86-5.048,1.298-7.654,1.294v-34Z" fill="#985184"/><path d="M143,252c2.626,0,5.227.44,7.654,1.294c2.426.854,4.631,2.107,6.488,3.685c1.857,1.579,3.33,3.453,4.336,5.515.996,2.024,1.517,4.25,1.522,6.506c0,2.233-.517,4.443-1.522,6.506-1.006,2.062-2.479,3.936-4.336,5.515-1.857,1.578-4.062,2.83-6.488,3.685-2.46.86-5.048,1.298-7.654,1.294v-34Z" fill="#2ebcfa"/><path d="M143,257.756c1.457,1.404,2.633,3.005,3.478,4.739.996,2.024,1.517,4.249,1.522,6.505c0,2.233-.517,4.443-1.522,6.506-.845,1.734-2.021,3.335-3.478,4.739v-22.489Z" fill="#144496"/><path d="M158,252c2.626,0,5.227.44,7.654,1.294c2.426.854,4.631,2.107,6.488,3.685c1.857,1.579,3.33,3.453,4.336,5.515.996,2.024,1.517,4.25,1.522,6.506c0,2.233-.517,4.443-1.522,6.506-1.006,2.062-2.479,3.936-4.336,5.515-1.857,1.578-4.062,2.83-6.488,3.685-2.46.86-5.048,1.298-7.654,1.294v-34Z" fill="#fc868b"/><path d="M158,257.756c1.457,1.404,2.633,3.005,3.478,4.739.996,2.024,1.517,4.249,1.522,6.505c0,2.233-.517,4.443-1.522,6.506-.845,1.734-2.021,3.335-3.478,4.739v-22.489Z" fill="#2d6388"/></g><clipPath id="eAGmjSfLWpb216"><rect width="50" height="50" rx="0" ry="0" transform="translate(128 244)" fill="#fff"/></clipPath></g><path d="M517,487c0,1.857-.737,3.637-2.05,4.95s-3.093,2.05-4.95,2.05-3.637-.737-4.95-2.05-2.05-3.093-2.05-4.95.737-3.637,2.05-4.95s3.093-2.05,4.95-2.05s3.637.737,4.95,2.05s2.05,3.093,2.05,4.95Z" fill="#985184"/><path d="M510,508c-11.598,0-21-9.402-21-21s9.402-21,21-21s21,9.402,21,21c0,5.799-2.35,11.049-6.15,14.85l-6.365-6.365c1.116-1.113,2.001-2.436,2.604-3.892s.913-3.017.911-4.593c0-6.627-5.373-12-12-12s-12,5.373-12,12s5.373,12,12,12v9Z" fill="#1ad3bb"/><path d="M510,499c-3.115.004-6.109-1.207-8.345-3.377-.553,1.366-.762,2.848-.609,4.314.154,1.466.665,2.872,1.489,4.094.824,1.223,1.936,2.224,3.238,2.916c1.301.692,2.753,1.053,4.227,1.053h13c0-1.182-.233-2.352-.685-3.444s-1.115-2.084-1.951-2.92-1.828-1.499-2.92-1.951-2.262-.685-3.444-.685h-4Z" clip-rule="evenodd" fill="#985184" fill-rule="evenodd"/><path d="M852,59c0,5.523-4.477,10-10,10s-10-4.477-10-10s4.477-10,10-10s10,4.477,10,10Z" fill="#2ebcfa"/><path d="M867,67c0,.6566-.129,1.3068-.381,1.9134-.251.6066-.619,1.1578-1.083,1.6221-.465.4643-1.016.8326-1.623,1.0839-.606.2513-1.256.3806-1.913.3806s-1.307-.1293-1.913-.3806c-.607-.2513-1.158-.6196-1.623-1.0839-.464-.4643-.832-1.0155-1.083-1.6221C857.129,68.3068,857,67.6566,857,67c0-1.3261.527-2.5979,1.464-3.5355C859.402,62.5268,860.674,62,862,62s2.598.5268,3.536,1.4645C866.473,64.4021,867,65.6739,867,67Zm-27,7h26c1.061,0,2.078.4214,2.828,1.1716C869.579,75.9217,870,76.9391,870,78v5c0,1.0609-.421,2.0783-1.172,2.8284C868.078,86.5786,867.061,87,866,87h-22c-1.061,0-2.078-.4214-2.828-1.1716C840.421,85.0783,840,84.0609,840,83v-9Z" fill="#144496"/><path d="M828,74h16c7.18,0,13,5.82,13,13h-16c-7.18,0-13-5.82-13-13Z" fill="#2ebcfa"/><path d="M841.617,65h.787v-1.138c2.154-.132,3.596-1.194,3.596-2.957v-.014c0-1.554-.997-2.332-2.962-2.762l-.634-.132v-2.013c.69.111,1.143.493,1.24,1.139l.008.014l2.188-.007.007-.007c-.077-1.687-1.338-2.811-3.443-2.957v-1.166h-.787v1.16c-2.05.096-3.52,1.151-3.52,2.886v.014c0,1.562,1.032,2.402,2.893,2.811l.627.132v2.054c-.816-.076-1.29-.416-1.401-1.027l-.007-.014-2.195.007-.014.007c.056,1.777,1.491,2.755,3.617,2.839v1.131Zm-1.185-8.127v-.014c0-.5.404-.82,1.185-.889v1.847c-.809-.216-1.185-.486-1.185-.944Zm3.234,4.282v.014c0,.534-.454.819-1.262.888v-1.88c.906.228,1.262.464,1.262.978Z" fill="#fff"/></g><clipPath id="eAGmjSfLWpb225"><rect width="962" height="610" rx="0" ry="0" fill="#fff"/></clipPath></g></svg>
