<svg width="962" height="610" viewBox="0 0 962 610" fill="none" xmlns="http://www.w3.org/2000/svg">
<rect width="962" height="610" fill="#F5F5F5"/>
<g clip-path="url(#clip0_0_1)">
<rect width="962" height="610" fill="white"/>
<path d="M379.503 420.821C379.452 406.805 379.361 392.788 379.356 378.772C379.341 342.777 379.364 306.782 379.743 270.421C458.526 270.053 536.938 270.058 615.349 270.019C617.323 270.018 619.296 269.522 621.316 269.625C621.374 273.564 621.287 277.141 621.472 280.699C621.516 281.556 622.46 282.348 622.991 283.17C623.439 282.372 624.236 281.597 624.275 280.771C624.445 277.211 624.392 273.636 624.733 270.063C627.099 270.057 629.15 270.056 631.249 270.422C631.288 286.152 631.28 301.514 631.006 316.873C628.475 316.335 626.209 315.8 623.726 315.066C611.581 313.309 600.585 316.147 590.81 324.696C574.828 338.673 568.656 357.712 572.196 380.474C574.712 396.656 582.436 409.419 594.872 417.6C596.168 418.452 597.295 419.667 598.193 420.753C525.093 420.801 452.298 420.811 379.503 420.821Z" fill="#FFDA67"/>
<path d="M471.342 157.38C484.053 157.362 496.458 157.446 508.863 157.499C514.514 157.523 520.166 157.484 526.427 157.48C531.267 157.544 535.497 157.602 539.742 158.006C539.759 170.145 539.761 181.937 539.452 193.752C530.252 193.783 521.361 193.789 512.471 193.8C511.583 193.801 510.632 193.613 509.827 193.93C509.262 194.152 508.553 195.072 508.537 195.703C508.52 196.345 509.169 197.356 509.714 197.591C510.506 197.933 511.466 197.74 512.354 197.748C521.683 197.836 531.012 197.919 540.458 198.285C541.502 198.827 542.431 199.309 543.36 199.312C556.849 199.361 570.337 199.367 583.826 199.308C584.999 199.302 586.17 198.765 587.572 198.687C587.806 209.626 587.81 220.354 587.679 231.1C587.545 231.118 587.289 231.217 586.968 231.179C557.676 231.151 528.703 231.153 499.731 231.203C498.582 231.205 497.433 231.673 496.062 231.959C493.181 234.875 490.524 237.755 487.535 240.628C471.326 240.618 455.448 240.614 439.569 240.615C438.682 240.615 437.754 240.485 436.922 240.753C436.442 240.907 435.804 241.743 435.809 242.264C435.814 242.785 436.466 243.594 436.952 243.746C437.787 244.006 438.713 243.87 439.601 243.872C454.701 243.903 469.802 243.93 484.797 244.178C480.489 250.869 474.632 252.594 468.153 252.587C451.343 252.569 434.533 252.57 417.7 252.193C417.617 237.844 417.556 223.864 417.495 209.883C417.551 193.762 417.592 177.641 417.695 161.521C417.704 160.191 418.14 158.865 418.624 157.411C432.05 157.355 445.228 157.434 458.406 157.493C462.616 157.512 466.827 157.478 471.342 157.38ZM485.342 224.774C470.204 224.774 455.065 224.774 439.926 224.776C439.036 224.776 438.07 224.549 437.279 224.888C436.622 225.17 436.171 226.131 435.629 226.791C436.191 227.426 436.669 228.306 437.338 228.627C438.011 228.95 438.873 228.725 439.652 228.726C479.948 228.727 520.244 228.727 560.54 228.725C561.43 228.725 562.426 228.984 563.18 228.595C563.93 228.208 564.438 227.154 565.051 226.393C564.418 225.857 563.841 225.08 563.137 224.849C562.309 224.577 561.371 224.775 560.48 224.775C535.657 224.774 510.834 224.774 485.342 224.774ZM439.377 209.636C439.043 209.636 438.668 209.52 438.382 209.659C437.477 210.099 436.606 210.635 435.721 211.134C436.641 211.722 437.538 212.372 438.492 212.865C438.867 213.058 439.371 212.897 439.817 212.897C480.222 212.898 520.628 212.912 561.034 212.834C562.363 212.831 563.691 211.888 565.02 211.383C563.644 210.801 562.27 209.712 560.894 209.709C520.6 209.618 480.305 209.635 439.377 209.636ZM472.649 193.798C461.189 193.798 449.728 193.755 438.269 193.886C437.387 193.896 436.514 195.127 435.637 195.79C436.524 196.443 437.408 197.659 438.298 197.665C455.877 197.777 473.457 197.777 491.037 197.663C491.921 197.657 492.8 196.418 493.681 195.752C492.79 195.101 491.91 193.913 491.007 193.887C485.113 193.717 479.214 193.798 472.649 193.798Z" fill="#E6DEDE"/>
<path d="M587.289 231.217C587.289 231.217 587.545 231.118 587.991 231.179C599.833 231.196 611.228 231.151 622.849 231.182C623.376 231.348 623.677 231.439 624.061 231.651C624.292 231.902 624.457 231.953 624.882 231.934C629.398 234.015 631.242 237.114 631.31 242.325C631.341 244.685 631.384 247.044 631.375 249.772C631.286 256.778 631.244 263.416 631.202 270.054C629.15 270.056 627.099 270.057 624.708 269.69C624.362 262.719 624.37 256.117 624.342 249.515C624.316 243.224 622.383 240.906 617.102 240.895C605.774 240.871 594.446 240.817 583.119 240.972C581.622 240.992 580.137 242.159 578.646 242.794C580.093 243.334 581.537 244.324 582.988 244.341C594.204 244.471 605.422 244.402 616.639 244.419C620.838 244.425 621.413 245.15 621.391 250.208C621.388 250.998 621.324 251.788 621.035 252.673C619.375 256.279 619.616 261.638 621.316 264.042C621.328 266.01 621.299 267.634 621.27 269.257C619.296 269.522 617.323 270.018 615.349 270.019C536.938 270.058 458.526 270.053 379.805 270.055C379.453 265.773 379.412 261.491 379.745 256.86C410.38 256.52 440.642 256.439 470.903 256.619C476.053 256.649 480.432 254.624 483.987 250.798C489.499 244.863 494.517 238.279 500.053 231.963C527.944 231.957 555.525 231.969 583.106 231.927C584.501 231.925 585.894 231.464 587.289 231.217ZM571.743 240.929C569.073 240.935 566.398 240.849 563.735 241.022C563.176 241.058 562.66 242.047 562.124 242.597C562.616 243.184 563.087 244.247 563.603 244.279C566.266 244.441 568.961 244.575 571.602 244.243C573.283 244.031 573.954 242.712 571.743 240.929Z" fill="#FFD963"/>
<path d="M270.414 279.843C278.28 302.489 265.878 325.96 245.743 327.003C231.635 327.734 218.946 314.453 217.246 297.178C215.622 280.666 225.642 264.375 239.327 261.277C252.467 258.302 263.72 264.945 270.414 279.843ZM245.501 307.384C247.784 307.384 250.067 307.384 252.351 307.384C252.675 302.182 253.138 297.521 248.986 294.86C246.036 292.969 242.959 292.993 240.136 295.26C236.447 298.222 237.022 302.636 237.395 307.384C239.999 307.384 242.42 307.384 245.501 307.384ZM241.528 288.356C243.134 288.644 244.988 289.661 246.285 289.037C247.92 288.251 249.954 286.315 250.234 284.525C250.507 282.779 249.168 280.061 247.852 278.723C245.762 276.599 242.027 277.519 240.318 280.02C238.315 282.95 238.895 285.626 241.528 288.356ZM256.211 300.414C256.333 302.606 256.454 304.798 256.582 307.107C258.43 307.107 260.02 307.107 261.554 307.107C262.877 300.006 261.272 294.723 255.336 295.962C255.582 297.232 255.827 298.496 256.211 300.414ZM231.407 307.374C232.038 306.708 233.111 306.132 233.221 305.361C233.674 302.203 233.833 298.986 234.101 295.79C228.853 294.575 226.601 300.031 228.262 307.197C229.067 307.256 229.931 307.319 231.407 307.374ZM232.914 291.475C235.107 291.479 237.194 290.7 237 287.754C236.905 286.306 235.265 284.028 234.171 283.894C232.823 283.729 230.66 284.987 230.027 286.384C229.011 288.626 230.251 290.595 232.914 291.475ZM252.619 288.396C253.59 291.186 255.491 292.273 257.643 291.047C258.715 290.436 260 288.012 259.719 286.964C259.342 285.551 257.636 283.962 256.339 283.73C254.213 283.35 252.497 284.697 252.619 288.396Z" fill="#FCFDFD"/>
<path d="M314.558 220.958C300.723 214.788 292.949 199.527 295.101 183.167C297.316 166.33 308.512 154.395 322.928 153.502C337.623 152.592 351.406 166.679 352.795 184.029C354.322 203.078 343.828 220.023 328.581 222.212C324.097 222.856 319.408 221.493 314.558 220.958ZM306.92 172.208C306.413 173.201 305.511 174.171 305.467 175.192C305.298 179.144 304.94 183.227 305.608 187.024C305.917 188.786 308.266 190.401 309.979 191.333C311.228 192.012 312.949 191.466 314.777 191.466C314.777 194.247 314.777 196.412 314.777 199.192C315.725 198.306 316.269 197.906 316.702 197.377C319.682 193.737 322.63 190.482 327.571 191.284C329.917 191.665 331.276 189.19 331.356 186.306C331.441 183.27 331.43 180.228 331.388 177.19C331.324 172.608 329.801 170.797 325.851 170.739C320.962 170.668 316.07 170.648 311.182 170.769C309.902 170.8 308.632 171.438 306.92 172.208ZM329.121 196.586C325.808 197.016 322.119 196.499 320.274 202.292C326.631 199.727 329.634 205.705 333.71 209.601C333.915 206.791 333.452 204.033 334.395 202.827C335.292 201.679 337.668 202.234 339.373 201.889C341.89 201.38 343.299 199.601 343.322 196.481C343.344 193.448 343.404 190.411 343.313 187.382C343.164 182.415 340.558 180.381 336.076 181.934C336.661 188.349 335.684 194.028 329.121 196.586Z" fill="#FCFDFD"/>
<path d="M379.487 252.7C379.441 241.769 379.302 230.836 379.394 219.905C379.432 215.394 381.667 212.366 385.567 210.567C386.95 210.353 387.858 210.139 388.767 209.925C389.09 209.898 389.412 209.87 390.13 210.027C391.275 210.049 392.026 209.886 392.777 209.723C399.941 209.764 407.105 209.805 414.707 210.165C415.275 212.032 415.515 213.58 415.521 215.13C415.567 227.601 415.57 240.073 415.271 252.587C403.133 252.653 391.31 252.677 379.487 252.7Z" fill="#FFB900"/>
<path d="M335.695 372.225C326.846 366.152 322.97 356.674 324.635 345.555C326.133 335.55 332.774 327.972 341.733 326.046C351.497 323.947 361.951 331.778 364.584 343.381C365.422 347.077 365.321 351.253 369.966 352.066C369.705 352.448 369.445 352.83 369.185 353.212C368.097 352.752 367.01 352.292 365.589 351.691C364.467 361.479 360.458 368.922 352.69 372.885C347.085 375.745 341.443 375.376 335.695 372.225ZM331.926 343.601C331.928 348.753 331.917 353.906 331.939 359.058C331.951 362.001 333.002 363.876 335.695 363.879C341.251 363.885 346.807 363.906 352.363 363.853C354.939 363.828 356.191 362.194 356.177 359.105C356.149 352.763 356.155 346.421 356.17 340.08C356.179 336.649 354.837 334.995 351.89 335.047C347.446 335.127 343 335.065 338.556 335.066C332.253 335.069 331.933 335.445 331.926 343.601Z" fill="#FCFDFD"/>
<path d="M336.179 254.512C336.37 257.757 336.677 261 336.726 264.248C336.815 270.193 336.692 276.142 336.775 282.086C336.816 285.045 335.877 286.542 333.286 286.522C326.829 286.473 320.372 286.472 313.915 286.521C311.335 286.541 310.455 285.125 310.48 282.114C310.575 270.647 310.568 259.177 310.484 247.709C310.462 244.723 311.338 243.223 313.928 243.275C318.153 243.358 322.379 243.375 326.721 243.887C326.422 255.604 326.166 255.399 335.581 254.835C335.785 254.822 335.98 254.624 336.179 254.512ZM317.178 263.881C317.178 268.719 317.178 273.558 317.178 278.439C321.621 278.439 325.767 278.439 329.953 278.439C329.953 273.167 329.953 268.205 329.953 263.264C325.646 263.264 321.566 263.264 317.178 263.881Z" fill="#F2B60B"/>
<path d="M379.471 421.116C452.298 420.811 525.093 420.801 598.498 420.828C600.937 420.866 602.765 420.867 604.881 420.892C608.601 421.503 612.033 422.09 615.263 422.81C611.896 423.093 608.729 423.242 605.273 423.406C587.423 423.372 569.864 423.296 552.304 423.282C541.195 423.273 530.086 423.356 518.677 423.347C507.066 423.331 495.754 423.364 484.128 423.322C459.615 423.295 435.416 423.343 410.88 423.314C400.323 423.18 390.104 423.124 379.884 423.067C379.736 422.515 379.588 421.962 379.471 421.116Z" fill="#D97B16"/>
<path d="M379.436 253.011C391.31 252.677 403.133 252.653 415.535 252.649C416.65 252.633 417.186 252.598 417.723 252.563C434.533 252.57 451.343 252.569 468.153 252.587C474.632 252.594 480.489 250.869 484.988 244.026C486.144 242.648 487.005 241.642 487.866 240.636C490.524 237.755 493.181 234.875 496.35 231.946C497.823 231.922 498.783 231.946 499.744 231.97C494.517 238.279 489.499 244.863 483.987 250.798C480.432 254.624 476.053 256.649 470.903 256.619C440.642 256.439 410.38 256.52 379.809 256.491C379.461 255.419 379.422 254.37 379.436 253.011Z" fill="#FFE69B"/>
<path d="M518.977 423.397C530.086 423.356 541.195 423.273 552.304 423.282C569.864 423.296 587.423 423.372 605.313 423.585C605.601 424.004 605.632 424.245 605.735 424.473C605.735 424.473 605.472 424.592 605.065 424.609C601.517 424.708 598.375 424.789 595.234 424.871C593.205 424.807 591.177 424.743 588.854 424.775C575.912 424.839 563.266 424.793 550.619 424.78C540.297 424.769 529.975 424.799 519.321 424.514C518.986 423.944 518.981 423.67 518.977 423.397Z" fill="#DCDCDC"/>
<path d="M411.218 423.392C435.416 423.343 459.615 423.295 484.109 423.527C484.396 424.079 484.387 424.352 484.378 424.624C471.589 424.666 458.8 424.747 446.012 424.739C434.552 424.732 423.093 424.626 411.391 424.356C411.118 423.889 411.141 423.637 411.218 423.392Z" fill="#DCDCDC"/>
<path d="M417.7 252.193C417.187 252.598 416.65 252.633 415.85 252.606C415.57 240.073 415.567 227.601 415.521 215.13C415.515 213.58 415.275 212.032 415.02 210.205C415.588 209.916 416.28 209.905 417.233 209.889C417.556 223.863 417.617 237.844 417.7 252.193Z" fill="#D97B16"/>
<path d="M410.88 423.314C411.141 423.637 411.118 423.889 411.09 424.329C408.271 424.623 405.51 424.836 402.749 424.833C390.317 424.82 377.885 424.746 365.129 424.451C364.771 423.922 364.737 423.635 364.703 423.347C369.527 423.297 374.352 423.247 379.53 423.132C390.104 423.124 400.323 423.18 410.88 423.314Z" fill="#8E8F97"/>
<path d="M484.685 424.682C484.387 424.352 484.396 424.079 484.424 423.602C495.754 423.364 507.066 423.331 518.677 423.347C518.981 423.67 518.986 423.944 519.015 424.421C507.69 424.663 496.341 424.701 484.685 424.682Z" fill="#FCFDFD"/>
<path d="M336.035 254.273C335.98 254.624 335.785 254.822 335.581 254.835C326.166 255.399 326.422 255.604 326.933 244.048C329.983 247.173 332.937 250.604 336.035 254.273Z" fill="#FDDC76"/>
<path d="M392.728 209.494C392.026 209.887 391.275 210.05 390.372 210.047C391.04 209.676 391.86 209.47 392.728 209.494Z" fill="#D97B16"/>
<path d="M388.535 209.843C387.858 210.139 386.95 210.353 385.804 210.532C386.479 210.252 387.391 210.007 388.535 209.843Z" fill="#D97B16"/>
<path d="M606.017 424.616C605.632 424.245 605.601 424.004 605.603 423.571C608.729 423.242 611.896 423.093 615.625 422.786C620.977 422.576 625.766 422.522 630.749 422.723C631.268 423.054 631.592 423.199 631.917 423.201C660.242 423.365 688.567 423.526 716.891 423.628C717.795 423.631 718.701 423.014 719.845 422.755C721.847 422.774 723.611 422.726 725.517 422.916C726.272 423.291 726.885 423.428 727.498 423.565C728.885 423.642 730.271 423.719 731.658 423.797C731.661 424.105 731.664 424.414 731.666 424.723C716.237 424.723 700.807 424.723 685.068 424.791C667.15 424.864 649.54 424.87 631.62 424.932C627.505 424.957 623.701 424.927 619.313 424.912C617.805 424.959 616.88 424.993 615.955 425.026C615.449 424.989 614.942 424.951 613.902 424.92C612.227 424.959 611.085 424.993 609.943 425.026C608.728 424.937 607.514 424.848 606.017 424.616Z" fill="#8E8F97"/>
<path d="M673.988 377.574C681.424 380.6 688.859 383.626 696.785 386.755C702.677 388.935 708.079 391.013 713.482 393.091C713.8 393.346 714.119 393.602 714.832 393.913C715.758 394.162 716.29 394.356 716.822 394.549C717.753 394.919 718.683 395.289 720.032 395.879C721.672 396.505 722.896 396.91 724.119 397.315C727.855 398.965 731.206 401.23 732.731 405.926C734.611 411.714 732.853 417.286 727.498 421.902C726.514 422.289 725.944 422.483 725.374 422.677C723.611 422.726 721.847 422.774 719.58 422.701C701.631 415.648 684.208 408.638 666.72 401.865C664.05 400.831 663 399.501 664.01 396.024C665.623 390.257 667.172 384.787 668.785 379.015C669.994 374.709 672.191 377.419 673.988 377.574Z" fill="#866FF8"/>
<path d="M668.722 379.318C667.173 384.787 665.623 390.257 663.786 395.979C662.391 395.591 661.283 394.95 660.202 394.325C653.773 407.722 644.706 417.099 631.964 421.021C631.425 421.187 631.022 421.972 630.555 422.469C625.766 422.522 620.977 422.576 615.826 422.652C612.033 422.09 608.601 421.503 604.81 420.635C603.525 419.7 602.642 418.931 601.665 418.412C596.26 415.546 591.585 411.574 587.414 406.518C569.104 384.321 571.231 346.163 591.891 327.152C601.363 318.436 612.088 314.763 623.943 315.264C626.209 315.8 628.475 316.335 631.199 317.031C632.655 317.585 633.652 317.977 634.65 318.37C650.649 325.388 660.46 338.89 664.553 359.112C664.684 366.051 664.684 372.401 664.684 378.591C666.333 378.888 667.527 379.103 668.722 379.318ZM631.864 412.947C647.292 408.004 658.735 389.622 658.812 369.657C658.892 348.851 647.675 330.729 630.873 324.933C625.476 324.448 619.952 322.846 614.705 323.686C598.234 326.322 585.431 340.916 582.103 359.595C578.713 378.627 585.488 397.898 599.803 408.412C609.6 415.607 620.208 417.689 631.864 412.947Z" fill="#EBE7FB"/>
<path d="M623.726 315.066C612.088 314.763 601.363 318.436 591.891 327.152C571.231 346.163 569.104 384.321 587.414 406.518C591.585 411.574 596.26 415.546 601.665 418.412C602.642 418.931 603.525 419.7 604.522 420.61C602.765 420.867 600.937 420.866 598.804 420.79C597.295 419.667 596.168 418.452 594.872 417.6C582.436 409.419 574.712 396.656 572.196 380.474C568.656 357.712 574.828 338.673 590.81 324.696C600.585 316.147 611.581 313.309 623.726 315.066Z" fill="#E7BE54"/>
<path d="M621.316 269.625C621.299 267.634 621.328 266.01 621.365 263.677C621.344 259.504 621.316 256.041 621.288 252.578C621.324 251.788 621.388 250.998 621.391 250.208C621.413 245.15 620.838 244.425 616.639 244.419C605.422 244.402 594.204 244.471 582.988 244.341C581.537 244.324 580.093 243.334 578.646 242.794C580.137 242.159 581.622 240.992 583.119 240.972C594.446 240.817 605.774 240.871 617.102 240.895C622.384 240.906 624.316 243.224 624.342 249.515C624.37 256.117 624.362 262.719 624.395 269.694C624.392 273.636 624.445 277.211 624.275 280.771C624.236 281.597 623.439 282.372 622.991 283.17C622.46 282.348 621.516 281.556 621.472 280.699C621.287 277.141 621.374 273.564 621.316 269.625Z" fill="#FCFDFD"/>
<path d="M567.485 180.655C571.319 184.015 574.881 187.355 578.602 190.422C579.368 191.054 580.729 190.77 581.81 190.721C582.569 190.687 583.318 190.334 584.352 190.911C583.546 191.598 582.739 192.285 581.716 193.156C583.637 194.88 585.378 196.443 587.231 198.241C586.17 198.765 584.999 199.302 583.826 199.308C570.337 199.367 556.849 199.361 543.36 199.312C542.431 199.309 541.502 198.827 540.443 198.064C540.13 196.283 539.946 195.006 539.763 193.728C539.761 181.937 539.759 170.145 539.742 158.006C540.783 158.193 541.969 158.513 542.874 159.294C551.034 166.329 559.145 173.446 567.485 180.655Z" fill="#DCDCDC"/>
<path d="M485.676 224.774C510.834 224.774 535.657 224.774 560.48 224.775C561.371 224.775 562.309 224.577 563.137 224.849C563.841 225.08 564.418 225.857 565.051 226.393C564.438 227.154 563.93 228.208 563.18 228.595C562.426 228.984 561.43 228.725 560.54 228.725C520.244 228.727 479.948 228.727 439.652 228.725C438.873 228.725 438.011 228.95 437.338 228.627C436.669 228.306 436.191 227.426 435.629 226.791C436.171 226.131 436.622 225.17 437.279 224.888C438.07 224.549 439.036 224.776 439.926 224.776C455.065 224.774 470.204 224.774 485.676 224.774Z" fill="#C9D4FE"/>
<path d="M439.694 209.635C480.305 209.635 520.599 209.618 560.894 209.709C562.27 209.712 563.644 210.801 565.02 211.383C563.691 211.888 562.363 212.831 561.034 212.834C520.628 212.912 480.222 212.898 439.817 212.897C439.371 212.897 438.867 213.058 438.492 212.865C437.538 212.372 436.641 211.722 435.721 211.134C436.605 210.635 437.477 210.099 438.382 209.659C438.668 209.52 439.043 209.636 439.694 209.635Z" fill="#C9D4FE"/>
<path d="M472.983 193.798C479.214 193.798 485.113 193.717 491.007 193.887C491.91 193.913 492.79 195.102 493.681 195.752C492.8 196.418 491.921 197.657 491.037 197.663C473.457 197.777 455.877 197.777 438.298 197.665C437.408 197.659 436.524 196.443 435.637 195.79C436.514 195.127 437.387 193.896 438.269 193.886C449.728 193.755 461.189 193.798 472.983 193.798Z" fill="#C9D4FE"/>
<path d="M487.535 240.628C487.005 241.642 486.144 242.648 485.093 243.806C469.802 243.93 454.701 243.903 439.601 243.872C438.713 243.87 437.787 244.006 436.952 243.746C436.466 243.594 435.814 242.785 435.809 242.264C435.804 241.743 436.442 240.907 436.922 240.753C437.754 240.485 438.682 240.615 439.569 240.615C455.448 240.614 471.326 240.618 487.535 240.628Z" fill="#C9D4FE"/>
<path d="M539.452 193.752C539.946 195.006 540.13 196.283 540.327 197.782C531.012 197.919 521.683 197.836 512.354 197.748C511.466 197.739 510.506 197.933 509.714 197.591C509.169 197.356 508.52 196.345 508.537 195.703C508.553 195.072 509.262 194.152 509.826 193.93C510.632 193.613 511.583 193.801 512.471 193.8C521.361 193.789 530.252 193.783 539.452 193.752Z" fill="#C9D4FE"/>
<path d="M500.053 231.963C498.783 231.946 497.823 231.922 496.573 231.911C497.433 231.673 498.582 231.205 499.731 231.203C528.703 231.153 557.676 231.151 586.968 231.179C585.894 231.464 584.501 231.925 583.106 231.927C555.525 231.969 527.944 231.957 500.053 231.963Z" fill="#E7BE54"/>
<path d="M572.019 240.996C573.954 242.712 573.283 244.031 571.602 244.243C568.961 244.575 566.266 244.441 563.603 244.278C563.087 244.247 562.616 243.184 562.124 242.597C562.66 242.047 563.176 241.058 563.735 241.022C566.398 240.849 569.073 240.935 572.019 240.996Z" fill="#FCFDFD"/>
<path d="M621.035 252.673C621.316 256.041 621.344 259.504 621.323 263.332C619.616 261.638 619.375 256.279 621.035 252.673Z" fill="#FFDA67"/>
<path d="M624.061 231.651C624.174 231.399 624.344 231.437 624.563 231.785C624.457 231.953 624.292 231.902 624.061 231.651Z" fill="#E7BE54"/>
<path d="M245.172 307.384C242.42 307.384 239.999 307.384 237.395 307.384C237.022 302.636 236.447 298.222 240.136 295.26C242.959 292.993 246.036 292.969 248.986 294.86C253.138 297.521 252.675 302.182 252.351 307.384C250.067 307.384 247.784 307.384 245.172 307.384Z" fill="#8490F9"/>
<path d="M241.317 288.189C238.895 285.626 238.315 282.95 240.318 280.02C242.027 277.519 245.762 276.598 247.852 278.723C249.168 280.061 250.507 282.779 250.234 284.525C249.954 286.315 247.92 288.251 246.284 289.037C244.988 289.661 243.134 288.644 241.317 288.189Z" fill="#8490F9"/>
<path d="M256.141 300.087C255.827 298.496 255.582 297.232 255.336 295.962C261.272 294.723 262.877 300.006 261.554 307.106C260.02 307.106 258.43 307.106 256.582 307.106C256.454 304.798 256.333 302.606 256.141 300.087Z" fill="#8490F9"/>
<path d="M231.101 307.378C229.931 307.319 229.067 307.256 228.262 307.197C226.601 300.031 228.853 294.575 234.101 295.79C233.833 298.986 233.674 302.203 233.221 305.361C233.111 306.132 232.038 306.708 231.101 307.378Z" fill="#8490F9"/>
<path d="M232.649 291.437C230.251 290.595 229.011 288.626 230.027 286.384C230.66 284.986 232.823 283.729 234.171 283.894C235.265 284.028 236.905 286.306 237 287.754C237.194 290.7 235.107 291.479 232.649 291.437Z" fill="#8490F9"/>
<path d="M252.574 288.089C252.497 284.697 254.213 283.35 256.339 283.73C257.636 283.962 259.342 285.551 259.719 286.964C260 288.012 258.715 290.436 257.643 291.047C255.491 292.273 253.59 291.186 252.574 288.089Z" fill="#8490F9"/>
<path d="M306.92 175.321C308.413 174.756 309.683 174.118 310.964 174.087C315.852 173.966 320.743 173.986 325.633 174.058C329.583 174.115 331.106 175.926 331.169 180.508C331.211 183.546 331.223 186.588 331.138 189.624C331.057 192.508 329.699 194.983 327.352 194.602C322.412 193.8 319.464 197.055 316.483 200.695C316.05 201.224 315.506 201.625 314.558 202.51C314.558 199.73 314.558 197.565 314.558 194.784C312.731 194.784 311.009 195.33 309.76 194.651C308.047 193.719 305.699 192.104 305.389 190.343C304.722 186.545 305.079 182.462 305.249 178.51C305.293 177.489 306.194 176.52 306.92 175.321Z" fill="#6FE7B8"/>
<path d="M329.378 196.491C335.684 194.028 336.661 188.349 336.076 181.934C340.558 180.381 343.164 182.415 343.313 187.382C343.404 190.411 343.344 193.448 343.322 196.481C343.299 199.601 341.89 201.38 339.373 201.889C337.668 202.234 335.292 201.679 334.395 202.827C333.452 204.033 333.915 206.791 333.71 209.601C329.634 205.705 326.631 199.727 320.274 202.292C322.119 196.499 325.808 197.016 329.378 196.491Z" fill="#6FE7B8"/>
<path d="M331.926 343.219C331.933 335.445 332.253 335.069 338.556 335.066C343 335.065 347.446 335.127 351.89 335.047C354.837 334.995 356.178 336.649 356.17 340.08C356.155 346.421 356.149 352.763 356.177 359.105C356.191 362.194 354.939 363.828 352.363 363.853C346.807 363.906 341.251 363.885 335.695 363.879C333.002 363.876 331.951 362.001 331.939 359.058C331.917 353.906 331.928 348.753 331.926 343.219ZM347.76 342.534C347.672 346.613 347.47 350.697 347.583 354.769C347.608 355.707 348.714 356.604 349.322 357.519C349.842 356.558 350.758 355.625 350.809 354.63C350.99 351.077 350.903 347.502 350.868 343.936C350.845 341.591 349.96 340.784 347.76 342.534ZM345.93 353.517C345.923 351.687 346.14 349.801 345.822 348.051C345.645 347.076 344.58 346.329 343.915 345.48C343.342 346.299 342.387 347.05 342.275 347.95C342.02 349.998 341.954 352.165 342.252 354.192C342.434 355.435 343.43 356.51 344.061 357.66C344.684 356.504 345.306 355.349 345.93 353.517ZM340.588 355.304C340.017 354.118 339.445 352.933 338.873 351.747C338.337 352.256 337.369 352.744 337.351 353.277C337.307 354.596 337.697 355.936 337.913 357.267C338.779 356.83 339.645 356.392 340.588 355.304Z" fill="#3E84F6"/>
<path d="M317.332 263.573C321.566 263.264 325.646 263.264 329.953 263.264C329.953 268.205 329.953 273.167 329.953 278.439C325.767 278.439 321.621 278.439 317.178 278.439C317.178 273.558 317.178 268.72 317.332 263.573ZM326.198 267.447C323.788 267.447 321.377 267.447 318.913 267.447C318.913 269.915 318.913 271.927 318.913 273.831C322.217 273.831 325.267 273.831 328.643 273.831C327.882 271.486 330.183 268.496 326.198 267.447Z" fill="#FCFDFD"/>
<path d="M726.534 304.998C727.049 305.114 727.254 305.289 727.54 306.029C727.614 309.623 727.418 312.677 727.687 315.671C727.802 316.954 728.884 318.115 729.562 319.599C731.9 322.467 734.205 325.067 736.318 327.45C737.523 327.056 738.455 326.75 739.388 326.445C739.302 336.309 739.217 346.172 738.755 356.442C737.174 357.276 735.973 358.058 734.765 358.075C726.717 358.187 718.667 358.167 710.618 358.099C709.583 358.091 708.552 357.555 707.519 357.264C707.359 348.797 707.199 340.331 706.981 331.534C707.022 324.243 707.115 317.282 707.223 310.322C707.295 305.658 707.752 305.115 711.616 305.096C716.485 305.073 721.355 305.069 726.534 304.998ZM716.282 331.349C715.899 331.987 715.516 332.626 715.133 333.265C715.773 333.621 716.408 334.27 717.054 334.286C721.038 334.383 725.026 334.428 729.006 334.265C729.846 334.23 730.659 333.255 731.485 332.714C730.594 332.245 729.712 331.405 728.81 331.372C724.829 331.226 720.842 331.313 716.282 331.349ZM724.485 336.3C721.931 336.309 719.373 336.231 716.826 336.395C716.273 336.43 715.76 337.331 715.229 337.833C715.718 338.219 716.202 338.93 716.697 338.939C721.137 339.023 725.58 339.021 730.02 338.926C730.495 338.916 730.959 338.157 731.429 337.745C730.995 337.28 730.589 336.463 730.124 336.413C728.471 336.234 726.798 336.317 724.485 336.3ZM718.173 341.066C717.205 341.576 716.237 342.087 715.268 342.597C716.191 343.018 717.105 343.768 718.038 343.802C721.813 343.939 725.595 343.922 729.371 343.797C730.062 343.774 730.734 342.982 731.415 342.545C730.755 342.057 730.106 341.176 729.432 341.148C725.88 341.002 722.321 341.072 718.173 341.066ZM726.157 348.59C727.74 348.064 728.003 346.549 726.45 346.353C722.785 345.893 719.052 346.206 715.346 346.206C715.294 346.862 715.243 347.518 715.191 348.175C718.547 349.103 722.106 348.415 726.157 348.59Z" fill="#508DF4"/>
<path d="M707.512 357.567C708.552 357.555 709.583 358.091 710.618 358.099C718.667 358.167 726.717 358.187 734.765 358.075C735.973 358.058 737.174 357.276 738.62 356.736C739.918 360.266 738.81 362.765 735.785 362.925C728.397 363.316 721.002 363.629 713.608 363.711C710.452 363.746 708.122 361.91 707.512 357.567Z" fill="#232333"/>
<path d="M729.527 319.331C728.884 318.115 727.802 316.954 727.687 315.671C727.418 312.677 727.614 309.623 727.632 306.228C730.12 308.718 732.598 311.574 735.285 314.53C736.559 315.996 737.624 317.363 738.551 318.976C735.451 319.259 732.489 319.295 729.527 319.331Z" fill="#C9D4FE"/>
<path d="M729.562 319.599C732.489 319.295 735.451 319.259 738.632 319.212C739.053 321.384 739.254 323.568 739.421 326.098C738.455 326.75 737.523 327.056 736.317 327.45C734.205 325.067 731.9 322.467 729.562 319.599Z" fill="#3E84F6"/>
<path d="M663.621 163.882C666.52 163.816 669.275 163.378 671.877 163.941C680.936 165.897 686.875 172.158 689.29 183.503C690.524 190.075 689.13 195.51 686.94 200.794C686.935 200.803 686.925 200.819 686.925 200.819C683.006 207.489 677.891 212.017 670.898 212.643C660.512 213.574 652.099 206.304 649.016 193.882C649.035 189.475 649.164 185.317 649.293 180.837C651.354 175.183 653.864 170.287 658.461 167.072C660.185 165.884 661.797 164.926 663.621 163.882ZM656.419 187.188C656.844 191.537 657.269 195.885 657.646 199.737C660.425 200.073 663.821 200.439 667.208 200.902C674.637 201.917 681.271 196.011 681.41 188.21C681.533 181.312 676.896 175.636 670.455 174.801C663.576 173.91 657.74 178.791 656.419 187.188Z" fill="#FCFDFD"/>
<path d="M788.783 233.778C787.404 234.456 786.129 235.065 784.851 235.079C776.86 235.168 768.869 235.146 760.878 235.114C757.238 235.099 756.364 234.09 756.355 229.756C756.324 215.326 756.36 200.895 756.323 186.465C756.316 183.55 757.17 181.617 760.004 181.114C765.677 181.133 771.106 181.224 776.74 181.893C776.938 185.209 777.025 187.951 776.899 190.68C776.777 193.354 777.563 195.228 779.711 196.508C782.884 199.749 786.024 202.73 789.164 205.71C789.204 207.594 789.245 209.477 789.303 211.713C789.176 219.188 789.031 226.311 788.783 233.778ZM766.302 225.453C770.404 225.458 774.508 225.395 778.609 225.498C780.477 225.545 781.18 224.694 781.139 222.482C781.054 217.87 781.053 213.253 781.136 208.64C781.178 206.356 780.346 205.676 778.534 205.728C774.766 205.835 770.991 205.874 767.226 205.715C765.141 205.627 764.493 206.656 764.528 208.957C764.596 213.437 764.479 217.924 764.6 222.401C764.627 223.403 765.322 224.38 766.302 225.453Z" fill="#F2B60B"/>
<path d="M779.677 196.247C777.563 195.228 776.777 193.354 776.899 190.681C777.025 187.951 776.939 185.209 776.965 182.09C780.966 186.343 784.947 190.977 788.668 195.892C785.497 196.198 782.587 196.222 779.677 196.247Z" fill="#FDDC76"/>
<path d="M779.711 196.508C782.587 196.222 785.497 196.198 788.721 196.154C789.149 199.136 789.263 202.137 789.27 205.424C786.024 202.73 782.884 199.749 779.711 196.508Z" fill="#D97B16"/>
<path d="M631.372 413.043C620.208 417.689 609.6 415.607 599.803 408.412C585.488 397.898 578.713 378.627 582.103 359.595C585.431 340.916 598.234 326.322 614.705 323.686C619.952 322.846 625.476 324.448 631.084 325.443C631.297 327.679 631.299 329.406 631.045 331.139C621.538 327.402 612.826 328.94 604.74 335.236C603.655 336.081 603.273 338.201 602.565 339.73C604.029 339.678 605.497 339.682 606.954 339.534C607.341 339.494 607.681 338.956 608.066 338.694C615.586 333.582 623.355 332.868 631.35 337.212C631.333 362.733 631.353 387.888 631.372 413.043Z" fill="#FDDC76"/>
<path d="M347.936 342.247C349.96 340.784 350.845 341.591 350.868 343.936C350.903 347.502 350.99 351.077 350.809 354.63C350.758 355.625 349.842 356.558 349.322 357.519C348.714 356.604 347.608 355.707 347.583 354.769C347.47 350.697 347.672 346.613 347.936 342.247Z" fill="#FCFDFD"/>
<path d="M345.929 353.855C345.306 355.349 344.684 356.504 344.061 357.66C343.43 356.51 342.434 355.435 342.252 354.192C341.954 352.165 342.02 349.998 342.275 347.95C342.387 347.05 343.342 346.299 343.915 345.48C344.58 346.329 345.645 347.076 345.822 348.051C346.14 349.801 345.923 351.687 345.929 353.855Z" fill="#EBE7FB"/>
<path d="M340.55 355.629C339.645 356.392 338.779 356.83 337.913 357.267C337.697 355.936 337.307 354.596 337.351 353.277C337.369 352.744 338.337 352.256 338.873 351.747C339.445 352.933 340.017 354.118 340.55 355.629Z" fill="#FCFDFD"/>
<path d="M326.512 267.451C330.183 268.496 327.882 271.486 328.643 273.831C325.267 273.831 322.217 273.831 318.913 273.831C318.913 271.927 318.913 269.915 318.913 267.447C321.377 267.447 323.788 267.447 326.512 267.451Z" fill="#F2B60B"/>
<path d="M716.57 331.332C720.842 331.313 724.829 331.226 728.81 331.372C729.712 331.405 730.594 332.245 731.485 332.714C730.659 333.255 729.846 334.23 729.006 334.265C725.026 334.428 721.038 334.383 717.054 334.286C716.408 334.27 715.773 333.621 715.133 333.265C715.516 332.626 715.899 331.987 716.57 331.332Z" fill="#C9D4FE"/>
<path d="M724.809 336.301C726.798 336.317 728.471 336.234 730.124 336.413C730.589 336.463 730.995 337.28 731.429 337.745C730.959 338.157 730.495 338.916 730.02 338.926C725.58 339.021 721.137 339.023 716.697 338.939C716.202 338.93 715.718 338.219 715.229 337.833C715.76 337.331 716.273 336.43 716.826 336.395C719.373 336.231 721.931 336.309 724.809 336.301Z" fill="#EBE7FB"/>
<path d="M718.469 341.066C722.321 341.072 725.88 341.002 729.432 341.148C730.106 341.176 730.755 342.057 731.415 342.545C730.734 342.982 730.062 343.774 729.371 343.797C725.595 343.922 721.813 343.939 718.038 343.802C717.105 343.768 716.191 343.018 715.268 342.597C716.237 342.087 717.205 341.577 718.469 341.066Z" fill="#EBE7FB"/>
<path d="M725.855 348.605C722.106 348.415 718.547 349.103 715.191 348.175C715.243 347.518 715.294 346.862 715.346 346.206C719.052 346.206 722.785 345.893 726.45 346.353C728.003 346.549 727.74 348.064 725.855 348.605Z" fill="#EBE7FB"/>
<path d="M657.312 186.912C658.53 178.856 663.993 173.974 670.431 174.866C676.46 175.701 680.8 181.376 680.685 188.275C680.555 196.075 674.346 201.982 667.393 200.966C664.222 200.504 661.043 200.138 658.443 199.802C658.09 195.95 657.692 191.601 657.312 186.912ZM673.49 186.725C673.919 187.74 674.349 188.754 674.778 189.768C675.252 189.131 675.726 188.495 676.199 187.858C675.397 187.326 674.595 186.794 673.49 186.725ZM667.522 187.915C668.328 188.469 669.134 189.024 669.939 189.579C670.055 188.608 670.171 187.638 670.286 186.667C669.373 186.875 668.461 187.083 667.522 187.915ZM661.775 187.915C662.563 188.468 663.35 189.021 664.137 189.573C664.247 188.614 664.357 187.655 664.466 186.695C663.578 186.89 662.69 187.084 661.775 187.915Z" fill="#FFD963"/>
<path d="M766.006 225.411C765.322 224.38 764.628 223.403 764.6 222.401C764.479 217.924 764.596 213.437 764.528 208.957C764.493 206.656 765.141 205.627 767.226 205.715C770.991 205.874 774.766 205.835 778.534 205.728C780.346 205.676 781.178 206.356 781.136 208.64C781.053 213.253 781.054 217.87 781.139 222.482C781.18 224.694 780.477 225.545 778.609 225.498C774.508 225.395 770.404 225.458 766.006 225.411ZM777.132 211.281C773.723 211.281 770.315 211.281 766.982 211.281C766.982 214.405 766.982 216.983 766.982 219.652C771.056 219.652 774.884 219.652 779.548 219.652C778.892 216.576 778.33 213.936 777.132 211.281Z" fill="#FCFDFD"/>
<path d="M631.045 331.139C638.058 334.422 643.605 339.448 647.297 347.065C648.098 348.717 649.393 350.799 647.41 352.256C645.345 353.773 644.603 351.426 643.741 349.721C640.867 344.037 636.983 339.67 631.598 336.938C623.355 332.868 615.586 333.582 608.066 338.694C607.681 338.956 607.341 339.494 606.954 339.534C605.497 339.682 604.029 339.678 602.565 339.73C603.273 338.201 603.655 336.081 604.74 335.236C612.826 328.94 621.539 327.402 631.045 331.139Z" fill="#FCFDFD"/>
<path d="M777.449 211.288C778.33 213.936 778.892 216.576 779.548 219.652C774.884 219.652 771.056 219.652 766.982 219.652C766.982 216.983 766.982 214.405 766.982 211.281C770.315 211.281 773.723 211.281 777.449 211.288Z" fill="#F2B60B"/>
<path d="M673.988 377.574C681.424 380.6 688.859 383.626 696.785 386.755C702.677 388.935 708.079 391.013 713.482 393.091C713.8 393.346 714.119 393.602 714.832 393.913C715.758 394.162 716.29 394.356 716.822 394.549C717.753 394.919 718.683 395.289 720.032 395.879C721.672 396.505 722.896 396.91 724.119 397.315C727.855 398.965 731.206 401.23 732.731 405.926C734.611 411.714 732.853 417.286 727.498 421.902C726.514 422.289 725.944 422.483 725.374 422.677C723.611 422.726 721.847 422.774 719.58 422.701C701.631 415.648 684.208 408.638 666.72 401.865C664.05 400.831 663 399.501 664.01 396.024C665.623 390.257 667.172 384.787 668.785 379.015C669.994 374.709 672.191 377.419 673.988 377.574Z" fill="#866FF8"/>
<path d="M726.534 304.998C727.049 305.114 727.254 305.289 727.54 306.029C727.614 309.623 727.418 312.677 727.687 315.671C727.802 316.954 728.884 318.115 729.562 319.599C731.9 322.467 734.205 325.067 736.318 327.45C737.523 327.056 738.455 326.75 739.388 326.445C739.302 336.309 739.217 346.172 738.755 356.442C737.174 357.276 735.973 358.058 734.765 358.075C726.717 358.187 718.667 358.167 710.618 358.099C709.583 358.091 708.552 357.555 707.519 357.264C707.359 348.797 707.199 340.331 706.981 331.534C707.022 324.243 707.115 317.282 707.223 310.322C707.295 305.658 707.752 305.115 711.616 305.096C716.485 305.073 721.355 305.069 726.534 304.998ZM716.282 331.349C715.899 331.987 715.516 332.626 715.133 333.265C715.773 333.621 716.408 334.27 717.054 334.286C721.038 334.383 725.026 334.428 729.006 334.265C729.846 334.23 730.659 333.255 731.485 332.714C730.594 332.245 729.712 331.405 728.81 331.372C724.829 331.226 720.842 331.313 716.282 331.349ZM724.485 336.3C721.931 336.309 719.373 336.231 716.826 336.395C716.273 336.43 715.76 337.331 715.229 337.833C715.718 338.219 716.202 338.93 716.697 338.939C721.137 339.023 725.58 339.021 730.02 338.926C730.495 338.916 730.959 338.157 731.429 337.745C730.995 337.28 730.589 336.463 730.124 336.413C728.471 336.234 726.798 336.317 724.485 336.3ZM718.173 341.066C717.205 341.576 716.237 342.087 715.268 342.597C716.191 343.018 717.105 343.768 718.038 343.802C721.813 343.939 725.595 343.922 729.371 343.797C730.062 343.774 730.734 342.982 731.415 342.545C730.755 342.057 730.106 341.176 729.432 341.148C725.88 341.002 722.321 341.072 718.173 341.066ZM726.157 348.59C727.74 348.064 728.003 346.549 726.45 346.353C722.785 345.893 719.052 346.206 715.346 346.206C715.294 346.862 715.243 347.518 715.191 348.175C718.547 349.103 722.106 348.415 726.157 348.59Z" fill="#508DF4"/>
<path d="M726.534 304.998C727.049 305.114 727.254 305.289 727.54 306.029C727.614 309.623 727.418 312.677 727.687 315.671C727.802 316.954 728.884 318.115 729.562 319.599C731.9 322.467 734.205 325.067 736.318 327.45C737.523 327.056 738.455 326.75 739.388 326.445C739.302 336.309 739.217 346.172 738.755 356.442C737.174 357.276 735.973 358.058 734.765 358.075C726.717 358.187 718.667 358.167 710.618 358.099C709.583 358.091 708.552 357.555 707.519 357.264C707.359 348.797 707.199 340.331 706.981 331.534C707.022 324.243 707.115 317.282 707.223 310.322C707.295 305.658 707.752 305.115 711.616 305.096C716.485 305.073 721.355 305.069 726.534 304.998ZM716.282 331.349C715.899 331.987 715.516 332.626 715.133 333.265C715.773 333.621 716.408 334.27 717.054 334.286C721.038 334.383 725.026 334.428 729.006 334.265C729.846 334.23 730.659 333.255 731.485 332.714C730.594 332.245 729.712 331.405 728.81 331.372C724.829 331.226 720.842 331.313 716.282 331.349ZM724.485 336.3C721.931 336.309 719.373 336.231 716.826 336.395C716.273 336.43 715.76 337.331 715.229 337.833C715.718 338.219 716.202 338.93 716.697 338.939C721.137 339.023 725.58 339.021 730.02 338.926C730.495 338.916 730.959 338.157 731.429 337.745C730.995 337.28 730.589 336.463 730.124 336.413C728.471 336.234 726.798 336.317 724.485 336.3ZM718.173 341.066C717.205 341.576 716.237 342.087 715.268 342.597C716.191 343.018 717.105 343.768 718.038 343.802C721.813 343.939 725.595 343.922 729.371 343.797C730.062 343.774 730.734 342.982 731.415 342.545C730.755 342.057 730.106 341.176 729.432 341.148C725.88 341.002 722.321 341.072 718.173 341.066ZM726.157 348.59C727.74 348.064 728.003 346.549 726.45 346.353C722.785 345.893 719.052 346.206 715.346 346.206C715.294 346.862 715.243 347.518 715.191 348.175C718.547 349.103 722.106 348.415 726.157 348.59Z" fill="#DF484A"/>
<path d="M707.512 357.567C708.552 357.555 709.583 358.091 710.618 358.099C718.667 358.167 726.717 358.187 734.765 358.075C735.973 358.058 737.174 357.276 738.62 356.736C739.918 360.266 738.81 362.765 735.785 362.925C728.397 363.316 721.312 363.888 713.608 363.711C707.519 363.711 708.122 361.91 707.512 357.567Z" fill="#232333" stroke="black"/>
<path d="M729.527 319.331C728.884 318.115 727.802 316.954 727.687 315.671C727.418 312.677 727.614 309.623 727.632 306.228C730.12 308.718 732.598 311.574 735.285 314.53C736.559 315.996 737.624 317.363 738.551 318.976C735.451 319.259 732.489 319.295 729.527 319.331Z" fill="#C9D4FE"/>
<path d="M729.562 319.599C732.489 319.295 735.451 319.259 738.632 319.212C739.053 321.384 739.254 323.568 739.421 326.098C738.455 326.75 737.523 327.056 736.317 327.45C734.205 325.067 731.9 322.467 729.562 319.599Z" fill="#CBD4FA"/>
<path d="M716.57 331.332C720.842 331.313 724.829 331.226 728.81 331.372C729.712 331.405 730.594 332.245 731.485 332.714C730.659 333.255 729.846 334.23 729.006 334.265C725.026 334.428 721.038 334.383 717.054 334.286C716.408 334.27 715.773 333.621 715.133 333.265C715.516 332.626 715.899 331.987 716.57 331.332Z" fill="#C9D4FE"/>
<path d="M724.809 336.301C726.798 336.317 728.471 336.234 730.124 336.413C730.589 336.463 730.995 337.28 731.429 337.745C730.959 338.157 730.495 338.916 730.02 338.926C725.58 339.021 721.137 339.023 716.697 338.939C716.202 338.93 715.718 338.219 715.229 337.833C715.76 337.331 716.273 336.43 716.826 336.395C719.373 336.231 721.931 336.309 724.809 336.301Z" fill="#EBE7FB"/>
<path d="M718.469 341.066C722.321 341.072 725.88 341.002 729.432 341.148C730.106 341.176 730.755 342.057 731.415 342.545C730.734 342.982 730.062 343.774 729.371 343.797C725.595 343.922 721.813 343.939 718.038 343.802C717.105 343.768 716.191 343.018 715.268 342.597C716.237 342.087 717.205 341.577 718.469 341.066Z" fill="#EBE7FB"/>
<path d="M725.855 348.605C722.106 348.415 718.547 349.103 715.191 348.175C715.243 347.518 715.294 346.862 715.346 346.206C719.052 346.206 722.785 345.893 726.45 346.353C728.003 346.549 727.74 348.064 725.855 348.605Z" fill="#EBE7FB"/>
<path d="M715.56 376.142V369.625H717.762C718.273 369.625 718.691 369.718 719.015 369.902C719.342 370.085 719.584 370.332 719.741 370.644C719.898 370.956 719.976 371.303 719.976 371.687C719.976 372.071 719.898 372.42 719.741 372.734C719.586 373.048 719.346 373.299 719.022 373.485C718.697 373.67 718.281 373.762 717.774 373.762H716.196V373.062H717.749C718.099 373.062 718.38 373.002 718.592 372.881C718.804 372.76 718.958 372.596 719.053 372.391C719.151 372.183 719.2 371.948 719.2 371.687C719.2 371.427 719.151 371.193 719.053 370.987C718.958 370.782 718.803 370.62 718.589 370.504C718.375 370.385 718.09 370.326 717.736 370.326H716.349V376.142H715.56ZM723.258 376.142H721.247V369.625H723.348C723.98 369.625 724.521 369.756 724.97 370.017C725.42 370.276 725.765 370.648 726.005 371.134C726.244 371.617 726.364 372.197 726.364 372.871C726.364 373.55 726.243 374.134 726.001 374.624C725.76 375.112 725.407 375.488 724.945 375.751C724.482 376.012 723.92 376.142 723.258 376.142ZM722.037 375.442H723.208C723.746 375.442 724.193 375.338 724.547 375.13C724.901 374.922 725.166 374.627 725.339 374.243C725.513 373.859 725.6 373.401 725.6 372.871C725.6 372.345 725.515 371.892 725.343 371.512C725.171 371.131 724.914 370.838 724.573 370.634C724.231 370.428 723.806 370.326 723.297 370.326H722.037V375.442ZM715.56 387.142V380.625H719.467V381.326H716.349V383.527H719.174V384.228H716.349V387.142H715.56Z" fill="white"/>
<path d="M154.414 84.414L151.878 81.878C151.316 81.316 150.553 81 149.757 81H135C133.895 81 133 81.895 133 83V113C133 114.105 133.895 115 135 115H173C174.105 115 175 114.105 175 113V87C175 85.895 174.105 85 173 85H155.828C155.298 85 154.789 84.789 154.414 84.414Z" fill="url(#paint0_linear_0_1)"/>
<path d="M154 97L157.854 93.146C157.947 93.053 158.074 93 158.207 93H174.81C175.986 93 176.908 94.01 176.802 95.181L175.166 113.181C175.072 114.211 174.208 115 173.174 115H134.79C133.771 115 132.915 114.234 132.802 113.221L131.062 97.555C131.029 97.259 131.261 97 131.559 97H154Z" fill="url(#paint1_linear_0_1)"/>
<path d="M160.908 466.012L158.301 463.697L149.417 474.708H137.396V478.292H149.416L158.301 489.303L160.908 486.988L152.446 476.5L160.908 466.012Z" fill="#64717C"/>
<path d="M136.542 481.875C139.372 481.875 141.667 479.469 141.667 476.5C141.667 473.531 139.372 471.125 136.542 471.125C133.711 471.125 131.417 473.531 131.417 476.5C131.417 479.469 133.711 481.875 136.542 481.875Z" fill="url(#paint2_linear_0_1)"/>
<path d="M159.604 470.229C162.435 470.229 164.729 467.823 164.729 464.854C164.729 461.886 162.435 459.479 159.604 459.479C156.774 459.479 154.479 461.886 154.479 464.854C154.479 467.823 156.774 470.229 159.604 470.229Z" fill="url(#paint3_linear_0_1)"/>
<path d="M159.604 493.521C162.435 493.521 164.729 491.114 164.729 488.146C164.729 485.177 162.435 482.771 159.604 482.771C156.774 482.771 154.479 485.177 154.479 488.146C154.479 491.114 156.774 493.521 159.604 493.521Z" fill="url(#paint4_linear_0_1)"/>
<path d="M172 79.5C170.732 79.5 169.554 78.974 168.684 78.017L168.6 77.925L168.482 77.883C164.306 76.396 161.5 72.424 161.5 68V53.381C161.5 50.766 163.627 48.639 166.242 48.639H177.758C180.373 48.639 182.5 50.766 182.5 53.381V68C182.5 72.424 179.694 76.396 175.518 77.883L175.4 77.925L175.316 78.017C174.446 78.974 173.268 79.5 172 79.5Z" fill="white"/>
<path d="M177.758 49.139C180.097 49.139 182 51.042 182 53.381V68C182 72.213 179.328 75.995 175.35 77.412L175.114 77.496L174.946 77.681C174.172 78.532 173.125 79 172 79C170.875 79 169.828 78.531 169.054 77.68L168.886 77.495L168.65 77.411C164.672 75.995 162 72.213 162 68V53.381C162 51.042 163.903 49.139 166.242 49.139H177.758ZM177.758 48.139H166.242C163.347 48.139 161 50.486 161 53.381V68C161 72.78 164.055 76.837 168.314 78.354C169.229 79.358 170.534 80 172 80C173.466 80 174.771 79.358 175.686 78.353C179.945 76.837 183 72.78 183 68V53.381C183 50.486 180.653 48.139 177.758 48.139Z" fill="#4788C7"/>
<path d="M177.75 65.072C177.572 65.072 177.395 65.1071 177.231 65.1753C177.066 65.2435 176.916 65.3435 176.79 65.4695C176.664 65.5955 176.565 65.7451 176.496 65.9097C176.428 66.0743 176.393 66.2508 176.393 66.429C176.393 66.6072 176.428 66.7837 176.496 66.9483C176.565 67.1129 176.664 67.2625 176.79 67.3885C176.916 67.5146 177.066 67.6145 177.231 67.6827C177.395 67.7509 177.572 67.786 177.75 67.786C177.928 67.786 178.105 67.7509 178.269 67.6827C178.434 67.6145 178.584 67.5146 178.71 67.3885C178.836 67.2625 178.936 67.1129 179.004 66.9483C179.072 66.7837 179.107 66.6072 179.107 66.429C179.107 66.2508 179.072 66.0743 179.004 65.9097C178.936 65.7451 178.836 65.5955 178.71 65.4695C178.584 65.3435 178.434 65.2435 178.269 65.1753C178.105 65.1071 177.928 65.072 177.75 65.072ZM166.893 65.072C166.715 65.072 166.538 65.1071 166.374 65.1753C166.209 65.2435 166.059 65.3435 165.933 65.4695C165.807 65.5955 165.708 65.7451 165.639 65.9097C165.571 66.0743 165.536 66.2508 165.536 66.429C165.536 66.6072 165.571 66.7837 165.639 66.9483C165.708 67.1129 165.807 67.2625 165.933 67.3885C166.059 67.5146 166.209 67.6145 166.374 67.6827C166.538 67.7509 166.715 67.786 166.893 67.786C167.071 67.786 167.248 67.7509 167.412 67.6827C167.577 67.6145 167.727 67.5146 167.853 67.3885C167.979 67.2625 168.079 67.1129 168.147 66.9483C168.215 66.7837 168.25 66.6072 168.25 66.429C168.25 66.2508 168.215 66.0743 168.147 65.9097C168.079 65.7451 167.979 65.5955 167.853 65.4695C167.727 65.3435 167.577 65.2435 167.412 65.1753C167.248 65.1071 167.071 65.072 166.893 65.072Z" fill="#4788C7"/>
<path d="M184 78.5C181.214 78.5 178.642 77.501 177.407 76.934C179.006 75.814 182.5 72.792 182.5 67.787V60.883C182.5 57.109 178.427 54.672 178.253 54.57L177.807 54.307L177.56 54.762C177.534 54.81 174.865 59.582 168.181 60.505C164.963 60.95 161.5 63.236 161.5 67.204L162.5 67.287L161.5 67.264V67.786C161.5 72.858 165.332 75.996 167.122 77.185C165.783 77.679 163.221 78.5 161 78.5C157.136 78.5 155.235 76.714 154.634 76.007C155.441 74.973 157.892 71.626 157.892 69.144C157.892 67.803 157.582 66.258 157.254 64.623C156.884 62.772 156.5 60.86 156.5 59C156.5 48.672 163.854 42.5 170.964 42.5C176.304 42.5 178.547 46.216 178.568 46.253L178.714 46.5H179C183.605 46.5 188.5 50.18 188.5 57C188.5 59.219 188.014 61.549 187.543 63.803C187.135 65.758 186.75 67.604 186.75 69.144C186.75 72.232 189.86 74.984 191.162 76.001C190.038 76.786 187.216 78.5 184 78.5Z" fill="#B6DCFE"/>
<path d="M170.964 43C175.972 43 178.054 46.367 178.137 46.506L178.427 47H179C183.363 47 188 50.505 188 57C188 59.167 187.519 61.472 187.054 63.7C186.641 65.681 186.25 67.552 186.25 69.143C186.25 72.064 188.795 74.663 190.321 75.959C189.021 76.78 186.643 78 184 78C181.798 78 179.727 77.35 178.394 76.814C180.211 75.353 183 72.364 183 67.786V60.882C183 56.825 178.69 54.246 178.507 54.138L177.613 53.613L177.121 54.526C177.096 54.572 174.575 59.118 168.114 60.01C164.687 60.483 161 62.936 161 67.204V67.264V67.786C161 72.415 164.035 75.496 166.048 77.031C164.671 77.484 162.722 78 161 78C157.808 78 156.045 76.721 155.29 75.977C156.312 74.623 158.393 71.57 158.393 69.143C158.393 67.753 158.078 66.184 157.745 64.524C157.379 62.698 157 60.811 157 59C157 48.985 164.1 43 170.964 43ZM170.964 42C163.53 42 156 48.471 156 59C156 62.586 157.393 66.382 157.393 69.143C157.393 71.904 154 76 154 76C154 76 155.925 79 161 79C164.303 79 168.246 77.281 168.246 77.281C168.246 77.281 162 74.035 162 67.786C162 67.342 162 67.264 162 67.264V67.287C162 67.287 162 67.27 162 67.204C162 63.526 165.242 61.416 168.25 61C175.288 60.028 178 55 178 55C178 55 182 57.35 182 60.882C182 62.409 182 65.279 182 67.786C182 73.916 176.393 76.988 176.393 76.988C176.393 76.988 179.945 79 184 79C188.392 79 192 76 192 76C192 76 187.25 72.746 187.25 69.143C187.25 65.942 189 61.243 189 57C189 49.804 183.726 46 179 46C179 46 176.652 42 170.964 42Z" fill="#4788C7"/>
<path d="M501.102 77.8793L501.184 78.4198L502.941 78.2396C502.941 78.5484 503.922 78.9859 504.781 79.0889C505.639 79.1919 507.356 79.3977 507.356 79.0117C507.356 78.6256 508.133 78.7543 508.133 78.7543L521.867 79.9124L522.317 69.1806L498.894 67.8927L490.106 76.3609L500.611 77.7506L501.102 77.8793Z" fill="#2F2210"/>
<path d="M488.103 75.1256C487.49 75.7432 485.773 76.4381 489.084 76.9013C492.395 77.3646 500.611 78.9087 501.102 78.9087C501.592 78.9087 502.451 78.9087 503.064 78.9087C503.677 78.9087 506.375 79.6036 506.988 79.6808C507.601 79.758 523.911 81.0705 524.892 81.0705C525.873 81.0705 526.732 80.8389 526.609 80.0668C526.487 79.2948 526.119 70.4931 525.996 69.9527C525.873 69.4122 525.383 69.1806 524.279 69.1034C523.176 69.0262 500.734 67.9453 499.385 67.7909C498.036 67.6365 496.81 67.6365 496.319 67.9453C495.829 68.2541 488.103 75.1256 488.103 75.1256Z" fill="#6B1804"/>
<path d="M490.801 76.3609L490.31 75.5888L499.385 67.096L509.195 67.6895L503.064 77.0558L503.432 77.7506L490.801 76.3609Z" fill="#FCF9F4"/>
<path d="M503.432 77.7506L490.801 76.3609L490.31 75.5888L503.064 77.0558L509.195 67.6895V68.3314L503.432 77.7506Z" fill="#CFC8C8"/>
<path d="M505.394 77.3646L520.478 78.7543L520.11 79.6036L505.394 78.1367V77.3646Z" fill="#CFC8C8"/>
<path d="M510.912 68.0997L521.459 68.6402L520.478 78.7543L505.394 77.3646L510.912 68.0997Z" fill="#F7F8F8"/>
<path d="M497.055 70.2615L495.583 71.8057H494.48L494.357 71.0336L495.215 70.3387L497.055 70.2615Z" fill="#EAB368"/>
<path d="M497.791 68.6402L497.055 68.4858L496.278 69.1806H497.259L497.791 68.6402Z" fill="#DE4E59"/>
<path d="M496.074 70.2615L495.215 70.3387L496.278 69.1806H497.055L496.074 70.2615Z" fill="#448F6E"/>
<path d="M503.003 75.3186C503.738 74.9326 506.068 74.8554 506.804 75.6274" stroke="black" stroke-width="4" stroke-linecap="round"/>
<path d="M503.984 74.0061C504.719 73.6201 507.049 73.5428 507.785 74.3149" stroke="black" stroke-width="4" stroke-linecap="round"/>
<path d="M504.842 72.7464C505.578 72.3603 507.908 72.2831 508.644 73.0552" stroke="black" stroke-width="4" stroke-linecap="round"/>
<path d="M506.804 69.9913C507.484 69.6053 509.639 69.5281 510.32 70.3001" stroke="black" stroke-width="4" stroke-linecap="round"/>
<path d="M507.417 68.9104C508.098 68.5244 510.252 68.4472 510.933 69.2192" stroke="black" stroke-width="4" stroke-linecap="round"/>
<path d="M507.785 68.2155C508.466 67.8295 510.62 67.7523 511.301 68.5244" stroke="black" stroke-width="4" stroke-linecap="round"/>
<path d="M521.009 76.3609L522.194 76.4124L522.317 75.4859H520.764L520.682 76.2065L521.009 76.3609Z" fill="#DE4E59"/>
<path d="M520.641 77.5447H522.113L522.194 76.4124H520.723L520.641 77.5447Z" fill="#448F6E"/>
<path d="M520.764 75.4859H522.317V74.4307L520.927 74.2763L520.764 75.4859Z" fill="#EAB368"/>
<path d="M520.886 74.8425H521.581V74.5336L522.44 74.4307L522.317 73.4785L521.581 73.4013V73.0166H521.05L520.886 74.8425Z" fill="#A4709F"/>
<path d="M520.478 78.7543H521.827L521.867 77.5447H520.641L520.478 78.7543Z" fill="#64749B"/>
<path d="M494.48 71.8057H493.989L492.354 73.1439H492.967L494.48 71.8057Z" fill="#64749B"/>
<path d="M498.445 68.0997H497.791L497.055 68.4858L497.791 68.6402L498.445 68.0997Z" fill="#A4709F"/>
<path d="M506.436 76.9915L519.803 78.1496Z" fill="#EAB368"/>
<path d="M506.436 76.9915L519.803 78.1496" stroke="#A89696" stroke-width="2" stroke-linecap="round"/>
<path d="M506.559 76.6311L519.926 77.7892Z" fill="#EAB368"/>
<path d="M506.559 76.6311L519.926 77.7892" stroke="#A89696" stroke-width="2" stroke-linecap="round"/>
<path d="M506.804 76.2451L519.926 77.4032Z" fill="#EAB368"/>
<path d="M506.804 76.2451L519.926 77.4032" stroke="#A89696" stroke-width="2" stroke-linecap="round"/>
<path d="M507.009 75.8333L519.926 76.9657Z" fill="#EAB368"/>
<path d="M507.009 75.8333L519.926 76.9657" stroke="#A89696" stroke-width="2" stroke-linecap="round"/>
<path d="M507.417 75.4215L519.803 76.451Z" fill="#EAB368"/>
<path d="M507.417 75.4215L519.803 76.451" stroke="#A89696" stroke-width="2" stroke-linecap="round"/>
<path d="M492.19 74.8033L502.001 75.8584Z" fill="#EAB368"/>
<path d="M492.19 74.8033L502.001 75.8584" stroke="#A89696" stroke-width="2" stroke-linecap="round"/>
<path d="M492.599 74.3149L502.41 75.3701Z" fill="#EAB368"/>
<path d="M492.599 74.3149L502.41 75.3701" stroke="#A89696" stroke-width="2" stroke-linecap="round"/>
<path d="M492.906 73.9791L502.716 75.0343Z" fill="#EAB368"/>
<path d="M492.906 73.9791L502.716 75.0343" stroke="#A89696" stroke-width="2" stroke-linecap="round"/>
<path d="M493.192 73.7218L503.003 74.7769Z" fill="#EAB368"/>
<path d="M493.192 73.7218L503.003 74.7769" stroke="#A89696" stroke-width="2" stroke-linecap="round"/>
<path d="M493.437 73.4405L503.248 74.4957Z" fill="#EAB368"/>
<path d="M493.437 73.4405L503.248 74.4957" stroke="#A89696" stroke-width="2" stroke-linecap="round"/>
<path d="M493.928 73.0552L503.738 74.1104Z" fill="#EAB368"/>
<path d="M493.928 73.0552L503.738 74.1104" stroke="#A89696" stroke-width="2" stroke-linecap="round"/>
<path d="M494.296 72.6666L504.106 73.7218Z" fill="#EAB368"/>
<path d="M494.296 72.6666L504.106 73.7218" stroke="#A89696" stroke-width="2" stroke-linecap="round"/>
<path d="M494.541 72.3854L504.351 73.4405Z" fill="#EAB368"/>
<path d="M494.541 72.3854L504.351 73.4405" stroke="#A89696" stroke-width="2" stroke-linecap="round"/>
<path d="M495.031 72.1274L504.842 73.1825Z" fill="#EAB368"/>
<path d="M495.031 72.1274L504.842 73.1825" stroke="#A89696" stroke-width="2" stroke-linecap="round"/>
<path d="M495.277 71.8443L504.351 72.7965Z" fill="#EAB368"/>
<path d="M495.277 71.8443L504.351 72.7965" stroke="#A89696" stroke-width="2" stroke-linecap="round"/>
<path d="M495.645 71.2266L505.455 72.2818Z" fill="#EAB368"/>
<path d="M495.645 71.2266L505.455 72.2818" stroke="#A89696" stroke-width="2" stroke-linecap="round"/>
<path d="M495.89 70.9435L505.7 71.9987Z" fill="#EAB368"/>
<path d="M495.89 70.9435L505.7 71.9987" stroke="#A89696" stroke-width="2" stroke-linecap="round"/>
<path d="M496.34 70.6605L506.15 71.7156Z" fill="#EAB368"/>
<path d="M496.34 70.6605L506.15 71.7156" stroke="#A89696" stroke-width="2" stroke-linecap="round"/>
<path d="M496.626 70.3773L506.436 71.4325Z" fill="#EAB368"/>
<path d="M496.626 70.3773L506.436 71.4325" stroke="#A89696" stroke-width="2" stroke-linecap="round"/>
<path d="M499.201 67.9313L507.622 68.5244Z" fill="#EAB368"/>
<path d="M499.201 67.9313L507.622 68.5244" stroke="#A89696" stroke-width="2" stroke-linecap="round"/>
<path d="M497.116 69.8626L506.559 70.7622Z" fill="#EAB368"/>
<path d="M497.116 69.8626L506.559 70.7622" stroke="#A89696" stroke-width="2" stroke-linecap="round"/>
<path d="M498.956 68.37L507.009 68.9619Z" fill="#EAB368"/>
<path d="M498.956 68.37L507.009 68.9619" stroke="#A89696" stroke-width="2" stroke-linecap="round"/>
<path d="M497.688 69.5538L506.722 70.3773Z" fill="#EAB368"/>
<path d="M497.688 69.5538L506.722 70.3773" stroke="#A89696" stroke-width="2" stroke-linecap="round"/>
<path d="M498.179 69.2192L506.559 69.9913Z" fill="#EAB368"/>
<path d="M498.179 69.2192L506.559 69.9913" stroke="#A89696" stroke-width="2" stroke-linecap="round"/>
<path d="M498.506 68.6788L507.417 69.4345Z" fill="#EAB368"/>
<path d="M498.506 68.6788L507.417 69.4345" stroke="#A89696" stroke-width="2" stroke-linecap="round"/>
<path d="M507.785 75.0343L519.926 76.065Z" fill="#EAB368"/>
<path d="M507.785 75.0343L519.926 76.065" stroke="#A89696" stroke-width="2" stroke-linecap="round"/>
<path d="M507.99 74.598L519.926 75.6274Z" fill="#EAB368"/>
<path d="M507.99 74.598L519.926 75.6274" stroke="#A89696" stroke-width="2" stroke-linecap="round"/>
<path d="M508.398 73.992L520.13 75.0343Z" fill="#EAB368"/>
<path d="M508.398 73.992L520.13 75.0343" stroke="#A89696" stroke-width="2" stroke-linecap="round"/>
<path d="M508.644 73.5557L520.13 74.4957Z" fill="#EAB368"/>
<path d="M508.644 73.5557L520.13 74.4957" stroke="#A89696" stroke-width="2" stroke-linecap="round"/>
<path d="M511.587 68.4015L520.989 68.9619Z" fill="#EAB368"/>
<path d="M511.587 68.4015L520.989 68.9619" stroke="#A89696" stroke-width="2" stroke-linecap="round"/>
<path d="M511.301 68.8741L520.989 69.4345Z" fill="#EAB368"/>
<path d="M511.301 68.8741L520.989 69.4345" stroke="#A89696" stroke-width="2" stroke-linecap="round"/>
<path d="M510.933 69.5181L520.784 70.0685Z" fill="#EAB368"/>
<path d="M510.933 69.5181L520.784 70.0685" stroke="#A89696" stroke-width="2" stroke-linecap="round"/>
<path d="M510.728 69.8626L520.784 70.413Z" fill="#EAB368"/>
<path d="M510.728 69.8626L520.784 70.413" stroke="#A89696" stroke-width="2" stroke-linecap="round"/>
<path d="M510.32 70.6297L520.539 71.2266Z" fill="#EAB368"/>
<path d="M510.32 70.6297L520.539 71.2266" stroke="#A89696" stroke-width="2" stroke-linecap="round"/>
<path d="M509.993 70.9435L520.498 71.6384Z" fill="#EAB368"/>
<path d="M509.993 70.9435L520.498 71.6384" stroke="#A89696" stroke-width="2" stroke-linecap="round"/>
<path d="M509.747 71.2266L520.416 71.973Z" fill="#EAB368"/>
<path d="M509.747 71.2266L520.416 71.973" stroke="#A89696" stroke-width="2" stroke-linecap="round"/>
<path d="M509.625 71.5869L520.416 72.3854Z" fill="#EAB368"/>
<path d="M509.625 71.5869L520.416 72.3854" stroke="#A89696" stroke-width="2" stroke-linecap="round"/>
<path d="M509.339 71.9212L520.334 72.7454Z" fill="#EAB368"/>
<path d="M509.339 71.9212L520.334 72.7454" stroke="#A89696" stroke-width="2" stroke-linecap="round"/>
<path d="M509.257 73.1825L520.13 74.0528Z" fill="#EAB368"/>
<path d="M509.257 73.1825L520.13 74.0528" stroke="#A89696" stroke-width="2" stroke-linecap="round"/>
<path d="M509.257 72.6855L520.13 73.5299Z" fill="#EAB368"/>
<path d="M509.257 72.6855L520.13 73.5299" stroke="#A89696" stroke-width="2" stroke-linecap="round"/>
<path d="M526.294 75.2285C527.345 75.2285 529.92 74.1759 529.798 73.4019C529.675 72.628 529.552 71.7285 529.307 71.3939C529.062 71.0593 527.1 69.8574 526.078 69.6684C525.056 69.4795 525.138 70.2591 525.587 70.7235C526.037 71.188 526.253 71.4196 526.621 71.5483C526.989 71.677 528.367 72.232 528.163 72.7068C527.958 73.1815 526.16 73.4019 526.16 73.4019L526.294 75.2285Z" fill="#5F1806"/>
<g clip-path="url(#clip1_0_1)">
<path d="M858.654 474.514C856.891 474.514 855.145 474.858 853.516 475.527C851.887 476.195 850.407 477.176 849.161 478.412C847.914 479.648 846.925 481.115 846.25 482.729C845.576 484.344 845.229 486.075 845.229 487.823C845.229 491.352 846.643 494.737 849.161 497.233C851.679 499.729 855.093 501.131 858.654 501.131C862.214 501.131 865.629 499.729 868.146 497.233C870.664 494.737 872.079 491.352 872.079 487.823C872.079 486.075 871.732 484.344 871.057 482.729C870.382 481.115 869.393 479.648 868.147 478.412C866.9 477.176 865.42 476.195 863.791 475.527C862.162 474.858 860.417 474.514 858.654 474.514ZM858.654 475.359C860.305 475.359 861.94 475.681 863.465 476.307C864.99 476.934 866.376 477.852 867.544 479.009C868.711 480.167 869.638 481.541 870.269 483.053C870.901 484.565 871.226 486.186 871.226 487.823C871.226 491.128 869.902 494.298 867.544 496.635C865.186 498.973 861.988 500.286 858.654 500.286C855.319 500.286 852.121 498.973 849.764 496.635C847.406 494.298 846.081 491.128 846.081 487.823C846.081 486.186 846.406 484.565 847.038 483.053C847.67 481.541 848.596 480.167 849.763 479.009C850.931 477.852 852.317 476.934 853.842 476.307C855.368 475.681 857.003 475.359 858.654 475.359Z" fill="#4183D7"/>
<path d="M858.654 499.85C865.354 499.85 870.786 494.465 870.786 487.822C870.786 481.18 865.354 475.795 858.654 475.795C851.953 475.795 846.522 481.18 846.522 487.822C846.522 494.465 851.953 499.85 858.654 499.85Z" fill="#6BB9F0"/>
<path d="M850.484 471.71C848.463 472.663 847.421 474.908 848.005 477.052C851.217 476.062 853.826 474.675 856.256 473.171C854.933 471.374 852.507 470.76 850.484 471.71Z" fill="#6BB9F0"/>
<path d="M850.556 470.632C850.433 470.376 850.124 470.267 849.867 470.388C849.61 470.51 849.501 470.817 849.625 471.073L849.694 471.217C849.818 471.473 850.127 471.582 850.384 471.46C850.641 471.338 850.75 471.032 850.626 470.776L850.556 470.632Z" fill="#6BB9F0"/>
<path d="M850.454 498.935L849.375 501.406C849.104 502.026 849.177 502.709 849.71 503.021C850.242 503.333 850.896 503.077 851.298 502.531L852.906 500.346C852.041 499.963 851.219 499.49 850.454 498.935Z" fill="#6BB9F0"/>
<path d="M867.136 498.935L868.215 501.406C868.486 502.026 868.413 502.709 867.88 503.021C867.347 503.333 866.694 503.077 866.292 502.531L864.684 500.346C865.549 499.963 866.371 499.49 867.136 498.935Z" fill="#6BB9F0"/>
<path d="M867.26 471.71C869.282 472.663 870.324 474.908 869.739 477.052C866.528 476.062 863.919 474.675 861.488 473.171C862.812 471.374 865.238 470.76 867.26 471.71Z" fill="#6BB9F0"/>
<path d="M867.188 470.632C867.312 470.376 867.621 470.267 867.878 470.388C868.135 470.51 868.243 470.817 868.12 471.073L868.05 471.217C867.927 471.473 867.618 471.582 867.361 471.46C867.104 471.338 866.995 471.032 867.119 470.776L867.188 470.632Z" fill="#6BB9F0"/>
<path d="M858.597 477.012L857.658 478.376H858.179V487.371V488.242V488.252H859.047V488.242H865.669V488.727L867.052 487.795L865.669 486.864V487.381H859.047V487.371V478.376H859.536L858.597 477.012Z" fill="#22313F"/>
</g>
<path d="M791 194.27L797.18 198L795.54 190.97L801 186.24L793.81 185.63L791 179L788.19 185.63L781 186.24L786.46 190.97L784.82 198L791 194.27Z" fill="#FBBC04"/>
<g clip-path="url(#clip2_0_1)">
<path d="M128 252C130.626 252 133.227 252.44 135.654 253.294C138.08 254.148 140.285 255.401 142.142 256.979C143.999 258.558 145.472 260.432 146.478 262.494C147.474 264.518 147.995 266.744 148 269C148 271.233 147.483 273.443 146.478 275.506C145.472 277.568 143.999 279.442 142.142 281.021C140.285 282.599 138.08 283.851 135.654 284.706C133.194 285.566 130.606 286.004 128 286V252Z" fill="#985184"/>
<path d="M143 252C145.626 252 148.227 252.44 150.654 253.294C153.08 254.148 155.285 255.401 157.142 256.979C158.999 258.558 160.472 260.432 161.478 262.494C162.474 264.518 162.995 266.744 163 269C163 271.233 162.483 273.443 161.478 275.506C160.472 277.568 158.999 279.442 157.142 281.021C155.285 282.599 153.08 283.851 150.654 284.706C148.194 285.566 145.606 286.004 143 286V252Z" fill="#2EBCFA"/>
<path d="M143 257.756C144.457 259.16 145.633 260.761 146.478 262.495C147.474 264.519 147.995 266.744 148 269C148 271.233 147.483 273.443 146.478 275.506C145.633 277.24 144.457 278.841 143 280.245V257.756Z" fill="#144496"/>
<path d="M158 252C160.626 252 163.227 252.44 165.654 253.294C168.08 254.148 170.285 255.401 172.142 256.979C173.999 258.558 175.472 260.432 176.478 262.494C177.474 264.518 177.995 266.744 178 269C178 271.233 177.483 273.443 176.478 275.506C175.472 277.568 173.999 279.442 172.142 281.021C170.285 282.599 168.08 283.851 165.654 284.706C163.194 285.566 160.606 286.004 158 286V252Z" fill="#FC868B"/>
<path d="M158 257.756C159.457 259.16 160.633 260.761 161.478 262.495C162.474 264.519 162.995 266.744 163 269C163 271.233 162.483 273.443 161.478 275.506C160.633 277.24 159.457 278.841 158 280.245V257.756Z" fill="#2D6388"/>
</g>
<path d="M517 487C517 488.857 516.263 490.637 514.95 491.95C513.637 493.263 511.857 494 510 494C508.143 494 506.363 493.263 505.05 491.95C503.737 490.637 503 488.857 503 487C503 485.143 503.737 483.363 505.05 482.05C506.363 480.737 508.143 480 510 480C511.857 480 513.637 480.737 514.95 482.05C516.263 483.363 517 485.143 517 487Z" fill="#985184"/>
<path d="M510 508C498.402 508 489 498.598 489 487C489 475.402 498.402 466 510 466C521.598 466 531 475.402 531 487C531 492.799 528.65 498.049 524.85 501.85L518.485 495.485C519.601 494.372 520.486 493.049 521.089 491.593C521.692 490.137 522.002 488.576 522 487C522 480.373 516.627 475 510 475C503.373 475 498 480.373 498 487C498 493.627 503.373 499 510 499V508Z" fill="#1AD3BB"/>
<path fill-rule="evenodd" clip-rule="evenodd" d="M510 499C506.885 499.004 503.891 497.793 501.655 495.623C501.102 496.989 500.893 498.471 501.046 499.937C501.2 501.403 501.711 502.809 502.535 504.031C503.359 505.254 504.471 506.255 505.773 506.947C507.074 507.639 508.526 508 510 508H523C523 506.818 522.767 505.648 522.315 504.556C521.863 503.464 521.2 502.472 520.364 501.636C519.528 500.8 518.536 500.137 517.444 499.685C516.352 499.233 515.182 499 514 499H510Z" fill="#985184"/>
<path d="M852 59C852 64.523 847.523 69 842 69C836.477 69 832 64.523 832 59C832 53.477 836.477 49 842 49C847.523 49 852 53.477 852 59Z" fill="#2EBCFA"/>
<path d="M867 67C867 67.6566 866.871 68.3068 866.619 68.9134C866.368 69.52 866 70.0712 865.536 70.5355C865.071 70.9998 864.52 71.3681 863.913 71.6194C863.307 71.8707 862.657 72 862 72C861.343 72 860.693 71.8707 860.087 71.6194C859.48 71.3681 858.929 70.9998 858.464 70.5355C858 70.0712 857.632 69.52 857.381 68.9134C857.129 68.3068 857 67.6566 857 67C857 65.6739 857.527 64.4021 858.464 63.4645C859.402 62.5268 860.674 62 862 62C863.326 62 864.598 62.5268 865.536 63.4645C866.473 64.4021 867 65.6739 867 67ZM840 74H866C867.061 74 868.078 74.4214 868.828 75.1716C869.579 75.9217 870 76.9391 870 78V83C870 84.0609 869.579 85.0783 868.828 85.8284C868.078 86.5786 867.061 87 866 87H844C842.939 87 841.922 86.5786 841.172 85.8284C840.421 85.0783 840 84.0609 840 83V74Z" fill="#144496"/>
<path d="M828 74H844C851.18 74 857 79.82 857 87H841C833.82 87 828 81.18 828 74Z" fill="#2EBCFA"/>
<path d="M841.617 65H842.404V63.862C844.558 63.73 846 62.668 846 60.905V60.891C846 59.337 845.003 58.559 843.038 58.129L842.404 57.997V55.984C843.094 56.095 843.547 56.477 843.644 57.123L843.652 57.137L845.84 57.13L845.847 57.123C845.77 55.436 844.509 54.312 842.404 54.166V53H841.617V54.16C839.567 54.256 838.097 55.311 838.097 57.046V57.06C838.097 58.622 839.129 59.462 840.99 59.871L841.617 60.003V62.057C840.801 61.981 840.327 61.641 840.216 61.03L840.209 61.016L838.014 61.023L838 61.03C838.056 62.807 839.491 63.785 841.617 63.869V65ZM840.432 56.873V56.859C840.432 56.359 840.836 56.039 841.617 55.97V57.817C840.808 57.601 840.432 57.331 840.432 56.873ZM843.666 61.155V61.169C843.666 61.703 843.212 61.988 842.404 62.057V60.177C843.31 60.405 843.666 60.641 843.666 61.155Z" fill="white"/>
</g>
<defs>
<linearGradient id="paint0_linear_0_1" x1="154" y1="80.955" x2="154" y2="97.167" gradientUnits="userSpaceOnUse">
<stop stop-color="#EBA600"/>
<stop offset="1" stop-color="#C28200"/>
</linearGradient>
<linearGradient id="paint1_linear_0_1" x1="153.934" y1="93.228" x2="153.934" y2="107.821" gradientUnits="userSpaceOnUse">
<stop stop-color="#FFD869"/>
<stop offset="1" stop-color="#FEC52B"/>
</linearGradient>
<linearGradient id="paint2_linear_0_1" x1="131.836" y1="471.999" x2="141.315" y2="480.241" gradientUnits="userSpaceOnUse">
<stop stop-color="#33BEF0"/>
<stop offset="1" stop-color="#0A85D9"/>
</linearGradient>
<linearGradient id="paint3_linear_0_1" x1="155.319" y1="460.538" x2="162.996" y2="467.568" gradientUnits="userSpaceOnUse">
<stop stop-color="#33BEF0"/>
<stop offset="1" stop-color="#0A85D9"/>
</linearGradient>
<linearGradient id="paint4_linear_0_1" x1="155.721" y1="483.9" x2="164.649" y2="492.775" gradientUnits="userSpaceOnUse">
<stop stop-color="#33BEF0"/>
<stop offset="1" stop-color="#0A85D9"/>
</linearGradient>
<clipPath id="clip0_0_1">
<rect width="962" height="610" fill="white"/>
</clipPath>
<clipPath id="clip1_0_1">
<rect width="31" height="36" fill="white" transform="translate(843 469)"/>
</clipPath>
<clipPath id="clip2_0_1">
<rect width="50" height="50" fill="white" transform="translate(128 244)"/>
</clipPath>
</defs>
</svg>
