<svg xmlns="http://www.w3.org/2000/svg" width="20" height="20" viewBox="0 0 20 20">
  <g id="Group_68511" data-name="Group 68511" transform="translate(-999 -355.3)">
    <g id="Group_25" data-name="Group 25" transform="translate(999 355.3)">
      <path id="Path_37" data-name="Path 37" d="M15,8H14V5.913A3.866,3.866,0,0,0,10.192,2,3.751,3.751,0,0,0,6.385,5.773c0,.377,0,.95-.008,1.492l0,.735H5A1,1,0,0,0,4,9v8a1,1,0,0,0,1,1H15a1,1,0,0,0,1-1V9a1,1,0,0,0-1-1M7.377,7.272c0-.545.008-1.12.008-1.5A2.76,2.76,0,0,1,10.192,3,2.865,2.865,0,0,1,13,5.913V8H7.374ZM15,17.5V17H5V9H15v8h0Z" fill="#606060"/>
    </g>
    <rect id="Rectangle_20378" data-name="Rectangle 20378" width="20" height="20" transform="translate(999 355.3)" fill="none"/>
  </g>
</svg>
