<svg xmlns="http://www.w3.org/2000/svg" width="20" height="20" viewBox="0 0 20 20">
  <g id="Group_68508" data-name="Group 68508" transform="translate(-998.8 -307.3)">
    <g id="Group_68507" data-name="Group 68507">
      <path id="Path_40" data-name="Path 40" d="M10,9.009a3.5,3.5,0,1,1,3.5-3.5,3.5,3.5,0,0,1-3.5,3.5m0-6a2.5,2.5,0,1,0,2.5,2.5,2.5,2.5,0,0,0-2.5-2.5" transform="translate(998.75 307.29)" fill="#606060"/>
      <path id="Path_41" data-name="Path 41" d="M16.045,17.991h-1V14.506a3.189,3.189,0,0,0-3.185-3.185H8.14a3.189,3.189,0,0,0-3.185,3.185v3.485h-1V14.506A4.189,4.189,0,0,1,8.14,10.321h3.72a4.189,4.189,0,0,1,4.185,4.185Z" transform="translate(998.75 307.29)" fill="#606060"/>
    </g>
    <rect id="Rectangle_20375" data-name="Rectangle 20375" width="20" height="20" transform="translate(998.8 307.3)" fill="none"/>
  </g>
</svg>
